<?xml version="1.0" encoding="utf-8" standalone="no"?>
<!DOCTYPE svg PUBLIC "-//W3C//DTD SVG 1.1//EN"
  "http://www.w3.org/Graphics/SVG/1.1/DTD/svg11.dtd">
<svg xmlns:xlink="http://www.w3.org/1999/xlink" width="1482.39pt" height="360pt" viewBox="0 0 1482.39 360" xmlns="http://www.w3.org/2000/svg" version="1.1">
 <metadata>
  <rdf:RDF xmlns:dc="http://purl.org/dc/elements/1.1/" xmlns:cc="http://creativecommons.org/ns#" xmlns:rdf="http://www.w3.org/1999/02/22-rdf-syntax-ns#">
   <cc:Work>
    <dc:type rdf:resource="http://purl.org/dc/dcmitype/StillImage"/>
    <dc:date>2024-08-28T23:48:09.564228</dc:date>
    <dc:format>image/svg+xml</dc:format>
    <dc:creator>
     <cc:Agent>
      <dc:title>Matplotlib v3.8.4, https://matplotlib.org/</dc:title>
     </cc:Agent>
    </dc:creator>
   </cc:Work>
  </rdf:RDF>
 </metadata>
 <defs>
  <style type="text/css">*{stroke-linejoin: round; stroke-linecap: butt}</style>
 </defs>
 <g id="figure_1">
  <g id="patch_1">
   <path d="M 0 360 
L 1482.39 360 
L 1482.39 0 
L 0 0 
z
" style="fill: #ffffff"/>
  </g>
  <g id="axes_1">
   <g id="patch_2">
    <path d="M 66.98 318.04 
L 1414.3761 318.04 
L 1414.3761 10.8 
L 66.98 10.8 
z
" style="fill: #ffffff"/>
   </g>
   <g id="PolyCollection_1">
    <defs>
     <path id="m945002d7e4" d="M 128.225277 -41.978373 
L 128.225277 -41.96 
L 134.380582 -41.96 
L 140.535886 -41.96 
L 146.69119 -41.96 
L 152.846494 -41.96 
L 159.001799 -41.96 
L 165.157103 -41.96 
L 171.312407 -41.96 
L 177.467711 -41.96 
L 183.623016 -41.96 
L 189.77832 -41.96 
L 195.933624 -41.96 
L 202.088928 -41.96 
L 208.244233 -41.96 
L 214.399537 -41.96 
L 220.554841 -41.96 
L 226.710145 -41.96 
L 232.865449 -41.96 
L 239.020754 -41.96 
L 245.176058 -41.96 
L 251.331362 -41.96 
L 257.486666 -41.96 
L 263.641971 -41.96 
L 269.797275 -41.96 
L 275.952579 -41.96 
L 282.107883 -41.96 
L 288.263188 -41.96 
L 294.418492 -41.96 
L 300.573796 -41.96 
L 306.7291 -41.96 
L 312.884405 -41.96 
L 319.039709 -41.96 
L 325.195013 -41.96 
L 331.350317 -41.96 
L 337.505622 -41.96 
L 343.660926 -41.96 
L 349.81623 -41.96 
L 355.971534 -41.96 
L 362.126839 -41.96 
L 368.282143 -41.96 
L 374.437447 -41.96 
L 380.592751 -41.96 
L 386.748056 -41.96 
L 392.90336 -41.96 
L 399.058664 -41.96 
L 405.213968 -41.96 
L 411.369273 -41.96 
L 417.524577 -41.96 
L 423.679881 -41.96 
L 429.835185 -41.96 
L 435.99049 -41.96 
L 442.145794 -41.96 
L 448.301098 -41.96 
L 454.456402 -41.96 
L 460.611707 -41.96 
L 466.767011 -41.96 
L 472.922315 -41.96 
L 479.077619 -41.96 
L 485.232924 -41.96 
L 491.388228 -41.96 
L 497.543532 -41.96 
L 503.698836 -41.96 
L 509.854141 -41.96 
L 516.009445 -41.96 
L 522.164749 -41.96 
L 528.320053 -41.96 
L 534.475358 -41.96 
L 540.630662 -41.96 
L 546.785966 -41.96 
L 552.94127 -41.96 
L 559.096575 -41.96 
L 565.251879 -41.96 
L 571.407183 -41.96 
L 577.562487 -41.96 
L 583.717792 -41.96 
L 589.873096 -41.96 
L 596.0284 -41.96 
L 602.183704 -41.96 
L 608.339009 -41.96 
L 614.494313 -41.96 
L 620.649617 -41.96 
L 626.804921 -41.96 
L 632.960226 -41.96 
L 639.11553 -41.96 
L 645.270834 -41.96 
L 651.426138 -41.96 
L 657.581443 -41.96 
L 663.736747 -41.96 
L 669.892051 -41.96 
L 676.047355 -41.96 
L 682.20266 -41.96 
L 688.357964 -41.96 
L 694.513268 -41.96 
L 700.668572 -41.96 
L 706.823877 -41.96 
L 712.979181 -41.96 
L 719.134485 -41.96 
L 725.289789 -41.96 
L 731.445094 -41.96 
L 737.600398 -41.96 
L 743.755702 -41.96 
L 749.911006 -41.96 
L 756.066311 -41.96 
L 762.221615 -41.96 
L 768.376919 -41.96 
L 774.532223 -41.96 
L 780.687528 -41.96 
L 786.842832 -41.96 
L 792.998136 -41.96 
L 799.15344 -41.96 
L 805.308745 -41.96 
L 811.464049 -41.96 
L 817.619353 -41.96 
L 823.774657 -41.96 
L 829.929962 -41.96 
L 836.085266 -41.96 
L 842.24057 -41.96 
L 848.395874 -41.96 
L 854.551179 -41.96 
L 860.706483 -41.96 
L 866.861787 -41.96 
L 873.017091 -41.96 
L 879.172396 -41.96 
L 885.3277 -41.96 
L 891.483004 -41.96 
L 897.638308 -41.96 
L 903.793613 -41.96 
L 909.948917 -41.96 
L 916.104221 -41.96 
L 922.259525 -41.96 
L 928.41483 -41.96 
L 934.570134 -41.96 
L 940.725438 -41.96 
L 946.880742 -41.96 
L 953.036047 -41.96 
L 959.191351 -41.96 
L 965.346655 -41.96 
L 971.501959 -41.96 
L 977.657264 -41.96 
L 983.812568 -41.96 
L 989.967872 -41.96 
L 996.123176 -41.96 
L 1002.278481 -41.96 
L 1008.433785 -41.96 
L 1014.589089 -41.96 
L 1020.744393 -41.96 
L 1026.899698 -41.96 
L 1033.055002 -41.96 
L 1039.210306 -41.96 
L 1045.36561 -41.96 
L 1051.520915 -41.96 
L 1057.676219 -41.96 
L 1063.831523 -41.96 
L 1069.986827 -41.96 
L 1076.142132 -41.96 
L 1082.297436 -41.96 
L 1088.45274 -41.96 
L 1094.608044 -41.96 
L 1100.763349 -41.96 
L 1106.918653 -41.96 
L 1113.073957 -41.96 
L 1119.229261 -41.96 
L 1125.384566 -41.96 
L 1131.53987 -41.96 
L 1137.695174 -41.96 
L 1143.850478 -41.96 
L 1150.005783 -41.96 
L 1156.161087 -41.96 
L 1162.316391 -41.96 
L 1168.471695 -41.96 
L 1174.627 -41.96 
L 1180.782304 -41.96 
L 1186.937608 -41.96 
L 1193.092912 -41.96 
L 1199.248217 -41.96 
L 1205.403521 -41.96 
L 1211.558825 -41.96 
L 1217.714129 -41.96 
L 1223.869434 -41.96 
L 1230.024738 -41.96 
L 1236.180042 -41.96 
L 1242.335346 -41.96 
L 1248.490651 -41.96 
L 1254.645955 -41.96 
L 1260.801259 -41.96 
L 1266.956563 -41.96 
L 1273.111867 -41.96 
L 1279.267172 -41.96 
L 1285.422476 -41.96 
L 1291.57778 -41.96 
L 1297.733084 -41.96 
L 1303.888389 -41.96 
L 1310.043693 -41.96 
L 1316.198997 -41.96 
L 1322.354301 -41.96 
L 1328.509606 -41.96 
L 1334.66491 -41.96 
L 1340.820214 -41.96 
L 1346.975518 -41.96 
L 1353.130823 -41.96 
L 1353.130823 -41.975276 
L 1353.130823 -41.975276 
L 1346.975518 -41.983809 
L 1340.820214 -41.996262 
L 1334.66491 -42.013972 
L 1328.509606 -42.038502 
L 1322.354301 -42.071582 
L 1316.198997 -42.114991 
L 1310.043693 -42.170385 
L 1303.888389 -42.239077 
L 1297.733084 -42.321769 
L 1291.57778 -42.418289 
L 1285.422476 -42.527346 
L 1279.267172 -42.646373 
L 1273.111867 -42.771482 
L 1266.956563 -42.897583 
L 1260.801259 -43.018675 
L 1254.645955 -43.1283 
L 1248.490651 -43.220126 
L 1242.335346 -43.288587 
L 1236.180042 -43.329512 
L 1230.024738 -43.340647 
L 1223.869434 -43.322014 
L 1217.714129 -43.276038 
L 1211.558825 -43.207457 
L 1205.403521 -43.123009 
L 1199.248217 -43.030962 
L 1193.092912 -42.94054 
L 1186.937608 -42.861322 
L 1180.782304 -42.80265 
L 1174.627 -42.773115 
L 1168.471695 -42.780107 
L 1162.316391 -42.829465 
L 1156.161087 -42.925211 
L 1150.005783 -43.069395 
L 1143.850478 -43.262063 
L 1137.695174 -43.501391 
L 1131.53987 -43.784009 
L 1125.384566 -44.105547 
L 1119.229261 -44.461382 
L 1113.073957 -44.84753 
L 1106.918653 -45.261564 
L 1100.763349 -45.703424 
L 1094.608044 -46.175932 
L 1088.45274 -46.684872 
L 1082.297436 -47.238549 
L 1076.142132 -47.846807 
L 1069.986827 -48.519635 
L 1063.831523 -49.265526 
L 1057.676219 -50.089903 
L 1051.520915 -50.993868 
L 1045.36561 -51.97355 
L 1039.210306 -53.020216 
L 1033.055002 -54.121191 
L 1026.899698 -55.261484 
L 1020.744393 -56.425916 
L 1014.589089 -57.601455 
L 1008.433785 -58.779415 
L 1002.278481 -59.957246 
L 996.123176 -61.139664 
L 989.967872 -62.338994 
L 983.812568 -63.574702 
L 977.657264 -64.87217 
L 971.501959 -66.260832 
L 965.346655 -67.771863 
L 959.191351 -69.435591 
L 953.036047 -71.278846 
L 946.880742 -73.322455 
L 940.725438 -75.579089 
L 934.570134 -78.051667 
L 928.41483 -80.732506 
L 922.259525 -83.603372 
L 916.104221 -86.636497 
L 909.948917 -89.796589 
L 903.793613 -93.043675 
L 897.638308 -96.336595 
L 891.483004 -99.636779 
L 885.3277 -102.911942 
L 879.172396 -106.139286 
L 873.017091 -109.307829 
L 866.861787 -112.419605 
L 860.706483 -115.489578 
L 854.551179 -118.544311 
L 848.395874 -121.619549 
L 842.24057 -124.757043 
L 836.085266 -128.001015 
L 829.929962 -131.394708 
L 823.774657 -134.977415 
L 817.619353 -138.782322 
L 811.464049 -142.835343 
L 805.308745 -147.154976 
L 799.15344 -151.753064 
L 792.998136 -156.636181 
L 786.842832 -161.807302 
L 780.687528 -167.267364 
L 774.532223 -173.016354 
L 768.376919 -179.053648 
L 762.221615 -185.37749 
L 756.066311 -191.9836 
L 749.911006 -198.863133 
L 743.755702 -206.000258 
L 737.600398 -213.36975 
L 731.445094 -220.93494 
L 725.289789 -228.646343 
L 719.134485 -236.441154 
L 712.979181 -244.243722 
L 706.823877 -251.966996 
L 700.668572 -259.514948 
L 694.513268 -266.785921 
L 688.357964 -273.676928 
L 682.20266 -280.08888 
L 676.047355 -285.932699 
L 669.892051 -291.136074 
L 663.736747 -295.650427 
L 657.581443 -299.457345 
L 651.426138 -302.573541 
L 645.270834 -305.053261 
L 639.11553 -306.987194 
L 632.960226 -308.497277 
L 626.804921 -309.72734 
L 620.649617 -310.830265 
L 614.494313 -311.952997 
L 608.339009 -313.221296 
L 602.183704 -314.726344 
L 596.0284 -316.51515 
L 589.873096 -318.586218 
L 583.717792 -320.891069 
L 577.562487 -323.341326 
L 571.407183 -325.820158 
L 565.251879 -328.196263 
L 559.096575 -330.338307 
L 552.94127 -332.127829 
L 546.785966 -333.469102 
L 540.630662 -334.29511 
L 534.475358 -334.569524 
L 528.320053 -334.285171 
L 522.164749 -333.459958 
L 516.009445 -332.131349 
L 509.854141 -330.350451 
L 503.698836 -328.176562 
L 497.543532 -325.672698 
L 491.388228 -322.902321 
L 485.232924 -319.927212 
L 479.077619 -316.806221 
L 472.922315 -313.594518 
L 466.767011 -310.34288 
L 460.611707 -307.09658 
L 454.456402 -303.893504 
L 448.301098 -300.76128 
L 442.145794 -297.713428 
L 435.99049 -294.744832 
L 429.835185 -291.827147 
L 423.679881 -288.904987 
L 417.524577 -285.893901 
L 411.369273 -282.681096 
L 405.213968 -279.12959 
L 399.058664 -275.086045 
L 392.90336 -270.391945 
L 386.748056 -264.897157 
L 380.592751 -258.474432 
L 374.437447 -251.033086 
L 368.282143 -242.530116 
L 362.126839 -232.97728 
L 355.971534 -222.443231 
L 349.81623 -211.050469 
L 343.660926 -198.967588 
L 337.505622 -186.397876 
L 331.350317 -173.565709 
L 325.195013 -160.702282 
L 319.039709 -148.032131 
L 312.884405 -135.761566 
L 306.7291 -124.06973 
L 300.573796 -113.102614 
L 294.418492 -102.969959 
L 288.263188 -93.744749 
L 282.107883 -85.464838 
L 275.952579 -78.136197 
L 269.797275 -71.737283 
L 263.641971 -66.224088 
L 257.486666 -61.535468 
L 251.331362 -57.598414 
L 245.176058 -54.333007 
L 239.020754 -51.656827 
L 232.865449 -49.488649 
L 226.710145 -47.75135 
L 220.554841 -46.373975 
L 214.399537 -45.293023 
L 208.244233 -44.453024 
L 202.088928 -43.806544 
L 195.933624 -43.313773 
L 189.77832 -42.941835 
L 183.623016 -42.663952 
L 177.467711 -42.458571 
L 171.312407 -42.308522 
L 165.157103 -42.200259 
L 159.001799 -42.123193 
L 152.846494 -42.069125 
L 146.69119 -42.03178 
L 140.535886 -42.006409 
L 134.380582 -41.989472 
L 128.225277 -41.978373 
z
" style="stroke: #38aaac"/>
    </defs>
    <g clip-path="url(#p66f3cb7772)">
     <use xlink:href="#m945002d7e4" x="0" y="360" style="fill: #38aaac; fill-opacity: 0.25; stroke: #38aaac"/>
    </g>
   </g>
   <g id="PolyCollection_2">
    <defs>
     <path id="m429aa03848" d="M 144.42525 -42.018235 
L 144.42525 -41.96 
L 149.789985 -41.96 
L 155.154719 -41.96 
L 160.519454 -41.96 
L 165.884189 -41.96 
L 171.248923 -41.96 
L 176.613658 -41.96 
L 181.978393 -41.96 
L 187.343127 -41.96 
L 192.707862 -41.96 
L 198.072597 -41.96 
L 203.437331 -41.96 
L 208.802066 -41.96 
L 214.166801 -41.96 
L 219.531536 -41.96 
L 224.89627 -41.96 
L 230.261005 -41.96 
L 235.62574 -41.96 
L 240.990474 -41.96 
L 246.355209 -41.96 
L 251.719944 -41.96 
L 257.084678 -41.96 
L 262.449413 -41.96 
L 267.814148 -41.96 
L 273.178882 -41.96 
L 278.543617 -41.96 
L 283.908352 -41.96 
L 289.273086 -41.96 
L 294.637821 -41.96 
L 300.002556 -41.96 
L 305.36729 -41.96 
L 310.732025 -41.96 
L 316.09676 -41.96 
L 321.461494 -41.96 
L 326.826229 -41.96 
L 332.190964 -41.96 
L 337.555698 -41.96 
L 342.920433 -41.96 
L 348.285168 -41.96 
L 353.649903 -41.96 
L 359.014637 -41.96 
L 364.379372 -41.96 
L 369.744107 -41.96 
L 375.108841 -41.96 
L 380.473576 -41.96 
L 385.838311 -41.96 
L 391.203045 -41.96 
L 396.56778 -41.96 
L 401.932515 -41.96 
L 407.297249 -41.96 
L 412.661984 -41.96 
L 418.026719 -41.96 
L 423.391453 -41.96 
L 428.756188 -41.96 
L 434.120923 -41.96 
L 439.485657 -41.96 
L 444.850392 -41.96 
L 450.215127 -41.96 
L 455.579861 -41.96 
L 460.944596 -41.96 
L 466.309331 -41.96 
L 471.674065 -41.96 
L 477.0388 -41.96 
L 482.403535 -41.96 
L 487.768269 -41.96 
L 493.133004 -41.96 
L 498.497739 -41.96 
L 503.862474 -41.96 
L 509.227208 -41.96 
L 514.591943 -41.96 
L 519.956678 -41.96 
L 525.321412 -41.96 
L 530.686147 -41.96 
L 536.050882 -41.96 
L 541.415616 -41.96 
L 546.780351 -41.96 
L 552.145086 -41.96 
L 557.50982 -41.96 
L 562.874555 -41.96 
L 568.23929 -41.96 
L 573.604024 -41.96 
L 578.968759 -41.96 
L 584.333494 -41.96 
L 589.698228 -41.96 
L 595.062963 -41.96 
L 600.427698 -41.96 
L 605.792432 -41.96 
L 611.157167 -41.96 
L 616.521902 -41.96 
L 621.886636 -41.96 
L 627.251371 -41.96 
L 632.616106 -41.96 
L 637.98084 -41.96 
L 643.345575 -41.96 
L 648.71031 -41.96 
L 654.075045 -41.96 
L 659.439779 -41.96 
L 664.804514 -41.96 
L 670.169249 -41.96 
L 675.533983 -41.96 
L 680.898718 -41.96 
L 686.263453 -41.96 
L 691.628187 -41.96 
L 696.992922 -41.96 
L 702.357657 -41.96 
L 707.722391 -41.96 
L 713.087126 -41.96 
L 718.451861 -41.96 
L 723.816595 -41.96 
L 729.18133 -41.96 
L 734.546065 -41.96 
L 739.910799 -41.96 
L 745.275534 -41.96 
L 750.640269 -41.96 
L 756.005003 -41.96 
L 761.369738 -41.96 
L 766.734473 -41.96 
L 772.099207 -41.96 
L 777.463942 -41.96 
L 782.828677 -41.96 
L 788.193412 -41.96 
L 793.558146 -41.96 
L 798.922881 -41.96 
L 804.287616 -41.96 
L 809.65235 -41.96 
L 815.017085 -41.96 
L 820.38182 -41.96 
L 825.746554 -41.96 
L 831.111289 -41.96 
L 836.476024 -41.96 
L 841.840758 -41.96 
L 847.205493 -41.96 
L 852.570228 -41.96 
L 857.934962 -41.96 
L 863.299697 -41.96 
L 868.664432 -41.96 
L 874.029166 -41.96 
L 879.393901 -41.96 
L 884.758636 -41.96 
L 890.12337 -41.96 
L 895.488105 -41.96 
L 900.85284 -41.96 
L 906.217574 -41.96 
L 911.582309 -41.96 
L 916.947044 -41.96 
L 922.311778 -41.96 
L 927.676513 -41.96 
L 933.041248 -41.96 
L 938.405983 -41.96 
L 943.770717 -41.96 
L 949.135452 -41.96 
L 954.500187 -41.96 
L 959.864921 -41.96 
L 965.229656 -41.96 
L 970.594391 -41.96 
L 975.959125 -41.96 
L 981.32386 -41.96 
L 986.688595 -41.96 
L 992.053329 -41.96 
L 997.418064 -41.96 
L 1002.782799 -41.96 
L 1008.147533 -41.96 
L 1013.512268 -41.96 
L 1018.877003 -41.96 
L 1024.241737 -41.96 
L 1029.606472 -41.96 
L 1034.971207 -41.96 
L 1040.335941 -41.96 
L 1045.700676 -41.96 
L 1051.065411 -41.96 
L 1056.430145 -41.96 
L 1061.79488 -41.96 
L 1067.159615 -41.96 
L 1072.524349 -41.96 
L 1077.889084 -41.96 
L 1083.253819 -41.96 
L 1088.618554 -41.96 
L 1093.983288 -41.96 
L 1099.348023 -41.96 
L 1104.712758 -41.96 
L 1110.077492 -41.96 
L 1115.442227 -41.96 
L 1120.806962 -41.96 
L 1126.171696 -41.96 
L 1131.536431 -41.96 
L 1136.901166 -41.96 
L 1142.2659 -41.96 
L 1147.630635 -41.96 
L 1152.99537 -41.96 
L 1158.360104 -41.96 
L 1163.724839 -41.96 
L 1169.089574 -41.96 
L 1174.454308 -41.96 
L 1179.819043 -41.96 
L 1185.183778 -41.96 
L 1190.548512 -41.96 
L 1195.913247 -41.96 
L 1201.277982 -41.96 
L 1206.642716 -41.96 
L 1212.007451 -41.96 
L 1212.007451 -41.980613 
L 1212.007451 -41.980613 
L 1206.642716 -41.9909 
L 1201.277982 -42.005612 
L 1195.913247 -42.026309 
L 1190.548512 -42.054949 
L 1185.183778 -42.093936 
L 1179.819043 -42.146149 
L 1174.454308 -42.214947 
L 1169.089574 -42.304142 
L 1163.724839 -42.417934 
L 1158.360104 -42.560798 
L 1152.99537 -42.737323 
L 1147.630635 -42.952005 
L 1142.2659 -43.208999 
L 1136.901166 -43.511841 
L 1131.536431 -43.863161 
L 1126.171696 -44.264407 
L 1120.806962 -44.715599 
L 1115.442227 -45.215153 
L 1110.077492 -45.759781 
L 1104.712758 -46.344501 
L 1099.348023 -46.962767 
L 1093.983288 -47.60672 
L 1088.618554 -48.267564 
L 1083.253819 -48.936046 
L 1077.889084 -49.603015 
L 1072.524349 -50.260032 
L 1067.159615 -50.899995 
L 1061.79488 -51.51772 
L 1056.430145 -52.110456 
L 1051.065411 -52.678293 
L 1045.700676 -53.224415 
L 1040.335941 -53.755199 
L 1034.971207 -54.280132 
L 1029.606472 -54.811555 
L 1024.241737 -55.364233 
L 1018.877003 -55.954782 
L 1013.512268 -56.600964 
L 1008.147533 -57.320889 
L 1002.782799 -58.132157 
L 997.418064 -59.050972 
L 992.053329 -60.091282 
L 986.688595 -61.263968 
L 981.32386 -62.57615 
L 975.959125 -64.030639 
L 970.594391 -65.625606 
L 965.229656 -67.354497 
L 959.864921 -69.206251 
L 954.500187 -71.16585 
L 949.135452 -73.215206 
L 943.770717 -75.334394 
L 938.405983 -77.503162 
L 933.041248 -79.702641 
L 927.676513 -81.917137 
L 922.311778 -84.13582 
L 916.947044 -86.354135 
L 911.582309 -88.574734 
L 906.217574 -90.807745 
L 900.85284 -93.070258 
L 895.488105 -95.384973 
L 890.12337 -97.778076 
L 884.758636 -100.276497 
L 879.393901 -102.904845 
L 874.029166 -105.682365 
L 868.664432 -108.620349 
L 863.299697 -111.720363 
L 857.934962 -114.973647 
L 852.570228 -118.361848 
L 847.205493 -121.859129 
L 841.840758 -125.435477 
L 836.476024 -129.060853 
L 831.111289 -132.709687 
L 825.746554 -136.365149 
L 820.38182 -140.022583 
L 815.017085 -143.691612 
L 809.65235 -147.396536 
L 804.287616 -151.174872 
L 798.922881 -155.074095 
L 793.558146 -159.146903 
L 788.193412 -163.44549 
L 782.828677 -168.015477 
L 777.463942 -172.890179 
L 772.099207 -178.08591 
L 766.734473 -183.598849 
L 761.369738 -189.403875 
L 756.005003 -195.455522 
L 750.640269 -201.690951 
L 745.275534 -208.034638 
L 739.910799 -214.404236 
L 734.546065 -220.716966 
L 729.18133 -226.895843 
L 723.816595 -232.875041 
L 718.451861 -238.603865 
L 713.087126 -244.048943 
L 707.722391 -249.194497 
L 702.357657 -254.040798 
L 696.992922 -258.601105 
L 691.628187 -262.89761 
L 686.263453 -266.956964 
L 680.898718 -270.806019 
L 675.533983 -274.468335 
L 670.169249 -277.961857 
L 664.804514 -281.297979 
L 659.439779 -284.481994 
L 654.075045 -287.514701 
L 648.71031 -290.394784 
L 643.345575 -293.121462 
L 637.98084 -295.696878 
L 632.616106 -298.127757 
L 627.251371 -300.425981 
L 621.886636 -302.607935 
L 616.521902 -304.692651 
L 611.157167 -306.699006 
L 605.792432 -308.642398 
L 600.427698 -310.531409 
L 595.062963 -312.364994 
L 589.698228 -314.130707 
L 584.333494 -315.804297 
L 578.968759 -317.350858 
L 573.604024 -318.72748 
L 568.23929 -319.887145 
L 562.874555 -320.783413 
L 557.50982 -321.375351 
L 552.145086 -321.632103 
L 546.780351 -321.536529 
L 541.415616 -321.087508 
L 536.050882 -320.300644 
L 530.686147 -319.207334 
L 525.321412 -317.852402 
L 519.956678 -316.290624 
L 514.591943 -314.582651 
L 509.227208 -312.790814 
L 503.862474 -310.975306 
L 498.497739 -309.191104 
L 493.133004 -307.485843 
L 487.768269 -305.898673 
L 482.403535 -304.459982 
L 477.0388 -303.19171 
L 471.674065 -302.107929 
L 466.309331 -301.215336 
L 460.944596 -300.513375 
L 455.579861 -299.993796 
L 450.215127 -299.639607 
L 444.850392 -299.423525 
L 439.485657 -299.306172 
L 434.120923 -299.234343 
L 428.756188 -299.139756 
L 423.391453 -298.938664 
L 418.026719 -298.532648 
L 412.661984 -297.810791 
L 407.297249 -296.653303 
L 401.932515 -294.936472 
L 396.56778 -292.538668 
L 391.203045 -289.347012 
L 385.838311 -285.264195 
L 380.473576 -280.214918 
L 375.108841 -274.151424 
L 369.744107 -267.057667 
L 364.379372 -258.951759 
L 359.014637 -249.886489 
L 353.649903 -239.94785 
L 348.285168 -229.251668 
L 342.920433 -217.93858 
L 337.555698 -206.167709 
L 332.190964 -194.109497 
L 326.826229 -181.938188 
L 321.461494 -169.824466 
L 316.09676 -157.928733 
L 310.732025 -146.395427 
L 305.36729 -135.348666 
L 300.002556 -124.889425 
L 294.637821 -115.094242 
L 289.273086 -106.015394 
L 283.908352 -97.682321 
L 278.543617 -90.104019 
L 273.178882 -83.272069 
L 267.814148 -77.163971 
L 262.449413 -71.74649 
L 257.084678 -66.978756 
L 251.719944 -62.814984 
L 246.355209 -59.206689 
L 240.990474 -56.10443 
L 235.62574 -53.459084 
L 230.261005 -51.222754 
L 224.89627 -49.349397 
L 219.531536 -47.795244 
L 214.166801 -46.519114 
L 208.802066 -45.482637 
L 203.437331 -44.650443 
L 198.072597 -43.9903 
L 192.707862 -43.473217 
L 187.343127 -43.07348 
L 181.978393 -42.768636 
L 176.613658 -42.539394 
L 171.248923 -42.369468 
L 165.884189 -42.245349 
L 160.519454 -42.156038 
L 155.154719 -42.092744 
L 149.789985 -42.048577 
L 144.42525 -42.018235 
z
" style="stroke: #40498e"/>
    </defs>
    <g clip-path="url(#p66f3cb7772)">
     <use xlink:href="#m429aa03848" x="0" y="360" style="fill: #40498e; fill-opacity: 0.25; stroke: #40498e"/>
    </g>
   </g>
   <g id="matplotlib.axis_1">
    <g id="xtick_1">
     <g id="line2d_1">
      <defs>
       <path id="m0b06d9019e" d="M 0 0 
L 0 3.5 
" style="stroke: #000000; stroke-width: 0.8"/>
      </defs>
      <g>
       <use xlink:href="#m0b06d9019e" x="232.061355" y="318.04" style="stroke: #000000; stroke-width: 0.8"/>
      </g>
     </g>
     <g id="text_1">
      <!-- 0 -->
      <g transform="translate(228.880105 332.638438) scale(0.1 -0.1)">
       <defs>
        <path id="DejaVuSans-30" d="M 2034 4250 
Q 1547 4250 1301 3770 
Q 1056 3291 1056 2328 
Q 1056 1369 1301 889 
Q 1547 409 2034 409 
Q 2525 409 2770 889 
Q 3016 1369 3016 2328 
Q 3016 3291 2770 3770 
Q 2525 4250 2034 4250 
z
M 2034 4750 
Q 2819 4750 3233 4129 
Q 3647 3509 3647 2328 
Q 3647 1150 3233 529 
Q 2819 -91 2034 -91 
Q 1250 -91 836 529 
Q 422 1150 422 2328 
Q 422 3509 836 4129 
Q 1250 4750 2034 4750 
z
" transform="scale(0.015625)"/>
       </defs>
       <use xlink:href="#DejaVuSans-30"/>
      </g>
     </g>
    </g>
    <g id="xtick_2">
     <g id="line2d_2">
      <g>
       <use xlink:href="#m0b06d9019e" x="410.523353" y="318.04" style="stroke: #000000; stroke-width: 0.8"/>
      </g>
     </g>
     <g id="text_2">
      <!-- 10 -->
      <g transform="translate(404.160853 332.638438) scale(0.1 -0.1)">
       <defs>
        <path id="DejaVuSans-31" d="M 794 531 
L 1825 531 
L 1825 4091 
L 703 3866 
L 703 4441 
L 1819 4666 
L 2450 4666 
L 2450 531 
L 3481 531 
L 3481 0 
L 794 0 
L 794 531 
z
" transform="scale(0.015625)"/>
       </defs>
       <use xlink:href="#DejaVuSans-31"/>
       <use xlink:href="#DejaVuSans-30" x="63.623047"/>
      </g>
     </g>
    </g>
    <g id="xtick_3">
     <g id="line2d_3">
      <g>
       <use xlink:href="#m0b06d9019e" x="588.985351" y="318.04" style="stroke: #000000; stroke-width: 0.8"/>
      </g>
     </g>
     <g id="text_3">
      <!-- 20 -->
      <g transform="translate(582.622851 332.638438) scale(0.1 -0.1)">
       <defs>
        <path id="DejaVuSans-32" d="M 1228 531 
L 3431 531 
L 3431 0 
L 469 0 
L 469 531 
Q 828 903 1448 1529 
Q 2069 2156 2228 2338 
Q 2531 2678 2651 2914 
Q 2772 3150 2772 3378 
Q 2772 3750 2511 3984 
Q 2250 4219 1831 4219 
Q 1534 4219 1204 4116 
Q 875 4013 500 3803 
L 500 4441 
Q 881 4594 1212 4672 
Q 1544 4750 1819 4750 
Q 2544 4750 2975 4387 
Q 3406 4025 3406 3419 
Q 3406 3131 3298 2873 
Q 3191 2616 2906 2266 
Q 2828 2175 2409 1742 
Q 1991 1309 1228 531 
z
" transform="scale(0.015625)"/>
       </defs>
       <use xlink:href="#DejaVuSans-32"/>
       <use xlink:href="#DejaVuSans-30" x="63.623047"/>
      </g>
     </g>
    </g>
    <g id="xtick_4">
     <g id="line2d_4">
      <g>
       <use xlink:href="#m0b06d9019e" x="767.44735" y="318.04" style="stroke: #000000; stroke-width: 0.8"/>
      </g>
     </g>
     <g id="text_4">
      <!-- 30 -->
      <g transform="translate(761.08485 332.638438) scale(0.1 -0.1)">
       <defs>
        <path id="DejaVuSans-33" d="M 2597 2516 
Q 3050 2419 3304 2112 
Q 3559 1806 3559 1356 
Q 3559 666 3084 287 
Q 2609 -91 1734 -91 
Q 1441 -91 1130 -33 
Q 819 25 488 141 
L 488 750 
Q 750 597 1062 519 
Q 1375 441 1716 441 
Q 2309 441 2620 675 
Q 2931 909 2931 1356 
Q 2931 1769 2642 2001 
Q 2353 2234 1838 2234 
L 1294 2234 
L 1294 2753 
L 1863 2753 
Q 2328 2753 2575 2939 
Q 2822 3125 2822 3475 
Q 2822 3834 2567 4026 
Q 2313 4219 1838 4219 
Q 1578 4219 1281 4162 
Q 984 4106 628 3988 
L 628 4550 
Q 988 4650 1302 4700 
Q 1616 4750 1894 4750 
Q 2613 4750 3031 4423 
Q 3450 4097 3450 3541 
Q 3450 3153 3228 2886 
Q 3006 2619 2597 2516 
z
" transform="scale(0.015625)"/>
       </defs>
       <use xlink:href="#DejaVuSans-33"/>
       <use xlink:href="#DejaVuSans-30" x="63.623047"/>
      </g>
     </g>
    </g>
    <g id="xtick_5">
     <g id="line2d_5">
      <g>
       <use xlink:href="#m0b06d9019e" x="945.909348" y="318.04" style="stroke: #000000; stroke-width: 0.8"/>
      </g>
     </g>
     <g id="text_5">
      <!-- 40 -->
      <g transform="translate(939.546848 332.638438) scale(0.1 -0.1)">
       <defs>
        <path id="DejaVuSans-34" d="M 2419 4116 
L 825 1625 
L 2419 1625 
L 2419 4116 
z
M 2253 4666 
L 3047 4666 
L 3047 1625 
L 3713 1625 
L 3713 1100 
L 3047 1100 
L 3047 0 
L 2419 0 
L 2419 1100 
L 313 1100 
L 313 1709 
L 2253 4666 
z
" transform="scale(0.015625)"/>
       </defs>
       <use xlink:href="#DejaVuSans-34"/>
       <use xlink:href="#DejaVuSans-30" x="63.623047"/>
      </g>
     </g>
    </g>
    <g id="xtick_6">
     <g id="line2d_6">
      <g>
       <use xlink:href="#m0b06d9019e" x="1124.371346" y="318.04" style="stroke: #000000; stroke-width: 0.8"/>
      </g>
     </g>
     <g id="text_6">
      <!-- 50 -->
      <g transform="translate(1118.008846 332.638438) scale(0.1 -0.1)">
       <defs>
        <path id="DejaVuSans-35" d="M 691 4666 
L 3169 4666 
L 3169 4134 
L 1269 4134 
L 1269 2991 
Q 1406 3038 1543 3061 
Q 1681 3084 1819 3084 
Q 2600 3084 3056 2656 
Q 3513 2228 3513 1497 
Q 3513 744 3044 326 
Q 2575 -91 1722 -91 
Q 1428 -91 1123 -41 
Q 819 9 494 109 
L 494 744 
Q 775 591 1075 516 
Q 1375 441 1709 441 
Q 2250 441 2565 725 
Q 2881 1009 2881 1497 
Q 2881 1984 2565 2268 
Q 2250 2553 1709 2553 
Q 1456 2553 1204 2497 
Q 953 2441 691 2322 
L 691 4666 
z
" transform="scale(0.015625)"/>
       </defs>
       <use xlink:href="#DejaVuSans-35"/>
       <use xlink:href="#DejaVuSans-30" x="63.623047"/>
      </g>
     </g>
    </g>
    <g id="xtick_7">
     <g id="line2d_7">
      <g>
       <use xlink:href="#m0b06d9019e" x="1302.833345" y="318.04" style="stroke: #000000; stroke-width: 0.8"/>
      </g>
     </g>
     <g id="text_7">
      <!-- 60 -->
      <g transform="translate(1296.470845 332.638438) scale(0.1 -0.1)">
       <defs>
        <path id="DejaVuSans-36" d="M 2113 2584 
Q 1688 2584 1439 2293 
Q 1191 2003 1191 1497 
Q 1191 994 1439 701 
Q 1688 409 2113 409 
Q 2538 409 2786 701 
Q 3034 994 3034 1497 
Q 3034 2003 2786 2293 
Q 2538 2584 2113 2584 
z
M 3366 4563 
L 3366 3988 
Q 3128 4100 2886 4159 
Q 2644 4219 2406 4219 
Q 1781 4219 1451 3797 
Q 1122 3375 1075 2522 
Q 1259 2794 1537 2939 
Q 1816 3084 2150 3084 
Q 2853 3084 3261 2657 
Q 3669 2231 3669 1497 
Q 3669 778 3244 343 
Q 2819 -91 2113 -91 
Q 1303 -91 875 529 
Q 447 1150 447 2328 
Q 447 3434 972 4092 
Q 1497 4750 2381 4750 
Q 2619 4750 2861 4703 
Q 3103 4656 3366 4563 
z
" transform="scale(0.015625)"/>
       </defs>
       <use xlink:href="#DejaVuSans-36"/>
       <use xlink:href="#DejaVuSans-30" x="63.623047"/>
      </g>
     </g>
    </g>
    <g id="text_8">
     <!-- Length -->
     <g transform="translate(723.431175 346.316563) scale(0.1 -0.1)">
      <defs>
       <path id="DejaVuSans-4c" d="M 628 4666 
L 1259 4666 
L 1259 531 
L 3531 531 
L 3531 0 
L 628 0 
L 628 4666 
z
" transform="scale(0.015625)"/>
       <path id="DejaVuSans-65" d="M 3597 1894 
L 3597 1613 
L 953 1613 
Q 991 1019 1311 708 
Q 1631 397 2203 397 
Q 2534 397 2845 478 
Q 3156 559 3463 722 
L 3463 178 
Q 3153 47 2828 -22 
Q 2503 -91 2169 -91 
Q 1331 -91 842 396 
Q 353 884 353 1716 
Q 353 2575 817 3079 
Q 1281 3584 2069 3584 
Q 2775 3584 3186 3129 
Q 3597 2675 3597 1894 
z
M 3022 2063 
Q 3016 2534 2758 2815 
Q 2500 3097 2075 3097 
Q 1594 3097 1305 2825 
Q 1016 2553 972 2059 
L 3022 2063 
z
" transform="scale(0.015625)"/>
       <path id="DejaVuSans-6e" d="M 3513 2113 
L 3513 0 
L 2938 0 
L 2938 2094 
Q 2938 2591 2744 2837 
Q 2550 3084 2163 3084 
Q 1697 3084 1428 2787 
Q 1159 2491 1159 1978 
L 1159 0 
L 581 0 
L 581 3500 
L 1159 3500 
L 1159 2956 
Q 1366 3272 1645 3428 
Q 1925 3584 2291 3584 
Q 2894 3584 3203 3211 
Q 3513 2838 3513 2113 
z
" transform="scale(0.015625)"/>
       <path id="DejaVuSans-67" d="M 2906 1791 
Q 2906 2416 2648 2759 
Q 2391 3103 1925 3103 
Q 1463 3103 1205 2759 
Q 947 2416 947 1791 
Q 947 1169 1205 825 
Q 1463 481 1925 481 
Q 2391 481 2648 825 
Q 2906 1169 2906 1791 
z
M 3481 434 
Q 3481 -459 3084 -895 
Q 2688 -1331 1869 -1331 
Q 1566 -1331 1297 -1286 
Q 1028 -1241 775 -1147 
L 775 -588 
Q 1028 -725 1275 -790 
Q 1522 -856 1778 -856 
Q 2344 -856 2625 -561 
Q 2906 -266 2906 331 
L 2906 616 
Q 2728 306 2450 153 
Q 2172 0 1784 0 
Q 1141 0 747 490 
Q 353 981 353 1791 
Q 353 2603 747 3093 
Q 1141 3584 1784 3584 
Q 2172 3584 2450 3431 
Q 2728 3278 2906 2969 
L 2906 3500 
L 3481 3500 
L 3481 434 
z
" transform="scale(0.015625)"/>
       <path id="DejaVuSans-74" d="M 1172 4494 
L 1172 3500 
L 2356 3500 
L 2356 3053 
L 1172 3053 
L 1172 1153 
Q 1172 725 1289 603 
Q 1406 481 1766 481 
L 2356 481 
L 2356 0 
L 1766 0 
Q 1100 0 847 248 
Q 594 497 594 1153 
L 594 3053 
L 172 3053 
L 172 3500 
L 594 3500 
L 594 4494 
L 1172 4494 
z
" transform="scale(0.015625)"/>
       <path id="DejaVuSans-68" d="M 3513 2113 
L 3513 0 
L 2938 0 
L 2938 2094 
Q 2938 2591 2744 2837 
Q 2550 3084 2163 3084 
Q 1697 3084 1428 2787 
Q 1159 2491 1159 1978 
L 1159 0 
L 581 0 
L 581 4863 
L 1159 4863 
L 1159 2956 
Q 1366 3272 1645 3428 
Q 1925 3584 2291 3584 
Q 2894 3584 3203 3211 
Q 3513 2838 3513 2113 
z
" transform="scale(0.015625)"/>
      </defs>
      <use xlink:href="#DejaVuSans-4c"/>
      <use xlink:href="#DejaVuSans-65" x="53.962891"/>
      <use xlink:href="#DejaVuSans-6e" x="115.486328"/>
      <use xlink:href="#DejaVuSans-67" x="178.865234"/>
      <use xlink:href="#DejaVuSans-74" x="242.341797"/>
      <use xlink:href="#DejaVuSans-68" x="281.550781"/>
     </g>
    </g>
   </g>
   <g id="matplotlib.axis_2">
    <g id="ytick_1">
     <g id="line2d_8">
      <defs>
       <path id="mf62770e11e" d="M 0 0 
L -3.5 0 
" style="stroke: #000000; stroke-width: 0.8"/>
      </defs>
      <g>
       <use xlink:href="#mf62770e11e" x="66.98" y="318.04" style="stroke: #000000; stroke-width: 0.8"/>
      </g>
     </g>
     <g id="text_9">
      <!-- 0.0000 -->
      <g transform="translate(24.989375 321.839219) scale(0.1 -0.1)">
       <defs>
        <path id="DejaVuSans-2e" d="M 684 794 
L 1344 794 
L 1344 0 
L 684 0 
L 684 794 
z
" transform="scale(0.015625)"/>
       </defs>
       <use xlink:href="#DejaVuSans-30"/>
       <use xlink:href="#DejaVuSans-2e" x="63.623047"/>
       <use xlink:href="#DejaVuSans-30" x="95.410156"/>
       <use xlink:href="#DejaVuSans-30" x="159.033203"/>
       <use xlink:href="#DejaVuSans-30" x="222.65625"/>
       <use xlink:href="#DejaVuSans-30" x="286.279297"/>
      </g>
     </g>
    </g>
    <g id="ytick_2">
     <g id="line2d_9">
      <g>
       <use xlink:href="#mf62770e11e" x="66.98" y="282.374815" style="stroke: #000000; stroke-width: 0.8"/>
      </g>
     </g>
     <g id="text_10">
      <!-- 0.0025 -->
      <g transform="translate(24.989375 286.174034) scale(0.1 -0.1)">
       <use xlink:href="#DejaVuSans-30"/>
       <use xlink:href="#DejaVuSans-2e" x="63.623047"/>
       <use xlink:href="#DejaVuSans-30" x="95.410156"/>
       <use xlink:href="#DejaVuSans-30" x="159.033203"/>
       <use xlink:href="#DejaVuSans-32" x="222.65625"/>
       <use xlink:href="#DejaVuSans-35" x="286.279297"/>
      </g>
     </g>
    </g>
    <g id="ytick_3">
     <g id="line2d_10">
      <g>
       <use xlink:href="#mf62770e11e" x="66.98" y="246.709631" style="stroke: #000000; stroke-width: 0.8"/>
      </g>
     </g>
     <g id="text_11">
      <!-- 0.0050 -->
      <g transform="translate(24.989375 250.50885) scale(0.1 -0.1)">
       <use xlink:href="#DejaVuSans-30"/>
       <use xlink:href="#DejaVuSans-2e" x="63.623047"/>
       <use xlink:href="#DejaVuSans-30" x="95.410156"/>
       <use xlink:href="#DejaVuSans-30" x="159.033203"/>
       <use xlink:href="#DejaVuSans-35" x="222.65625"/>
       <use xlink:href="#DejaVuSans-30" x="286.279297"/>
      </g>
     </g>
    </g>
    <g id="ytick_4">
     <g id="line2d_11">
      <g>
       <use xlink:href="#mf62770e11e" x="66.98" y="211.044446" style="stroke: #000000; stroke-width: 0.8"/>
      </g>
     </g>
     <g id="text_12">
      <!-- 0.0075 -->
      <g transform="translate(24.989375 214.843665) scale(0.1 -0.1)">
       <defs>
        <path id="DejaVuSans-37" d="M 525 4666 
L 3525 4666 
L 3525 4397 
L 1831 0 
L 1172 0 
L 2766 4134 
L 525 4134 
L 525 4666 
z
" transform="scale(0.015625)"/>
       </defs>
       <use xlink:href="#DejaVuSans-30"/>
       <use xlink:href="#DejaVuSans-2e" x="63.623047"/>
       <use xlink:href="#DejaVuSans-30" x="95.410156"/>
       <use xlink:href="#DejaVuSans-30" x="159.033203"/>
       <use xlink:href="#DejaVuSans-37" x="222.65625"/>
       <use xlink:href="#DejaVuSans-35" x="286.279297"/>
      </g>
     </g>
    </g>
    <g id="ytick_5">
     <g id="line2d_12">
      <g>
       <use xlink:href="#mf62770e11e" x="66.98" y="175.379262" style="stroke: #000000; stroke-width: 0.8"/>
      </g>
     </g>
     <g id="text_13">
      <!-- 0.0100 -->
      <g transform="translate(24.989375 179.17848) scale(0.1 -0.1)">
       <use xlink:href="#DejaVuSans-30"/>
       <use xlink:href="#DejaVuSans-2e" x="63.623047"/>
       <use xlink:href="#DejaVuSans-30" x="95.410156"/>
       <use xlink:href="#DejaVuSans-31" x="159.033203"/>
       <use xlink:href="#DejaVuSans-30" x="222.65625"/>
       <use xlink:href="#DejaVuSans-30" x="286.279297"/>
      </g>
     </g>
    </g>
    <g id="ytick_6">
     <g id="line2d_13">
      <g>
       <use xlink:href="#mf62770e11e" x="66.98" y="139.714077" style="stroke: #000000; stroke-width: 0.8"/>
      </g>
     </g>
     <g id="text_14">
      <!-- 0.0125 -->
      <g transform="translate(24.989375 143.513296) scale(0.1 -0.1)">
       <use xlink:href="#DejaVuSans-30"/>
       <use xlink:href="#DejaVuSans-2e" x="63.623047"/>
       <use xlink:href="#DejaVuSans-30" x="95.410156"/>
       <use xlink:href="#DejaVuSans-31" x="159.033203"/>
       <use xlink:href="#DejaVuSans-32" x="222.65625"/>
       <use xlink:href="#DejaVuSans-35" x="286.279297"/>
      </g>
     </g>
    </g>
    <g id="ytick_7">
     <g id="line2d_14">
      <g>
       <use xlink:href="#mf62770e11e" x="66.98" y="104.048893" style="stroke: #000000; stroke-width: 0.8"/>
      </g>
     </g>
     <g id="text_15">
      <!-- 0.0150 -->
      <g transform="translate(24.989375 107.848111) scale(0.1 -0.1)">
       <use xlink:href="#DejaVuSans-30"/>
       <use xlink:href="#DejaVuSans-2e" x="63.623047"/>
       <use xlink:href="#DejaVuSans-30" x="95.410156"/>
       <use xlink:href="#DejaVuSans-31" x="159.033203"/>
       <use xlink:href="#DejaVuSans-35" x="222.65625"/>
       <use xlink:href="#DejaVuSans-30" x="286.279297"/>
      </g>
     </g>
    </g>
    <g id="ytick_8">
     <g id="line2d_15">
      <g>
       <use xlink:href="#mf62770e11e" x="66.98" y="68.383708" style="stroke: #000000; stroke-width: 0.8"/>
      </g>
     </g>
     <g id="text_16">
      <!-- 0.0175 -->
      <g transform="translate(24.989375 72.182927) scale(0.1 -0.1)">
       <use xlink:href="#DejaVuSans-30"/>
       <use xlink:href="#DejaVuSans-2e" x="63.623047"/>
       <use xlink:href="#DejaVuSans-30" x="95.410156"/>
       <use xlink:href="#DejaVuSans-31" x="159.033203"/>
       <use xlink:href="#DejaVuSans-37" x="222.65625"/>
       <use xlink:href="#DejaVuSans-35" x="286.279297"/>
      </g>
     </g>
    </g>
    <g id="ytick_9">
     <g id="line2d_16">
      <g>
       <use xlink:href="#mf62770e11e" x="66.98" y="32.718523" style="stroke: #000000; stroke-width: 0.8"/>
      </g>
     </g>
     <g id="text_17">
      <!-- 0.0200 -->
      <g transform="translate(24.989375 36.517742) scale(0.1 -0.1)">
       <use xlink:href="#DejaVuSans-30"/>
       <use xlink:href="#DejaVuSans-2e" x="63.623047"/>
       <use xlink:href="#DejaVuSans-30" x="95.410156"/>
       <use xlink:href="#DejaVuSans-32" x="159.033203"/>
       <use xlink:href="#DejaVuSans-30" x="222.65625"/>
       <use xlink:href="#DejaVuSans-30" x="286.279297"/>
      </g>
     </g>
    </g>
    <g id="text_18">
     <!-- Density -->
     <g transform="translate(18.909688 183.428594) rotate(-90) scale(0.1 -0.1)">
      <defs>
       <path id="DejaVuSans-44" d="M 1259 4147 
L 1259 519 
L 2022 519 
Q 2988 519 3436 956 
Q 3884 1394 3884 2338 
Q 3884 3275 3436 3711 
Q 2988 4147 2022 4147 
L 1259 4147 
z
M 628 4666 
L 1925 4666 
Q 3281 4666 3915 4102 
Q 4550 3538 4550 2338 
Q 4550 1131 3912 565 
Q 3275 0 1925 0 
L 628 0 
L 628 4666 
z
" transform="scale(0.015625)"/>
       <path id="DejaVuSans-73" d="M 2834 3397 
L 2834 2853 
Q 2591 2978 2328 3040 
Q 2066 3103 1784 3103 
Q 1356 3103 1142 2972 
Q 928 2841 928 2578 
Q 928 2378 1081 2264 
Q 1234 2150 1697 2047 
L 1894 2003 
Q 2506 1872 2764 1633 
Q 3022 1394 3022 966 
Q 3022 478 2636 193 
Q 2250 -91 1575 -91 
Q 1294 -91 989 -36 
Q 684 19 347 128 
L 347 722 
Q 666 556 975 473 
Q 1284 391 1588 391 
Q 1994 391 2212 530 
Q 2431 669 2431 922 
Q 2431 1156 2273 1281 
Q 2116 1406 1581 1522 
L 1381 1569 
Q 847 1681 609 1914 
Q 372 2147 372 2553 
Q 372 3047 722 3315 
Q 1072 3584 1716 3584 
Q 2034 3584 2315 3537 
Q 2597 3491 2834 3397 
z
" transform="scale(0.015625)"/>
       <path id="DejaVuSans-69" d="M 603 3500 
L 1178 3500 
L 1178 0 
L 603 0 
L 603 3500 
z
M 603 4863 
L 1178 4863 
L 1178 4134 
L 603 4134 
L 603 4863 
z
" transform="scale(0.015625)"/>
       <path id="DejaVuSans-79" d="M 2059 -325 
Q 1816 -950 1584 -1140 
Q 1353 -1331 966 -1331 
L 506 -1331 
L 506 -850 
L 844 -850 
Q 1081 -850 1212 -737 
Q 1344 -625 1503 -206 
L 1606 56 
L 191 3500 
L 800 3500 
L 1894 763 
L 2988 3500 
L 3597 3500 
L 2059 -325 
z
" transform="scale(0.015625)"/>
      </defs>
      <use xlink:href="#DejaVuSans-44"/>
      <use xlink:href="#DejaVuSans-65" x="77.001953"/>
      <use xlink:href="#DejaVuSans-6e" x="138.525391"/>
      <use xlink:href="#DejaVuSans-73" x="201.904297"/>
      <use xlink:href="#DejaVuSans-69" x="254.003906"/>
      <use xlink:href="#DejaVuSans-74" x="281.787109"/>
      <use xlink:href="#DejaVuSans-79" x="320.996094"/>
     </g>
    </g>
   </g>
   <g id="patch_3">
    <path d="M 66.98 318.04 
L 66.98 10.8 
" style="fill: none; stroke: #000000; stroke-width: 0.8; stroke-linejoin: miter; stroke-linecap: square"/>
   </g>
   <g id="patch_4">
    <path d="M 66.98 318.04 
L 1414.3761 318.04 
" style="fill: none; stroke: #000000; stroke-width: 0.8; stroke-linejoin: miter; stroke-linecap: square"/>
   </g>
  </g>
  <g id="legend_1">
   <g id="text_19">
    <!-- Rating -->
    <g transform="translate(1440.090781 168.08125) scale(0.1 -0.1)">
     <defs>
      <path id="DejaVuSans-52" d="M 2841 2188 
Q 3044 2119 3236 1894 
Q 3428 1669 3622 1275 
L 4263 0 
L 3584 0 
L 2988 1197 
Q 2756 1666 2539 1819 
Q 2322 1972 1947 1972 
L 1259 1972 
L 1259 0 
L 628 0 
L 628 4666 
L 2053 4666 
Q 2853 4666 3247 4331 
Q 3641 3997 3641 3322 
Q 3641 2881 3436 2590 
Q 3231 2300 2841 2188 
z
M 1259 4147 
L 1259 2491 
L 2053 2491 
Q 2509 2491 2742 2702 
Q 2975 2913 2975 3322 
Q 2975 3731 2742 3939 
Q 2509 4147 2053 4147 
L 1259 4147 
z
" transform="scale(0.015625)"/>
      <path id="DejaVuSans-61" d="M 2194 1759 
Q 1497 1759 1228 1600 
Q 959 1441 959 1056 
Q 959 750 1161 570 
Q 1363 391 1709 391 
Q 2188 391 2477 730 
Q 2766 1069 2766 1631 
L 2766 1759 
L 2194 1759 
z
M 3341 1997 
L 3341 0 
L 2766 0 
L 2766 531 
Q 2569 213 2275 61 
Q 1981 -91 1556 -91 
Q 1019 -91 701 211 
Q 384 513 384 1019 
Q 384 1609 779 1909 
Q 1175 2209 1959 2209 
L 2766 2209 
L 2766 2266 
Q 2766 2663 2505 2880 
Q 2244 3097 1772 3097 
Q 1472 3097 1187 3025 
Q 903 2953 641 2809 
L 641 3341 
Q 956 3463 1253 3523 
Q 1550 3584 1831 3584 
Q 2591 3584 2966 3190 
Q 3341 2797 3341 1997 
z
" transform="scale(0.015625)"/>
     </defs>
     <use xlink:href="#DejaVuSans-52"/>
     <use xlink:href="#DejaVuSans-61" x="67.232422"/>
     <use xlink:href="#DejaVuSans-74" x="128.511719"/>
     <use xlink:href="#DejaVuSans-69" x="167.720703"/>
     <use xlink:href="#DejaVuSans-6e" x="195.503906"/>
     <use xlink:href="#DejaVuSans-67" x="258.882812"/>
    </g>
   </g>
   <g id="patch_5">
    <path d="M 1439.0275 182.759375 
L 1459.0275 182.759375 
L 1459.0275 175.759375 
L 1439.0275 175.759375 
z
" style="fill: #40498e; fill-opacity: 0.25; stroke: #40498e; stroke-linejoin: miter"/>
   </g>
   <g id="text_20">
    <!-- 0 -->
    <g transform="translate(1467.0275 182.759375) scale(0.1 -0.1)">
     <use xlink:href="#DejaVuSans-30"/>
    </g>
   </g>
   <g id="patch_6">
    <path d="M 1439.0275 197.4375 
L 1459.0275 197.4375 
L 1459.0275 190.4375 
L 1439.0275 190.4375 
z
" style="fill: #38aaac; fill-opacity: 0.25; stroke: #38aaac; stroke-linejoin: miter"/>
   </g>
   <g id="text_21">
    <!-- 1 -->
    <g transform="translate(1467.0275 197.4375) scale(0.1 -0.1)">
     <use xlink:href="#DejaVuSans-31"/>
    </g>
   </g>
  </g>
 </g>
 <defs>
  <clipPath id="p66f3cb7772">
   <rect x="66.98" y="10.8" width="1347.3961" height="307.24"/>
  </clipPath>
 </defs>
</svg>
