<?xml version="1.0" encoding="utf-8" standalone="no"?>
<!DOCTYPE svg PUBLIC "-//W3C//DTD SVG 1.1//EN"
  "http://www.w3.org/Graphics/SVG/1.1/DTD/svg11.dtd">
<svg xmlns:xlink="http://www.w3.org/1999/xlink" width="1080pt" height="216pt" viewBox="0 0 1080 216" xmlns="http://www.w3.org/2000/svg" version="1.1">
 <metadata>
  <rdf:RDF xmlns:dc="http://purl.org/dc/elements/1.1/" xmlns:cc="http://creativecommons.org/ns#" xmlns:rdf="http://www.w3.org/1999/02/22-rdf-syntax-ns#">
   <cc:Work>
    <dc:type rdf:resource="http://purl.org/dc/dcmitype/StillImage"/>
    <dc:date>2024-08-27T11:09:04.183601</dc:date>
    <dc:format>image/svg+xml</dc:format>
    <dc:creator>
     <cc:Agent>
      <dc:title>Matplotlib v3.8.4, https://matplotlib.org/</dc:title>
     </cc:Agent>
    </dc:creator>
   </cc:Work>
  </rdf:RDF>
 </metadata>
 <defs>
  <style type="text/css">*{stroke-linejoin: round; stroke-linecap: butt}</style>
 </defs>
 <g id="figure_1">
  <g id="patch_1">
   <path d="M 0 216 
L 1080 216 
L 1080 0 
L 0 0 
z
" style="fill: #ffffff"/>
  </g>
  <g id="axes_1">
   <g id="patch_2">
    <path d="M 36.97 174.04 
L 229.801517 174.04 
L 229.801517 24.72 
L 36.97 24.72 
z
" style="fill: #ffffff"/>
   </g>
   <g id="patch_3">
    <path d="M 45.852484 174.04 
L 53.578426 174.04 
L 53.578426 168.752366 
L 45.852484 168.752366 
z
" clip-path="url(#pd5fb876549)" style="fill: #1d3557"/>
   </g>
   <g id="patch_4">
    <path d="M 53.578426 174.04 
L 61.304368 174.04 
L 61.304368 172.091924 
L 53.578426 172.091924 
z
" clip-path="url(#pd5fb876549)" style="fill: #1d3557"/>
   </g>
   <g id="patch_5">
    <path d="M 61.304368 174.04 
L 69.030309 174.04 
L 69.030309 171.535331 
L 61.304368 171.535331 
z
" clip-path="url(#pd5fb876549)" style="fill: #1d3557"/>
   </g>
   <g id="patch_6">
    <path d="M 69.030309 174.04 
L 76.756251 174.04 
L 76.756251 173.761703 
L 69.030309 173.761703 
z
" clip-path="url(#pd5fb876549)" style="fill: #1d3557"/>
   </g>
   <g id="patch_7">
    <path d="M 76.756251 174.04 
L 84.482192 174.04 
L 84.482192 174.04 
L 76.756251 174.04 
z
" clip-path="url(#pd5fb876549)" style="fill: #1d3557"/>
   </g>
   <g id="patch_8">
    <path d="M 84.482192 174.04 
L 92.208134 174.04 
L 92.208134 173.483407 
L 84.482192 173.483407 
z
" clip-path="url(#pd5fb876549)" style="fill: #1d3557"/>
   </g>
   <g id="patch_9">
    <path d="M 92.208134 174.04 
L 99.934075 174.04 
L 99.934075 174.04 
L 92.208134 174.04 
z
" clip-path="url(#pd5fb876549)" style="fill: #1d3557"/>
   </g>
   <g id="patch_10">
    <path d="M 99.934075 174.04 
L 107.660017 174.04 
L 107.660017 174.04 
L 99.934075 174.04 
z
" clip-path="url(#pd5fb876549)" style="fill: #1d3557"/>
   </g>
   <g id="patch_11">
    <path d="M 107.660017 174.04 
L 115.385958 174.04 
L 115.385958 174.04 
L 107.660017 174.04 
z
" clip-path="url(#pd5fb876549)" style="fill: #1d3557"/>
   </g>
   <g id="patch_12">
    <path d="M 115.385958 174.04 
L 123.1119 174.04 
L 123.1119 173.761703 
L 115.385958 173.761703 
z
" clip-path="url(#pd5fb876549)" style="fill: #1d3557"/>
   </g>
   <g id="matplotlib.axis_1">
    <g id="xtick_1">
     <g id="line2d_1">
      <defs>
       <path id="m352ac0e760" d="M 0 0 
L 0 3.5 
" style="stroke: #000000; stroke-width: 0.8"/>
      </defs>
      <g>
       <use xlink:href="#m352ac0e760" x="42.212603" y="174.04" style="stroke: #000000; stroke-width: 0.8"/>
      </g>
     </g>
     <g id="text_1">
      <!-- 0 -->
      <g transform="translate(39.031353 188.638438) scale(0.1 -0.1)">
       <defs>
        <path id="DejaVuSans-30" d="M 2034 4250 
Q 1547 4250 1301 3770 
Q 1056 3291 1056 2328 
Q 1056 1369 1301 889 
Q 1547 409 2034 409 
Q 2525 409 2770 889 
Q 3016 1369 3016 2328 
Q 3016 3291 2770 3770 
Q 2525 4250 2034 4250 
z
M 2034 4750 
Q 2819 4750 3233 4129 
Q 3647 3509 3647 2328 
Q 3647 1150 3233 529 
Q 2819 -91 2034 -91 
Q 1250 -91 836 529 
Q 422 1150 422 2328 
Q 422 3509 836 4129 
Q 1250 4750 2034 4750 
z
" transform="scale(0.015625)"/>
       </defs>
       <use xlink:href="#DejaVuSans-30"/>
      </g>
     </g>
    </g>
    <g id="xtick_2">
     <g id="line2d_2">
      <g>
       <use xlink:href="#m352ac0e760" x="100.920366" y="174.04" style="stroke: #000000; stroke-width: 0.8"/>
      </g>
     </g>
     <g id="text_2">
      <!-- 500 -->
      <g transform="translate(91.376616 188.638438) scale(0.1 -0.1)">
       <defs>
        <path id="DejaVuSans-35" d="M 691 4666 
L 3169 4666 
L 3169 4134 
L 1269 4134 
L 1269 2991 
Q 1406 3038 1543 3061 
Q 1681 3084 1819 3084 
Q 2600 3084 3056 2656 
Q 3513 2228 3513 1497 
Q 3513 744 3044 326 
Q 2575 -91 1722 -91 
Q 1428 -91 1123 -41 
Q 819 9 494 109 
L 494 744 
Q 775 591 1075 516 
Q 1375 441 1709 441 
Q 2250 441 2565 725 
Q 2881 1009 2881 1497 
Q 2881 1984 2565 2268 
Q 2250 2553 1709 2553 
Q 1456 2553 1204 2497 
Q 953 2441 691 2322 
L 691 4666 
z
" transform="scale(0.015625)"/>
       </defs>
       <use xlink:href="#DejaVuSans-35"/>
       <use xlink:href="#DejaVuSans-30" x="63.623047"/>
       <use xlink:href="#DejaVuSans-30" x="127.246094"/>
      </g>
     </g>
    </g>
    <g id="xtick_3">
     <g id="line2d_3">
      <g>
       <use xlink:href="#m352ac0e760" x="159.628128" y="174.04" style="stroke: #000000; stroke-width: 0.8"/>
      </g>
     </g>
     <g id="text_3">
      <!-- 1000 -->
      <g transform="translate(146.903128 188.638438) scale(0.1 -0.1)">
       <defs>
        <path id="DejaVuSans-31" d="M 794 531 
L 1825 531 
L 1825 4091 
L 703 3866 
L 703 4441 
L 1819 4666 
L 2450 4666 
L 2450 531 
L 3481 531 
L 3481 0 
L 794 0 
L 794 531 
z
" transform="scale(0.015625)"/>
       </defs>
       <use xlink:href="#DejaVuSans-31"/>
       <use xlink:href="#DejaVuSans-30" x="63.623047"/>
       <use xlink:href="#DejaVuSans-30" x="127.246094"/>
       <use xlink:href="#DejaVuSans-30" x="190.869141"/>
      </g>
     </g>
    </g>
    <g id="xtick_4">
     <g id="line2d_4">
      <g>
       <use xlink:href="#m352ac0e760" x="218.335891" y="174.04" style="stroke: #000000; stroke-width: 0.8"/>
      </g>
     </g>
     <g id="text_4">
      <!-- 1500 -->
      <g transform="translate(205.610891 188.638438) scale(0.1 -0.1)">
       <use xlink:href="#DejaVuSans-31"/>
       <use xlink:href="#DejaVuSans-35" x="63.623047"/>
       <use xlink:href="#DejaVuSans-30" x="127.246094"/>
       <use xlink:href="#DejaVuSans-30" x="190.869141"/>
      </g>
     </g>
    </g>
    <g id="text_5">
     <!-- Length -->
     <g transform="translate(116.138883 202.316563) scale(0.1 -0.1)">
      <defs>
       <path id="DejaVuSans-4c" d="M 628 4666 
L 1259 4666 
L 1259 531 
L 3531 531 
L 3531 0 
L 628 0 
L 628 4666 
z
" transform="scale(0.015625)"/>
       <path id="DejaVuSans-65" d="M 3597 1894 
L 3597 1613 
L 953 1613 
Q 991 1019 1311 708 
Q 1631 397 2203 397 
Q 2534 397 2845 478 
Q 3156 559 3463 722 
L 3463 178 
Q 3153 47 2828 -22 
Q 2503 -91 2169 -91 
Q 1331 -91 842 396 
Q 353 884 353 1716 
Q 353 2575 817 3079 
Q 1281 3584 2069 3584 
Q 2775 3584 3186 3129 
Q 3597 2675 3597 1894 
z
M 3022 2063 
Q 3016 2534 2758 2815 
Q 2500 3097 2075 3097 
Q 1594 3097 1305 2825 
Q 1016 2553 972 2059 
L 3022 2063 
z
" transform="scale(0.015625)"/>
       <path id="DejaVuSans-6e" d="M 3513 2113 
L 3513 0 
L 2938 0 
L 2938 2094 
Q 2938 2591 2744 2837 
Q 2550 3084 2163 3084 
Q 1697 3084 1428 2787 
Q 1159 2491 1159 1978 
L 1159 0 
L 581 0 
L 581 3500 
L 1159 3500 
L 1159 2956 
Q 1366 3272 1645 3428 
Q 1925 3584 2291 3584 
Q 2894 3584 3203 3211 
Q 3513 2838 3513 2113 
z
" transform="scale(0.015625)"/>
       <path id="DejaVuSans-67" d="M 2906 1791 
Q 2906 2416 2648 2759 
Q 2391 3103 1925 3103 
Q 1463 3103 1205 2759 
Q 947 2416 947 1791 
Q 947 1169 1205 825 
Q 1463 481 1925 481 
Q 2391 481 2648 825 
Q 2906 1169 2906 1791 
z
M 3481 434 
Q 3481 -459 3084 -895 
Q 2688 -1331 1869 -1331 
Q 1566 -1331 1297 -1286 
Q 1028 -1241 775 -1147 
L 775 -588 
Q 1028 -725 1275 -790 
Q 1522 -856 1778 -856 
Q 2344 -856 2625 -561 
Q 2906 -266 2906 331 
L 2906 616 
Q 2728 306 2450 153 
Q 2172 0 1784 0 
Q 1141 0 747 490 
Q 353 981 353 1791 
Q 353 2603 747 3093 
Q 1141 3584 1784 3584 
Q 2172 3584 2450 3431 
Q 2728 3278 2906 2969 
L 2906 3500 
L 3481 3500 
L 3481 434 
z
" transform="scale(0.015625)"/>
       <path id="DejaVuSans-74" d="M 1172 4494 
L 1172 3500 
L 2356 3500 
L 2356 3053 
L 1172 3053 
L 1172 1153 
Q 1172 725 1289 603 
Q 1406 481 1766 481 
L 2356 481 
L 2356 0 
L 1766 0 
Q 1100 0 847 248 
Q 594 497 594 1153 
L 594 3053 
L 172 3053 
L 172 3500 
L 594 3500 
L 594 4494 
L 1172 4494 
z
" transform="scale(0.015625)"/>
       <path id="DejaVuSans-68" d="M 3513 2113 
L 3513 0 
L 2938 0 
L 2938 2094 
Q 2938 2591 2744 2837 
Q 2550 3084 2163 3084 
Q 1697 3084 1428 2787 
Q 1159 2491 1159 1978 
L 1159 0 
L 581 0 
L 581 4863 
L 1159 4863 
L 1159 2956 
Q 1366 3272 1645 3428 
Q 1925 3584 2291 3584 
Q 2894 3584 3203 3211 
Q 3513 2838 3513 2113 
z
" transform="scale(0.015625)"/>
      </defs>
      <use xlink:href="#DejaVuSans-4c"/>
      <use xlink:href="#DejaVuSans-65" x="53.962891"/>
      <use xlink:href="#DejaVuSans-6e" x="115.486328"/>
      <use xlink:href="#DejaVuSans-67" x="178.865234"/>
      <use xlink:href="#DejaVuSans-74" x="242.341797"/>
      <use xlink:href="#DejaVuSans-68" x="281.550781"/>
     </g>
    </g>
   </g>
   <g id="matplotlib.axis_2">
    <g id="ytick_1">
     <g id="line2d_5">
      <defs>
       <path id="mccfaca0f4e" d="M 0 0 
L -3.5 0 
" style="stroke: #000000; stroke-width: 0.8"/>
      </defs>
      <g>
       <use xlink:href="#mccfaca0f4e" x="36.97" y="174.04" style="stroke: #000000; stroke-width: 0.8"/>
      </g>
     </g>
     <g id="text_6">
      <!-- 0 -->
      <g transform="translate(23.6075 177.839219) scale(0.1 -0.1)">
       <use xlink:href="#DejaVuSans-30"/>
      </g>
     </g>
    </g>
    <g id="ytick_2">
     <g id="line2d_6">
      <g>
       <use xlink:href="#mccfaca0f4e" x="36.97" y="146.210348" style="stroke: #000000; stroke-width: 0.8"/>
      </g>
     </g>
     <g id="text_7">
      <!-- 100 -->
      <g transform="translate(10.8825 150.009566) scale(0.1 -0.1)">
       <use xlink:href="#DejaVuSans-31"/>
       <use xlink:href="#DejaVuSans-30" x="63.623047"/>
       <use xlink:href="#DejaVuSans-30" x="127.246094"/>
      </g>
     </g>
    </g>
    <g id="ytick_3">
     <g id="line2d_7">
      <g>
       <use xlink:href="#mccfaca0f4e" x="36.97" y="118.380695" style="stroke: #000000; stroke-width: 0.8"/>
      </g>
     </g>
     <g id="text_8">
      <!-- 200 -->
      <g transform="translate(10.8825 122.179914) scale(0.1 -0.1)">
       <defs>
        <path id="DejaVuSans-32" d="M 1228 531 
L 3431 531 
L 3431 0 
L 469 0 
L 469 531 
Q 828 903 1448 1529 
Q 2069 2156 2228 2338 
Q 2531 2678 2651 2914 
Q 2772 3150 2772 3378 
Q 2772 3750 2511 3984 
Q 2250 4219 1831 4219 
Q 1534 4219 1204 4116 
Q 875 4013 500 3803 
L 500 4441 
Q 881 4594 1212 4672 
Q 1544 4750 1819 4750 
Q 2544 4750 2975 4387 
Q 3406 4025 3406 3419 
Q 3406 3131 3298 2873 
Q 3191 2616 2906 2266 
Q 2828 2175 2409 1742 
Q 1991 1309 1228 531 
z
" transform="scale(0.015625)"/>
       </defs>
       <use xlink:href="#DejaVuSans-32"/>
       <use xlink:href="#DejaVuSans-30" x="63.623047"/>
       <use xlink:href="#DejaVuSans-30" x="127.246094"/>
      </g>
     </g>
    </g>
    <g id="ytick_4">
     <g id="line2d_8">
      <g>
       <use xlink:href="#mccfaca0f4e" x="36.97" y="90.551043" style="stroke: #000000; stroke-width: 0.8"/>
      </g>
     </g>
     <g id="text_9">
      <!-- 300 -->
      <g transform="translate(10.8825 94.350262) scale(0.1 -0.1)">
       <defs>
        <path id="DejaVuSans-33" d="M 2597 2516 
Q 3050 2419 3304 2112 
Q 3559 1806 3559 1356 
Q 3559 666 3084 287 
Q 2609 -91 1734 -91 
Q 1441 -91 1130 -33 
Q 819 25 488 141 
L 488 750 
Q 750 597 1062 519 
Q 1375 441 1716 441 
Q 2309 441 2620 675 
Q 2931 909 2931 1356 
Q 2931 1769 2642 2001 
Q 2353 2234 1838 2234 
L 1294 2234 
L 1294 2753 
L 1863 2753 
Q 2328 2753 2575 2939 
Q 2822 3125 2822 3475 
Q 2822 3834 2567 4026 
Q 2313 4219 1838 4219 
Q 1578 4219 1281 4162 
Q 984 4106 628 3988 
L 628 4550 
Q 988 4650 1302 4700 
Q 1616 4750 1894 4750 
Q 2613 4750 3031 4423 
Q 3450 4097 3450 3541 
Q 3450 3153 3228 2886 
Q 3006 2619 2597 2516 
z
" transform="scale(0.015625)"/>
       </defs>
       <use xlink:href="#DejaVuSans-33"/>
       <use xlink:href="#DejaVuSans-30" x="63.623047"/>
       <use xlink:href="#DejaVuSans-30" x="127.246094"/>
      </g>
     </g>
    </g>
    <g id="ytick_5">
     <g id="line2d_9">
      <g>
       <use xlink:href="#mccfaca0f4e" x="36.97" y="62.72139" style="stroke: #000000; stroke-width: 0.8"/>
      </g>
     </g>
     <g id="text_10">
      <!-- 400 -->
      <g transform="translate(10.8825 66.520609) scale(0.1 -0.1)">
       <defs>
        <path id="DejaVuSans-34" d="M 2419 4116 
L 825 1625 
L 2419 1625 
L 2419 4116 
z
M 2253 4666 
L 3047 4666 
L 3047 1625 
L 3713 1625 
L 3713 1100 
L 3047 1100 
L 3047 0 
L 2419 0 
L 2419 1100 
L 313 1100 
L 313 1709 
L 2253 4666 
z
" transform="scale(0.015625)"/>
       </defs>
       <use xlink:href="#DejaVuSans-34"/>
       <use xlink:href="#DejaVuSans-30" x="63.623047"/>
       <use xlink:href="#DejaVuSans-30" x="127.246094"/>
      </g>
     </g>
    </g>
    <g id="ytick_6">
     <g id="line2d_10">
      <g>
       <use xlink:href="#mccfaca0f4e" x="36.97" y="34.891738" style="stroke: #000000; stroke-width: 0.8"/>
      </g>
     </g>
     <g id="text_11">
      <!-- 500 -->
      <g transform="translate(10.8825 38.690957) scale(0.1 -0.1)">
       <use xlink:href="#DejaVuSans-35"/>
       <use xlink:href="#DejaVuSans-30" x="63.623047"/>
       <use xlink:href="#DejaVuSans-30" x="127.246094"/>
      </g>
     </g>
    </g>
   </g>
   <g id="patch_13">
    <path d="M 36.97 174.04 
L 36.97 24.72 
" style="fill: none; stroke: #000000; stroke-width: 0.8; stroke-linejoin: miter; stroke-linecap: square"/>
   </g>
   <g id="patch_14">
    <path d="M 36.97 174.04 
L 229.801517 174.04 
" style="fill: none; stroke: #000000; stroke-width: 0.8; stroke-linejoin: miter; stroke-linecap: square"/>
   </g>
   <g id="text_12">
    <!-- Rating = 1 -->
    <g transform="translate(106.718571 18.72) scale(0.1 -0.1)">
     <defs>
      <path id="DejaVuSans-52" d="M 2841 2188 
Q 3044 2119 3236 1894 
Q 3428 1669 3622 1275 
L 4263 0 
L 3584 0 
L 2988 1197 
Q 2756 1666 2539 1819 
Q 2322 1972 1947 1972 
L 1259 1972 
L 1259 0 
L 628 0 
L 628 4666 
L 2053 4666 
Q 2853 4666 3247 4331 
Q 3641 3997 3641 3322 
Q 3641 2881 3436 2590 
Q 3231 2300 2841 2188 
z
M 1259 4147 
L 1259 2491 
L 2053 2491 
Q 2509 2491 2742 2702 
Q 2975 2913 2975 3322 
Q 2975 3731 2742 3939 
Q 2509 4147 2053 4147 
L 1259 4147 
z
" transform="scale(0.015625)"/>
      <path id="DejaVuSans-61" d="M 2194 1759 
Q 1497 1759 1228 1600 
Q 959 1441 959 1056 
Q 959 750 1161 570 
Q 1363 391 1709 391 
Q 2188 391 2477 730 
Q 2766 1069 2766 1631 
L 2766 1759 
L 2194 1759 
z
M 3341 1997 
L 3341 0 
L 2766 0 
L 2766 531 
Q 2569 213 2275 61 
Q 1981 -91 1556 -91 
Q 1019 -91 701 211 
Q 384 513 384 1019 
Q 384 1609 779 1909 
Q 1175 2209 1959 2209 
L 2766 2209 
L 2766 2266 
Q 2766 2663 2505 2880 
Q 2244 3097 1772 3097 
Q 1472 3097 1187 3025 
Q 903 2953 641 2809 
L 641 3341 
Q 956 3463 1253 3523 
Q 1550 3584 1831 3584 
Q 2591 3584 2966 3190 
Q 3341 2797 3341 1997 
z
" transform="scale(0.015625)"/>
      <path id="DejaVuSans-69" d="M 603 3500 
L 1178 3500 
L 1178 0 
L 603 0 
L 603 3500 
z
M 603 4863 
L 1178 4863 
L 1178 4134 
L 603 4134 
L 603 4863 
z
" transform="scale(0.015625)"/>
      <path id="DejaVuSans-20" transform="scale(0.015625)"/>
      <path id="DejaVuSans-3d" d="M 678 2906 
L 4684 2906 
L 4684 2381 
L 678 2381 
L 678 2906 
z
M 678 1631 
L 4684 1631 
L 4684 1100 
L 678 1100 
L 678 1631 
z
" transform="scale(0.015625)"/>
     </defs>
     <use xlink:href="#DejaVuSans-52"/>
     <use xlink:href="#DejaVuSans-61" x="67.232422"/>
     <use xlink:href="#DejaVuSans-74" x="128.511719"/>
     <use xlink:href="#DejaVuSans-69" x="167.720703"/>
     <use xlink:href="#DejaVuSans-6e" x="195.503906"/>
     <use xlink:href="#DejaVuSans-67" x="258.882812"/>
     <use xlink:href="#DejaVuSans-20" x="322.359375"/>
     <use xlink:href="#DejaVuSans-3d" x="354.146484"/>
     <use xlink:href="#DejaVuSans-20" x="437.935547"/>
     <use xlink:href="#DejaVuSans-31" x="469.722656"/>
    </g>
   </g>
  </g>
  <g id="axes_2">
   <g id="patch_15">
    <path d="M 246.276 174.04 
L 439.107517 174.04 
L 439.107517 24.72 
L 246.276 24.72 
z
" style="fill: #ffffff"/>
   </g>
   <g id="patch_16">
    <path d="M 255.862978 174.04 
L 261.09971 174.04 
L 261.09971 173.483407 
L 255.862978 173.483407 
z
" clip-path="url(#p8eeff83ac5)" style="fill: #1d3557"/>
   </g>
   <g id="patch_17">
    <path d="M 261.09971 174.04 
L 266.336442 174.04 
L 266.336442 173.483407 
L 261.09971 173.483407 
z
" clip-path="url(#p8eeff83ac5)" style="fill: #1d3557"/>
   </g>
   <g id="patch_18">
    <path d="M 266.336442 174.04 
L 271.573175 174.04 
L 271.573175 172.926814 
L 266.336442 172.926814 
z
" clip-path="url(#p8eeff83ac5)" style="fill: #1d3557"/>
   </g>
   <g id="patch_19">
    <path d="M 271.573175 174.04 
L 276.809907 174.04 
L 276.809907 173.761703 
L 271.573175 173.761703 
z
" clip-path="url(#p8eeff83ac5)" style="fill: #1d3557"/>
   </g>
   <g id="patch_20">
    <path d="M 276.809907 174.04 
L 282.04664 174.04 
L 282.04664 173.761703 
L 276.809907 173.761703 
z
" clip-path="url(#p8eeff83ac5)" style="fill: #1d3557"/>
   </g>
   <g id="patch_21">
    <path d="M 282.04664 174.04 
L 287.283372 174.04 
L 287.283372 173.761703 
L 282.04664 173.761703 
z
" clip-path="url(#p8eeff83ac5)" style="fill: #1d3557"/>
   </g>
   <g id="patch_22">
    <path d="M 287.283372 174.04 
L 292.520104 174.04 
L 292.520104 174.04 
L 287.283372 174.04 
z
" clip-path="url(#p8eeff83ac5)" style="fill: #1d3557"/>
   </g>
   <g id="patch_23">
    <path d="M 292.520104 174.04 
L 297.756837 174.04 
L 297.756837 174.04 
L 292.520104 174.04 
z
" clip-path="url(#p8eeff83ac5)" style="fill: #1d3557"/>
   </g>
   <g id="patch_24">
    <path d="M 297.756837 174.04 
L 302.993569 174.04 
L 302.993569 174.04 
L 297.756837 174.04 
z
" clip-path="url(#p8eeff83ac5)" style="fill: #1d3557"/>
   </g>
   <g id="patch_25">
    <path d="M 302.993569 174.04 
L 308.230302 174.04 
L 308.230302 173.483407 
L 302.993569 173.483407 
z
" clip-path="url(#p8eeff83ac5)" style="fill: #1d3557"/>
   </g>
   <g id="matplotlib.axis_3">
    <g id="xtick_5">
     <g id="line2d_11">
      <g>
       <use xlink:href="#m352ac0e760" x="251.518603" y="174.04" style="stroke: #000000; stroke-width: 0.8"/>
      </g>
     </g>
     <g id="text_13">
      <!-- 0 -->
      <g transform="translate(248.337353 188.638438) scale(0.1 -0.1)">
       <use xlink:href="#DejaVuSans-30"/>
      </g>
     </g>
    </g>
    <g id="xtick_6">
     <g id="line2d_12">
      <g>
       <use xlink:href="#m352ac0e760" x="310.226366" y="174.04" style="stroke: #000000; stroke-width: 0.8"/>
      </g>
     </g>
     <g id="text_14">
      <!-- 500 -->
      <g transform="translate(300.682616 188.638438) scale(0.1 -0.1)">
       <use xlink:href="#DejaVuSans-35"/>
       <use xlink:href="#DejaVuSans-30" x="63.623047"/>
       <use xlink:href="#DejaVuSans-30" x="127.246094"/>
      </g>
     </g>
    </g>
    <g id="xtick_7">
     <g id="line2d_13">
      <g>
       <use xlink:href="#m352ac0e760" x="368.934128" y="174.04" style="stroke: #000000; stroke-width: 0.8"/>
      </g>
     </g>
     <g id="text_15">
      <!-- 1000 -->
      <g transform="translate(356.209128 188.638438) scale(0.1 -0.1)">
       <use xlink:href="#DejaVuSans-31"/>
       <use xlink:href="#DejaVuSans-30" x="63.623047"/>
       <use xlink:href="#DejaVuSans-30" x="127.246094"/>
       <use xlink:href="#DejaVuSans-30" x="190.869141"/>
      </g>
     </g>
    </g>
    <g id="xtick_8">
     <g id="line2d_14">
      <g>
       <use xlink:href="#m352ac0e760" x="427.641891" y="174.04" style="stroke: #000000; stroke-width: 0.8"/>
      </g>
     </g>
     <g id="text_16">
      <!-- 1500 -->
      <g transform="translate(414.916891 188.638438) scale(0.1 -0.1)">
       <use xlink:href="#DejaVuSans-31"/>
       <use xlink:href="#DejaVuSans-35" x="63.623047"/>
       <use xlink:href="#DejaVuSans-30" x="127.246094"/>
       <use xlink:href="#DejaVuSans-30" x="190.869141"/>
      </g>
     </g>
    </g>
    <g id="text_17">
     <!-- Length -->
     <g transform="translate(325.444883 202.316563) scale(0.1 -0.1)">
      <use xlink:href="#DejaVuSans-4c"/>
      <use xlink:href="#DejaVuSans-65" x="53.962891"/>
      <use xlink:href="#DejaVuSans-6e" x="115.486328"/>
      <use xlink:href="#DejaVuSans-67" x="178.865234"/>
      <use xlink:href="#DejaVuSans-74" x="242.341797"/>
      <use xlink:href="#DejaVuSans-68" x="281.550781"/>
     </g>
    </g>
   </g>
   <g id="matplotlib.axis_4">
    <g id="ytick_7">
     <g id="line2d_15">
      <g>
       <use xlink:href="#mccfaca0f4e" x="246.276" y="174.04" style="stroke: #000000; stroke-width: 0.8"/>
      </g>
     </g>
    </g>
    <g id="ytick_8">
     <g id="line2d_16">
      <g>
       <use xlink:href="#mccfaca0f4e" x="246.276" y="146.210348" style="stroke: #000000; stroke-width: 0.8"/>
      </g>
     </g>
    </g>
    <g id="ytick_9">
     <g id="line2d_17">
      <g>
       <use xlink:href="#mccfaca0f4e" x="246.276" y="118.380695" style="stroke: #000000; stroke-width: 0.8"/>
      </g>
     </g>
    </g>
    <g id="ytick_10">
     <g id="line2d_18">
      <g>
       <use xlink:href="#mccfaca0f4e" x="246.276" y="90.551043" style="stroke: #000000; stroke-width: 0.8"/>
      </g>
     </g>
    </g>
    <g id="ytick_11">
     <g id="line2d_19">
      <g>
       <use xlink:href="#mccfaca0f4e" x="246.276" y="62.72139" style="stroke: #000000; stroke-width: 0.8"/>
      </g>
     </g>
    </g>
    <g id="ytick_12">
     <g id="line2d_20">
      <g>
       <use xlink:href="#mccfaca0f4e" x="246.276" y="34.891738" style="stroke: #000000; stroke-width: 0.8"/>
      </g>
     </g>
    </g>
   </g>
   <g id="patch_26">
    <path d="M 246.276 174.04 
L 246.276 24.72 
" style="fill: none; stroke: #000000; stroke-width: 0.8; stroke-linejoin: miter; stroke-linecap: square"/>
   </g>
   <g id="patch_27">
    <path d="M 246.276 174.04 
L 439.107517 174.04 
" style="fill: none; stroke: #000000; stroke-width: 0.8; stroke-linejoin: miter; stroke-linecap: square"/>
   </g>
   <g id="text_18">
    <!-- Rating = 2 -->
    <g transform="translate(316.024571 18.72) scale(0.1 -0.1)">
     <use xlink:href="#DejaVuSans-52"/>
     <use xlink:href="#DejaVuSans-61" x="67.232422"/>
     <use xlink:href="#DejaVuSans-74" x="128.511719"/>
     <use xlink:href="#DejaVuSans-69" x="167.720703"/>
     <use xlink:href="#DejaVuSans-6e" x="195.503906"/>
     <use xlink:href="#DejaVuSans-67" x="258.882812"/>
     <use xlink:href="#DejaVuSans-20" x="322.359375"/>
     <use xlink:href="#DejaVuSans-3d" x="354.146484"/>
     <use xlink:href="#DejaVuSans-20" x="437.935547"/>
     <use xlink:href="#DejaVuSans-32" x="469.722656"/>
    </g>
   </g>
  </g>
  <g id="axes_3">
   <g id="patch_28">
    <path d="M 455.582 174.04 
L 648.413517 174.04 
L 648.413517 24.72 
L 455.582 24.72 
z
" style="fill: #ffffff"/>
   </g>
   <g id="patch_29">
    <path d="M 465.168978 174.04 
L 475.39587 174.04 
L 475.39587 170.143849 
L 465.168978 170.143849 
z
" clip-path="url(#pd0b9fdd09a)" style="fill: #1d3557"/>
   </g>
   <g id="patch_30">
    <path d="M 475.39587 174.04 
L 485.622762 174.04 
L 485.622762 172.926814 
L 475.39587 172.926814 
z
" clip-path="url(#pd0b9fdd09a)" style="fill: #1d3557"/>
   </g>
   <g id="patch_31">
    <path d="M 485.622762 174.04 
L 495.849654 174.04 
L 495.849654 173.483407 
L 485.622762 173.483407 
z
" clip-path="url(#pd0b9fdd09a)" style="fill: #1d3557"/>
   </g>
   <g id="patch_32">
    <path d="M 495.849654 174.04 
L 506.076546 174.04 
L 506.076546 174.04 
L 495.849654 174.04 
z
" clip-path="url(#pd0b9fdd09a)" style="fill: #1d3557"/>
   </g>
   <g id="patch_33">
    <path d="M 506.076546 174.04 
L 516.303439 174.04 
L 516.303439 174.04 
L 506.076546 174.04 
z
" clip-path="url(#pd0b9fdd09a)" style="fill: #1d3557"/>
   </g>
   <g id="patch_34">
    <path d="M 516.303439 174.04 
L 526.530331 174.04 
L 526.530331 174.04 
L 516.303439 174.04 
z
" clip-path="url(#pd0b9fdd09a)" style="fill: #1d3557"/>
   </g>
   <g id="patch_35">
    <path d="M 526.530331 174.04 
L 536.757223 174.04 
L 536.757223 174.04 
L 526.530331 174.04 
z
" clip-path="url(#pd0b9fdd09a)" style="fill: #1d3557"/>
   </g>
   <g id="patch_36">
    <path d="M 536.757223 174.04 
L 546.984115 174.04 
L 546.984115 174.04 
L 536.757223 174.04 
z
" clip-path="url(#pd0b9fdd09a)" style="fill: #1d3557"/>
   </g>
   <g id="patch_37">
    <path d="M 546.984115 174.04 
L 557.211008 174.04 
L 557.211008 173.761703 
L 546.984115 173.761703 
z
" clip-path="url(#pd0b9fdd09a)" style="fill: #1d3557"/>
   </g>
   <g id="patch_38">
    <path d="M 557.211008 174.04 
L 567.4379 174.04 
L 567.4379 173.761703 
L 557.211008 173.761703 
z
" clip-path="url(#pd0b9fdd09a)" style="fill: #1d3557"/>
   </g>
   <g id="matplotlib.axis_5">
    <g id="xtick_9">
     <g id="line2d_21">
      <g>
       <use xlink:href="#m352ac0e760" x="460.824603" y="174.04" style="stroke: #000000; stroke-width: 0.8"/>
      </g>
     </g>
     <g id="text_19">
      <!-- 0 -->
      <g transform="translate(457.643353 188.638438) scale(0.1 -0.1)">
       <use xlink:href="#DejaVuSans-30"/>
      </g>
     </g>
    </g>
    <g id="xtick_10">
     <g id="line2d_22">
      <g>
       <use xlink:href="#m352ac0e760" x="519.532366" y="174.04" style="stroke: #000000; stroke-width: 0.8"/>
      </g>
     </g>
     <g id="text_20">
      <!-- 500 -->
      <g transform="translate(509.988616 188.638438) scale(0.1 -0.1)">
       <use xlink:href="#DejaVuSans-35"/>
       <use xlink:href="#DejaVuSans-30" x="63.623047"/>
       <use xlink:href="#DejaVuSans-30" x="127.246094"/>
      </g>
     </g>
    </g>
    <g id="xtick_11">
     <g id="line2d_23">
      <g>
       <use xlink:href="#m352ac0e760" x="578.240128" y="174.04" style="stroke: #000000; stroke-width: 0.8"/>
      </g>
     </g>
     <g id="text_21">
      <!-- 1000 -->
      <g transform="translate(565.515128 188.638438) scale(0.1 -0.1)">
       <use xlink:href="#DejaVuSans-31"/>
       <use xlink:href="#DejaVuSans-30" x="63.623047"/>
       <use xlink:href="#DejaVuSans-30" x="127.246094"/>
       <use xlink:href="#DejaVuSans-30" x="190.869141"/>
      </g>
     </g>
    </g>
    <g id="xtick_12">
     <g id="line2d_24">
      <g>
       <use xlink:href="#m352ac0e760" x="636.947891" y="174.04" style="stroke: #000000; stroke-width: 0.8"/>
      </g>
     </g>
     <g id="text_22">
      <!-- 1500 -->
      <g transform="translate(624.222891 188.638438) scale(0.1 -0.1)">
       <use xlink:href="#DejaVuSans-31"/>
       <use xlink:href="#DejaVuSans-35" x="63.623047"/>
       <use xlink:href="#DejaVuSans-30" x="127.246094"/>
       <use xlink:href="#DejaVuSans-30" x="190.869141"/>
      </g>
     </g>
    </g>
    <g id="text_23">
     <!-- Length -->
     <g transform="translate(534.750883 202.316563) scale(0.1 -0.1)">
      <use xlink:href="#DejaVuSans-4c"/>
      <use xlink:href="#DejaVuSans-65" x="53.962891"/>
      <use xlink:href="#DejaVuSans-6e" x="115.486328"/>
      <use xlink:href="#DejaVuSans-67" x="178.865234"/>
      <use xlink:href="#DejaVuSans-74" x="242.341797"/>
      <use xlink:href="#DejaVuSans-68" x="281.550781"/>
     </g>
    </g>
   </g>
   <g id="matplotlib.axis_6">
    <g id="ytick_13">
     <g id="line2d_25">
      <g>
       <use xlink:href="#mccfaca0f4e" x="455.582" y="174.04" style="stroke: #000000; stroke-width: 0.8"/>
      </g>
     </g>
    </g>
    <g id="ytick_14">
     <g id="line2d_26">
      <g>
       <use xlink:href="#mccfaca0f4e" x="455.582" y="146.210348" style="stroke: #000000; stroke-width: 0.8"/>
      </g>
     </g>
    </g>
    <g id="ytick_15">
     <g id="line2d_27">
      <g>
       <use xlink:href="#mccfaca0f4e" x="455.582" y="118.380695" style="stroke: #000000; stroke-width: 0.8"/>
      </g>
     </g>
    </g>
    <g id="ytick_16">
     <g id="line2d_28">
      <g>
       <use xlink:href="#mccfaca0f4e" x="455.582" y="90.551043" style="stroke: #000000; stroke-width: 0.8"/>
      </g>
     </g>
    </g>
    <g id="ytick_17">
     <g id="line2d_29">
      <g>
       <use xlink:href="#mccfaca0f4e" x="455.582" y="62.72139" style="stroke: #000000; stroke-width: 0.8"/>
      </g>
     </g>
    </g>
    <g id="ytick_18">
     <g id="line2d_30">
      <g>
       <use xlink:href="#mccfaca0f4e" x="455.582" y="34.891738" style="stroke: #000000; stroke-width: 0.8"/>
      </g>
     </g>
    </g>
   </g>
   <g id="patch_39">
    <path d="M 455.582 174.04 
L 455.582 24.72 
" style="fill: none; stroke: #000000; stroke-width: 0.8; stroke-linejoin: miter; stroke-linecap: square"/>
   </g>
   <g id="patch_40">
    <path d="M 455.582 174.04 
L 648.413517 174.04 
" style="fill: none; stroke: #000000; stroke-width: 0.8; stroke-linejoin: miter; stroke-linecap: square"/>
   </g>
   <g id="text_24">
    <!-- Rating = 3 -->
    <g transform="translate(525.330571 18.72) scale(0.1 -0.1)">
     <use xlink:href="#DejaVuSans-52"/>
     <use xlink:href="#DejaVuSans-61" x="67.232422"/>
     <use xlink:href="#DejaVuSans-74" x="128.511719"/>
     <use xlink:href="#DejaVuSans-69" x="167.720703"/>
     <use xlink:href="#DejaVuSans-6e" x="195.503906"/>
     <use xlink:href="#DejaVuSans-67" x="258.882812"/>
     <use xlink:href="#DejaVuSans-20" x="322.359375"/>
     <use xlink:href="#DejaVuSans-3d" x="354.146484"/>
     <use xlink:href="#DejaVuSans-20" x="437.935547"/>
     <use xlink:href="#DejaVuSans-33" x="469.722656"/>
    </g>
   </g>
  </g>
  <g id="axes_4">
   <g id="patch_41">
    <path d="M 664.888 174.04 
L 857.719517 174.04 
L 857.719517 24.72 
L 664.888 24.72 
z
" style="fill: #ffffff"/>
   </g>
   <g id="patch_42">
    <path d="M 673.770484 174.04 
L 681.472943 174.04 
L 681.472943 161.516656 
L 673.770484 161.516656 
z
" clip-path="url(#pf7407909bc)" style="fill: #1d3557"/>
   </g>
   <g id="patch_43">
    <path d="M 681.472943 174.04 
L 689.175401 174.04 
L 689.175401 169.030663 
L 681.472943 169.030663 
z
" clip-path="url(#pf7407909bc)" style="fill: #1d3557"/>
   </g>
   <g id="patch_44">
    <path d="M 689.175401 174.04 
L 696.87786 174.04 
L 696.87786 171.813628 
L 689.175401 171.813628 
z
" clip-path="url(#pf7407909bc)" style="fill: #1d3557"/>
   </g>
   <g id="patch_45">
    <path d="M 696.87786 174.04 
L 704.580318 174.04 
L 704.580318 171.535331 
L 696.87786 171.535331 
z
" clip-path="url(#pf7407909bc)" style="fill: #1d3557"/>
   </g>
   <g id="patch_46">
    <path d="M 704.580318 174.04 
L 712.282777 174.04 
L 712.282777 173.20511 
L 704.580318 173.20511 
z
" clip-path="url(#pf7407909bc)" style="fill: #1d3557"/>
   </g>
   <g id="patch_47">
    <path d="M 712.282777 174.04 
L 719.985235 174.04 
L 719.985235 173.483407 
L 712.282777 173.483407 
z
" clip-path="url(#pf7407909bc)" style="fill: #1d3557"/>
   </g>
   <g id="patch_48">
    <path d="M 719.985235 174.04 
L 727.687694 174.04 
L 727.687694 173.761703 
L 719.985235 173.761703 
z
" clip-path="url(#pf7407909bc)" style="fill: #1d3557"/>
   </g>
   <g id="patch_49">
    <path d="M 727.687694 174.04 
L 735.390152 174.04 
L 735.390152 174.04 
L 727.687694 174.04 
z
" clip-path="url(#pf7407909bc)" style="fill: #1d3557"/>
   </g>
   <g id="patch_50">
    <path d="M 735.390152 174.04 
L 743.09261 174.04 
L 743.09261 174.04 
L 735.390152 174.04 
z
" clip-path="url(#pf7407909bc)" style="fill: #1d3557"/>
   </g>
   <g id="patch_51">
    <path d="M 743.09261 174.04 
L 750.795069 174.04 
L 750.795069 173.761703 
L 743.09261 173.761703 
z
" clip-path="url(#pf7407909bc)" style="fill: #1d3557"/>
   </g>
   <g id="matplotlib.axis_7">
    <g id="xtick_13">
     <g id="line2d_31">
      <g>
       <use xlink:href="#m352ac0e760" x="670.130603" y="174.04" style="stroke: #000000; stroke-width: 0.8"/>
      </g>
     </g>
     <g id="text_25">
      <!-- 0 -->
      <g transform="translate(666.949353 188.638438) scale(0.1 -0.1)">
       <use xlink:href="#DejaVuSans-30"/>
      </g>
     </g>
    </g>
    <g id="xtick_14">
     <g id="line2d_32">
      <g>
       <use xlink:href="#m352ac0e760" x="728.838366" y="174.04" style="stroke: #000000; stroke-width: 0.8"/>
      </g>
     </g>
     <g id="text_26">
      <!-- 500 -->
      <g transform="translate(719.294616 188.638438) scale(0.1 -0.1)">
       <use xlink:href="#DejaVuSans-35"/>
       <use xlink:href="#DejaVuSans-30" x="63.623047"/>
       <use xlink:href="#DejaVuSans-30" x="127.246094"/>
      </g>
     </g>
    </g>
    <g id="xtick_15">
     <g id="line2d_33">
      <g>
       <use xlink:href="#m352ac0e760" x="787.546128" y="174.04" style="stroke: #000000; stroke-width: 0.8"/>
      </g>
     </g>
     <g id="text_27">
      <!-- 1000 -->
      <g transform="translate(774.821128 188.638438) scale(0.1 -0.1)">
       <use xlink:href="#DejaVuSans-31"/>
       <use xlink:href="#DejaVuSans-30" x="63.623047"/>
       <use xlink:href="#DejaVuSans-30" x="127.246094"/>
       <use xlink:href="#DejaVuSans-30" x="190.869141"/>
      </g>
     </g>
    </g>
    <g id="xtick_16">
     <g id="line2d_34">
      <g>
       <use xlink:href="#m352ac0e760" x="846.253891" y="174.04" style="stroke: #000000; stroke-width: 0.8"/>
      </g>
     </g>
     <g id="text_28">
      <!-- 1500 -->
      <g transform="translate(833.528891 188.638438) scale(0.1 -0.1)">
       <use xlink:href="#DejaVuSans-31"/>
       <use xlink:href="#DejaVuSans-35" x="63.623047"/>
       <use xlink:href="#DejaVuSans-30" x="127.246094"/>
       <use xlink:href="#DejaVuSans-30" x="190.869141"/>
      </g>
     </g>
    </g>
    <g id="text_29">
     <!-- Length -->
     <g transform="translate(744.056883 202.316563) scale(0.1 -0.1)">
      <use xlink:href="#DejaVuSans-4c"/>
      <use xlink:href="#DejaVuSans-65" x="53.962891"/>
      <use xlink:href="#DejaVuSans-6e" x="115.486328"/>
      <use xlink:href="#DejaVuSans-67" x="178.865234"/>
      <use xlink:href="#DejaVuSans-74" x="242.341797"/>
      <use xlink:href="#DejaVuSans-68" x="281.550781"/>
     </g>
    </g>
   </g>
   <g id="matplotlib.axis_8">
    <g id="ytick_19">
     <g id="line2d_35">
      <g>
       <use xlink:href="#mccfaca0f4e" x="664.888" y="174.04" style="stroke: #000000; stroke-width: 0.8"/>
      </g>
     </g>
    </g>
    <g id="ytick_20">
     <g id="line2d_36">
      <g>
       <use xlink:href="#mccfaca0f4e" x="664.888" y="146.210348" style="stroke: #000000; stroke-width: 0.8"/>
      </g>
     </g>
    </g>
    <g id="ytick_21">
     <g id="line2d_37">
      <g>
       <use xlink:href="#mccfaca0f4e" x="664.888" y="118.380695" style="stroke: #000000; stroke-width: 0.8"/>
      </g>
     </g>
    </g>
    <g id="ytick_22">
     <g id="line2d_38">
      <g>
       <use xlink:href="#mccfaca0f4e" x="664.888" y="90.551043" style="stroke: #000000; stroke-width: 0.8"/>
      </g>
     </g>
    </g>
    <g id="ytick_23">
     <g id="line2d_39">
      <g>
       <use xlink:href="#mccfaca0f4e" x="664.888" y="62.72139" style="stroke: #000000; stroke-width: 0.8"/>
      </g>
     </g>
    </g>
    <g id="ytick_24">
     <g id="line2d_40">
      <g>
       <use xlink:href="#mccfaca0f4e" x="664.888" y="34.891738" style="stroke: #000000; stroke-width: 0.8"/>
      </g>
     </g>
    </g>
   </g>
   <g id="patch_52">
    <path d="M 664.888 174.04 
L 664.888 24.72 
" style="fill: none; stroke: #000000; stroke-width: 0.8; stroke-linejoin: miter; stroke-linecap: square"/>
   </g>
   <g id="patch_53">
    <path d="M 664.888 174.04 
L 857.719517 174.04 
" style="fill: none; stroke: #000000; stroke-width: 0.8; stroke-linejoin: miter; stroke-linecap: square"/>
   </g>
   <g id="text_30">
    <!-- Rating = 4 -->
    <g transform="translate(734.636571 18.72) scale(0.1 -0.1)">
     <use xlink:href="#DejaVuSans-52"/>
     <use xlink:href="#DejaVuSans-61" x="67.232422"/>
     <use xlink:href="#DejaVuSans-74" x="128.511719"/>
     <use xlink:href="#DejaVuSans-69" x="167.720703"/>
     <use xlink:href="#DejaVuSans-6e" x="195.503906"/>
     <use xlink:href="#DejaVuSans-67" x="258.882812"/>
     <use xlink:href="#DejaVuSans-20" x="322.359375"/>
     <use xlink:href="#DejaVuSans-3d" x="354.146484"/>
     <use xlink:href="#DejaVuSans-20" x="437.935547"/>
     <use xlink:href="#DejaVuSans-34" x="469.722656"/>
    </g>
   </g>
  </g>
  <g id="axes_5">
   <g id="patch_54">
    <path d="M 874.194 174.04 
L 1067.025517 174.04 
L 1067.025517 24.72 
L 874.194 24.72 
z
" style="fill: #ffffff"/>
   </g>
   <g id="patch_55">
    <path d="M 882.959069 174.04 
L 900.489207 174.04 
L 900.489207 31.830476 
L 882.959069 31.830476 
z
" clip-path="url(#p446b9ff5ce)" style="fill: #1d3557"/>
   </g>
   <g id="patch_56">
    <path d="M 900.489207 174.04 
L 918.019345 174.04 
L 918.019345 152.889464 
L 900.489207 152.889464 
z
" clip-path="url(#p446b9ff5ce)" style="fill: #1d3557"/>
   </g>
   <g id="patch_57">
    <path d="M 918.019345 174.04 
L 935.549483 174.04 
L 935.549483 165.691104 
L 918.019345 165.691104 
z
" clip-path="url(#p446b9ff5ce)" style="fill: #1d3557"/>
   </g>
   <g id="patch_58">
    <path d="M 935.549483 174.04 
L 953.07962 174.04 
L 953.07962 172.091924 
L 935.549483 172.091924 
z
" clip-path="url(#p446b9ff5ce)" style="fill: #1d3557"/>
   </g>
   <g id="patch_59">
    <path d="M 953.07962 174.04 
L 970.609758 174.04 
L 970.609758 171.813628 
L 953.07962 171.813628 
z
" clip-path="url(#p446b9ff5ce)" style="fill: #1d3557"/>
   </g>
   <g id="patch_60">
    <path d="M 970.609758 174.04 
L 988.139896 174.04 
L 988.139896 173.761703 
L 970.609758 173.761703 
z
" clip-path="url(#p446b9ff5ce)" style="fill: #1d3557"/>
   </g>
   <g id="patch_61">
    <path d="M 988.139896 174.04 
L 1005.670034 174.04 
L 1005.670034 173.761703 
L 988.139896 173.761703 
z
" clip-path="url(#p446b9ff5ce)" style="fill: #1d3557"/>
   </g>
   <g id="patch_62">
    <path d="M 1005.670034 174.04 
L 1023.200172 174.04 
L 1023.200172 172.926814 
L 1005.670034 172.926814 
z
" clip-path="url(#p446b9ff5ce)" style="fill: #1d3557"/>
   </g>
   <g id="patch_63">
    <path d="M 1023.200172 174.04 
L 1040.73031 174.04 
L 1040.73031 173.761703 
L 1023.200172 173.761703 
z
" clip-path="url(#p446b9ff5ce)" style="fill: #1d3557"/>
   </g>
   <g id="patch_64">
    <path d="M 1040.73031 174.04 
L 1058.260448 174.04 
L 1058.260448 173.483407 
L 1040.73031 173.483407 
z
" clip-path="url(#p446b9ff5ce)" style="fill: #1d3557"/>
   </g>
   <g id="matplotlib.axis_9">
    <g id="xtick_17">
     <g id="line2d_41">
      <g>
       <use xlink:href="#m352ac0e760" x="879.436603" y="174.04" style="stroke: #000000; stroke-width: 0.8"/>
      </g>
     </g>
     <g id="text_31">
      <!-- 0 -->
      <g transform="translate(876.255353 188.638438) scale(0.1 -0.1)">
       <use xlink:href="#DejaVuSans-30"/>
      </g>
     </g>
    </g>
    <g id="xtick_18">
     <g id="line2d_42">
      <g>
       <use xlink:href="#m352ac0e760" x="938.144366" y="174.04" style="stroke: #000000; stroke-width: 0.8"/>
      </g>
     </g>
     <g id="text_32">
      <!-- 500 -->
      <g transform="translate(928.600616 188.638438) scale(0.1 -0.1)">
       <use xlink:href="#DejaVuSans-35"/>
       <use xlink:href="#DejaVuSans-30" x="63.623047"/>
       <use xlink:href="#DejaVuSans-30" x="127.246094"/>
      </g>
     </g>
    </g>
    <g id="xtick_19">
     <g id="line2d_43">
      <g>
       <use xlink:href="#m352ac0e760" x="996.852128" y="174.04" style="stroke: #000000; stroke-width: 0.8"/>
      </g>
     </g>
     <g id="text_33">
      <!-- 1000 -->
      <g transform="translate(984.127128 188.638438) scale(0.1 -0.1)">
       <use xlink:href="#DejaVuSans-31"/>
       <use xlink:href="#DejaVuSans-30" x="63.623047"/>
       <use xlink:href="#DejaVuSans-30" x="127.246094"/>
       <use xlink:href="#DejaVuSans-30" x="190.869141"/>
      </g>
     </g>
    </g>
    <g id="xtick_20">
     <g id="line2d_44">
      <g>
       <use xlink:href="#m352ac0e760" x="1055.559891" y="174.04" style="stroke: #000000; stroke-width: 0.8"/>
      </g>
     </g>
     <g id="text_34">
      <!-- 1500 -->
      <g transform="translate(1042.834891 188.638438) scale(0.1 -0.1)">
       <use xlink:href="#DejaVuSans-31"/>
       <use xlink:href="#DejaVuSans-35" x="63.623047"/>
       <use xlink:href="#DejaVuSans-30" x="127.246094"/>
       <use xlink:href="#DejaVuSans-30" x="190.869141"/>
      </g>
     </g>
    </g>
    <g id="text_35">
     <!-- Length -->
     <g transform="translate(953.362883 202.316563) scale(0.1 -0.1)">
      <use xlink:href="#DejaVuSans-4c"/>
      <use xlink:href="#DejaVuSans-65" x="53.962891"/>
      <use xlink:href="#DejaVuSans-6e" x="115.486328"/>
      <use xlink:href="#DejaVuSans-67" x="178.865234"/>
      <use xlink:href="#DejaVuSans-74" x="242.341797"/>
      <use xlink:href="#DejaVuSans-68" x="281.550781"/>
     </g>
    </g>
   </g>
   <g id="matplotlib.axis_10">
    <g id="ytick_25">
     <g id="line2d_45">
      <g>
       <use xlink:href="#mccfaca0f4e" x="874.194" y="174.04" style="stroke: #000000; stroke-width: 0.8"/>
      </g>
     </g>
    </g>
    <g id="ytick_26">
     <g id="line2d_46">
      <g>
       <use xlink:href="#mccfaca0f4e" x="874.194" y="146.210348" style="stroke: #000000; stroke-width: 0.8"/>
      </g>
     </g>
    </g>
    <g id="ytick_27">
     <g id="line2d_47">
      <g>
       <use xlink:href="#mccfaca0f4e" x="874.194" y="118.380695" style="stroke: #000000; stroke-width: 0.8"/>
      </g>
     </g>
    </g>
    <g id="ytick_28">
     <g id="line2d_48">
      <g>
       <use xlink:href="#mccfaca0f4e" x="874.194" y="90.551043" style="stroke: #000000; stroke-width: 0.8"/>
      </g>
     </g>
    </g>
    <g id="ytick_29">
     <g id="line2d_49">
      <g>
       <use xlink:href="#mccfaca0f4e" x="874.194" y="62.72139" style="stroke: #000000; stroke-width: 0.8"/>
      </g>
     </g>
    </g>
    <g id="ytick_30">
     <g id="line2d_50">
      <g>
       <use xlink:href="#mccfaca0f4e" x="874.194" y="34.891738" style="stroke: #000000; stroke-width: 0.8"/>
      </g>
     </g>
    </g>
   </g>
   <g id="patch_65">
    <path d="M 874.194 174.04 
L 874.194 24.72 
" style="fill: none; stroke: #000000; stroke-width: 0.8; stroke-linejoin: miter; stroke-linecap: square"/>
   </g>
   <g id="patch_66">
    <path d="M 874.194 174.04 
L 1067.025517 174.04 
" style="fill: none; stroke: #000000; stroke-width: 0.8; stroke-linejoin: miter; stroke-linecap: square"/>
   </g>
   <g id="text_36">
    <!-- Rating = 5 -->
    <g transform="translate(943.942571 18.72) scale(0.1 -0.1)">
     <use xlink:href="#DejaVuSans-52"/>
     <use xlink:href="#DejaVuSans-61" x="67.232422"/>
     <use xlink:href="#DejaVuSans-74" x="128.511719"/>
     <use xlink:href="#DejaVuSans-69" x="167.720703"/>
     <use xlink:href="#DejaVuSans-6e" x="195.503906"/>
     <use xlink:href="#DejaVuSans-67" x="258.882812"/>
     <use xlink:href="#DejaVuSans-20" x="322.359375"/>
     <use xlink:href="#DejaVuSans-3d" x="354.146484"/>
     <use xlink:href="#DejaVuSans-20" x="437.935547"/>
     <use xlink:href="#DejaVuSans-35" x="469.722656"/>
    </g>
   </g>
  </g>
 </g>
 <defs>
  <clipPath id="pd5fb876549">
   <rect x="36.97" y="24.72" width="192.831517" height="149.32"/>
  </clipPath>
  <clipPath id="p8eeff83ac5">
   <rect x="246.276" y="24.72" width="192.831517" height="149.32"/>
  </clipPath>
  <clipPath id="pd0b9fdd09a">
   <rect x="455.582" y="24.72" width="192.831517" height="149.32"/>
  </clipPath>
  <clipPath id="pf7407909bc">
   <rect x="664.888" y="24.72" width="192.831517" height="149.32"/>
  </clipPath>
  <clipPath id="p446b9ff5ce">
   <rect x="874.194" y="24.72" width="192.831517" height="149.32"/>
  </clipPath>
 </defs>
</svg>
