<?xml version="1.0" encoding="utf-8" standalone="no"?>
<!DOCTYPE svg PUBLIC "-//W3C//DTD SVG 1.1//EN"
  "http://www.w3.org/Graphics/SVG/1.1/DTD/svg11.dtd">
<svg xmlns:xlink="http://www.w3.org/1999/xlink" width="1482.39pt" height="360pt" viewBox="0 0 1482.39 360" xmlns="http://www.w3.org/2000/svg" version="1.1">
 <metadata>
  <rdf:RDF xmlns:dc="http://purl.org/dc/elements/1.1/" xmlns:cc="http://creativecommons.org/ns#" xmlns:rdf="http://www.w3.org/1999/02/22-rdf-syntax-ns#">
   <cc:Work>
    <dc:type rdf:resource="http://purl.org/dc/dcmitype/StillImage"/>
    <dc:date>2024-08-24T13:36:35.075945</dc:date>
    <dc:format>image/svg+xml</dc:format>
    <dc:creator>
     <cc:Agent>
      <dc:title>Matplotlib v3.8.4, https://matplotlib.org/</dc:title>
     </cc:Agent>
    </dc:creator>
   </cc:Work>
  </rdf:RDF>
 </metadata>
 <defs>
  <style type="text/css">*{stroke-linejoin: round; stroke-linecap: butt}</style>
 </defs>
 <g id="figure_1">
  <g id="patch_1">
   <path d="M 0 360 
L 1482.39 360 
L 1482.39 0 
L 0 0 
z
" style="fill: #ffffff"/>
  </g>
  <g id="axes_1">
   <g id="patch_2">
    <path d="M 66.98 318.04 
L 1414.3761 318.04 
L 1414.3761 10.8 
L 66.98 10.8 
z
" style="fill: #ffffff"/>
   </g>
   <g id="PolyCollection_1">
    <defs>
     <path id="md2c64e21e9" d="M 134.488596 -41.993034 
L 134.488596 -41.96 
L 140.612426 -41.96 
L 146.736256 -41.96 
L 152.860086 -41.96 
L 158.983917 -41.96 
L 165.107747 -41.96 
L 171.231577 -41.96 
L 177.355408 -41.96 
L 183.479238 -41.96 
L 189.603068 -41.96 
L 195.726898 -41.96 
L 201.850729 -41.96 
L 207.974559 -41.96 
L 214.098389 -41.96 
L 220.22222 -41.96 
L 226.34605 -41.96 
L 232.46988 -41.96 
L 238.59371 -41.96 
L 244.717541 -41.96 
L 250.841371 -41.96 
L 256.965201 -41.96 
L 263.089032 -41.96 
L 269.212862 -41.96 
L 275.336692 -41.96 
L 281.460522 -41.96 
L 287.584353 -41.96 
L 293.708183 -41.96 
L 299.832013 -41.96 
L 305.955844 -41.96 
L 312.079674 -41.96 
L 318.203504 -41.96 
L 324.327334 -41.96 
L 330.451165 -41.96 
L 336.574995 -41.96 
L 342.698825 -41.96 
L 348.822656 -41.96 
L 354.946486 -41.96 
L 361.070316 -41.96 
L 367.194146 -41.96 
L 373.317977 -41.96 
L 379.441807 -41.96 
L 385.565637 -41.96 
L 391.689468 -41.96 
L 397.813298 -41.96 
L 403.937128 -41.96 
L 410.060958 -41.96 
L 416.184789 -41.96 
L 422.308619 -41.96 
L 428.432449 -41.96 
L 434.55628 -41.96 
L 440.68011 -41.96 
L 446.80394 -41.96 
L 452.92777 -41.96 
L 459.051601 -41.96 
L 465.175431 -41.96 
L 471.299261 -41.96 
L 477.423092 -41.96 
L 483.546922 -41.96 
L 489.670752 -41.96 
L 495.794582 -41.96 
L 501.918413 -41.96 
L 508.042243 -41.96 
L 514.166073 -41.96 
L 520.289904 -41.96 
L 526.413734 -41.96 
L 532.537564 -41.96 
L 538.661395 -41.96 
L 544.785225 -41.96 
L 550.909055 -41.96 
L 557.032885 -41.96 
L 563.156716 -41.96 
L 569.280546 -41.96 
L 575.404376 -41.96 
L 581.528207 -41.96 
L 587.652037 -41.96 
L 593.775867 -41.96 
L 599.899697 -41.96 
L 606.023528 -41.96 
L 612.147358 -41.96 
L 618.271188 -41.96 
L 624.395019 -41.96 
L 630.518849 -41.96 
L 636.642679 -41.96 
L 642.766509 -41.96 
L 648.89034 -41.96 
L 655.01417 -41.96 
L 661.138 -41.96 
L 667.261831 -41.96 
L 673.385661 -41.96 
L 679.509491 -41.96 
L 685.633321 -41.96 
L 691.757152 -41.96 
L 697.880982 -41.96 
L 704.004812 -41.96 
L 710.128643 -41.96 
L 716.252473 -41.96 
L 722.376303 -41.96 
L 728.500133 -41.96 
L 734.623964 -41.96 
L 740.747794 -41.96 
L 746.871624 -41.96 
L 752.995455 -41.96 
L 759.119285 -41.96 
L 765.243115 -41.96 
L 771.366945 -41.96 
L 777.490776 -41.96 
L 783.614606 -41.96 
L 789.738436 -41.96 
L 795.862267 -41.96 
L 801.986097 -41.96 
L 808.109927 -41.96 
L 814.233757 -41.96 
L 820.357588 -41.96 
L 826.481418 -41.96 
L 832.605248 -41.96 
L 838.729079 -41.96 
L 844.852909 -41.96 
L 850.976739 -41.96 
L 857.100569 -41.96 
L 863.2244 -41.96 
L 869.34823 -41.96 
L 875.47206 -41.96 
L 881.595891 -41.96 
L 887.719721 -41.96 
L 893.843551 -41.96 
L 899.967381 -41.96 
L 906.091212 -41.96 
L 912.215042 -41.96 
L 918.338872 -41.96 
L 924.462703 -41.96 
L 930.586533 -41.96 
L 936.710363 -41.96 
L 942.834193 -41.96 
L 948.958024 -41.96 
L 955.081854 -41.96 
L 961.205684 -41.96 
L 967.329515 -41.96 
L 973.453345 -41.96 
L 979.577175 -41.96 
L 985.701005 -41.96 
L 991.824836 -41.96 
L 997.948666 -41.96 
L 1004.072496 -41.96 
L 1010.196327 -41.96 
L 1016.320157 -41.96 
L 1022.443987 -41.96 
L 1028.567817 -41.96 
L 1034.691648 -41.96 
L 1040.815478 -41.96 
L 1046.939308 -41.96 
L 1053.063139 -41.96 
L 1059.186969 -41.96 
L 1065.310799 -41.96 
L 1071.43463 -41.96 
L 1077.55846 -41.96 
L 1083.68229 -41.96 
L 1089.80612 -41.96 
L 1095.929951 -41.96 
L 1102.053781 -41.96 
L 1108.177611 -41.96 
L 1114.301442 -41.96 
L 1120.425272 -41.96 
L 1126.549102 -41.96 
L 1132.672932 -41.96 
L 1138.796763 -41.96 
L 1144.920593 -41.96 
L 1151.044423 -41.96 
L 1157.168254 -41.96 
L 1163.292084 -41.96 
L 1169.415914 -41.96 
L 1175.539744 -41.96 
L 1181.663575 -41.96 
L 1187.787405 -41.96 
L 1193.911235 -41.96 
L 1200.035066 -41.96 
L 1206.158896 -41.96 
L 1212.282726 -41.96 
L 1218.406556 -41.96 
L 1224.530387 -41.96 
L 1230.654217 -41.96 
L 1236.778047 -41.96 
L 1242.901878 -41.96 
L 1249.025708 -41.96 
L 1255.149538 -41.96 
L 1261.273368 -41.96 
L 1267.397199 -41.96 
L 1273.521029 -41.96 
L 1279.644859 -41.96 
L 1285.76869 -41.96 
L 1291.89252 -41.96 
L 1298.01635 -41.96 
L 1304.14018 -41.96 
L 1310.264011 -41.96 
L 1316.387841 -41.96 
L 1322.511671 -41.96 
L 1328.635502 -41.96 
L 1334.759332 -41.96 
L 1340.883162 -41.96 
L 1347.006992 -41.96 
L 1353.130823 -41.96 
L 1353.130823 -41.997953 
L 1353.130823 -41.997953 
L 1347.006992 -42.014758 
L 1340.883162 -42.037971 
L 1334.759332 -42.069581 
L 1328.635502 -42.112015 
L 1322.511671 -42.168169 
L 1316.387841 -42.241427 
L 1310.264011 -42.335643 
L 1304.14018 -42.455094 
L 1298.01635 -42.604393 
L 1291.89252 -42.78836 
L 1285.76869 -43.011836 
L 1279.644859 -43.279474 
L 1273.521029 -43.595482 
L 1267.397199 -43.963356 
L 1261.273368 -44.385603 
L 1255.149538 -44.863493 
L 1249.025708 -45.396845 
L 1242.901878 -45.983879 
L 1236.778047 -46.62116 
L 1230.654217 -47.303627 
L 1224.530387 -48.02473 
L 1218.406556 -48.776676 
L 1212.282726 -49.550744 
L 1206.158896 -50.337682 
L 1200.035066 -51.12813 
L 1193.911235 -51.91305 
L 1187.787405 -52.684127 
L 1181.663575 -53.434106 
L 1175.539744 -54.157052 
L 1169.415914 -54.848514 
L 1163.292084 -55.505587 
L 1157.168254 -56.126896 
L 1151.044423 -56.712516 
L 1144.920593 -57.263853 
L 1138.796763 -57.783523 
L 1132.672932 -58.275267 
L 1126.549102 -58.74391 
L 1120.425272 -59.195383 
L 1114.301442 -59.636826 
L 1108.177611 -60.076721 
L 1102.053781 -60.525066 
L 1095.929951 -60.993535 
L 1089.80612 -61.495577 
L 1083.68229 -62.046447 
L 1077.55846 -62.663111 
L 1071.43463 -63.364042 
L 1065.310799 -64.168893 
L 1059.186969 -65.098099 
L 1053.063139 -66.172426 
L 1046.939308 -67.412543 
L 1040.815478 -68.83865 
L 1034.691648 -70.470219 
L 1028.567817 -72.325862 
L 1022.443987 -74.423323 
L 1016.320157 -76.77957 
L 1010.196327 -79.410916 
L 1004.072496 -82.33311 
L 997.948666 -85.561297 
L 991.824836 -89.109789 
L 985.701005 -92.991588 
L 979.577175 -97.217649 
L 973.453345 -101.795909 
L 967.329515 -106.730144 
L 961.205684 -112.018771 
L 955.081854 -117.653711 
L 948.958024 -123.619451 
L 942.834193 -129.89242 
L 936.710363 -136.440782 
L 930.586533 -143.224679 
L 924.462703 -150.196935 
L 918.338872 -157.304175 
L 912.215042 -164.48827 
L 906.091212 -171.688006 
L 899.967381 -178.840872 
L 893.843551 -185.88484 
L 887.719721 -192.760079 
L 881.595891 -199.410541 
L 875.47206 -205.78539 
L 869.34823 -211.840284 
L 863.2244 -217.538537 
L 857.100569 -222.852161 
L 850.976739 -227.762806 
L 844.852909 -232.262588 
L 838.729079 -236.354741 
L 832.605248 -240.054033 
L 826.481418 -243.386836 
L 820.357588 -246.390746 
L 814.233757 -249.113641 
L 808.109927 -251.612121 
L 801.986097 -253.949293 
L 795.862267 -256.191941 
L 789.738436 -258.407209 
L 783.614606 -260.658963 
L 777.490776 -263.004111 
L 771.366945 -265.489146 
L 765.243115 -268.14725 
L 759.119285 -270.996216 
L 752.995455 -274.037433 
L 746.871624 -277.256083 
L 740.747794 -280.622555 
L 734.623964 -284.095012 
L 728.500133 -287.622888 
L 722.376303 -291.15101 
L 716.252473 -294.623986 
L 710.128643 -297.990444 
L 704.004812 -301.206756 
L 697.880982 -304.239915 
L 691.757152 -307.069337 
L 685.633321 -309.687462 
L 679.509491 -312.099147 
L 673.385661 -314.319965 
L 667.261831 -316.373595 
L 661.138 -318.288587 
L 655.01417 -320.094784 
L 648.89034 -321.819731 
L 642.766509 -323.485354 
L 636.642679 -325.105173 
L 630.518849 -326.682238 
L 624.395019 -328.20794 
L 618.271188 -329.661758 
L 612.147358 -331.01196 
L 606.023528 -332.217176 
L 599.899697 -333.228744 
L 593.775867 -333.993638 
L 587.652037 -334.457786 
L 581.528207 -334.569524 
L 575.404376 -334.282957 
L 569.280546 -333.560985 
L 563.156716 -332.377788 
L 557.032885 -330.72061 
L 550.909055 -328.59072 
L 544.785225 -326.003497 
L 538.661395 -322.987636 
L 532.537564 -319.58352 
L 526.413734 -315.840863 
L 520.289904 -311.815751 
L 514.166073 -307.567243 
L 508.042243 -303.15373 
L 501.918413 -298.629251 
L 495.794582 -294.039996 
L 489.670752 -289.421214 
L 483.546922 -284.794757 
L 477.423092 -280.167448 
L 471.299261 -275.530443 
L 465.175431 -270.859674 
L 459.051601 -266.117416 
L 452.92777 -261.254888 
L 446.80394 -256.215755 
L 440.68011 -250.940276 
L 434.55628 -245.369804 
L 428.432449 -239.451289 
L 422.308619 -233.141445 
L 416.184789 -226.410277 
L 410.060958 -219.243708 
L 403.937128 -211.645153 
L 397.813298 -203.635985 
L 391.689468 -195.254911 
L 385.565637 -186.556387 
L 379.441807 -177.608255 
L 373.317977 -168.488805 
L 367.194146 -159.283512 
L 361.070316 -150.081643 
L 354.946486 -140.972949 
L 348.822656 -132.044569 
L 342.698825 -123.378287 
L 336.574995 -115.048198 
L 330.451165 -107.118842 
L 324.327334 -99.64383 
L 318.203504 -92.664962 
L 312.079674 -86.211825 
L 305.955844 -80.301865 
L 299.832013 -74.940874 
L 293.708183 -70.123866 
L 287.584353 -65.836262 
L 281.460522 -62.055316 
L 275.336692 -58.751704 
L 269.212862 -55.891178 
L 263.089032 -53.436196 
L 256.965201 -51.347471 
L 250.841371 -49.585345 
L 244.717541 -48.110965 
L 238.59371 -46.887221 
L 232.46988 -45.879443 
L 226.34605 -45.055871 
L 220.22222 -44.387907 
L 214.098389 -43.850198 
L 207.974559 -43.420581 
L 201.850729 -43.079915 
L 195.726898 -42.811859 
L 189.603068 -42.602602 
L 183.479238 -42.440579 
L 177.355408 -42.316193 
L 171.231577 -42.221547 
L 165.107747 -42.150195 
L 158.983917 -42.096924 
L 152.860086 -42.057552 
L 146.736256 -42.028759 
L 140.612426 -42.007931 
L 134.488596 -41.993034 
z
" style="stroke: #38aaac"/>
    </defs>
    <g clip-path="url(#p9aa9722a52)">
     <use xlink:href="#md2c64e21e9" x="0" y="360" style="fill: #38aaac; fill-opacity: 0.25; stroke: #38aaac"/>
    </g>
   </g>
   <g id="PolyCollection_2">
    <defs>
     <path id="mddca6a26f2" d="M 128.225277 -42.008651 
L 128.225277 -41.96 
L 134.107298 -41.96 
L 139.989319 -41.96 
L 145.87134 -41.96 
L 151.753361 -41.96 
L 157.635382 -41.96 
L 163.517403 -41.96 
L 169.399424 -41.96 
L 175.281445 -41.96 
L 181.163466 -41.96 
L 187.045487 -41.96 
L 192.927508 -41.96 
L 198.809529 -41.96 
L 204.69155 -41.96 
L 210.573571 -41.96 
L 216.455592 -41.96 
L 222.337613 -41.96 
L 228.219634 -41.96 
L 234.101655 -41.96 
L 239.983676 -41.96 
L 245.865697 -41.96 
L 251.747718 -41.96 
L 257.629739 -41.96 
L 263.51176 -41.96 
L 269.393781 -41.96 
L 275.275802 -41.96 
L 281.157823 -41.96 
L 287.039844 -41.96 
L 292.921865 -41.96 
L 298.803886 -41.96 
L 304.685907 -41.96 
L 310.567928 -41.96 
L 316.449949 -41.96 
L 322.33197 -41.96 
L 328.213991 -41.96 
L 334.096012 -41.96 
L 339.978033 -41.96 
L 345.860054 -41.96 
L 351.742075 -41.96 
L 357.624096 -41.96 
L 363.506117 -41.96 
L 369.388138 -41.96 
L 375.270159 -41.96 
L 381.15218 -41.96 
L 387.034201 -41.96 
L 392.916222 -41.96 
L 398.798243 -41.96 
L 404.680264 -41.96 
L 410.562285 -41.96 
L 416.444306 -41.96 
L 422.326327 -41.96 
L 428.208348 -41.96 
L 434.090369 -41.96 
L 439.97239 -41.96 
L 445.854411 -41.96 
L 451.736432 -41.96 
L 457.618453 -41.96 
L 463.500474 -41.96 
L 469.382495 -41.96 
L 475.264516 -41.96 
L 481.146538 -41.96 
L 487.028559 -41.96 
L 492.91058 -41.96 
L 498.792601 -41.96 
L 504.674622 -41.96 
L 510.556643 -41.96 
L 516.438664 -41.96 
L 522.320685 -41.96 
L 528.202706 -41.96 
L 534.084727 -41.96 
L 539.966748 -41.96 
L 545.848769 -41.96 
L 551.73079 -41.96 
L 557.612811 -41.96 
L 563.494832 -41.96 
L 569.376853 -41.96 
L 575.258874 -41.96 
L 581.140895 -41.96 
L 587.022916 -41.96 
L 592.904937 -41.96 
L 598.786958 -41.96 
L 604.668979 -41.96 
L 610.551 -41.96 
L 616.433021 -41.96 
L 622.315042 -41.96 
L 628.197063 -41.96 
L 634.079084 -41.96 
L 639.961105 -41.96 
L 645.843126 -41.96 
L 651.725147 -41.96 
L 657.607168 -41.96 
L 663.489189 -41.96 
L 669.37121 -41.96 
L 675.253231 -41.96 
L 681.135252 -41.96 
L 687.017273 -41.96 
L 692.899294 -41.96 
L 698.781315 -41.96 
L 704.663336 -41.96 
L 710.545357 -41.96 
L 716.427378 -41.96 
L 722.309399 -41.96 
L 728.19142 -41.96 
L 734.073441 -41.96 
L 739.955462 -41.96 
L 745.837483 -41.96 
L 751.719504 -41.96 
L 757.601525 -41.96 
L 763.483546 -41.96 
L 769.365567 -41.96 
L 775.247588 -41.96 
L 781.129609 -41.96 
L 787.01163 -41.96 
L 792.893651 -41.96 
L 798.775672 -41.96 
L 804.657693 -41.96 
L 810.539714 -41.96 
L 816.421735 -41.96 
L 822.303756 -41.96 
L 828.185777 -41.96 
L 834.067798 -41.96 
L 839.949819 -41.96 
L 845.83184 -41.96 
L 851.713861 -41.96 
L 857.595882 -41.96 
L 863.477903 -41.96 
L 869.359924 -41.96 
L 875.241945 -41.96 
L 881.123966 -41.96 
L 887.005987 -41.96 
L 892.888008 -41.96 
L 898.770029 -41.96 
L 904.65205 -41.96 
L 910.534071 -41.96 
L 916.416092 -41.96 
L 922.298113 -41.96 
L 928.180134 -41.96 
L 934.062155 -41.96 
L 939.944176 -41.96 
L 945.826197 -41.96 
L 951.708218 -41.96 
L 957.590239 -41.96 
L 963.47226 -41.96 
L 969.354281 -41.96 
L 975.236302 -41.96 
L 981.118323 -41.96 
L 987.000344 -41.96 
L 992.882365 -41.96 
L 998.764386 -41.96 
L 1004.646407 -41.96 
L 1010.528428 -41.96 
L 1016.410449 -41.96 
L 1022.29247 -41.96 
L 1028.174491 -41.96 
L 1034.056512 -41.96 
L 1039.938533 -41.96 
L 1045.820554 -41.96 
L 1051.702575 -41.96 
L 1057.584596 -41.96 
L 1063.466617 -41.96 
L 1069.348638 -41.96 
L 1075.230659 -41.96 
L 1081.11268 -41.96 
L 1086.994701 -41.96 
L 1092.876722 -41.96 
L 1098.758743 -41.96 
L 1104.640764 -41.96 
L 1110.522785 -41.96 
L 1116.404806 -41.96 
L 1122.286827 -41.96 
L 1128.168848 -41.96 
L 1134.050869 -41.96 
L 1139.93289 -41.96 
L 1145.814911 -41.96 
L 1151.696932 -41.96 
L 1157.578953 -41.96 
L 1163.460974 -41.96 
L 1169.342995 -41.96 
L 1175.225016 -41.96 
L 1181.107037 -41.96 
L 1186.989058 -41.96 
L 1192.871079 -41.96 
L 1198.7531 -41.96 
L 1204.635121 -41.96 
L 1210.517142 -41.96 
L 1216.399163 -41.96 
L 1222.281184 -41.96 
L 1228.163205 -41.96 
L 1234.045226 -41.96 
L 1239.927247 -41.96 
L 1245.809268 -41.96 
L 1251.691289 -41.96 
L 1257.57331 -41.96 
L 1263.455331 -41.96 
L 1269.337352 -41.96 
L 1275.219373 -41.96 
L 1281.101394 -41.96 
L 1286.983415 -41.96 
L 1292.865436 -41.96 
L 1298.747457 -41.96 
L 1298.747457 -42.02396 
L 1298.747457 -42.02396 
L 1292.865436 -42.049247 
L 1286.983415 -42.083117 
L 1281.101394 -42.127921 
L 1275.219373 -42.186456 
L 1269.337352 -42.261981 
L 1263.455331 -42.358221 
L 1257.57331 -42.47934 
L 1251.691289 -42.629884 
L 1245.809268 -42.814693 
L 1239.927247 -43.038773 
L 1234.045226 -43.307132 
L 1228.163205 -43.624595 
L 1222.281184 -43.995583 
L 1216.399163 -44.42389 
L 1210.517142 -44.912462 
L 1204.635121 -45.463199 
L 1198.7531 -46.076793 
L 1192.871079 -46.752624 
L 1186.989058 -47.488732 
L 1181.107037 -48.281867 
L 1175.225016 -49.127629 
L 1169.342995 -50.020699 
L 1163.460974 -50.955146 
L 1157.578953 -51.924794 
L 1151.696932 -52.923641 
L 1145.814911 -53.946286 
L 1139.93289 -54.988352 
L 1134.050869 -56.046867 
L 1128.168848 -57.120583 
L 1122.286827 -58.210207 
L 1116.404806 -59.318535 
L 1110.522785 -60.450471 
L 1104.640764 -61.612936 
L 1098.758743 -62.814666 
L 1092.876722 -64.065912 
L 1086.994701 -65.378053 
L 1081.11268 -66.763152 
L 1075.230659 -68.233466 
L 1069.348638 -69.800939 
L 1063.466617 -71.476706 
L 1057.584596 -73.27063 
L 1051.702575 -75.190899 
L 1045.820554 -77.243691 
L 1039.938533 -79.432939 
L 1034.056512 -81.760188 
L 1028.174491 -84.224565 
L 1022.29247 -86.822828 
L 1016.410449 -89.549516 
L 1010.528428 -92.397152 
L 1004.646407 -95.356497 
L 998.764386 -98.416827 
L 992.882365 -101.566207 
L 987.000344 -104.791767 
L 981.118323 -108.079946 
L 975.236302 -111.416742 
L 969.354281 -114.787947 
L 963.47226 -118.179414 
L 957.590239 -121.577352 
L 951.708218 -124.968697 
L 945.826197 -128.341547 
L 939.944176 -131.685678 
L 934.062155 -134.993122 
L 928.180134 -138.258773 
L 922.298113 -141.480972 
L 916.416092 -144.662004 
L 910.534071 -147.808442 
L 904.65205 -150.931255 
L 898.770029 -154.045622 
L 892.888008 -157.170417 
L 887.005987 -160.327339 
L 881.123966 -163.539719 
L 875.241945 -166.831052 
L 869.359924 -170.223367 
L 863.477903 -173.735537 
L 857.595882 -177.381699 
L 851.713861 -181.169919 
L 845.83184 -185.101244 
L 839.949819 -189.169268 
L 834.067798 -193.360281 
L 828.185777 -197.654014 
L 822.303756 -202.024971 
L 816.421735 -206.444229 
L 810.539714 -210.881582 
L 804.657693 -215.307834 
L 798.775672 -219.697036 
L 792.893651 -224.028458 
L 787.01163 -228.288095 
L 781.129609 -232.46956 
L 775.247588 -236.574246 
L 769.365567 -240.610743 
L 763.483546 -244.59352 
L 757.601525 -248.541 
L 751.719504 -252.47318 
L 745.837483 -256.409018 
L 739.955462 -260.363816 
L 734.073441 -264.346861 
L 728.19142 -268.359528 
L 722.309399 -272.394039 
L 716.427378 -276.433 
L 710.545357 -280.449765 
L 704.663336 -284.409601 
L 698.781315 -288.271566 
L 692.899294 -291.990919 
L 687.017273 -295.521872 
L 681.135252 -298.820429 
L 675.253231 -301.847078 
L 669.37121 -304.569109 
L 663.489189 -306.962376 
L 657.607168 -309.012372 
L 651.725147 -310.714557 
L 645.843126 -312.073947 
L 639.961105 -313.104046 
L 634.079084 -313.825239 
L 628.197063 -314.262845 
L 622.315042 -314.445003 
L 616.433021 -314.400604 
L 610.551 -314.157461 
L 604.668979 -313.740841 
L 598.786958 -313.172481 
L 592.904937 -312.470124 
L 587.022916 -311.647556 
L 581.140895 -310.715081 
L 575.258874 -309.680317 
L 569.376853 -308.54917 
L 563.494832 -307.326826 
L 557.612811 -306.018612 
L 551.73079 -304.630585 
L 545.848769 -303.169778 
L 539.966748 -301.644029 
L 534.084727 -300.061436 
L 528.202706 -298.429474 
L 522.320685 -296.753894 
L 516.438664 -295.037549 
L 510.556643 -293.27929 
L 504.674622 -291.473085 
L 498.792601 -289.607493 
L 492.91058 -287.665573 
L 487.028559 -285.625257 
L 481.146538 -283.460179 
L 475.264516 -281.140867 
L 469.382495 -278.636191 
L 463.500474 -275.914912 
L 457.618453 -272.947184 
L 451.736432 -269.705852 
L 445.854411 -266.167449 
L 439.97239 -262.312818 
L 434.090369 -258.127345 
L 428.208348 -253.600856 
L 422.326327 -248.727247 
L 416.444306 -243.503997 
L 410.562285 -237.93167 
L 404.680264 -232.013555 
L 398.798243 -225.755537 
L 392.916222 -219.166257 
L 387.034201 -212.257575 
L 381.15218 -205.045276 
L 375.270159 -197.549944 
L 369.388138 -189.797849 
L 363.506117 -181.821724 
L 357.624096 -173.661266 
L 351.742075 -165.363254 
L 345.860054 -156.981178 
L 339.978033 -148.574372 
L 334.096012 -140.20664 
L 328.213991 -131.944468 
L 322.33197 -123.854929 
L 316.449949 -116.003424 
L 310.567928 -108.451431 
L 304.685907 -101.254404 
L 298.803886 -94.459983 
L 292.921865 -88.106608 
L 287.039844 -82.222609 
L 281.157823 -76.825823 
L 275.275802 -71.923691 
L 269.393781 -67.513823 
L 263.51176 -63.584932 
L 257.629739 -60.118054 
L 251.747718 -57.087953 
L 245.865697 -54.464613 
L 239.983676 -52.214717 
L 234.101655 -50.30305 
L 228.219634 -48.693758 
L 222.337613 -47.351432 
L 216.455592 -46.241984 
L 210.573571 -45.333322 
L 204.69155 -44.595829 
L 198.809529 -44.002652 
L 192.927508 -43.529845 
L 187.045487 -43.156378 
L 181.163466 -42.864045 
L 175.281445 -42.637296 
L 169.399424 -42.463022 
L 163.517403 -42.330312 
L 157.635382 -42.23019 
L 151.753361 -42.155361 
L 145.87134 -42.099965 
L 139.989319 -42.059348 
L 134.107298 -42.029856 
L 128.225277 -42.008651 
z
" style="stroke: #40498e"/>
    </defs>
    <g clip-path="url(#p9aa9722a52)">
     <use xlink:href="#mddca6a26f2" x="0" y="360" style="fill: #40498e; fill-opacity: 0.25; stroke: #40498e"/>
    </g>
   </g>
   <g id="matplotlib.axis_1">
    <g id="xtick_1">
     <g id="line2d_1">
      <defs>
       <path id="me314eb8e98" d="M 0 0 
L 0 3.5 
" style="stroke: #000000; stroke-width: 0.8"/>
      </defs>
      <g>
       <use xlink:href="#me314eb8e98" x="228.312895" y="318.04" style="stroke: #000000; stroke-width: 0.8"/>
      </g>
     </g>
     <g id="text_1">
      <!-- 0 -->
      <g transform="translate(225.131645 332.638438) scale(0.1 -0.1)">
       <defs>
        <path id="DejaVuSans-30" d="M 2034 4250 
Q 1547 4250 1301 3770 
Q 1056 3291 1056 2328 
Q 1056 1369 1301 889 
Q 1547 409 2034 409 
Q 2525 409 2770 889 
Q 3016 1369 3016 2328 
Q 3016 3291 2770 3770 
Q 2525 4250 2034 4250 
z
M 2034 4750 
Q 2819 4750 3233 4129 
Q 3647 3509 3647 2328 
Q 3647 1150 3233 529 
Q 2819 -91 2034 -91 
Q 1250 -91 836 529 
Q 422 1150 422 2328 
Q 422 3509 836 4129 
Q 1250 4750 2034 4750 
z
" transform="scale(0.015625)"/>
       </defs>
       <use xlink:href="#DejaVuSans-30"/>
      </g>
     </g>
    </g>
    <g id="xtick_2">
     <g id="line2d_2">
      <g>
       <use xlink:href="#me314eb8e98" x="430.468509" y="318.04" style="stroke: #000000; stroke-width: 0.8"/>
      </g>
     </g>
     <g id="text_2">
      <!-- 10 -->
      <g transform="translate(424.106009 332.638438) scale(0.1 -0.1)">
       <defs>
        <path id="DejaVuSans-31" d="M 794 531 
L 1825 531 
L 1825 4091 
L 703 3866 
L 703 4441 
L 1819 4666 
L 2450 4666 
L 2450 531 
L 3481 531 
L 3481 0 
L 794 0 
L 794 531 
z
" transform="scale(0.015625)"/>
       </defs>
       <use xlink:href="#DejaVuSans-31"/>
       <use xlink:href="#DejaVuSans-30" x="63.623047"/>
      </g>
     </g>
    </g>
    <g id="xtick_3">
     <g id="line2d_3">
      <g>
       <use xlink:href="#me314eb8e98" x="632.624122" y="318.04" style="stroke: #000000; stroke-width: 0.8"/>
      </g>
     </g>
     <g id="text_3">
      <!-- 20 -->
      <g transform="translate(626.261622 332.638438) scale(0.1 -0.1)">
       <defs>
        <path id="DejaVuSans-32" d="M 1228 531 
L 3431 531 
L 3431 0 
L 469 0 
L 469 531 
Q 828 903 1448 1529 
Q 2069 2156 2228 2338 
Q 2531 2678 2651 2914 
Q 2772 3150 2772 3378 
Q 2772 3750 2511 3984 
Q 2250 4219 1831 4219 
Q 1534 4219 1204 4116 
Q 875 4013 500 3803 
L 500 4441 
Q 881 4594 1212 4672 
Q 1544 4750 1819 4750 
Q 2544 4750 2975 4387 
Q 3406 4025 3406 3419 
Q 3406 3131 3298 2873 
Q 3191 2616 2906 2266 
Q 2828 2175 2409 1742 
Q 1991 1309 1228 531 
z
" transform="scale(0.015625)"/>
       </defs>
       <use xlink:href="#DejaVuSans-32"/>
       <use xlink:href="#DejaVuSans-30" x="63.623047"/>
      </g>
     </g>
    </g>
    <g id="xtick_4">
     <g id="line2d_4">
      <g>
       <use xlink:href="#me314eb8e98" x="834.779735" y="318.04" style="stroke: #000000; stroke-width: 0.8"/>
      </g>
     </g>
     <g id="text_4">
      <!-- 30 -->
      <g transform="translate(828.417235 332.638438) scale(0.1 -0.1)">
       <defs>
        <path id="DejaVuSans-33" d="M 2597 2516 
Q 3050 2419 3304 2112 
Q 3559 1806 3559 1356 
Q 3559 666 3084 287 
Q 2609 -91 1734 -91 
Q 1441 -91 1130 -33 
Q 819 25 488 141 
L 488 750 
Q 750 597 1062 519 
Q 1375 441 1716 441 
Q 2309 441 2620 675 
Q 2931 909 2931 1356 
Q 2931 1769 2642 2001 
Q 2353 2234 1838 2234 
L 1294 2234 
L 1294 2753 
L 1863 2753 
Q 2328 2753 2575 2939 
Q 2822 3125 2822 3475 
Q 2822 3834 2567 4026 
Q 2313 4219 1838 4219 
Q 1578 4219 1281 4162 
Q 984 4106 628 3988 
L 628 4550 
Q 988 4650 1302 4700 
Q 1616 4750 1894 4750 
Q 2613 4750 3031 4423 
Q 3450 4097 3450 3541 
Q 3450 3153 3228 2886 
Q 3006 2619 2597 2516 
z
" transform="scale(0.015625)"/>
       </defs>
       <use xlink:href="#DejaVuSans-33"/>
       <use xlink:href="#DejaVuSans-30" x="63.623047"/>
      </g>
     </g>
    </g>
    <g id="xtick_5">
     <g id="line2d_5">
      <g>
       <use xlink:href="#me314eb8e98" x="1036.935348" y="318.04" style="stroke: #000000; stroke-width: 0.8"/>
      </g>
     </g>
     <g id="text_5">
      <!-- 40 -->
      <g transform="translate(1030.572848 332.638438) scale(0.1 -0.1)">
       <defs>
        <path id="DejaVuSans-34" d="M 2419 4116 
L 825 1625 
L 2419 1625 
L 2419 4116 
z
M 2253 4666 
L 3047 4666 
L 3047 1625 
L 3713 1625 
L 3713 1100 
L 3047 1100 
L 3047 0 
L 2419 0 
L 2419 1100 
L 313 1100 
L 313 1709 
L 2253 4666 
z
" transform="scale(0.015625)"/>
       </defs>
       <use xlink:href="#DejaVuSans-34"/>
       <use xlink:href="#DejaVuSans-30" x="63.623047"/>
      </g>
     </g>
    </g>
    <g id="xtick_6">
     <g id="line2d_6">
      <g>
       <use xlink:href="#me314eb8e98" x="1239.090962" y="318.04" style="stroke: #000000; stroke-width: 0.8"/>
      </g>
     </g>
     <g id="text_6">
      <!-- 50 -->
      <g transform="translate(1232.728462 332.638438) scale(0.1 -0.1)">
       <defs>
        <path id="DejaVuSans-35" d="M 691 4666 
L 3169 4666 
L 3169 4134 
L 1269 4134 
L 1269 2991 
Q 1406 3038 1543 3061 
Q 1681 3084 1819 3084 
Q 2600 3084 3056 2656 
Q 3513 2228 3513 1497 
Q 3513 744 3044 326 
Q 2575 -91 1722 -91 
Q 1428 -91 1123 -41 
Q 819 9 494 109 
L 494 744 
Q 775 591 1075 516 
Q 1375 441 1709 441 
Q 2250 441 2565 725 
Q 2881 1009 2881 1497 
Q 2881 1984 2565 2268 
Q 2250 2553 1709 2553 
Q 1456 2553 1204 2497 
Q 953 2441 691 2322 
L 691 4666 
z
" transform="scale(0.015625)"/>
       </defs>
       <use xlink:href="#DejaVuSans-35"/>
       <use xlink:href="#DejaVuSans-30" x="63.623047"/>
      </g>
     </g>
    </g>
    <g id="text_7">
     <!-- Length -->
     <g transform="translate(723.431175 346.316563) scale(0.1 -0.1)">
      <defs>
       <path id="DejaVuSans-4c" d="M 628 4666 
L 1259 4666 
L 1259 531 
L 3531 531 
L 3531 0 
L 628 0 
L 628 4666 
z
" transform="scale(0.015625)"/>
       <path id="DejaVuSans-65" d="M 3597 1894 
L 3597 1613 
L 953 1613 
Q 991 1019 1311 708 
Q 1631 397 2203 397 
Q 2534 397 2845 478 
Q 3156 559 3463 722 
L 3463 178 
Q 3153 47 2828 -22 
Q 2503 -91 2169 -91 
Q 1331 -91 842 396 
Q 353 884 353 1716 
Q 353 2575 817 3079 
Q 1281 3584 2069 3584 
Q 2775 3584 3186 3129 
Q 3597 2675 3597 1894 
z
M 3022 2063 
Q 3016 2534 2758 2815 
Q 2500 3097 2075 3097 
Q 1594 3097 1305 2825 
Q 1016 2553 972 2059 
L 3022 2063 
z
" transform="scale(0.015625)"/>
       <path id="DejaVuSans-6e" d="M 3513 2113 
L 3513 0 
L 2938 0 
L 2938 2094 
Q 2938 2591 2744 2837 
Q 2550 3084 2163 3084 
Q 1697 3084 1428 2787 
Q 1159 2491 1159 1978 
L 1159 0 
L 581 0 
L 581 3500 
L 1159 3500 
L 1159 2956 
Q 1366 3272 1645 3428 
Q 1925 3584 2291 3584 
Q 2894 3584 3203 3211 
Q 3513 2838 3513 2113 
z
" transform="scale(0.015625)"/>
       <path id="DejaVuSans-67" d="M 2906 1791 
Q 2906 2416 2648 2759 
Q 2391 3103 1925 3103 
Q 1463 3103 1205 2759 
Q 947 2416 947 1791 
Q 947 1169 1205 825 
Q 1463 481 1925 481 
Q 2391 481 2648 825 
Q 2906 1169 2906 1791 
z
M 3481 434 
Q 3481 -459 3084 -895 
Q 2688 -1331 1869 -1331 
Q 1566 -1331 1297 -1286 
Q 1028 -1241 775 -1147 
L 775 -588 
Q 1028 -725 1275 -790 
Q 1522 -856 1778 -856 
Q 2344 -856 2625 -561 
Q 2906 -266 2906 331 
L 2906 616 
Q 2728 306 2450 153 
Q 2172 0 1784 0 
Q 1141 0 747 490 
Q 353 981 353 1791 
Q 353 2603 747 3093 
Q 1141 3584 1784 3584 
Q 2172 3584 2450 3431 
Q 2728 3278 2906 2969 
L 2906 3500 
L 3481 3500 
L 3481 434 
z
" transform="scale(0.015625)"/>
       <path id="DejaVuSans-74" d="M 1172 4494 
L 1172 3500 
L 2356 3500 
L 2356 3053 
L 1172 3053 
L 1172 1153 
Q 1172 725 1289 603 
Q 1406 481 1766 481 
L 2356 481 
L 2356 0 
L 1766 0 
Q 1100 0 847 248 
Q 594 497 594 1153 
L 594 3053 
L 172 3053 
L 172 3500 
L 594 3500 
L 594 4494 
L 1172 4494 
z
" transform="scale(0.015625)"/>
       <path id="DejaVuSans-68" d="M 3513 2113 
L 3513 0 
L 2938 0 
L 2938 2094 
Q 2938 2591 2744 2837 
Q 2550 3084 2163 3084 
Q 1697 3084 1428 2787 
Q 1159 2491 1159 1978 
L 1159 0 
L 581 0 
L 581 4863 
L 1159 4863 
L 1159 2956 
Q 1366 3272 1645 3428 
Q 1925 3584 2291 3584 
Q 2894 3584 3203 3211 
Q 3513 2838 3513 2113 
z
" transform="scale(0.015625)"/>
      </defs>
      <use xlink:href="#DejaVuSans-4c"/>
      <use xlink:href="#DejaVuSans-65" x="53.962891"/>
      <use xlink:href="#DejaVuSans-6e" x="115.486328"/>
      <use xlink:href="#DejaVuSans-67" x="178.865234"/>
      <use xlink:href="#DejaVuSans-74" x="242.341797"/>
      <use xlink:href="#DejaVuSans-68" x="281.550781"/>
     </g>
    </g>
   </g>
   <g id="matplotlib.axis_2">
    <g id="ytick_1">
     <g id="line2d_7">
      <defs>
       <path id="ma4c5415c9f" d="M 0 0 
L -3.5 0 
" style="stroke: #000000; stroke-width: 0.8"/>
      </defs>
      <g>
       <use xlink:href="#ma4c5415c9f" x="66.98" y="318.04" style="stroke: #000000; stroke-width: 0.8"/>
      </g>
     </g>
     <g id="text_8">
      <!-- 0.0000 -->
      <g transform="translate(24.989375 321.839219) scale(0.1 -0.1)">
       <defs>
        <path id="DejaVuSans-2e" d="M 684 794 
L 1344 794 
L 1344 0 
L 684 0 
L 684 794 
z
" transform="scale(0.015625)"/>
       </defs>
       <use xlink:href="#DejaVuSans-30"/>
       <use xlink:href="#DejaVuSans-2e" x="63.623047"/>
       <use xlink:href="#DejaVuSans-30" x="95.410156"/>
       <use xlink:href="#DejaVuSans-30" x="159.033203"/>
       <use xlink:href="#DejaVuSans-30" x="222.65625"/>
       <use xlink:href="#DejaVuSans-30" x="286.279297"/>
      </g>
     </g>
    </g>
    <g id="ytick_2">
     <g id="line2d_8">
      <g>
       <use xlink:href="#ma4c5415c9f" x="66.98" y="283.394899" style="stroke: #000000; stroke-width: 0.8"/>
      </g>
     </g>
     <g id="text_9">
      <!-- 0.0025 -->
      <g transform="translate(24.989375 287.194118) scale(0.1 -0.1)">
       <use xlink:href="#DejaVuSans-30"/>
       <use xlink:href="#DejaVuSans-2e" x="63.623047"/>
       <use xlink:href="#DejaVuSans-30" x="95.410156"/>
       <use xlink:href="#DejaVuSans-30" x="159.033203"/>
       <use xlink:href="#DejaVuSans-32" x="222.65625"/>
       <use xlink:href="#DejaVuSans-35" x="286.279297"/>
      </g>
     </g>
    </g>
    <g id="ytick_3">
     <g id="line2d_9">
      <g>
       <use xlink:href="#ma4c5415c9f" x="66.98" y="248.749798" style="stroke: #000000; stroke-width: 0.8"/>
      </g>
     </g>
     <g id="text_10">
      <!-- 0.0050 -->
      <g transform="translate(24.989375 252.549017) scale(0.1 -0.1)">
       <use xlink:href="#DejaVuSans-30"/>
       <use xlink:href="#DejaVuSans-2e" x="63.623047"/>
       <use xlink:href="#DejaVuSans-30" x="95.410156"/>
       <use xlink:href="#DejaVuSans-30" x="159.033203"/>
       <use xlink:href="#DejaVuSans-35" x="222.65625"/>
       <use xlink:href="#DejaVuSans-30" x="286.279297"/>
      </g>
     </g>
    </g>
    <g id="ytick_4">
     <g id="line2d_10">
      <g>
       <use xlink:href="#ma4c5415c9f" x="66.98" y="214.104697" style="stroke: #000000; stroke-width: 0.8"/>
      </g>
     </g>
     <g id="text_11">
      <!-- 0.0075 -->
      <g transform="translate(24.989375 217.903916) scale(0.1 -0.1)">
       <defs>
        <path id="DejaVuSans-37" d="M 525 4666 
L 3525 4666 
L 3525 4397 
L 1831 0 
L 1172 0 
L 2766 4134 
L 525 4134 
L 525 4666 
z
" transform="scale(0.015625)"/>
       </defs>
       <use xlink:href="#DejaVuSans-30"/>
       <use xlink:href="#DejaVuSans-2e" x="63.623047"/>
       <use xlink:href="#DejaVuSans-30" x="95.410156"/>
       <use xlink:href="#DejaVuSans-30" x="159.033203"/>
       <use xlink:href="#DejaVuSans-37" x="222.65625"/>
       <use xlink:href="#DejaVuSans-35" x="286.279297"/>
      </g>
     </g>
    </g>
    <g id="ytick_5">
     <g id="line2d_11">
      <g>
       <use xlink:href="#ma4c5415c9f" x="66.98" y="179.459596" style="stroke: #000000; stroke-width: 0.8"/>
      </g>
     </g>
     <g id="text_12">
      <!-- 0.0100 -->
      <g transform="translate(24.989375 183.258815) scale(0.1 -0.1)">
       <use xlink:href="#DejaVuSans-30"/>
       <use xlink:href="#DejaVuSans-2e" x="63.623047"/>
       <use xlink:href="#DejaVuSans-30" x="95.410156"/>
       <use xlink:href="#DejaVuSans-31" x="159.033203"/>
       <use xlink:href="#DejaVuSans-30" x="222.65625"/>
       <use xlink:href="#DejaVuSans-30" x="286.279297"/>
      </g>
     </g>
    </g>
    <g id="ytick_6">
     <g id="line2d_12">
      <g>
       <use xlink:href="#ma4c5415c9f" x="66.98" y="144.814495" style="stroke: #000000; stroke-width: 0.8"/>
      </g>
     </g>
     <g id="text_13">
      <!-- 0.0125 -->
      <g transform="translate(24.989375 148.613714) scale(0.1 -0.1)">
       <use xlink:href="#DejaVuSans-30"/>
       <use xlink:href="#DejaVuSans-2e" x="63.623047"/>
       <use xlink:href="#DejaVuSans-30" x="95.410156"/>
       <use xlink:href="#DejaVuSans-31" x="159.033203"/>
       <use xlink:href="#DejaVuSans-32" x="222.65625"/>
       <use xlink:href="#DejaVuSans-35" x="286.279297"/>
      </g>
     </g>
    </g>
    <g id="ytick_7">
     <g id="line2d_13">
      <g>
       <use xlink:href="#ma4c5415c9f" x="66.98" y="110.169394" style="stroke: #000000; stroke-width: 0.8"/>
      </g>
     </g>
     <g id="text_14">
      <!-- 0.0150 -->
      <g transform="translate(24.989375 113.968613) scale(0.1 -0.1)">
       <use xlink:href="#DejaVuSans-30"/>
       <use xlink:href="#DejaVuSans-2e" x="63.623047"/>
       <use xlink:href="#DejaVuSans-30" x="95.410156"/>
       <use xlink:href="#DejaVuSans-31" x="159.033203"/>
       <use xlink:href="#DejaVuSans-35" x="222.65625"/>
       <use xlink:href="#DejaVuSans-30" x="286.279297"/>
      </g>
     </g>
    </g>
    <g id="ytick_8">
     <g id="line2d_14">
      <g>
       <use xlink:href="#ma4c5415c9f" x="66.98" y="75.524293" style="stroke: #000000; stroke-width: 0.8"/>
      </g>
     </g>
     <g id="text_15">
      <!-- 0.0175 -->
      <g transform="translate(24.989375 79.323512) scale(0.1 -0.1)">
       <use xlink:href="#DejaVuSans-30"/>
       <use xlink:href="#DejaVuSans-2e" x="63.623047"/>
       <use xlink:href="#DejaVuSans-30" x="95.410156"/>
       <use xlink:href="#DejaVuSans-31" x="159.033203"/>
       <use xlink:href="#DejaVuSans-37" x="222.65625"/>
       <use xlink:href="#DejaVuSans-35" x="286.279297"/>
      </g>
     </g>
    </g>
    <g id="ytick_9">
     <g id="line2d_15">
      <g>
       <use xlink:href="#ma4c5415c9f" x="66.98" y="40.879192" style="stroke: #000000; stroke-width: 0.8"/>
      </g>
     </g>
     <g id="text_16">
      <!-- 0.0200 -->
      <g transform="translate(24.989375 44.678411) scale(0.1 -0.1)">
       <use xlink:href="#DejaVuSans-30"/>
       <use xlink:href="#DejaVuSans-2e" x="63.623047"/>
       <use xlink:href="#DejaVuSans-30" x="95.410156"/>
       <use xlink:href="#DejaVuSans-32" x="159.033203"/>
       <use xlink:href="#DejaVuSans-30" x="222.65625"/>
       <use xlink:href="#DejaVuSans-30" x="286.279297"/>
      </g>
     </g>
    </g>
    <g id="text_17">
     <!-- Density -->
     <g transform="translate(18.909688 183.428594) rotate(-90) scale(0.1 -0.1)">
      <defs>
       <path id="DejaVuSans-44" d="M 1259 4147 
L 1259 519 
L 2022 519 
Q 2988 519 3436 956 
Q 3884 1394 3884 2338 
Q 3884 3275 3436 3711 
Q 2988 4147 2022 4147 
L 1259 4147 
z
M 628 4666 
L 1925 4666 
Q 3281 4666 3915 4102 
Q 4550 3538 4550 2338 
Q 4550 1131 3912 565 
Q 3275 0 1925 0 
L 628 0 
L 628 4666 
z
" transform="scale(0.015625)"/>
       <path id="DejaVuSans-73" d="M 2834 3397 
L 2834 2853 
Q 2591 2978 2328 3040 
Q 2066 3103 1784 3103 
Q 1356 3103 1142 2972 
Q 928 2841 928 2578 
Q 928 2378 1081 2264 
Q 1234 2150 1697 2047 
L 1894 2003 
Q 2506 1872 2764 1633 
Q 3022 1394 3022 966 
Q 3022 478 2636 193 
Q 2250 -91 1575 -91 
Q 1294 -91 989 -36 
Q 684 19 347 128 
L 347 722 
Q 666 556 975 473 
Q 1284 391 1588 391 
Q 1994 391 2212 530 
Q 2431 669 2431 922 
Q 2431 1156 2273 1281 
Q 2116 1406 1581 1522 
L 1381 1569 
Q 847 1681 609 1914 
Q 372 2147 372 2553 
Q 372 3047 722 3315 
Q 1072 3584 1716 3584 
Q 2034 3584 2315 3537 
Q 2597 3491 2834 3397 
z
" transform="scale(0.015625)"/>
       <path id="DejaVuSans-69" d="M 603 3500 
L 1178 3500 
L 1178 0 
L 603 0 
L 603 3500 
z
M 603 4863 
L 1178 4863 
L 1178 4134 
L 603 4134 
L 603 4863 
z
" transform="scale(0.015625)"/>
       <path id="DejaVuSans-79" d="M 2059 -325 
Q 1816 -950 1584 -1140 
Q 1353 -1331 966 -1331 
L 506 -1331 
L 506 -850 
L 844 -850 
Q 1081 -850 1212 -737 
Q 1344 -625 1503 -206 
L 1606 56 
L 191 3500 
L 800 3500 
L 1894 763 
L 2988 3500 
L 3597 3500 
L 2059 -325 
z
" transform="scale(0.015625)"/>
      </defs>
      <use xlink:href="#DejaVuSans-44"/>
      <use xlink:href="#DejaVuSans-65" x="77.001953"/>
      <use xlink:href="#DejaVuSans-6e" x="138.525391"/>
      <use xlink:href="#DejaVuSans-73" x="201.904297"/>
      <use xlink:href="#DejaVuSans-69" x="254.003906"/>
      <use xlink:href="#DejaVuSans-74" x="281.787109"/>
      <use xlink:href="#DejaVuSans-79" x="320.996094"/>
     </g>
    </g>
   </g>
   <g id="patch_3">
    <path d="M 66.98 318.04 
L 66.98 10.8 
" style="fill: none; stroke: #000000; stroke-width: 0.8; stroke-linejoin: miter; stroke-linecap: square"/>
   </g>
   <g id="patch_4">
    <path d="M 66.98 318.04 
L 1414.3761 318.04 
" style="fill: none; stroke: #000000; stroke-width: 0.8; stroke-linejoin: miter; stroke-linecap: square"/>
   </g>
  </g>
  <g id="legend_1">
   <g id="text_18">
    <!-- Rating -->
    <g transform="translate(1440.090781 168.08125) scale(0.1 -0.1)">
     <defs>
      <path id="DejaVuSans-52" d="M 2841 2188 
Q 3044 2119 3236 1894 
Q 3428 1669 3622 1275 
L 4263 0 
L 3584 0 
L 2988 1197 
Q 2756 1666 2539 1819 
Q 2322 1972 1947 1972 
L 1259 1972 
L 1259 0 
L 628 0 
L 628 4666 
L 2053 4666 
Q 2853 4666 3247 4331 
Q 3641 3997 3641 3322 
Q 3641 2881 3436 2590 
Q 3231 2300 2841 2188 
z
M 1259 4147 
L 1259 2491 
L 2053 2491 
Q 2509 2491 2742 2702 
Q 2975 2913 2975 3322 
Q 2975 3731 2742 3939 
Q 2509 4147 2053 4147 
L 1259 4147 
z
" transform="scale(0.015625)"/>
      <path id="DejaVuSans-61" d="M 2194 1759 
Q 1497 1759 1228 1600 
Q 959 1441 959 1056 
Q 959 750 1161 570 
Q 1363 391 1709 391 
Q 2188 391 2477 730 
Q 2766 1069 2766 1631 
L 2766 1759 
L 2194 1759 
z
M 3341 1997 
L 3341 0 
L 2766 0 
L 2766 531 
Q 2569 213 2275 61 
Q 1981 -91 1556 -91 
Q 1019 -91 701 211 
Q 384 513 384 1019 
Q 384 1609 779 1909 
Q 1175 2209 1959 2209 
L 2766 2209 
L 2766 2266 
Q 2766 2663 2505 2880 
Q 2244 3097 1772 3097 
Q 1472 3097 1187 3025 
Q 903 2953 641 2809 
L 641 3341 
Q 956 3463 1253 3523 
Q 1550 3584 1831 3584 
Q 2591 3584 2966 3190 
Q 3341 2797 3341 1997 
z
" transform="scale(0.015625)"/>
     </defs>
     <use xlink:href="#DejaVuSans-52"/>
     <use xlink:href="#DejaVuSans-61" x="67.232422"/>
     <use xlink:href="#DejaVuSans-74" x="128.511719"/>
     <use xlink:href="#DejaVuSans-69" x="167.720703"/>
     <use xlink:href="#DejaVuSans-6e" x="195.503906"/>
     <use xlink:href="#DejaVuSans-67" x="258.882812"/>
    </g>
   </g>
   <g id="patch_5">
    <path d="M 1439.0275 182.759375 
L 1459.0275 182.759375 
L 1459.0275 175.759375 
L 1439.0275 175.759375 
z
" style="fill: #40498e; fill-opacity: 0.25; stroke: #40498e; stroke-linejoin: miter"/>
   </g>
   <g id="text_19">
    <!-- 0 -->
    <g transform="translate(1467.0275 182.759375) scale(0.1 -0.1)">
     <use xlink:href="#DejaVuSans-30"/>
    </g>
   </g>
   <g id="patch_6">
    <path d="M 1439.0275 197.4375 
L 1459.0275 197.4375 
L 1459.0275 190.4375 
L 1439.0275 190.4375 
z
" style="fill: #38aaac; fill-opacity: 0.25; stroke: #38aaac; stroke-linejoin: miter"/>
   </g>
   <g id="text_20">
    <!-- 1 -->
    <g transform="translate(1467.0275 197.4375) scale(0.1 -0.1)">
     <use xlink:href="#DejaVuSans-31"/>
    </g>
   </g>
  </g>
 </g>
 <defs>
  <clipPath id="p9aa9722a52">
   <rect x="66.98" y="10.8" width="1347.3961" height="307.24"/>
  </clipPath>
 </defs>
</svg>
