<?xml version="1.0" encoding="utf-8" standalone="no"?>
<!DOCTYPE svg PUBLIC "-//W3C//DTD SVG 1.1//EN"
  "http://www.w3.org/Graphics/SVG/1.1/DTD/svg11.dtd">
<svg xmlns:xlink="http://www.w3.org/1999/xlink" width="1482.39pt" height="360pt" viewBox="0 0 1482.39 360" xmlns="http://www.w3.org/2000/svg" version="1.1">
 <metadata>
  <rdf:RDF xmlns:dc="http://purl.org/dc/elements/1.1/" xmlns:cc="http://creativecommons.org/ns#" xmlns:rdf="http://www.w3.org/1999/02/22-rdf-syntax-ns#">
   <cc:Work>
    <dc:type rdf:resource="http://purl.org/dc/dcmitype/StillImage"/>
    <dc:date>2024-08-27T11:09:03.308690</dc:date>
    <dc:format>image/svg+xml</dc:format>
    <dc:creator>
     <cc:Agent>
      <dc:title>Matplotlib v3.8.4, https://matplotlib.org/</dc:title>
     </cc:Agent>
    </dc:creator>
   </cc:Work>
  </rdf:RDF>
 </metadata>
 <defs>
  <style type="text/css">*{stroke-linejoin: round; stroke-linecap: butt}</style>
 </defs>
 <g id="figure_1">
  <g id="patch_1">
   <path d="M 0 360 
L 1482.39 360 
L 1482.39 0 
L 0 0 
z
" style="fill: #ffffff"/>
  </g>
  <g id="axes_1">
   <g id="patch_2">
    <path d="M 66.98 318.04 
L 1412.024318 318.04 
L 1412.024318 10.8 
L 66.98 10.8 
z
" style="fill: #ffffff"/>
   </g>
   <g id="PolyCollection_1">
    <defs>
     <path id="me58e80b758" d="M 259.240405 -43.087103 
L 259.240405 -41.96 
L 264.726061 -41.96 
L 270.211717 -41.96 
L 275.697373 -41.96 
L 281.183028 -41.96 
L 286.668684 -41.96 
L 292.15434 -41.96 
L 297.639996 -41.96 
L 303.125652 -41.96 
L 308.611308 -41.96 
L 314.096964 -41.96 
L 319.58262 -41.96 
L 325.068276 -41.96 
L 330.553932 -41.96 
L 336.039588 -41.96 
L 341.525244 -41.96 
L 347.0109 -41.96 
L 352.496556 -41.96 
L 357.982212 -41.96 
L 363.467868 -41.96 
L 368.953524 -41.96 
L 374.43918 -41.96 
L 379.924836 -41.96 
L 385.410492 -41.96 
L 390.896148 -41.96 
L 396.381804 -41.96 
L 401.86746 -41.96 
L 407.353115 -41.96 
L 412.838771 -41.96 
L 418.324427 -41.96 
L 423.810083 -41.96 
L 429.295739 -41.96 
L 434.781395 -41.96 
L 440.267051 -41.96 
L 445.752707 -41.96 
L 451.238363 -41.96 
L 456.724019 -41.96 
L 462.209675 -41.96 
L 467.695331 -41.96 
L 473.180987 -41.96 
L 478.666643 -41.96 
L 484.152299 -41.96 
L 489.637955 -41.96 
L 495.123611 -41.96 
L 500.609267 -41.96 
L 506.094923 -41.96 
L 511.580579 -41.96 
L 517.066235 -41.96 
L 522.551891 -41.96 
L 528.037547 -41.96 
L 533.523203 -41.96 
L 539.008858 -41.96 
L 544.494514 -41.96 
L 549.98017 -41.96 
L 555.465826 -41.96 
L 560.951482 -41.96 
L 566.437138 -41.96 
L 571.922794 -41.96 
L 577.40845 -41.96 
L 582.894106 -41.96 
L 588.379762 -41.96 
L 593.865418 -41.96 
L 599.351074 -41.96 
L 604.83673 -41.96 
L 610.322386 -41.96 
L 615.808042 -41.96 
L 621.293698 -41.96 
L 626.779354 -41.96 
L 632.26501 -41.96 
L 637.750666 -41.96 
L 643.236322 -41.96 
L 648.721978 -41.96 
L 654.207634 -41.96 
L 659.69329 -41.96 
L 665.178946 -41.96 
L 670.664601 -41.96 
L 676.150257 -41.96 
L 681.635913 -41.96 
L 687.121569 -41.96 
L 692.607225 -41.96 
L 698.092881 -41.96 
L 703.578537 -41.96 
L 709.064193 -41.96 
L 714.549849 -41.96 
L 720.035505 -41.96 
L 725.521161 -41.96 
L 731.006817 -41.96 
L 736.492473 -41.96 
L 741.978129 -41.96 
L 747.463785 -41.96 
L 752.949441 -41.96 
L 758.435097 -41.96 
L 763.920753 -41.96 
L 769.406409 -41.96 
L 774.892065 -41.96 
L 780.377721 -41.96 
L 785.863377 -41.96 
L 791.349033 -41.96 
L 796.834688 -41.96 
L 802.320344 -41.96 
L 807.806 -41.96 
L 813.291656 -41.96 
L 818.777312 -41.96 
L 824.262968 -41.96 
L 829.748624 -41.96 
L 835.23428 -41.96 
L 840.719936 -41.96 
L 846.205592 -41.96 
L 851.691248 -41.96 
L 857.176904 -41.96 
L 862.66256 -41.96 
L 868.148216 -41.96 
L 873.633872 -41.96 
L 879.119528 -41.96 
L 884.605184 -41.96 
L 890.09084 -41.96 
L 895.576496 -41.96 
L 901.062152 -41.96 
L 906.547808 -41.96 
L 912.033464 -41.96 
L 917.51912 -41.96 
L 923.004776 -41.96 
L 928.490431 -41.96 
L 933.976087 -41.96 
L 939.461743 -41.96 
L 944.947399 -41.96 
L 950.433055 -41.96 
L 955.918711 -41.96 
L 961.404367 -41.96 
L 966.890023 -41.96 
L 972.375679 -41.96 
L 977.861335 -41.96 
L 983.346991 -41.96 
L 988.832647 -41.96 
L 994.318303 -41.96 
L 999.803959 -41.96 
L 1005.289615 -41.96 
L 1010.775271 -41.96 
L 1016.260927 -41.96 
L 1021.746583 -41.96 
L 1027.232239 -41.96 
L 1032.717895 -41.96 
L 1038.203551 -41.96 
L 1043.689207 -41.96 
L 1049.174863 -41.96 
L 1054.660518 -41.96 
L 1060.146174 -41.96 
L 1065.63183 -41.96 
L 1071.117486 -41.96 
L 1076.603142 -41.96 
L 1082.088798 -41.96 
L 1087.574454 -41.96 
L 1093.06011 -41.96 
L 1098.545766 -41.96 
L 1104.031422 -41.96 
L 1109.517078 -41.96 
L 1115.002734 -41.96 
L 1120.48839 -41.96 
L 1125.974046 -41.96 
L 1131.459702 -41.96 
L 1136.945358 -41.96 
L 1142.431014 -41.96 
L 1147.91667 -41.96 
L 1153.402326 -41.96 
L 1158.887982 -41.96 
L 1164.373638 -41.96 
L 1169.859294 -41.96 
L 1175.34495 -41.96 
L 1180.830606 -41.96 
L 1186.316261 -41.96 
L 1191.801917 -41.96 
L 1197.287573 -41.96 
L 1202.773229 -41.96 
L 1208.258885 -41.96 
L 1213.744541 -41.96 
L 1219.230197 -41.96 
L 1224.715853 -41.96 
L 1230.201509 -41.96 
L 1235.687165 -41.96 
L 1241.172821 -41.96 
L 1246.658477 -41.96 
L 1252.144133 -41.96 
L 1257.629789 -41.96 
L 1263.115445 -41.96 
L 1268.601101 -41.96 
L 1274.086757 -41.96 
L 1279.572413 -41.96 
L 1285.058069 -41.96 
L 1290.543725 -41.96 
L 1296.029381 -41.96 
L 1301.515037 -41.96 
L 1307.000693 -41.96 
L 1312.486349 -41.96 
L 1317.972004 -41.96 
L 1323.45766 -41.96 
L 1328.943316 -41.96 
L 1334.428972 -41.96 
L 1339.914628 -41.96 
L 1345.400284 -41.96 
L 1350.88594 -41.96 
L 1350.88594 -41.967978 
L 1350.88594 -41.967978 
L 1345.400284 -41.973729 
L 1339.914628 -41.982817 
L 1334.428972 -41.996623 
L 1328.943316 -42.016773 
L 1323.45766 -42.045 
L 1317.972004 -42.08292 
L 1312.486349 -42.131705 
L 1307.000693 -42.191714 
L 1301.515037 -42.262139 
L 1296.029381 -42.340772 
L 1290.543725 -42.423983 
L 1285.058069 -42.50699 
L 1279.572413 -42.584432 
L 1274.086757 -42.651179 
L 1268.601101 -42.703227 
L 1263.115445 -42.738486 
L 1257.629789 -42.757241 
L 1252.144133 -42.762143 
L 1246.658477 -42.757679 
L 1241.172821 -42.749207 
L 1235.687165 -42.741759 
L 1230.201509 -42.7389 
L 1224.715853 -42.741897 
L 1219.230197 -42.749435 
L 1213.744541 -42.757921 
L 1208.258885 -42.762328 
L 1202.773229 -42.757354 
L 1197.287573 -42.738636 
L 1191.801917 -42.703734 
L 1186.316261 -42.652692 
L 1180.830606 -42.588095 
L 1175.34495 -42.514666 
L 1169.859294 -42.438562 
L 1164.373638 -42.366554 
L 1158.887982 -42.305275 
L 1153.402326 -42.260662 
L 1147.91667 -42.237607 
L 1142.431014 -42.239796 
L 1136.945358 -42.269632 
L 1131.459702 -42.328177 
L 1125.974046 -42.41504 
L 1120.48839 -42.528244 
L 1115.002734 -42.66412 
L 1109.517078 -42.817326 
L 1104.031422 -42.981061 
L 1098.545766 -43.147536 
L 1093.06011 -43.308663 
L 1087.574454 -43.456876 
L 1082.088798 -43.58596 
L 1076.603142 -43.691727 
L 1071.117486 -43.77243 
L 1065.63183 -43.828823 
L 1060.146174 -43.863869 
L 1054.660518 -43.882128 
L 1049.174863 -43.888921 
L 1043.689207 -43.88939 
L 1038.203551 -43.887592 
L 1032.717895 -43.885777 
L 1027.232239 -43.883986 
L 1021.746583 -43.880072 
L 1016.260927 -43.870187 
L 1010.775271 -43.849676 
L 1005.289615 -43.814229 
L 999.803959 -43.761036 
L 994.318303 -43.68968 
L 988.832647 -43.602505 
L 983.346991 -43.504354 
L 977.861335 -43.401703 
L 972.375679 -43.301386 
L 966.890023 -43.209246 
L 961.404367 -43.129052 
L 955.918711 -43.061966 
L 950.433055 -43.006689 
L 944.947399 -42.96022 
L 939.461743 -42.918992 
L 933.976087 -42.880069 
L 928.490431 -42.842043 
L 923.004776 -42.805404 
L 917.51912 -42.7723 
L 912.033464 -42.745756 
L 906.547808 -42.728627 
L 901.062152 -42.722569 
L 895.576496 -42.727352 
L 890.09084 -42.740717 
L 884.605184 -42.758834 
L 879.119528 -42.777274 
L 873.633872 -42.792237 
L 868.148216 -42.801762 
L 862.66256 -42.806601 
L 857.176904 -42.810552 
L 851.691248 -42.820178 
L 846.205592 -42.843957 
L 840.719936 -42.891062 
L 835.23428 -42.970001 
L 829.748624 -43.087373 
L 824.262968 -43.246924 
L 818.777312 -43.449029 
L 813.291656 -43.690596 
L 807.806 -43.96536 
L 802.320344 -44.264462 
L 796.834688 -44.577203 
L 791.349033 -44.891887 
L 785.863377 -45.196647 
L 780.377721 -45.480195 
L 774.892065 -45.732448 
L 769.406409 -45.944972 
L 763.920753 -46.111282 
L 758.435097 -46.227004 
L 752.949441 -46.289978 
L 747.463785 -46.300365 
L 741.978129 -46.260803 
L 736.492473 -46.176592 
L 731.006817 -46.055848 
L 725.521161 -45.909506 
L 720.035505 -45.751065 
L 714.549849 -45.596011 
L 709.064193 -45.460908 
L 703.578537 -45.362229 
L 698.092881 -45.315042 
L 692.607225 -45.331681 
L 687.121569 -45.420547 
L 681.635913 -45.585168 
L 676.150257 -45.823675 
L 670.664601 -46.128826 
L 665.178946 -46.488742 
L 659.69329 -46.888425 
L 654.207634 -47.312031 
L 648.721978 -47.745711 
L 643.236322 -48.180629 
L 637.750666 -48.615668 
L 632.26501 -49.059236 
L 626.779354 -49.529693 
L 621.293698 -50.0541 
L 615.808042 -50.66526 
L 610.322386 -51.397348 
L 604.83673 -52.280731 
L 599.351074 -53.336752 
L 593.865418 -54.573334 
L 588.379762 -55.98218 
L 582.894106 -57.538112 
L 577.40845 -59.200777 
L 571.922794 -60.918578 
L 566.437138 -62.634353 
L 560.951482 -64.292114 
L 555.465826 -65.844009 
L 549.98017 -67.256706 
L 544.494514 -68.516519 
L 539.008858 -69.632701 
L 533.523203 -70.63852 
L 528.037547 -71.589866 
L 522.551891 -72.561322 
L 517.066235 -73.639894 
L 511.580579 -74.916943 
L 506.094923 -76.479305 
L 500.609267 -78.400926 
L 495.123611 -80.736572 
L 489.637955 -83.519039 
L 484.152299 -86.760825 
L 478.666643 -90.460525 
L 473.180987 -94.613307 
L 467.695331 -99.224143 
L 462.209675 -104.321966 
L 456.724019 -109.972761 
L 451.238363 -116.289651 
L 445.752707 -123.438081 
L 440.267051 -131.634157 
L 434.781395 -141.133901 
L 429.295739 -152.211087 
L 423.810083 -165.12157 
L 418.324427 -180.053474 
L 412.838771 -197.065276 
L 407.353115 -216.017961 
L 401.86746 -236.512037 
L 396.381804 -257.844177 
L 390.896148 -278.999714 
L 385.410492 -298.69478 
L 379.924836 -315.47465 
L 374.43918 -327.863673 
L 368.953524 -334.549077 
L 363.467868 -334.569524 
L 357.982212 -327.473155 
L 352.496556 -313.411828 
L 347.0109 -293.148818 
L 341.525244 -267.974444 
L 336.039588 -239.543529 
L 330.553932 -209.665105 
L 325.068276 -180.083737 
L 319.58262 -152.291156 
L 314.096964 -127.397204 
L 308.611308 -106.07374 
L 303.125652 -88.568776 
L 297.639996 -74.774961 
L 292.15434 -64.329382 
L 286.668684 -56.721048 
L 281.183028 -51.387052 
L 275.697373 -47.78578 
L 270.211717 -45.443245 
L 264.726061 -43.974676 
L 259.240405 -43.087103 
z
" style="stroke: #def5e5"/>
    </defs>
    <g clip-path="url(#p57f3fbb3af)">
     <use xlink:href="#me58e80b758" x="0" y="360" style="fill: #def5e5; fill-opacity: 0.25; stroke: #def5e5"/>
    </g>
   </g>
   <g id="PolyCollection_2">
    <defs>
     <path id="mf8e3d23778" d="M 262.905528 -42.072224 
L 262.905528 -41.96 
L 265.781705 -41.96 
L 268.657881 -41.96 
L 271.534057 -41.96 
L 274.410234 -41.96 
L 277.28641 -41.96 
L 280.162586 -41.96 
L 283.038762 -41.96 
L 285.914939 -41.96 
L 288.791115 -41.96 
L 291.667291 -41.96 
L 294.543468 -41.96 
L 297.419644 -41.96 
L 300.29582 -41.96 
L 303.171997 -41.96 
L 306.048173 -41.96 
L 308.924349 -41.96 
L 311.800526 -41.96 
L 314.676702 -41.96 
L 317.552878 -41.96 
L 320.429055 -41.96 
L 323.305231 -41.96 
L 326.181407 -41.96 
L 329.057584 -41.96 
L 331.93376 -41.96 
L 334.809936 -41.96 
L 337.686112 -41.96 
L 340.562289 -41.96 
L 343.438465 -41.96 
L 346.314641 -41.96 
L 349.190818 -41.96 
L 352.066994 -41.96 
L 354.94317 -41.96 
L 357.819347 -41.96 
L 360.695523 -41.96 
L 363.571699 -41.96 
L 366.447876 -41.96 
L 369.324052 -41.96 
L 372.200228 -41.96 
L 375.076405 -41.96 
L 377.952581 -41.96 
L 380.828757 -41.96 
L 383.704933 -41.96 
L 386.58111 -41.96 
L 389.457286 -41.96 
L 392.333462 -41.96 
L 395.209639 -41.96 
L 398.085815 -41.96 
L 400.961991 -41.96 
L 403.838168 -41.96 
L 406.714344 -41.96 
L 409.59052 -41.96 
L 412.466697 -41.96 
L 415.342873 -41.96 
L 418.219049 -41.96 
L 421.095226 -41.96 
L 423.971402 -41.96 
L 426.847578 -41.96 
L 429.723754 -41.96 
L 432.599931 -41.96 
L 435.476107 -41.96 
L 438.352283 -41.96 
L 441.22846 -41.96 
L 444.104636 -41.96 
L 446.980812 -41.96 
L 449.856989 -41.96 
L 452.733165 -41.96 
L 455.609341 -41.96 
L 458.485518 -41.96 
L 461.361694 -41.96 
L 464.23787 -41.96 
L 467.114047 -41.96 
L 469.990223 -41.96 
L 472.866399 -41.96 
L 475.742575 -41.96 
L 478.618752 -41.96 
L 481.494928 -41.96 
L 484.371104 -41.96 
L 487.247281 -41.96 
L 490.123457 -41.96 
L 492.999633 -41.96 
L 495.87581 -41.96 
L 498.751986 -41.96 
L 501.628162 -41.96 
L 504.504339 -41.96 
L 507.380515 -41.96 
L 510.256691 -41.96 
L 513.132868 -41.96 
L 516.009044 -41.96 
L 518.88522 -41.96 
L 521.761396 -41.96 
L 524.637573 -41.96 
L 527.513749 -41.96 
L 530.389925 -41.96 
L 533.266102 -41.96 
L 536.142278 -41.96 
L 539.018454 -41.96 
L 541.894631 -41.96 
L 544.770807 -41.96 
L 547.646983 -41.96 
L 550.52316 -41.96 
L 553.399336 -41.96 
L 556.275512 -41.96 
L 559.151689 -41.96 
L 562.027865 -41.96 
L 564.904041 -41.96 
L 567.780218 -41.96 
L 570.656394 -41.96 
L 573.53257 -41.96 
L 576.408746 -41.96 
L 579.284923 -41.96 
L 582.161099 -41.96 
L 585.037275 -41.96 
L 587.913452 -41.96 
L 590.789628 -41.96 
L 593.665804 -41.96 
L 596.541981 -41.96 
L 599.418157 -41.96 
L 602.294333 -41.96 
L 605.17051 -41.96 
L 608.046686 -41.96 
L 610.922862 -41.96 
L 613.799039 -41.96 
L 616.675215 -41.96 
L 619.551391 -41.96 
L 622.427567 -41.96 
L 625.303744 -41.96 
L 628.17992 -41.96 
L 631.056096 -41.96 
L 633.932273 -41.96 
L 636.808449 -41.96 
L 639.684625 -41.96 
L 642.560802 -41.96 
L 645.436978 -41.96 
L 648.313154 -41.96 
L 651.189331 -41.96 
L 654.065507 -41.96 
L 656.941683 -41.96 
L 659.81786 -41.96 
L 662.694036 -41.96 
L 665.570212 -41.96 
L 668.446388 -41.96 
L 671.322565 -41.96 
L 674.198741 -41.96 
L 677.074917 -41.96 
L 679.951094 -41.96 
L 682.82727 -41.96 
L 685.703446 -41.96 
L 688.579623 -41.96 
L 691.455799 -41.96 
L 694.331975 -41.96 
L 697.208152 -41.96 
L 700.084328 -41.96 
L 702.960504 -41.96 
L 705.836681 -41.96 
L 708.712857 -41.96 
L 711.589033 -41.96 
L 714.465209 -41.96 
L 717.341386 -41.96 
L 720.217562 -41.96 
L 723.093738 -41.96 
L 725.969915 -41.96 
L 728.846091 -41.96 
L 731.722267 -41.96 
L 734.598444 -41.96 
L 737.47462 -41.96 
L 740.350796 -41.96 
L 743.226973 -41.96 
L 746.103149 -41.96 
L 748.979325 -41.96 
L 751.855502 -41.96 
L 754.731678 -41.96 
L 757.607854 -41.96 
L 760.484031 -41.96 
L 763.360207 -41.96 
L 766.236383 -41.96 
L 769.112559 -41.96 
L 771.988736 -41.96 
L 774.864912 -41.96 
L 777.741088 -41.96 
L 780.617265 -41.96 
L 783.493441 -41.96 
L 786.369617 -41.96 
L 789.245794 -41.96 
L 792.12197 -41.96 
L 794.998146 -41.96 
L 797.874323 -41.96 
L 800.750499 -41.96 
L 803.626675 -41.96 
L 806.502852 -41.96 
L 809.379028 -41.96 
L 812.255204 -41.96 
L 815.13138 -41.96 
L 818.007557 -41.96 
L 820.883733 -41.96 
L 823.759909 -41.96 
L 826.636086 -41.96 
L 829.512262 -41.96 
L 832.388438 -41.96 
L 835.264615 -41.96 
L 835.264615 -41.968263 
L 835.264615 -41.968263 
L 832.388438 -41.971144 
L 829.512262 -41.974876 
L 826.636086 -41.979655 
L 823.759909 -41.985702 
L 820.883733 -41.993266 
L 818.007557 -42.002616 
L 815.13138 -42.014036 
L 812.255204 -42.027813 
L 809.379028 -42.044233 
L 806.502852 -42.063558 
L 803.626675 -42.086014 
L 800.750499 -42.11177 
L 797.874323 -42.140919 
L 794.998146 -42.17346 
L 792.12197 -42.209277 
L 789.245794 -42.248124 
L 786.369617 -42.289616 
L 783.493441 -42.333226 
L 780.617265 -42.37828 
L 777.741088 -42.423976 
L 774.864912 -42.469397 
L 771.988736 -42.513541 
L 769.112559 -42.555355 
L 766.236383 -42.593774 
L 763.360207 -42.627769 
L 760.484031 -42.656387 
L 757.607854 -42.678799 
L 754.731678 -42.69434 
L 751.855502 -42.70254 
L 748.979325 -42.703148 
L 746.103149 -42.696145 
L 743.226973 -42.681747 
L 740.350796 -42.66039 
L 737.47462 -42.632711 
L 734.598444 -42.599517 
L 731.722267 -42.561743 
L 728.846091 -42.520414 
L 725.969915 -42.476593 
L 723.093738 -42.431344 
L 720.217562 -42.385683 
L 717.341386 -42.340551 
L 714.465209 -42.296783 
L 711.589033 -42.255087 
L 708.712857 -42.216038 
L 705.836681 -42.180071 
L 702.960504 -42.14749 
L 700.084328 -42.118481 
L 697.208152 -42.093125 
L 694.331975 -42.071423 
L 691.455799 -42.053316 
L 688.579623 -42.038709 
L 685.703446 -42.027492 
L 682.82727 -42.019562 
L 679.951094 -42.014837 
L 677.074917 -42.013268 
L 674.198741 -42.014855 
L 671.322565 -42.019642 
L 668.446388 -42.027726 
L 665.570212 -42.039246 
L 662.694036 -42.05438 
L 659.81786 -42.073332 
L 656.941683 -42.096316 
L 654.065507 -42.123546 
L 651.189331 -42.155211 
L 648.313154 -42.191468 
L 645.436978 -42.23242 
L 642.560802 -42.278108 
L 639.684625 -42.3285 
L 636.808449 -42.38349 
L 633.932273 -42.442898 
L 631.056096 -42.50648 
L 628.17992 -42.573937 
L 625.303744 -42.644932 
L 622.427567 -42.719115 
L 619.551391 -42.796138 
L 616.675215 -42.875683 
L 613.799039 -42.957479 
L 610.922862 -43.041322 
L 608.046686 -43.127085 
L 605.17051 -43.214728 
L 602.294333 -43.304301 
L 599.418157 -43.395942 
L 596.541981 -43.48987 
L 593.665804 -43.586382 
L 590.789628 -43.685844 
L 587.913452 -43.788687 
L 585.037275 -43.895405 
L 582.161099 -44.00656 
L 579.284923 -44.122784 
L 576.408746 -44.244791 
L 573.53257 -44.373386 
L 570.656394 -44.509475 
L 567.780218 -44.654068 
L 564.904041 -44.808274 
L 562.027865 -44.973291 
L 559.151689 -45.150375 
L 556.275512 -45.340802 
L 553.399336 -45.545811 
L 550.52316 -45.766537 
L 547.646983 -46.003934 
L 544.770807 -46.258689 
L 541.894631 -46.531137 
L 539.018454 -46.821184 
L 536.142278 -47.128234 
L 533.266102 -47.451138 
L 530.389925 -47.788163 
L 527.513749 -48.13699 
L 524.637573 -48.494741 
L 521.761396 -48.858034 
L 518.88522 -49.223081 
L 516.009044 -49.585798 
L 513.132868 -49.941959 
L 510.256691 -50.287356 
L 507.380515 -50.617977 
L 504.504339 -50.93019 
L 501.628162 -51.220918 
L 498.751986 -51.487804 
L 495.87581 -51.729354 
L 492.999633 -51.945047 
L 490.123457 -52.135413 
L 487.247281 -52.30208 
L 484.371104 -52.447763 
L 481.494928 -52.576238 
L 478.618752 -52.692261 
L 475.742575 -52.801468 
L 472.866399 -52.910246 
L 469.990223 -53.025587 
L 467.114047 -53.15493 
L 464.23787 -53.305995 
L 461.361694 -53.486627 
L 458.485518 -53.704626 
L 455.609341 -53.9676 
L 452.733165 -54.282813 
L 449.856989 -54.657041 
L 446.980812 -55.096439 
L 444.104636 -55.6064 
L 441.22846 -56.191427 
L 438.352283 -56.854995 
L 435.476107 -57.599423 
L 432.599931 -58.425737 
L 429.723754 -59.333542 
L 426.847578 -60.320898 
L 423.971402 -61.384198 
L 421.095226 -62.518069 
L 418.219049 -63.715285 
L 415.342873 -64.966709 
L 412.466697 -66.261258 
L 409.59052 -67.585915 
L 406.714344 -68.925778 
L 403.838168 -70.264162 
L 400.961991 -71.582757 
L 398.085815 -72.861849 
L 395.209639 -74.080607 
L 392.333462 -75.217446 
L 389.457286 -76.250449 
L 386.58111 -77.157866 
L 383.704933 -77.918668 
L 380.828757 -78.513146 
L 377.952581 -78.923536 
L 375.076405 -79.134658 
L 372.200228 -79.13452 
L 369.324052 -78.914874 
L 366.447876 -78.471687 
L 363.571699 -77.805487 
L 360.695523 -76.921564 
L 357.819347 -75.830008 
L 354.94317 -74.545553 
L 352.066994 -73.087237 
L 349.190818 -71.47789 
L 346.314641 -69.743447 
L 343.438465 -67.91214 
L 340.562289 -66.013594 
L 337.686112 -64.077878 
L 334.809936 -62.134548 
L 331.93376 -60.211756 
L 329.057584 -58.335431 
L 326.181407 -56.528607 
L 323.305231 -54.810899 
L 320.429055 -53.198157 
L 317.552878 -51.7023 
L 314.676702 -50.331324 
L 311.800526 -49.089466 
L 308.924349 -47.977503 
L 306.048173 -46.99316 
L 303.171997 -46.131584 
L 300.29582 -45.38586 
L 297.419644 -44.747542 
L 294.543468 -44.207152 
L 291.667291 -43.754653 
L 288.791115 -43.379859 
L 285.914939 -43.072775 
L 283.038762 -42.823871 
L 280.162586 -42.624283 
L 277.28641 -42.465946 
L 274.410234 -42.341669 
L 271.534057 -42.245161 
L 268.657881 -42.171007 
L 265.781705 -42.114632 
L 262.905528 -42.072224 
z
" style="stroke: #4bc2ad"/>
    </defs>
    <g clip-path="url(#p57f3fbb3af)">
     <use xlink:href="#mf8e3d23778" x="0" y="360" style="fill: #4bc2ad; fill-opacity: 0.25; stroke: #4bc2ad"/>
    </g>
   </g>
   <g id="PolyCollection_3">
    <defs>
     <path id="m0117e21754" d="M 128.118378 -41.98413 
L 128.118378 -41.96 
L 133.048589 -41.96 
L 137.978799 -41.96 
L 142.90901 -41.96 
L 147.83922 -41.96 
L 152.769431 -41.96 
L 157.699641 -41.96 
L 162.629852 -41.96 
L 167.560062 -41.96 
L 172.490273 -41.96 
L 177.420484 -41.96 
L 182.350694 -41.96 
L 187.280905 -41.96 
L 192.211115 -41.96 
L 197.141326 -41.96 
L 202.071536 -41.96 
L 207.001747 -41.96 
L 211.931957 -41.96 
L 216.862168 -41.96 
L 221.792379 -41.96 
L 226.722589 -41.96 
L 231.6528 -41.96 
L 236.58301 -41.96 
L 241.513221 -41.96 
L 246.443431 -41.96 
L 251.373642 -41.96 
L 256.303852 -41.96 
L 261.234063 -41.96 
L 266.164273 -41.96 
L 271.094484 -41.96 
L 276.024695 -41.96 
L 280.954905 -41.96 
L 285.885116 -41.96 
L 290.815326 -41.96 
L 295.745537 -41.96 
L 300.675747 -41.96 
L 305.605958 -41.96 
L 310.536168 -41.96 
L 315.466379 -41.96 
L 320.396589 -41.96 
L 325.3268 -41.96 
L 330.257011 -41.96 
L 335.187221 -41.96 
L 340.117432 -41.96 
L 345.047642 -41.96 
L 349.977853 -41.96 
L 354.908063 -41.96 
L 359.838274 -41.96 
L 364.768484 -41.96 
L 369.698695 -41.96 
L 374.628906 -41.96 
L 379.559116 -41.96 
L 384.489327 -41.96 
L 389.419537 -41.96 
L 394.349748 -41.96 
L 399.279958 -41.96 
L 404.210169 -41.96 
L 409.140379 -41.96 
L 414.07059 -41.96 
L 419.0008 -41.96 
L 423.931011 -41.96 
L 428.861222 -41.96 
L 433.791432 -41.96 
L 438.721643 -41.96 
L 443.651853 -41.96 
L 448.582064 -41.96 
L 453.512274 -41.96 
L 458.442485 -41.96 
L 463.372695 -41.96 
L 468.302906 -41.96 
L 473.233116 -41.96 
L 478.163327 -41.96 
L 483.093538 -41.96 
L 488.023748 -41.96 
L 492.953959 -41.96 
L 497.884169 -41.96 
L 502.81438 -41.96 
L 507.74459 -41.96 
L 512.674801 -41.96 
L 517.605011 -41.96 
L 522.535222 -41.96 
L 527.465433 -41.96 
L 532.395643 -41.96 
L 537.325854 -41.96 
L 542.256064 -41.96 
L 547.186275 -41.96 
L 552.116485 -41.96 
L 557.046696 -41.96 
L 561.976906 -41.96 
L 566.907117 -41.96 
L 571.837327 -41.96 
L 576.767538 -41.96 
L 581.697749 -41.96 
L 586.627959 -41.96 
L 591.55817 -41.96 
L 596.48838 -41.96 
L 601.418591 -41.96 
L 606.348801 -41.96 
L 611.279012 -41.96 
L 616.209222 -41.96 
L 621.139433 -41.96 
L 626.069643 -41.96 
L 630.999854 -41.96 
L 635.930065 -41.96 
L 640.860275 -41.96 
L 645.790486 -41.96 
L 650.720696 -41.96 
L 655.650907 -41.96 
L 660.581117 -41.96 
L 665.511328 -41.96 
L 670.441538 -41.96 
L 675.371749 -41.96 
L 680.30196 -41.96 
L 685.23217 -41.96 
L 690.162381 -41.96 
L 695.092591 -41.96 
L 700.022802 -41.96 
L 704.953012 -41.96 
L 709.883223 -41.96 
L 714.813433 -41.96 
L 719.743644 -41.96 
L 724.673854 -41.96 
L 729.604065 -41.96 
L 734.534276 -41.96 
L 739.464486 -41.96 
L 744.394697 -41.96 
L 749.324907 -41.96 
L 754.255118 -41.96 
L 759.185328 -41.96 
L 764.115539 -41.96 
L 769.045749 -41.96 
L 773.97596 -41.96 
L 778.90617 -41.96 
L 783.836381 -41.96 
L 788.766592 -41.96 
L 793.696802 -41.96 
L 798.627013 -41.96 
L 803.557223 -41.96 
L 808.487434 -41.96 
L 813.417644 -41.96 
L 818.347855 -41.96 
L 823.278065 -41.96 
L 828.208276 -41.96 
L 833.138487 -41.96 
L 838.068697 -41.96 
L 842.998908 -41.96 
L 847.929118 -41.96 
L 852.859329 -41.96 
L 857.789539 -41.96 
L 862.71975 -41.96 
L 867.64996 -41.96 
L 872.580171 -41.96 
L 877.510381 -41.96 
L 882.440592 -41.96 
L 887.370803 -41.96 
L 892.301013 -41.96 
L 897.231224 -41.96 
L 902.161434 -41.96 
L 907.091645 -41.96 
L 912.021855 -41.96 
L 916.952066 -41.96 
L 921.882276 -41.96 
L 926.812487 -41.96 
L 931.742697 -41.96 
L 936.672908 -41.96 
L 941.603119 -41.96 
L 946.533329 -41.96 
L 951.46354 -41.96 
L 956.39375 -41.96 
L 961.323961 -41.96 
L 966.254171 -41.96 
L 971.184382 -41.96 
L 976.114592 -41.96 
L 981.044803 -41.96 
L 985.975014 -41.96 
L 990.905224 -41.96 
L 995.835435 -41.96 
L 1000.765645 -41.96 
L 1005.695856 -41.96 
L 1010.626066 -41.96 
L 1015.556277 -41.96 
L 1020.486487 -41.96 
L 1025.416698 -41.96 
L 1030.346908 -41.96 
L 1035.277119 -41.96 
L 1040.20733 -41.96 
L 1045.13754 -41.96 
L 1050.067751 -41.96 
L 1054.997961 -41.96 
L 1059.928172 -41.96 
L 1064.858382 -41.96 
L 1069.788593 -41.96 
L 1074.718803 -41.96 
L 1079.649014 -41.96 
L 1084.579224 -41.96 
L 1089.509435 -41.96 
L 1094.439646 -41.96 
L 1099.369856 -41.96 
L 1104.300067 -41.96 
L 1109.230277 -41.96 
L 1109.230277 -41.963184 
L 1109.230277 -41.963184 
L 1104.300067 -41.963878 
L 1099.369856 -41.964704 
L 1094.439646 -41.965681 
L 1089.509435 -41.966832 
L 1084.579224 -41.968181 
L 1079.649014 -41.969755 
L 1074.718803 -41.971582 
L 1069.788593 -41.973693 
L 1064.858382 -41.97612 
L 1059.928172 -41.978898 
L 1054.997961 -41.982062 
L 1050.067751 -41.985647 
L 1045.13754 -41.989691 
L 1040.20733 -41.994229 
L 1035.277119 -41.999298 
L 1030.346908 -42.004931 
L 1025.416698 -42.011161 
L 1020.486487 -42.018017 
L 1015.556277 -42.025525 
L 1010.626066 -42.033706 
L 1005.695856 -42.042575 
L 1000.765645 -42.052142 
L 995.835435 -42.062411 
L 990.905224 -42.073377 
L 985.975014 -42.085027 
L 981.044803 -42.097342 
L 976.114592 -42.110291 
L 971.184382 -42.123837 
L 966.254171 -42.137932 
L 961.323961 -42.152521 
L 956.39375 -42.167541 
L 951.46354 -42.182919 
L 946.533329 -42.198577 
L 941.603119 -42.21443 
L 936.672908 -42.230387 
L 931.742697 -42.246354 
L 926.812487 -42.262233 
L 921.882276 -42.277923 
L 916.952066 -42.293324 
L 912.021855 -42.308336 
L 907.091645 -42.322858 
L 902.161434 -42.336795 
L 897.231224 -42.350054 
L 892.301013 -42.362544 
L 887.370803 -42.374184 
L 882.440592 -42.384896 
L 877.510381 -42.394607 
L 872.580171 -42.403256 
L 867.64996 -42.410784 
L 862.71975 -42.417143 
L 857.789539 -42.422292 
L 852.859329 -42.426198 
L 847.929118 -42.428836 
L 842.998908 -42.43019 
L 838.068697 -42.430251 
L 833.138487 -42.42902 
L 828.208276 -42.426503 
L 823.278065 -42.422719 
L 818.347855 -42.417692 
L 813.417644 -42.411456 
L 808.487434 -42.404051 
L 803.557223 -42.395528 
L 798.627013 -42.385945 
L 793.696802 -42.375367 
L 788.766592 -42.363867 
L 783.836381 -42.351526 
L 778.90617 -42.338431 
L 773.97596 -42.324676 
L 769.045749 -42.310359 
L 764.115539 -42.295584 
L 759.185328 -42.28046 
L 754.255118 -42.265097 
L 749.324907 -42.24961 
L 744.394697 -42.234113 
L 739.464486 -42.218723 
L 734.534276 -42.203556 
L 729.604065 -42.188725 
L 724.673854 -42.174345 
L 719.743644 -42.160528 
L 714.813433 -42.147382 
L 709.883223 -42.135013 
L 704.953012 -42.123527 
L 700.022802 -42.113023 
L 695.092591 -42.103601 
L 690.162381 -42.095358 
L 685.23217 -42.088391 
L 680.30196 -42.082794 
L 675.371749 -42.078663 
L 670.441538 -42.076094 
L 665.511328 -42.075188 
L 660.581117 -42.076045 
L 655.650907 -42.078771 
L 650.720696 -42.083478 
L 645.790486 -42.090281 
L 640.860275 -42.099305 
L 635.930065 -42.110682 
L 630.999854 -42.124549 
L 626.069643 -42.141057 
L 621.139433 -42.160363 
L 616.209222 -42.182634 
L 611.279012 -42.208048 
L 606.348801 -42.236792 
L 601.418591 -42.269065 
L 596.48838 -42.305072 
L 591.55817 -42.34503 
L 586.627959 -42.389162 
L 581.697749 -42.437698 
L 576.767538 -42.490872 
L 571.837327 -42.548924 
L 566.907117 -42.612091 
L 561.976906 -42.680609 
L 557.046696 -42.754708 
L 552.116485 -42.834605 
L 547.186275 -42.920503 
L 542.256064 -43.012583 
L 537.325854 -43.111 
L 532.395643 -43.21587 
L 527.465433 -43.327273 
L 522.535222 -43.445234 
L 517.605011 -43.569721 
L 512.674801 -43.700638 
L 507.74459 -43.837811 
L 502.81438 -43.980985 
L 497.884169 -44.129816 
L 492.953959 -44.283861 
L 488.023748 -44.442577 
L 483.093538 -44.605315 
L 478.163327 -44.77132 
L 473.233116 -44.939726 
L 468.302906 -45.109566 
L 463.372695 -45.279769 
L 458.442485 -45.449171 
L 453.512274 -45.616528 
L 448.582064 -45.780522 
L 443.651853 -45.939781 
L 438.721643 -46.092894 
L 433.791432 -46.238434 
L 428.861222 -46.374974 
L 423.931011 -46.501116 
L 419.0008 -46.615509 
L 414.07059 -46.716876 
L 409.140379 -46.804037 
L 404.210169 -46.875931 
L 399.279958 -46.931638 
L 394.349748 -46.970397 
L 389.419537 -46.991624 
L 384.489327 -46.994921 
L 379.559116 -46.980094 
L 374.628906 -46.947151 
L 369.698695 -46.896307 
L 364.768484 -46.827985 
L 359.838274 -46.742805 
L 354.908063 -46.641575 
L 349.977853 -46.52528 
L 345.047642 -46.395063 
L 340.117432 -46.252203 
L 335.187221 -46.098097 
L 330.257011 -45.934232 
L 325.3268 -45.762161 
L 320.396589 -45.583478 
L 315.466379 -45.39979 
L 310.536168 -45.212694 
L 305.605958 -45.023751 
L 300.675747 -44.834464 
L 295.745537 -44.646262 
L 290.815326 -44.460474 
L 285.885116 -44.278325 
L 280.954905 -44.100914 
L 276.024695 -43.929212 
L 271.094484 -43.764056 
L 266.164273 -43.606143 
L 261.234063 -43.456032 
L 256.303852 -43.314149 
L 251.373642 -43.180787 
L 246.443431 -43.05612 
L 241.513221 -42.940206 
L 236.58301 -42.833 
L 231.6528 -42.734365 
L 226.722589 -42.644081 
L 221.792379 -42.561863 
L 216.862168 -42.487367 
L 211.931957 -42.420203 
L 207.001747 -42.35995 
L 202.071536 -42.30616 
L 197.141326 -42.258375 
L 192.211115 -42.216129 
L 187.280905 -42.178959 
L 182.350694 -42.146411 
L 177.420484 -42.118046 
L 172.490273 -42.093444 
L 167.560062 -42.072204 
L 162.629852 -42.053954 
L 157.699641 -42.038346 
L 152.769431 -42.025059 
L 147.83922 -42.013801 
L 142.90901 -42.004305 
L 137.978799 -41.996333 
L 133.048589 -41.989672 
L 128.118378 -41.98413 
z
" style="stroke: #357ba3"/>
    </defs>
    <g clip-path="url(#p57f3fbb3af)">
     <use xlink:href="#m0117e21754" x="0" y="360" style="fill: #357ba3; fill-opacity: 0.25; stroke: #357ba3"/>
    </g>
   </g>
   <g id="PolyCollection_4">
    <defs>
     <path id="m48f63bf114" d="M 204.63034 -41.966095 
L 204.63034 -41.96 
L 207.482156 -41.96 
L 210.333972 -41.96 
L 213.185789 -41.96 
L 216.037605 -41.96 
L 218.889422 -41.96 
L 221.741238 -41.96 
L 224.593054 -41.96 
L 227.444871 -41.96 
L 230.296687 -41.96 
L 233.148504 -41.96 
L 236.00032 -41.96 
L 238.852137 -41.96 
L 241.703953 -41.96 
L 244.555769 -41.96 
L 247.407586 -41.96 
L 250.259402 -41.96 
L 253.111219 -41.96 
L 255.963035 -41.96 
L 258.814851 -41.96 
L 261.666668 -41.96 
L 264.518484 -41.96 
L 267.370301 -41.96 
L 270.222117 -41.96 
L 273.073933 -41.96 
L 275.92575 -41.96 
L 278.777566 -41.96 
L 281.629383 -41.96 
L 284.481199 -41.96 
L 287.333016 -41.96 
L 290.184832 -41.96 
L 293.036648 -41.96 
L 295.888465 -41.96 
L 298.740281 -41.96 
L 301.592098 -41.96 
L 304.443914 -41.96 
L 307.29573 -41.96 
L 310.147547 -41.96 
L 312.999363 -41.96 
L 315.85118 -41.96 
L 318.702996 -41.96 
L 321.554813 -41.96 
L 324.406629 -41.96 
L 327.258445 -41.96 
L 330.110262 -41.96 
L 332.962078 -41.96 
L 335.813895 -41.96 
L 338.665711 -41.96 
L 341.517527 -41.96 
L 344.369344 -41.96 
L 347.22116 -41.96 
L 350.072977 -41.96 
L 352.924793 -41.96 
L 355.776609 -41.96 
L 358.628426 -41.96 
L 361.480242 -41.96 
L 364.332059 -41.96 
L 367.183875 -41.96 
L 370.035692 -41.96 
L 372.887508 -41.96 
L 375.739324 -41.96 
L 378.591141 -41.96 
L 381.442957 -41.96 
L 384.294774 -41.96 
L 387.14659 -41.96 
L 389.998406 -41.96 
L 392.850223 -41.96 
L 395.702039 -41.96 
L 398.553856 -41.96 
L 401.405672 -41.96 
L 404.257488 -41.96 
L 407.109305 -41.96 
L 409.961121 -41.96 
L 412.812938 -41.96 
L 415.664754 -41.96 
L 418.516571 -41.96 
L 421.368387 -41.96 
L 424.220203 -41.96 
L 427.07202 -41.96 
L 429.923836 -41.96 
L 432.775653 -41.96 
L 435.627469 -41.96 
L 438.479285 -41.96 
L 441.331102 -41.96 
L 444.182918 -41.96 
L 447.034735 -41.96 
L 449.886551 -41.96 
L 452.738368 -41.96 
L 455.590184 -41.96 
L 458.442 -41.96 
L 461.293817 -41.96 
L 464.145633 -41.96 
L 466.99745 -41.96 
L 469.849266 -41.96 
L 472.701082 -41.96 
L 475.552899 -41.96 
L 478.404715 -41.96 
L 481.256532 -41.96 
L 484.108348 -41.96 
L 486.960164 -41.96 
L 489.811981 -41.96 
L 492.663797 -41.96 
L 495.515614 -41.96 
L 498.36743 -41.96 
L 501.219247 -41.96 
L 504.071063 -41.96 
L 506.922879 -41.96 
L 509.774696 -41.96 
L 512.626512 -41.96 
L 515.478329 -41.96 
L 518.330145 -41.96 
L 521.181961 -41.96 
L 524.033778 -41.96 
L 526.885594 -41.96 
L 529.737411 -41.96 
L 532.589227 -41.96 
L 535.441044 -41.96 
L 538.29286 -41.96 
L 541.144676 -41.96 
L 543.996493 -41.96 
L 546.848309 -41.96 
L 549.700126 -41.96 
L 552.551942 -41.96 
L 555.403758 -41.96 
L 558.255575 -41.96 
L 561.107391 -41.96 
L 563.959208 -41.96 
L 566.811024 -41.96 
L 569.66284 -41.96 
L 572.514657 -41.96 
L 575.366473 -41.96 
L 578.21829 -41.96 
L 581.070106 -41.96 
L 583.921923 -41.96 
L 586.773739 -41.96 
L 589.625555 -41.96 
L 592.477372 -41.96 
L 595.329188 -41.96 
L 598.181005 -41.96 
L 601.032821 -41.96 
L 603.884637 -41.96 
L 606.736454 -41.96 
L 609.58827 -41.96 
L 612.440087 -41.96 
L 615.291903 -41.96 
L 618.143719 -41.96 
L 620.995536 -41.96 
L 623.847352 -41.96 
L 626.699169 -41.96 
L 629.550985 -41.96 
L 632.402802 -41.96 
L 635.254618 -41.96 
L 638.106434 -41.96 
L 640.958251 -41.96 
L 643.810067 -41.96 
L 646.661884 -41.96 
L 649.5137 -41.96 
L 652.365516 -41.96 
L 655.217333 -41.96 
L 658.069149 -41.96 
L 660.920966 -41.96 
L 663.772782 -41.96 
L 666.624599 -41.96 
L 669.476415 -41.96 
L 672.328231 -41.96 
L 675.180048 -41.96 
L 678.031864 -41.96 
L 680.883681 -41.96 
L 683.735497 -41.96 
L 686.587313 -41.96 
L 689.43913 -41.96 
L 692.290946 -41.96 
L 695.142763 -41.96 
L 697.994579 -41.96 
L 700.846395 -41.96 
L 703.698212 -41.96 
L 706.550028 -41.96 
L 709.401845 -41.96 
L 712.253661 -41.96 
L 715.105478 -41.96 
L 717.957294 -41.96 
L 720.80911 -41.96 
L 723.660927 -41.96 
L 726.512743 -41.96 
L 729.36456 -41.96 
L 732.216376 -41.96 
L 735.068192 -41.96 
L 737.920009 -41.96 
L 740.771825 -41.96 
L 743.623642 -41.96 
L 746.475458 -41.96 
L 749.327274 -41.96 
L 752.179091 -41.96 
L 755.030907 -41.96 
L 757.882724 -41.96 
L 760.73454 -41.96 
L 763.586357 -41.96 
L 766.438173 -41.96 
L 769.289989 -41.96 
L 772.141806 -41.96 
L 772.141806 -41.966001 
L 772.141806 -41.966001 
L 769.289989 -41.967169 
L 766.438173 -41.968538 
L 763.586357 -41.970134 
L 760.73454 -41.971989 
L 757.882724 -41.974137 
L 755.030907 -41.976615 
L 752.179091 -41.979464 
L 749.327274 -41.982727 
L 746.475458 -41.986451 
L 743.623642 -41.990684 
L 740.771825 -41.995478 
L 737.920009 -42.000886 
L 735.068192 -42.006966 
L 732.216376 -42.013774 
L 729.36456 -42.021368 
L 726.512743 -42.029807 
L 723.660927 -42.039147 
L 720.80911 -42.049445 
L 717.957294 -42.060753 
L 715.105478 -42.073123 
L 712.253661 -42.086598 
L 709.401845 -42.101219 
L 706.550028 -42.117017 
L 703.698212 -42.134015 
L 700.846395 -42.152229 
L 697.994579 -42.171662 
L 695.142763 -42.192305 
L 692.290946 -42.214137 
L 689.43913 -42.237122 
L 686.587313 -42.261211 
L 683.735497 -42.286339 
L 680.883681 -42.312425 
L 678.031864 -42.339372 
L 675.180048 -42.367069 
L 672.328231 -42.395389 
L 669.476415 -42.42419 
L 666.624599 -42.453317 
L 663.772782 -42.482604 
L 660.920966 -42.511875 
L 658.069149 -42.540943 
L 655.217333 -42.569617 
L 652.365516 -42.597703 
L 649.5137 -42.625005 
L 646.661884 -42.65133 
L 643.810067 -42.676491 
L 640.958251 -42.700306 
L 638.106434 -42.722609 
L 635.254618 -42.743246 
L 632.402802 -42.762082 
L 629.550985 -42.779001 
L 626.699169 -42.793913 
L 623.847352 -42.806752 
L 620.995536 -42.817481 
L 618.143719 -42.826091 
L 615.291903 -42.832605 
L 612.440087 -42.837079 
L 609.58827 -42.839598 
L 606.736454 -42.840283 
L 603.884637 -42.839282 
L 601.032821 -42.836777 
L 598.181005 -42.832977 
L 595.329188 -42.828117 
L 592.477372 -42.822458 
L 589.625555 -42.816281 
L 586.773739 -42.809884 
L 583.921923 -42.803582 
L 581.070106 -42.797699 
L 578.21829 -42.792566 
L 575.366473 -42.788518 
L 572.514657 -42.785888 
L 569.66284 -42.785003 
L 566.811024 -42.786182 
L 563.959208 -42.789733 
L 561.107391 -42.795944 
L 558.255575 -42.805085 
L 555.403758 -42.817406 
L 552.551942 -42.833128 
L 549.700126 -42.852446 
L 546.848309 -42.875526 
L 543.996493 -42.902503 
L 541.144676 -42.933481 
L 538.29286 -42.968529 
L 535.441044 -43.007687 
L 532.589227 -43.050959 
L 529.737411 -43.098317 
L 526.885594 -43.149704 
L 524.033778 -43.205029 
L 521.181961 -43.264174 
L 518.330145 -43.326991 
L 515.478329 -43.393309 
L 512.626512 -43.462928 
L 509.774696 -43.535627 
L 506.922879 -43.611165 
L 504.071063 -43.689278 
L 501.219247 -43.769686 
L 498.36743 -43.852094 
L 495.515614 -43.93619 
L 492.663797 -44.02165 
L 489.811981 -44.108137 
L 486.960164 -44.195305 
L 484.108348 -44.282798 
L 481.256532 -44.370253 
L 478.404715 -44.457298 
L 475.552899 -44.543558 
L 472.701082 -44.628653 
L 469.849266 -44.712198 
L 466.99745 -44.79381 
L 464.145633 -44.873102 
L 461.293817 -44.949693 
L 458.442 -45.023201 
L 455.590184 -45.093252 
L 452.738368 -45.15948 
L 449.886551 -45.221526 
L 447.034735 -45.279045 
L 444.182918 -45.331708 
L 441.331102 -45.379201 
L 438.479285 -45.421231 
L 435.627469 -45.457529 
L 432.775653 -45.48785 
L 429.923836 -45.511979 
L 427.07202 -45.52973 
L 424.220203 -45.540952 
L 421.368387 -45.545527 
L 418.516571 -45.543377 
L 415.664754 -45.534458 
L 412.812938 -45.51877 
L 409.961121 -45.496352 
L 407.109305 -45.467281 
L 404.257488 -45.431676 
L 401.405672 -45.389697 
L 398.553856 -45.34154 
L 395.702039 -45.287439 
L 392.850223 -45.227663 
L 389.998406 -45.162512 
L 387.14659 -45.092317 
L 384.294774 -45.017436 
L 381.442957 -44.938249 
L 378.591141 -44.855156 
L 375.739324 -44.768574 
L 372.887508 -44.678931 
L 370.035692 -44.586664 
L 367.183875 -44.492215 
L 364.332059 -44.396026 
L 361.480242 -44.298536 
L 358.628426 -44.200179 
L 355.776609 -44.101376 
L 352.924793 -44.002538 
L 350.072977 -43.904059 
L 347.22116 -43.806316 
L 344.369344 -43.709664 
L 341.517527 -43.614436 
L 338.665711 -43.520941 
L 335.813895 -43.429462 
L 332.962078 -43.340256 
L 330.110262 -43.253552 
L 327.258445 -43.169554 
L 324.406629 -43.088435 
L 321.554813 -43.010342 
L 318.702996 -42.935397 
L 315.85118 -42.863693 
L 312.999363 -42.795298 
L 310.147547 -42.730256 
L 307.29573 -42.66859 
L 304.443914 -42.610297 
L 301.592098 -42.555358 
L 298.740281 -42.503732 
L 295.888465 -42.455364 
L 293.036648 -42.410181 
L 290.184832 -42.368099 
L 287.333016 -42.329019 
L 284.481199 -42.292836 
L 281.629383 -42.259433 
L 278.777566 -42.228688 
L 275.92575 -42.200474 
L 273.073933 -42.174659 
L 270.222117 -42.15111 
L 267.370301 -42.129692 
L 264.518484 -42.11027 
L 261.666668 -42.092713 
L 258.814851 -42.076888 
L 255.963035 -42.062668 
L 253.111219 -42.04993 
L 250.259402 -42.038553 
L 247.407586 -42.028424 
L 244.555769 -42.019433 
L 241.703953 -42.011477 
L 238.852137 -42.00446 
L 236.00032 -41.998289 
L 233.148504 -41.992879 
L 230.296687 -41.988152 
L 227.444871 -41.984034 
L 224.593054 -41.980459 
L 221.741238 -41.977364 
L 218.889422 -41.974693 
L 216.037605 -41.972396 
L 213.185789 -41.970427 
L 210.333972 -41.968745 
L 207.482156 -41.967312 
L 204.63034 -41.966095 
z
" style="stroke: #3e356b"/>
    </defs>
    <g clip-path="url(#p57f3fbb3af)">
     <use xlink:href="#m48f63bf114" x="0" y="360" style="fill: #3e356b; fill-opacity: 0.25; stroke: #3e356b"/>
    </g>
   </g>
   <g id="PolyCollection_5">
    <defs>
     <path id="me8231ed8af" d="M 235.074132 -42.006567 
L 235.074132 -41.96 
L 238.236183 -41.96 
L 241.398233 -41.96 
L 244.560284 -41.96 
L 247.722335 -41.96 
L 250.884386 -41.96 
L 254.046437 -41.96 
L 257.208488 -41.96 
L 260.370539 -41.96 
L 263.532589 -41.96 
L 266.69464 -41.96 
L 269.856691 -41.96 
L 273.018742 -41.96 
L 276.180793 -41.96 
L 279.342844 -41.96 
L 282.504895 -41.96 
L 285.666946 -41.96 
L 288.828996 -41.96 
L 291.991047 -41.96 
L 295.153098 -41.96 
L 298.315149 -41.96 
L 301.4772 -41.96 
L 304.639251 -41.96 
L 307.801302 -41.96 
L 310.963352 -41.96 
L 314.125403 -41.96 
L 317.287454 -41.96 
L 320.449505 -41.96 
L 323.611556 -41.96 
L 326.773607 -41.96 
L 329.935658 -41.96 
L 333.097708 -41.96 
L 336.259759 -41.96 
L 339.42181 -41.96 
L 342.583861 -41.96 
L 345.745912 -41.96 
L 348.907963 -41.96 
L 352.070014 -41.96 
L 355.232065 -41.96 
L 358.394115 -41.96 
L 361.556166 -41.96 
L 364.718217 -41.96 
L 367.880268 -41.96 
L 371.042319 -41.96 
L 374.20437 -41.96 
L 377.366421 -41.96 
L 380.528471 -41.96 
L 383.690522 -41.96 
L 386.852573 -41.96 
L 390.014624 -41.96 
L 393.176675 -41.96 
L 396.338726 -41.96 
L 399.500777 -41.96 
L 402.662827 -41.96 
L 405.824878 -41.96 
L 408.986929 -41.96 
L 412.14898 -41.96 
L 415.311031 -41.96 
L 418.473082 -41.96 
L 421.635133 -41.96 
L 424.797184 -41.96 
L 427.959234 -41.96 
L 431.121285 -41.96 
L 434.283336 -41.96 
L 437.445387 -41.96 
L 440.607438 -41.96 
L 443.769489 -41.96 
L 446.93154 -41.96 
L 450.09359 -41.96 
L 453.255641 -41.96 
L 456.417692 -41.96 
L 459.579743 -41.96 
L 462.741794 -41.96 
L 465.903845 -41.96 
L 469.065896 -41.96 
L 472.227947 -41.96 
L 475.389997 -41.96 
L 478.552048 -41.96 
L 481.714099 -41.96 
L 484.87615 -41.96 
L 488.038201 -41.96 
L 491.200252 -41.96 
L 494.362303 -41.96 
L 497.524353 -41.96 
L 500.686404 -41.96 
L 503.848455 -41.96 
L 507.010506 -41.96 
L 510.172557 -41.96 
L 513.334608 -41.96 
L 516.496659 -41.96 
L 519.658709 -41.96 
L 522.82076 -41.96 
L 525.982811 -41.96 
L 529.144862 -41.96 
L 532.306913 -41.96 
L 535.468964 -41.96 
L 538.631015 -41.96 
L 541.793066 -41.96 
L 544.955116 -41.96 
L 548.117167 -41.96 
L 551.279218 -41.96 
L 554.441269 -41.96 
L 557.60332 -41.96 
L 560.765371 -41.96 
L 563.927422 -41.96 
L 567.089472 -41.96 
L 570.251523 -41.96 
L 573.413574 -41.96 
L 576.575625 -41.96 
L 579.737676 -41.96 
L 582.899727 -41.96 
L 586.061778 -41.96 
L 589.223828 -41.96 
L 592.385879 -41.96 
L 595.54793 -41.96 
L 598.709981 -41.96 
L 601.872032 -41.96 
L 605.034083 -41.96 
L 608.196134 -41.96 
L 611.358185 -41.96 
L 614.520235 -41.96 
L 617.682286 -41.96 
L 620.844337 -41.96 
L 624.006388 -41.96 
L 627.168439 -41.96 
L 630.33049 -41.96 
L 633.492541 -41.96 
L 636.654591 -41.96 
L 639.816642 -41.96 
L 642.978693 -41.96 
L 646.140744 -41.96 
L 649.302795 -41.96 
L 652.464846 -41.96 
L 655.626897 -41.96 
L 658.788947 -41.96 
L 661.950998 -41.96 
L 665.113049 -41.96 
L 668.2751 -41.96 
L 671.437151 -41.96 
L 674.599202 -41.96 
L 677.761253 -41.96 
L 680.923304 -41.96 
L 684.085354 -41.96 
L 687.247405 -41.96 
L 690.409456 -41.96 
L 693.571507 -41.96 
L 696.733558 -41.96 
L 699.895609 -41.96 
L 703.05766 -41.96 
L 706.21971 -41.96 
L 709.381761 -41.96 
L 712.543812 -41.96 
L 715.705863 -41.96 
L 718.867914 -41.96 
L 722.029965 -41.96 
L 725.192016 -41.96 
L 728.354066 -41.96 
L 731.516117 -41.96 
L 734.678168 -41.96 
L 737.840219 -41.96 
L 741.00227 -41.96 
L 744.164321 -41.96 
L 747.326372 -41.96 
L 750.488423 -41.96 
L 753.650473 -41.96 
L 756.812524 -41.96 
L 759.974575 -41.96 
L 763.136626 -41.96 
L 766.298677 -41.96 
L 769.460728 -41.96 
L 772.622779 -41.96 
L 775.784829 -41.96 
L 778.94688 -41.96 
L 782.108931 -41.96 
L 785.270982 -41.96 
L 788.433033 -41.96 
L 791.595084 -41.96 
L 794.757135 -41.96 
L 797.919186 -41.96 
L 801.081236 -41.96 
L 804.243287 -41.96 
L 807.405338 -41.96 
L 810.567389 -41.96 
L 813.72944 -41.96 
L 816.891491 -41.96 
L 820.053542 -41.96 
L 823.215592 -41.96 
L 826.377643 -41.96 
L 829.539694 -41.96 
L 832.701745 -41.96 
L 835.863796 -41.96 
L 839.025847 -41.96 
L 842.187898 -41.96 
L 845.349948 -41.96 
L 848.511999 -41.96 
L 851.67405 -41.96 
L 854.836101 -41.96 
L 857.998152 -41.96 
L 861.160203 -41.96 
L 864.322254 -41.96 
L 864.322254 -41.966226 
L 864.322254 -41.966226 
L 861.160203 -41.967983 
L 857.998152 -41.970163 
L 854.836101 -41.972848 
L 851.67405 -41.976127 
L 848.511999 -41.980102 
L 845.349948 -41.984879 
L 842.187898 -41.990575 
L 839.025847 -41.997312 
L 835.863796 -42.005212 
L 832.701745 -42.014399 
L 829.539694 -42.024993 
L 826.377643 -42.037104 
L 823.215592 -42.050829 
L 820.053542 -42.066243 
L 816.891491 -42.0834 
L 813.72944 -42.102319 
L 810.567389 -42.122983 
L 807.405338 -42.145336 
L 804.243287 -42.169271 
L 801.081236 -42.194636 
L 797.919186 -42.221224 
L 794.757135 -42.24878 
L 791.595084 -42.276997 
L 788.433033 -42.305523 
L 785.270982 -42.333968 
L 782.108931 -42.361907 
L 778.94688 -42.388895 
L 775.784829 -42.414476 
L 772.622779 -42.438196 
L 769.460728 -42.459616 
L 766.298677 -42.478323 
L 763.136626 -42.49395 
L 759.974575 -42.506181 
L 756.812524 -42.514765 
L 753.650473 -42.519524 
L 750.488423 -42.520359 
L 747.326372 -42.517256 
L 744.164321 -42.510283 
L 741.00227 -42.499589 
L 737.840219 -42.485404 
L 734.678168 -42.468023 
L 731.516117 -42.447802 
L 728.354066 -42.425149 
L 725.192016 -42.400505 
L 722.029965 -42.374336 
L 718.867914 -42.347122 
L 715.705863 -42.31934 
L 712.543812 -42.291454 
L 709.381761 -42.26391 
L 706.21971 -42.237124 
L 703.05766 -42.211478 
L 699.895609 -42.187314 
L 696.733558 -42.164938 
L 693.571507 -42.144615 
L 690.409456 -42.126571 
L 687.247405 -42.111 
L 684.085354 -42.098065 
L 680.923304 -42.087903 
L 677.761253 -42.08063 
L 674.599202 -42.076346 
L 671.437151 -42.075136 
L 668.2751 -42.077076 
L 665.113049 -42.082233 
L 661.950998 -42.090665 
L 658.788947 -42.102422 
L 655.626897 -42.11754 
L 652.464846 -42.136041 
L 649.302795 -42.157927 
L 646.140744 -42.183172 
L 642.978693 -42.211721 
L 639.816642 -42.24348 
L 636.654591 -42.278311 
L 633.492541 -42.316029 
L 630.33049 -42.356395 
L 627.168439 -42.399115 
L 624.006388 -42.443839 
L 620.844337 -42.490163 
L 617.682286 -42.53763 
L 614.520235 -42.58574 
L 611.358185 -42.633953 
L 608.196134 -42.681705 
L 605.034083 -42.728417 
L 601.872032 -42.773512 
L 598.709981 -42.81643 
L 595.54793 -42.856647 
L 592.385879 -42.893693 
L 589.223828 -42.927173 
L 586.061778 -42.956784 
L 582.899727 -42.982333 
L 579.737676 -43.003757 
L 576.575625 -43.021136 
L 573.413574 -43.034709 
L 570.251523 -43.044882 
L 567.089472 -43.052237 
L 563.927422 -43.057537 
L 560.765371 -43.061727 
L 557.60332 -43.065924 
L 554.441269 -43.071417 
L 551.279218 -43.079647 
L 548.117167 -43.092192 
L 544.955116 -43.110743 
L 541.793066 -43.137078 
L 538.631015 -43.173026 
L 535.468964 -43.220432 
L 532.306913 -43.281121 
L 529.144862 -43.35685 
L 525.982811 -43.449263 
L 522.82076 -43.559853 
L 519.658709 -43.689908 
L 516.496659 -43.840474 
L 513.334608 -44.012315 
L 510.172557 -44.205876 
L 507.010506 -44.42126 
L 503.848455 -44.658206 
L 500.686404 -44.91608 
L 497.524353 -45.193875 
L 494.362303 -45.490228 
L 491.200252 -45.803438 
L 488.038201 -46.131507 
L 484.87615 -46.472186 
L 481.714099 -46.823031 
L 478.552048 -47.181468 
L 475.389997 -47.544867 
L 472.227947 -47.910617 
L 469.065896 -48.276198 
L 465.903845 -48.639259 
L 462.741794 -48.997685 
L 459.579743 -49.349653 
L 456.417692 -49.693681 
L 453.255641 -50.028661 
L 450.09359 -50.353874 
L 446.93154 -50.668984 
L 443.769489 -50.974021 
L 440.607438 -51.269338 
L 437.445387 -51.555549 
L 434.283336 -51.83346 
L 431.121285 -52.103974 
L 427.959234 -52.367995 
L 424.797184 -52.626321 
L 421.635133 -52.879543 
L 418.473082 -53.127936 
L 415.311031 -53.371376 
L 412.14898 -53.609254 
L 408.986929 -53.840423 
L 405.824878 -54.063163 
L 402.662827 -54.275174 
L 399.500777 -54.473596 
L 396.338726 -54.655062 
L 393.176675 -54.815778 
L 390.014624 -54.951633 
L 386.852573 -55.058327 
L 383.690522 -55.131521 
L 380.528471 -55.167004 
L 377.366421 -55.160855 
L 374.20437 -55.10961 
L 371.042319 -55.01042 
L 367.880268 -54.861188 
L 364.718217 -54.660683 
L 361.556166 -54.408627 
L 358.394115 -54.105748 
L 355.232065 -53.753791 
L 352.070014 -53.355501 
L 348.907963 -52.914561 
L 345.745912 -52.435502 
L 342.583861 -51.923579 
L 339.42181 -51.384628 
L 336.259759 -50.824903 
L 333.097708 -50.250901 
L 329.935658 -49.669188 
L 326.773607 -49.086225 
L 323.611556 -48.508214 
L 320.449505 -47.940947 
L 317.287454 -47.389689 
L 314.125403 -46.859079 
L 310.963352 -46.353063 
L 307.801302 -45.874845 
L 304.639251 -45.426878 
L 301.4772 -45.01087 
L 298.315149 -44.627814 
L 295.153098 -44.278039 
L 291.991047 -43.961279 
L 288.828996 -43.676742 
L 285.666946 -43.423197 
L 282.504895 -43.199058 
L 279.342844 -43.002468 
L 276.180793 -42.831381 
L 273.018742 -42.683637 
L 269.856691 -42.557025 
L 266.69464 -42.449348 
L 263.532589 -42.358466 
L 260.370539 -42.282333 
L 257.208488 -42.219032 
L 254.046437 -42.166792 
L 250.884386 -42.123998 
L 247.722335 -42.0892 
L 244.560284 -42.061113 
L 241.398233 -42.038606 
L 238.236183 -42.020704 
L 235.074132 -42.006567 
z
" style="stroke: #0b0405"/>
    </defs>
    <g clip-path="url(#p57f3fbb3af)">
     <use xlink:href="#me8231ed8af" x="0" y="360" style="fill: #0b0405; fill-opacity: 0.25; stroke: #0b0405"/>
    </g>
   </g>
   <g id="matplotlib.axis_1">
    <g id="xtick_1">
     <g id="line2d_1">
      <defs>
       <path id="m5377d0faf6" d="M 0 0 
L 0 3.5 
" style="stroke: #000000; stroke-width: 0.8"/>
      </defs>
      <g>
       <use xlink:href="#m5377d0faf6" x="175.694261" y="318.04" style="stroke: #000000; stroke-width: 0.8"/>
      </g>
     </g>
     <g id="text_1">
      <!-- −250 -->
      <g transform="translate(161.960667 332.638438) scale(0.1 -0.1)">
       <defs>
        <path id="DejaVuSans-2212" d="M 678 2272 
L 4684 2272 
L 4684 1741 
L 678 1741 
L 678 2272 
z
" transform="scale(0.015625)"/>
        <path id="DejaVuSans-32" d="M 1228 531 
L 3431 531 
L 3431 0 
L 469 0 
L 469 531 
Q 828 903 1448 1529 
Q 2069 2156 2228 2338 
Q 2531 2678 2651 2914 
Q 2772 3150 2772 3378 
Q 2772 3750 2511 3984 
Q 2250 4219 1831 4219 
Q 1534 4219 1204 4116 
Q 875 4013 500 3803 
L 500 4441 
Q 881 4594 1212 4672 
Q 1544 4750 1819 4750 
Q 2544 4750 2975 4387 
Q 3406 4025 3406 3419 
Q 3406 3131 3298 2873 
Q 3191 2616 2906 2266 
Q 2828 2175 2409 1742 
Q 1991 1309 1228 531 
z
" transform="scale(0.015625)"/>
        <path id="DejaVuSans-35" d="M 691 4666 
L 3169 4666 
L 3169 4134 
L 1269 4134 
L 1269 2991 
Q 1406 3038 1543 3061 
Q 1681 3084 1819 3084 
Q 2600 3084 3056 2656 
Q 3513 2228 3513 1497 
Q 3513 744 3044 326 
Q 2575 -91 1722 -91 
Q 1428 -91 1123 -41 
Q 819 9 494 109 
L 494 744 
Q 775 591 1075 516 
Q 1375 441 1709 441 
Q 2250 441 2565 725 
Q 2881 1009 2881 1497 
Q 2881 1984 2565 2268 
Q 2250 2553 1709 2553 
Q 1456 2553 1204 2497 
Q 953 2441 691 2322 
L 691 4666 
z
" transform="scale(0.015625)"/>
        <path id="DejaVuSans-30" d="M 2034 4250 
Q 1547 4250 1301 3770 
Q 1056 3291 1056 2328 
Q 1056 1369 1301 889 
Q 1547 409 2034 409 
Q 2525 409 2770 889 
Q 3016 1369 3016 2328 
Q 3016 3291 2770 3770 
Q 2525 4250 2034 4250 
z
M 2034 4750 
Q 2819 4750 3233 4129 
Q 3647 3509 3647 2328 
Q 3647 1150 3233 529 
Q 2819 -91 2034 -91 
Q 1250 -91 836 529 
Q 422 1150 422 2328 
Q 422 3509 836 4129 
Q 1250 4750 2034 4750 
z
" transform="scale(0.015625)"/>
       </defs>
       <use xlink:href="#DejaVuSans-2212"/>
       <use xlink:href="#DejaVuSans-32" x="83.789062"/>
       <use xlink:href="#DejaVuSans-35" x="147.412109"/>
       <use xlink:href="#DejaVuSans-30" x="211.035156"/>
      </g>
     </g>
    </g>
    <g id="xtick_2">
     <g id="line2d_2">
      <g>
       <use xlink:href="#m5377d0faf6" x="328.974561" y="318.04" style="stroke: #000000; stroke-width: 0.8"/>
      </g>
     </g>
     <g id="text_2">
      <!-- 0 -->
      <g transform="translate(325.793311 332.638438) scale(0.1 -0.1)">
       <use xlink:href="#DejaVuSans-30"/>
      </g>
     </g>
    </g>
    <g id="xtick_3">
     <g id="line2d_3">
      <g>
       <use xlink:href="#m5377d0faf6" x="482.254861" y="318.04" style="stroke: #000000; stroke-width: 0.8"/>
      </g>
     </g>
     <g id="text_3">
      <!-- 250 -->
      <g transform="translate(472.711111 332.638438) scale(0.1 -0.1)">
       <use xlink:href="#DejaVuSans-32"/>
       <use xlink:href="#DejaVuSans-35" x="63.623047"/>
       <use xlink:href="#DejaVuSans-30" x="127.246094"/>
      </g>
     </g>
    </g>
    <g id="xtick_4">
     <g id="line2d_4">
      <g>
       <use xlink:href="#m5377d0faf6" x="635.535161" y="318.04" style="stroke: #000000; stroke-width: 0.8"/>
      </g>
     </g>
     <g id="text_4">
      <!-- 500 -->
      <g transform="translate(625.991411 332.638438) scale(0.1 -0.1)">
       <use xlink:href="#DejaVuSans-35"/>
       <use xlink:href="#DejaVuSans-30" x="63.623047"/>
       <use xlink:href="#DejaVuSans-30" x="127.246094"/>
      </g>
     </g>
    </g>
    <g id="xtick_5">
     <g id="line2d_5">
      <g>
       <use xlink:href="#m5377d0faf6" x="788.815461" y="318.04" style="stroke: #000000; stroke-width: 0.8"/>
      </g>
     </g>
     <g id="text_5">
      <!-- 750 -->
      <g transform="translate(779.271711 332.638438) scale(0.1 -0.1)">
       <defs>
        <path id="DejaVuSans-37" d="M 525 4666 
L 3525 4666 
L 3525 4397 
L 1831 0 
L 1172 0 
L 2766 4134 
L 525 4134 
L 525 4666 
z
" transform="scale(0.015625)"/>
       </defs>
       <use xlink:href="#DejaVuSans-37"/>
       <use xlink:href="#DejaVuSans-35" x="63.623047"/>
       <use xlink:href="#DejaVuSans-30" x="127.246094"/>
      </g>
     </g>
    </g>
    <g id="xtick_6">
     <g id="line2d_6">
      <g>
       <use xlink:href="#m5377d0faf6" x="942.095761" y="318.04" style="stroke: #000000; stroke-width: 0.8"/>
      </g>
     </g>
     <g id="text_6">
      <!-- 1000 -->
      <g transform="translate(929.370761 332.638438) scale(0.1 -0.1)">
       <defs>
        <path id="DejaVuSans-31" d="M 794 531 
L 1825 531 
L 1825 4091 
L 703 3866 
L 703 4441 
L 1819 4666 
L 2450 4666 
L 2450 531 
L 3481 531 
L 3481 0 
L 794 0 
L 794 531 
z
" transform="scale(0.015625)"/>
       </defs>
       <use xlink:href="#DejaVuSans-31"/>
       <use xlink:href="#DejaVuSans-30" x="63.623047"/>
       <use xlink:href="#DejaVuSans-30" x="127.246094"/>
       <use xlink:href="#DejaVuSans-30" x="190.869141"/>
      </g>
     </g>
    </g>
    <g id="xtick_7">
     <g id="line2d_7">
      <g>
       <use xlink:href="#m5377d0faf6" x="1095.376061" y="318.04" style="stroke: #000000; stroke-width: 0.8"/>
      </g>
     </g>
     <g id="text_7">
      <!-- 1250 -->
      <g transform="translate(1082.651061 332.638438) scale(0.1 -0.1)">
       <use xlink:href="#DejaVuSans-31"/>
       <use xlink:href="#DejaVuSans-32" x="63.623047"/>
       <use xlink:href="#DejaVuSans-35" x="127.246094"/>
       <use xlink:href="#DejaVuSans-30" x="190.869141"/>
      </g>
     </g>
    </g>
    <g id="xtick_8">
     <g id="line2d_8">
      <g>
       <use xlink:href="#m5377d0faf6" x="1248.656361" y="318.04" style="stroke: #000000; stroke-width: 0.8"/>
      </g>
     </g>
     <g id="text_8">
      <!-- 1500 -->
      <g transform="translate(1235.931361 332.638438) scale(0.1 -0.1)">
       <use xlink:href="#DejaVuSans-31"/>
       <use xlink:href="#DejaVuSans-35" x="63.623047"/>
       <use xlink:href="#DejaVuSans-30" x="127.246094"/>
       <use xlink:href="#DejaVuSans-30" x="190.869141"/>
      </g>
     </g>
    </g>
    <g id="xtick_9">
     <g id="line2d_9">
      <g>
       <use xlink:href="#m5377d0faf6" x="1401.936661" y="318.04" style="stroke: #000000; stroke-width: 0.8"/>
      </g>
     </g>
     <g id="text_9">
      <!-- 1750 -->
      <g transform="translate(1389.211661 332.638438) scale(0.1 -0.1)">
       <use xlink:href="#DejaVuSans-31"/>
       <use xlink:href="#DejaVuSans-37" x="63.623047"/>
       <use xlink:href="#DejaVuSans-35" x="127.246094"/>
       <use xlink:href="#DejaVuSans-30" x="190.869141"/>
      </g>
     </g>
    </g>
    <g id="text_10">
     <!-- Length -->
     <g transform="translate(722.255284 346.316563) scale(0.1 -0.1)">
      <defs>
       <path id="DejaVuSans-4c" d="M 628 4666 
L 1259 4666 
L 1259 531 
L 3531 531 
L 3531 0 
L 628 0 
L 628 4666 
z
" transform="scale(0.015625)"/>
       <path id="DejaVuSans-65" d="M 3597 1894 
L 3597 1613 
L 953 1613 
Q 991 1019 1311 708 
Q 1631 397 2203 397 
Q 2534 397 2845 478 
Q 3156 559 3463 722 
L 3463 178 
Q 3153 47 2828 -22 
Q 2503 -91 2169 -91 
Q 1331 -91 842 396 
Q 353 884 353 1716 
Q 353 2575 817 3079 
Q 1281 3584 2069 3584 
Q 2775 3584 3186 3129 
Q 3597 2675 3597 1894 
z
M 3022 2063 
Q 3016 2534 2758 2815 
Q 2500 3097 2075 3097 
Q 1594 3097 1305 2825 
Q 1016 2553 972 2059 
L 3022 2063 
z
" transform="scale(0.015625)"/>
       <path id="DejaVuSans-6e" d="M 3513 2113 
L 3513 0 
L 2938 0 
L 2938 2094 
Q 2938 2591 2744 2837 
Q 2550 3084 2163 3084 
Q 1697 3084 1428 2787 
Q 1159 2491 1159 1978 
L 1159 0 
L 581 0 
L 581 3500 
L 1159 3500 
L 1159 2956 
Q 1366 3272 1645 3428 
Q 1925 3584 2291 3584 
Q 2894 3584 3203 3211 
Q 3513 2838 3513 2113 
z
" transform="scale(0.015625)"/>
       <path id="DejaVuSans-67" d="M 2906 1791 
Q 2906 2416 2648 2759 
Q 2391 3103 1925 3103 
Q 1463 3103 1205 2759 
Q 947 2416 947 1791 
Q 947 1169 1205 825 
Q 1463 481 1925 481 
Q 2391 481 2648 825 
Q 2906 1169 2906 1791 
z
M 3481 434 
Q 3481 -459 3084 -895 
Q 2688 -1331 1869 -1331 
Q 1566 -1331 1297 -1286 
Q 1028 -1241 775 -1147 
L 775 -588 
Q 1028 -725 1275 -790 
Q 1522 -856 1778 -856 
Q 2344 -856 2625 -561 
Q 2906 -266 2906 331 
L 2906 616 
Q 2728 306 2450 153 
Q 2172 0 1784 0 
Q 1141 0 747 490 
Q 353 981 353 1791 
Q 353 2603 747 3093 
Q 1141 3584 1784 3584 
Q 2172 3584 2450 3431 
Q 2728 3278 2906 2969 
L 2906 3500 
L 3481 3500 
L 3481 434 
z
" transform="scale(0.015625)"/>
       <path id="DejaVuSans-74" d="M 1172 4494 
L 1172 3500 
L 2356 3500 
L 2356 3053 
L 1172 3053 
L 1172 1153 
Q 1172 725 1289 603 
Q 1406 481 1766 481 
L 2356 481 
L 2356 0 
L 1766 0 
Q 1100 0 847 248 
Q 594 497 594 1153 
L 594 3053 
L 172 3053 
L 172 3500 
L 594 3500 
L 594 4494 
L 1172 4494 
z
" transform="scale(0.015625)"/>
       <path id="DejaVuSans-68" d="M 3513 2113 
L 3513 0 
L 2938 0 
L 2938 2094 
Q 2938 2591 2744 2837 
Q 2550 3084 2163 3084 
Q 1697 3084 1428 2787 
Q 1159 2491 1159 1978 
L 1159 0 
L 581 0 
L 581 4863 
L 1159 4863 
L 1159 2956 
Q 1366 3272 1645 3428 
Q 1925 3584 2291 3584 
Q 2894 3584 3203 3211 
Q 3513 2838 3513 2113 
z
" transform="scale(0.015625)"/>
      </defs>
      <use xlink:href="#DejaVuSans-4c"/>
      <use xlink:href="#DejaVuSans-65" x="53.962891"/>
      <use xlink:href="#DejaVuSans-6e" x="115.486328"/>
      <use xlink:href="#DejaVuSans-67" x="178.865234"/>
      <use xlink:href="#DejaVuSans-74" x="242.341797"/>
      <use xlink:href="#DejaVuSans-68" x="281.550781"/>
     </g>
    </g>
   </g>
   <g id="matplotlib.axis_2">
    <g id="ytick_1">
     <g id="line2d_10">
      <defs>
       <path id="m7d0df054a3" d="M 0 0 
L -3.5 0 
" style="stroke: #000000; stroke-width: 0.8"/>
      </defs>
      <g>
       <use xlink:href="#m7d0df054a3" x="66.98" y="318.04" style="stroke: #000000; stroke-width: 0.8"/>
      </g>
     </g>
     <g id="text_11">
      <!-- 0.0000 -->
      <g transform="translate(24.989375 321.839219) scale(0.1 -0.1)">
       <defs>
        <path id="DejaVuSans-2e" d="M 684 794 
L 1344 794 
L 1344 0 
L 684 0 
L 684 794 
z
" transform="scale(0.015625)"/>
       </defs>
       <use xlink:href="#DejaVuSans-30"/>
       <use xlink:href="#DejaVuSans-2e" x="63.623047"/>
       <use xlink:href="#DejaVuSans-30" x="95.410156"/>
       <use xlink:href="#DejaVuSans-30" x="159.033203"/>
       <use xlink:href="#DejaVuSans-30" x="222.65625"/>
       <use xlink:href="#DejaVuSans-30" x="286.279297"/>
      </g>
     </g>
    </g>
    <g id="ytick_2">
     <g id="line2d_11">
      <g>
       <use xlink:href="#m7d0df054a3" x="66.98" y="283.458634" style="stroke: #000000; stroke-width: 0.8"/>
      </g>
     </g>
     <g id="text_12">
      <!-- 0.0005 -->
      <g transform="translate(24.989375 287.257853) scale(0.1 -0.1)">
       <use xlink:href="#DejaVuSans-30"/>
       <use xlink:href="#DejaVuSans-2e" x="63.623047"/>
       <use xlink:href="#DejaVuSans-30" x="95.410156"/>
       <use xlink:href="#DejaVuSans-30" x="159.033203"/>
       <use xlink:href="#DejaVuSans-30" x="222.65625"/>
       <use xlink:href="#DejaVuSans-35" x="286.279297"/>
      </g>
     </g>
    </g>
    <g id="ytick_3">
     <g id="line2d_12">
      <g>
       <use xlink:href="#m7d0df054a3" x="66.98" y="248.877268" style="stroke: #000000; stroke-width: 0.8"/>
      </g>
     </g>
     <g id="text_13">
      <!-- 0.0010 -->
      <g transform="translate(24.989375 252.676487) scale(0.1 -0.1)">
       <use xlink:href="#DejaVuSans-30"/>
       <use xlink:href="#DejaVuSans-2e" x="63.623047"/>
       <use xlink:href="#DejaVuSans-30" x="95.410156"/>
       <use xlink:href="#DejaVuSans-30" x="159.033203"/>
       <use xlink:href="#DejaVuSans-31" x="222.65625"/>
       <use xlink:href="#DejaVuSans-30" x="286.279297"/>
      </g>
     </g>
    </g>
    <g id="ytick_4">
     <g id="line2d_13">
      <g>
       <use xlink:href="#m7d0df054a3" x="66.98" y="214.295903" style="stroke: #000000; stroke-width: 0.8"/>
      </g>
     </g>
     <g id="text_14">
      <!-- 0.0015 -->
      <g transform="translate(24.989375 218.095121) scale(0.1 -0.1)">
       <use xlink:href="#DejaVuSans-30"/>
       <use xlink:href="#DejaVuSans-2e" x="63.623047"/>
       <use xlink:href="#DejaVuSans-30" x="95.410156"/>
       <use xlink:href="#DejaVuSans-30" x="159.033203"/>
       <use xlink:href="#DejaVuSans-31" x="222.65625"/>
       <use xlink:href="#DejaVuSans-35" x="286.279297"/>
      </g>
     </g>
    </g>
    <g id="ytick_5">
     <g id="line2d_14">
      <g>
       <use xlink:href="#m7d0df054a3" x="66.98" y="179.714537" style="stroke: #000000; stroke-width: 0.8"/>
      </g>
     </g>
     <g id="text_15">
      <!-- 0.0020 -->
      <g transform="translate(24.989375 183.513756) scale(0.1 -0.1)">
       <use xlink:href="#DejaVuSans-30"/>
       <use xlink:href="#DejaVuSans-2e" x="63.623047"/>
       <use xlink:href="#DejaVuSans-30" x="95.410156"/>
       <use xlink:href="#DejaVuSans-30" x="159.033203"/>
       <use xlink:href="#DejaVuSans-32" x="222.65625"/>
       <use xlink:href="#DejaVuSans-30" x="286.279297"/>
      </g>
     </g>
    </g>
    <g id="ytick_6">
     <g id="line2d_15">
      <g>
       <use xlink:href="#m7d0df054a3" x="66.98" y="145.133171" style="stroke: #000000; stroke-width: 0.8"/>
      </g>
     </g>
     <g id="text_16">
      <!-- 0.0025 -->
      <g transform="translate(24.989375 148.93239) scale(0.1 -0.1)">
       <use xlink:href="#DejaVuSans-30"/>
       <use xlink:href="#DejaVuSans-2e" x="63.623047"/>
       <use xlink:href="#DejaVuSans-30" x="95.410156"/>
       <use xlink:href="#DejaVuSans-30" x="159.033203"/>
       <use xlink:href="#DejaVuSans-32" x="222.65625"/>
       <use xlink:href="#DejaVuSans-35" x="286.279297"/>
      </g>
     </g>
    </g>
    <g id="ytick_7">
     <g id="line2d_16">
      <g>
       <use xlink:href="#m7d0df054a3" x="66.98" y="110.551805" style="stroke: #000000; stroke-width: 0.8"/>
      </g>
     </g>
     <g id="text_17">
      <!-- 0.0030 -->
      <g transform="translate(24.989375 114.351024) scale(0.1 -0.1)">
       <defs>
        <path id="DejaVuSans-33" d="M 2597 2516 
Q 3050 2419 3304 2112 
Q 3559 1806 3559 1356 
Q 3559 666 3084 287 
Q 2609 -91 1734 -91 
Q 1441 -91 1130 -33 
Q 819 25 488 141 
L 488 750 
Q 750 597 1062 519 
Q 1375 441 1716 441 
Q 2309 441 2620 675 
Q 2931 909 2931 1356 
Q 2931 1769 2642 2001 
Q 2353 2234 1838 2234 
L 1294 2234 
L 1294 2753 
L 1863 2753 
Q 2328 2753 2575 2939 
Q 2822 3125 2822 3475 
Q 2822 3834 2567 4026 
Q 2313 4219 1838 4219 
Q 1578 4219 1281 4162 
Q 984 4106 628 3988 
L 628 4550 
Q 988 4650 1302 4700 
Q 1616 4750 1894 4750 
Q 2613 4750 3031 4423 
Q 3450 4097 3450 3541 
Q 3450 3153 3228 2886 
Q 3006 2619 2597 2516 
z
" transform="scale(0.015625)"/>
       </defs>
       <use xlink:href="#DejaVuSans-30"/>
       <use xlink:href="#DejaVuSans-2e" x="63.623047"/>
       <use xlink:href="#DejaVuSans-30" x="95.410156"/>
       <use xlink:href="#DejaVuSans-30" x="159.033203"/>
       <use xlink:href="#DejaVuSans-33" x="222.65625"/>
       <use xlink:href="#DejaVuSans-30" x="286.279297"/>
      </g>
     </g>
    </g>
    <g id="ytick_8">
     <g id="line2d_17">
      <g>
       <use xlink:href="#m7d0df054a3" x="66.98" y="75.970439" style="stroke: #000000; stroke-width: 0.8"/>
      </g>
     </g>
     <g id="text_18">
      <!-- 0.0035 -->
      <g transform="translate(24.989375 79.769658) scale(0.1 -0.1)">
       <use xlink:href="#DejaVuSans-30"/>
       <use xlink:href="#DejaVuSans-2e" x="63.623047"/>
       <use xlink:href="#DejaVuSans-30" x="95.410156"/>
       <use xlink:href="#DejaVuSans-30" x="159.033203"/>
       <use xlink:href="#DejaVuSans-33" x="222.65625"/>
       <use xlink:href="#DejaVuSans-35" x="286.279297"/>
      </g>
     </g>
    </g>
    <g id="ytick_9">
     <g id="line2d_18">
      <g>
       <use xlink:href="#m7d0df054a3" x="66.98" y="41.389074" style="stroke: #000000; stroke-width: 0.8"/>
      </g>
     </g>
     <g id="text_19">
      <!-- 0.0040 -->
      <g transform="translate(24.989375 45.188292) scale(0.1 -0.1)">
       <defs>
        <path id="DejaVuSans-34" d="M 2419 4116 
L 825 1625 
L 2419 1625 
L 2419 4116 
z
M 2253 4666 
L 3047 4666 
L 3047 1625 
L 3713 1625 
L 3713 1100 
L 3047 1100 
L 3047 0 
L 2419 0 
L 2419 1100 
L 313 1100 
L 313 1709 
L 2253 4666 
z
" transform="scale(0.015625)"/>
       </defs>
       <use xlink:href="#DejaVuSans-30"/>
       <use xlink:href="#DejaVuSans-2e" x="63.623047"/>
       <use xlink:href="#DejaVuSans-30" x="95.410156"/>
       <use xlink:href="#DejaVuSans-30" x="159.033203"/>
       <use xlink:href="#DejaVuSans-34" x="222.65625"/>
       <use xlink:href="#DejaVuSans-30" x="286.279297"/>
      </g>
     </g>
    </g>
    <g id="text_20">
     <!-- Density -->
     <g transform="translate(18.909688 183.428594) rotate(-90) scale(0.1 -0.1)">
      <defs>
       <path id="DejaVuSans-44" d="M 1259 4147 
L 1259 519 
L 2022 519 
Q 2988 519 3436 956 
Q 3884 1394 3884 2338 
Q 3884 3275 3436 3711 
Q 2988 4147 2022 4147 
L 1259 4147 
z
M 628 4666 
L 1925 4666 
Q 3281 4666 3915 4102 
Q 4550 3538 4550 2338 
Q 4550 1131 3912 565 
Q 3275 0 1925 0 
L 628 0 
L 628 4666 
z
" transform="scale(0.015625)"/>
       <path id="DejaVuSans-73" d="M 2834 3397 
L 2834 2853 
Q 2591 2978 2328 3040 
Q 2066 3103 1784 3103 
Q 1356 3103 1142 2972 
Q 928 2841 928 2578 
Q 928 2378 1081 2264 
Q 1234 2150 1697 2047 
L 1894 2003 
Q 2506 1872 2764 1633 
Q 3022 1394 3022 966 
Q 3022 478 2636 193 
Q 2250 -91 1575 -91 
Q 1294 -91 989 -36 
Q 684 19 347 128 
L 347 722 
Q 666 556 975 473 
Q 1284 391 1588 391 
Q 1994 391 2212 530 
Q 2431 669 2431 922 
Q 2431 1156 2273 1281 
Q 2116 1406 1581 1522 
L 1381 1569 
Q 847 1681 609 1914 
Q 372 2147 372 2553 
Q 372 3047 722 3315 
Q 1072 3584 1716 3584 
Q 2034 3584 2315 3537 
Q 2597 3491 2834 3397 
z
" transform="scale(0.015625)"/>
       <path id="DejaVuSans-69" d="M 603 3500 
L 1178 3500 
L 1178 0 
L 603 0 
L 603 3500 
z
M 603 4863 
L 1178 4863 
L 1178 4134 
L 603 4134 
L 603 4863 
z
" transform="scale(0.015625)"/>
       <path id="DejaVuSans-79" d="M 2059 -325 
Q 1816 -950 1584 -1140 
Q 1353 -1331 966 -1331 
L 506 -1331 
L 506 -850 
L 844 -850 
Q 1081 -850 1212 -737 
Q 1344 -625 1503 -206 
L 1606 56 
L 191 3500 
L 800 3500 
L 1894 763 
L 2988 3500 
L 3597 3500 
L 2059 -325 
z
" transform="scale(0.015625)"/>
      </defs>
      <use xlink:href="#DejaVuSans-44"/>
      <use xlink:href="#DejaVuSans-65" x="77.001953"/>
      <use xlink:href="#DejaVuSans-6e" x="138.525391"/>
      <use xlink:href="#DejaVuSans-73" x="201.904297"/>
      <use xlink:href="#DejaVuSans-69" x="254.003906"/>
      <use xlink:href="#DejaVuSans-74" x="281.787109"/>
      <use xlink:href="#DejaVuSans-79" x="320.996094"/>
     </g>
    </g>
   </g>
   <g id="patch_3">
    <path d="M 66.98 318.04 
L 66.98 10.8 
" style="fill: none; stroke: #000000; stroke-width: 0.8; stroke-linejoin: miter; stroke-linecap: square"/>
   </g>
   <g id="patch_4">
    <path d="M 66.98 318.04 
L 1412.024318 318.04 
" style="fill: none; stroke: #000000; stroke-width: 0.8; stroke-linejoin: miter; stroke-linecap: square"/>
   </g>
  </g>
  <g id="legend_1">
   <g id="text_21">
    <!-- Rating -->
    <g transform="translate(1440.090781 146.064063) scale(0.1 -0.1)">
     <defs>
      <path id="DejaVuSans-52" d="M 2841 2188 
Q 3044 2119 3236 1894 
Q 3428 1669 3622 1275 
L 4263 0 
L 3584 0 
L 2988 1197 
Q 2756 1666 2539 1819 
Q 2322 1972 1947 1972 
L 1259 1972 
L 1259 0 
L 628 0 
L 628 4666 
L 2053 4666 
Q 2853 4666 3247 4331 
Q 3641 3997 3641 3322 
Q 3641 2881 3436 2590 
Q 3231 2300 2841 2188 
z
M 1259 4147 
L 1259 2491 
L 2053 2491 
Q 2509 2491 2742 2702 
Q 2975 2913 2975 3322 
Q 2975 3731 2742 3939 
Q 2509 4147 2053 4147 
L 1259 4147 
z
" transform="scale(0.015625)"/>
      <path id="DejaVuSans-61" d="M 2194 1759 
Q 1497 1759 1228 1600 
Q 959 1441 959 1056 
Q 959 750 1161 570 
Q 1363 391 1709 391 
Q 2188 391 2477 730 
Q 2766 1069 2766 1631 
L 2766 1759 
L 2194 1759 
z
M 3341 1997 
L 3341 0 
L 2766 0 
L 2766 531 
Q 2569 213 2275 61 
Q 1981 -91 1556 -91 
Q 1019 -91 701 211 
Q 384 513 384 1019 
Q 384 1609 779 1909 
Q 1175 2209 1959 2209 
L 2766 2209 
L 2766 2266 
Q 2766 2663 2505 2880 
Q 2244 3097 1772 3097 
Q 1472 3097 1187 3025 
Q 903 2953 641 2809 
L 641 3341 
Q 956 3463 1253 3523 
Q 1550 3584 1831 3584 
Q 2591 3584 2966 3190 
Q 3341 2797 3341 1997 
z
" transform="scale(0.015625)"/>
     </defs>
     <use xlink:href="#DejaVuSans-52"/>
     <use xlink:href="#DejaVuSans-61" x="67.232422"/>
     <use xlink:href="#DejaVuSans-74" x="128.511719"/>
     <use xlink:href="#DejaVuSans-69" x="167.720703"/>
     <use xlink:href="#DejaVuSans-6e" x="195.503906"/>
     <use xlink:href="#DejaVuSans-67" x="258.882812"/>
    </g>
   </g>
   <g id="patch_5">
    <path d="M 1439.0275 160.742188 
L 1459.0275 160.742188 
L 1459.0275 153.742188 
L 1439.0275 153.742188 
z
" style="fill: #0b0405; fill-opacity: 0.25; stroke: #0b0405; stroke-linejoin: miter"/>
   </g>
   <g id="text_22">
    <!-- 1 -->
    <g transform="translate(1467.0275 160.742188) scale(0.1 -0.1)">
     <use xlink:href="#DejaVuSans-31"/>
    </g>
   </g>
   <g id="patch_6">
    <path d="M 1439.0275 175.420313 
L 1459.0275 175.420313 
L 1459.0275 168.420313 
L 1439.0275 168.420313 
z
" style="fill: #3e356b; fill-opacity: 0.25; stroke: #3e356b; stroke-linejoin: miter"/>
   </g>
   <g id="text_23">
    <!-- 2 -->
    <g transform="translate(1467.0275 175.420313) scale(0.1 -0.1)">
     <use xlink:href="#DejaVuSans-32"/>
    </g>
   </g>
   <g id="patch_7">
    <path d="M 1439.0275 190.098438 
L 1459.0275 190.098438 
L 1459.0275 183.098438 
L 1439.0275 183.098438 
z
" style="fill: #357ba3; fill-opacity: 0.25; stroke: #357ba3; stroke-linejoin: miter"/>
   </g>
   <g id="text_24">
    <!-- 3 -->
    <g transform="translate(1467.0275 190.098438) scale(0.1 -0.1)">
     <use xlink:href="#DejaVuSans-33"/>
    </g>
   </g>
   <g id="patch_8">
    <path d="M 1439.0275 204.776563 
L 1459.0275 204.776563 
L 1459.0275 197.776563 
L 1439.0275 197.776563 
z
" style="fill: #4bc2ad; fill-opacity: 0.25; stroke: #4bc2ad; stroke-linejoin: miter"/>
   </g>
   <g id="text_25">
    <!-- 4 -->
    <g transform="translate(1467.0275 204.776563) scale(0.1 -0.1)">
     <use xlink:href="#DejaVuSans-34"/>
    </g>
   </g>
   <g id="patch_9">
    <path d="M 1439.0275 219.454688 
L 1459.0275 219.454688 
L 1459.0275 212.454688 
L 1439.0275 212.454688 
z
" style="fill: #def5e5; fill-opacity: 0.25; stroke: #def5e5; stroke-linejoin: miter"/>
   </g>
   <g id="text_26">
    <!-- 5 -->
    <g transform="translate(1467.0275 219.454688) scale(0.1 -0.1)">
     <use xlink:href="#DejaVuSans-35"/>
    </g>
   </g>
  </g>
 </g>
 <defs>
  <clipPath id="p57f3fbb3af">
   <rect x="66.98" y="10.8" width="1345.044318" height="307.24"/>
  </clipPath>
 </defs>
</svg>
