<?xml version="1.0" encoding="utf-8" standalone="no"?>
<!DOCTYPE svg PUBLIC "-//W3C//DTD SVG 1.1//EN"
  "http://www.w3.org/Graphics/SVG/1.1/DTD/svg11.dtd">
<svg xmlns:xlink="http://www.w3.org/1999/xlink" width="1482.39pt" height="360pt" viewBox="0 0 1482.39 360" xmlns="http://www.w3.org/2000/svg" version="1.1">
 <metadata>
  <rdf:RDF xmlns:dc="http://purl.org/dc/elements/1.1/" xmlns:cc="http://creativecommons.org/ns#" xmlns:rdf="http://www.w3.org/1999/02/22-rdf-syntax-ns#">
   <cc:Work>
    <dc:type rdf:resource="http://purl.org/dc/dcmitype/StillImage"/>
    <dc:date>2024-08-23T18:08:25.363579</dc:date>
    <dc:format>image/svg+xml</dc:format>
    <dc:creator>
     <cc:Agent>
      <dc:title>Matplotlib v3.8.4, https://matplotlib.org/</dc:title>
     </cc:Agent>
    </dc:creator>
   </cc:Work>
  </rdf:RDF>
 </metadata>
 <defs>
  <style type="text/css">*{stroke-linejoin: round; stroke-linecap: butt}</style>
 </defs>
 <g id="figure_1">
  <g id="patch_1">
   <path d="M 0 360 
L 1482.39 360 
L 1482.39 0 
L 0 0 
z
" style="fill: #ffffff"/>
  </g>
  <g id="axes_1">
   <g id="patch_2">
    <path d="M 66.98 318.04 
L 1414.3761 318.04 
L 1414.3761 10.8 
L 66.98 10.8 
z
" style="fill: #ffffff"/>
   </g>
   <g id="PolyCollection_1">
    <defs>
     <path id="m372afef61e" d="M 143.337865 -42.013294 
L 143.337865 -41.96 
L 148.814336 -41.96 
L 154.290807 -41.96 
L 159.767279 -41.96 
L 165.24375 -41.96 
L 170.720221 -41.96 
L 176.196692 -41.96 
L 181.673163 -41.96 
L 187.149634 -41.96 
L 192.626105 -41.96 
L 198.102577 -41.96 
L 203.579048 -41.96 
L 209.055519 -41.96 
L 214.53199 -41.96 
L 220.008461 -41.96 
L 225.484932 -41.96 
L 230.961403 -41.96 
L 236.437874 -41.96 
L 241.914346 -41.96 
L 247.390817 -41.96 
L 252.867288 -41.96 
L 258.343759 -41.96 
L 263.82023 -41.96 
L 269.296701 -41.96 
L 274.773172 -41.96 
L 280.249643 -41.96 
L 285.726115 -41.96 
L 291.202586 -41.96 
L 296.679057 -41.96 
L 302.155528 -41.96 
L 307.631999 -41.96 
L 313.10847 -41.96 
L 318.584941 -41.96 
L 324.061413 -41.96 
L 329.537884 -41.96 
L 335.014355 -41.96 
L 340.490826 -41.96 
L 345.967297 -41.96 
L 351.443768 -41.96 
L 356.920239 -41.96 
L 362.39671 -41.96 
L 367.873182 -41.96 
L 373.349653 -41.96 
L 378.826124 -41.96 
L 384.302595 -41.96 
L 389.779066 -41.96 
L 395.255537 -41.96 
L 400.732008 -41.96 
L 406.20848 -41.96 
L 411.684951 -41.96 
L 417.161422 -41.96 
L 422.637893 -41.96 
L 428.114364 -41.96 
L 433.590835 -41.96 
L 439.067306 -41.96 
L 444.543777 -41.96 
L 450.020249 -41.96 
L 455.49672 -41.96 
L 460.973191 -41.96 
L 466.449662 -41.96 
L 471.926133 -41.96 
L 477.402604 -41.96 
L 482.879075 -41.96 
L 488.355546 -41.96 
L 493.832018 -41.96 
L 499.308489 -41.96 
L 504.78496 -41.96 
L 510.261431 -41.96 
L 515.737902 -41.96 
L 521.214373 -41.96 
L 526.690844 -41.96 
L 532.167316 -41.96 
L 537.643787 -41.96 
L 543.120258 -41.96 
L 548.596729 -41.96 
L 554.0732 -41.96 
L 559.549671 -41.96 
L 565.026142 -41.96 
L 570.502613 -41.96 
L 575.979085 -41.96 
L 581.455556 -41.96 
L 586.932027 -41.96 
L 592.408498 -41.96 
L 597.884969 -41.96 
L 603.36144 -41.96 
L 608.837911 -41.96 
L 614.314382 -41.96 
L 619.790854 -41.96 
L 625.267325 -41.96 
L 630.743796 -41.96 
L 636.220267 -41.96 
L 641.696738 -41.96 
L 647.173209 -41.96 
L 652.64968 -41.96 
L 658.126152 -41.96 
L 663.602623 -41.96 
L 669.079094 -41.96 
L 674.555565 -41.96 
L 680.032036 -41.96 
L 685.508507 -41.96 
L 690.984978 -41.96 
L 696.461449 -41.96 
L 701.937921 -41.96 
L 707.414392 -41.96 
L 712.890863 -41.96 
L 718.367334 -41.96 
L 723.843805 -41.96 
L 729.320276 -41.96 
L 734.796747 -41.96 
L 740.273218 -41.96 
L 745.74969 -41.96 
L 751.226161 -41.96 
L 756.702632 -41.96 
L 762.179103 -41.96 
L 767.655574 -41.96 
L 773.132045 -41.96 
L 778.608516 -41.96 
L 784.084988 -41.96 
L 789.561459 -41.96 
L 795.03793 -41.96 
L 800.514401 -41.96 
L 805.990872 -41.96 
L 811.467343 -41.96 
L 816.943814 -41.96 
L 822.420285 -41.96 
L 827.896757 -41.96 
L 833.373228 -41.96 
L 838.849699 -41.96 
L 844.32617 -41.96 
L 849.802641 -41.96 
L 855.279112 -41.96 
L 860.755583 -41.96 
L 866.232054 -41.96 
L 871.708526 -41.96 
L 877.184997 -41.96 
L 882.661468 -41.96 
L 888.137939 -41.96 
L 893.61441 -41.96 
L 899.090881 -41.96 
L 904.567352 -41.96 
L 910.043824 -41.96 
L 915.520295 -41.96 
L 920.996766 -41.96 
L 926.473237 -41.96 
L 931.949708 -41.96 
L 937.426179 -41.96 
L 942.90265 -41.96 
L 948.379121 -41.96 
L 953.855593 -41.96 
L 959.332064 -41.96 
L 964.808535 -41.96 
L 970.285006 -41.96 
L 975.761477 -41.96 
L 981.237948 -41.96 
L 986.714419 -41.96 
L 992.19089 -41.96 
L 997.667362 -41.96 
L 1003.143833 -41.96 
L 1008.620304 -41.96 
L 1014.096775 -41.96 
L 1019.573246 -41.96 
L 1025.049717 -41.96 
L 1030.526188 -41.96 
L 1036.00266 -41.96 
L 1041.479131 -41.96 
L 1046.955602 -41.96 
L 1052.432073 -41.96 
L 1057.908544 -41.96 
L 1063.385015 -41.96 
L 1068.861486 -41.96 
L 1074.337957 -41.96 
L 1079.814429 -41.96 
L 1085.2909 -41.96 
L 1090.767371 -41.96 
L 1096.243842 -41.96 
L 1101.720313 -41.96 
L 1107.196784 -41.96 
L 1112.673255 -41.96 
L 1118.149727 -41.96 
L 1123.626198 -41.96 
L 1129.102669 -41.96 
L 1134.57914 -41.96 
L 1140.055611 -41.96 
L 1145.532082 -41.96 
L 1151.008553 -41.96 
L 1156.485024 -41.96 
L 1161.961496 -41.96 
L 1167.437967 -41.96 
L 1172.914438 -41.96 
L 1178.390909 -41.96 
L 1183.86738 -41.96 
L 1189.343851 -41.96 
L 1194.820322 -41.96 
L 1200.296793 -41.96 
L 1205.773265 -41.96 
L 1211.249736 -41.96 
L 1216.726207 -41.96 
L 1222.202678 -41.96 
L 1227.679149 -41.96 
L 1233.15562 -41.96 
L 1233.15562 -41.961022 
L 1233.15562 -41.961022 
L 1227.679149 -41.965512 
L 1222.202678 -41.980058 
L 1216.726207 -42.009243 
L 1211.249736 -42.041559 
L 1205.773265 -42.051131 
L 1200.296793 -42.028696 
L 1194.820322 -41.994936 
L 1189.343851 -41.971986 
L 1183.86738 -41.962774 
L 1178.390909 -41.960435 
L 1172.914438 -41.960078 
L 1167.437967 -41.96033 
L 1161.961496 -41.96221 
L 1156.485024 -41.970077 
L 1151.008553 -41.991085 
L 1145.532082 -42.025317 
L 1140.055611 -42.05586 
L 1134.57914 -42.066335 
L 1129.102669 -42.065589 
L 1123.626198 -42.06641 
L 1118.149727 -42.057223 
L 1112.673255 -42.027707 
L 1107.196784 -41.993031 
L 1101.720313 -41.970986 
L 1096.243842 -41.962472 
L 1090.767371 -41.960376 
L 1085.2909 -41.960038 
L 1079.814429 -41.960003 
L 1074.337957 -41.96 
L 1068.861486 -41.96 
L 1063.385015 -41.96 
L 1057.908544 -41.96 
L 1052.432073 -41.96 
L 1046.955602 -41.96 
L 1041.479131 -41.96 
L 1036.00266 -41.96 
L 1030.526188 -41.96 
L 1025.049717 -41.960005 
L 1019.573246 -41.960061 
L 1014.096775 -41.960554 
L 1008.620304 -41.963383 
L 1003.143833 -41.973936 
L 997.667362 -41.998726 
L 992.19089 -42.032599 
L 986.714419 -42.051818 
L 981.237948 -42.038343 
L 975.761477 -42.005096 
L 970.285006 -41.977513 
L 964.808535 -41.964588 
L 959.332064 -41.960811 
L 953.855593 -41.960097 
L 948.379121 -41.960008 
L 942.90265 -41.96 
L 937.426179 -41.96 
L 931.949708 -41.96 
L 926.473237 -41.96 
L 920.996766 -41.96 
L 915.520295 -41.960002 
L 910.043824 -41.960032 
L 904.567352 -41.960321 
L 899.090881 -41.962174 
L 893.61441 -41.969941 
L 888.137939 -41.990671 
L 882.661468 -42.023837 
L 877.184997 -42.049639 
L 871.708526 -42.044917 
L 866.232054 -42.01427 
L 860.755583 -41.983399 
L 855.279112 -41.966807 
L 849.802641 -41.961339 
L 844.32617 -41.960228 
L 838.849699 -41.960502 
L 833.373228 -41.963136 
L 827.896757 -41.973863 
L 822.420285 -42.002609 
L 816.943814 -42.052783 
L 811.467343 -42.107478 
L 805.990872 -42.139903 
L 800.514401 -42.144784 
L 795.03793 -42.14349 
L 789.561459 -42.150673 
L 784.084988 -42.157665 
L 778.608516 -42.158736 
L 773.132045 -42.162499 
L 767.655574 -42.162525 
L 762.179103 -42.133647 
L 756.702632 -42.073917 
L 751.226161 -42.014031 
L 745.74969 -41.978228 
L 740.273218 -41.965629 
L 734.796747 -41.968246 
L 729.320276 -41.987575 
L 723.843805 -42.02986 
L 718.367334 -42.086224 
L 712.890863 -42.125474 
L 707.414392 -42.122626 
L 701.937921 -42.092481 
L 696.461449 -42.076161 
L 690.984978 -42.092816 
L 685.508507 -42.125687 
L 680.032036 -42.153956 
L 674.555565 -42.172017 
L 669.079094 -42.184688 
L 663.602623 -42.196617 
L 658.126152 -42.192817 
L 652.64968 -42.148238 
L 647.173209 -42.073664 
L 641.696738 -42.013307 
L 636.220267 -41.99603 
L 630.743796 -42.02113 
L 625.267325 -42.07137 
L 619.790854 -42.122554 
L 614.314382 -42.155496 
L 608.837911 -42.159342 
L 603.36144 -42.130812 
L 597.884969 -42.088802 
L 592.408498 -42.073524 
L 586.932027 -42.107898 
L 581.455556 -42.170921 
L 575.979085 -42.223209 
L 570.502613 -42.24729 
L 565.026142 -42.25736 
L 559.549671 -42.283929 
L 554.0732 -42.349642 
L 548.596729 -42.454066 
L 543.120258 -42.578678 
L 537.643787 -42.688338 
L 532.167316 -42.73341 
L 526.690844 -42.68661 
L 521.214373 -42.584381 
L 515.737902 -42.514481 
L 510.261431 -42.560829 
L 504.78496 -42.739806 
L 499.308489 -42.975335 
L 493.832018 -43.166954 
L 488.355546 -43.269629 
L 482.879075 -43.284653 
L 477.402604 -43.230708 
L 471.926133 -43.14304 
L 466.449662 -43.06029 
L 460.973191 -43.008358 
L 455.49672 -42.989798 
L 450.020249 -42.995056 
L 444.543777 -43.042327 
L 439.067306 -43.187661 
L 433.590835 -43.474894 
L 428.114364 -43.867248 
L 422.637893 -44.250433 
L 417.161422 -44.501444 
L 411.684951 -44.573158 
L 406.20848 -44.596168 
L 400.732008 -44.831247 
L 395.255537 -45.410454 
L 389.779066 -46.162793 
L 384.302595 -46.751178 
L 378.826124 -47.028146 
L 373.349653 -47.171863 
L 367.873182 -47.37169 
L 362.39671 -47.596774 
L 356.920239 -47.812062 
L 351.443768 -48.215018 
L 345.967297 -49.101022 
L 340.490826 -50.464118 
L 335.014355 -51.795371 
L 329.537884 -52.56769 
L 324.061413 -52.985883 
L 318.584941 -53.842852 
L 313.10847 -55.517963 
L 307.631999 -57.637423 
L 302.155528 -59.862631 
L 296.679057 -62.415726 
L 291.202586 -65.662559 
L 285.726115 -69.659202 
L 280.249643 -74.190902 
L 274.773172 -78.927817 
L 269.296701 -83.736666 
L 263.82023 -89.06922 
L 258.343759 -95.722206 
L 252.867288 -104.314067 
L 247.390817 -115.299658 
L 241.914346 -129.208063 
L 236.437874 -146.653539 
L 230.961403 -168.093226 
L 225.484932 -193.460577 
L 220.008461 -222.1353 
L 214.53199 -253.1727 
L 209.055519 -284.875899 
L 203.579048 -313.627457 
L 198.102577 -333.093827 
L 192.626105 -334.569524 
L 187.149634 -309.559461 
L 181.673163 -256.273584 
L 176.196692 -186.139849 
L 170.720221 -120.263952 
L 165.24375 -75.111817 
L 159.767279 -52.586004 
L 154.290807 -44.478229 
L 148.814336 -42.393115 
L 143.337865 -42.013294 
z
" style="stroke: #def5e5"/>
    </defs>
    <g clip-path="url(#p5d2134a41b)">
     <use xlink:href="#m372afef61e" x="0" y="360" style="fill: #def5e5; fill-opacity: 0.25; stroke: #def5e5"/>
    </g>
   </g>
   <g id="PolyCollection_2">
    <defs>
     <path id="m80d8292373" d="M 137.272647 -42.013714 
L 137.272647 -41.96 
L 141.930261 -41.96 
L 146.587875 -41.96 
L 151.245489 -41.96 
L 155.903103 -41.96 
L 160.560717 -41.96 
L 165.21833 -41.96 
L 169.875944 -41.96 
L 174.533558 -41.96 
L 179.191172 -41.96 
L 183.848786 -41.96 
L 188.5064 -41.96 
L 193.164014 -41.96 
L 197.821628 -41.96 
L 202.479241 -41.96 
L 207.136855 -41.96 
L 211.794469 -41.96 
L 216.452083 -41.96 
L 221.109697 -41.96 
L 225.767311 -41.96 
L 230.424925 -41.96 
L 235.082539 -41.96 
L 239.740152 -41.96 
L 244.397766 -41.96 
L 249.05538 -41.96 
L 253.712994 -41.96 
L 258.370608 -41.96 
L 263.028222 -41.96 
L 267.685836 -41.96 
L 272.34345 -41.96 
L 277.001063 -41.96 
L 281.658677 -41.96 
L 286.316291 -41.96 
L 290.973905 -41.96 
L 295.631519 -41.96 
L 300.289133 -41.96 
L 304.946747 -41.96 
L 309.604361 -41.96 
L 314.261974 -41.96 
L 318.919588 -41.96 
L 323.577202 -41.96 
L 328.234816 -41.96 
L 332.89243 -41.96 
L 337.550044 -41.96 
L 342.207658 -41.96 
L 346.865272 -41.96 
L 351.522885 -41.96 
L 356.180499 -41.96 
L 360.838113 -41.96 
L 365.495727 -41.96 
L 370.153341 -41.96 
L 374.810955 -41.96 
L 379.468569 -41.96 
L 384.126183 -41.96 
L 388.783796 -41.96 
L 393.44141 -41.96 
L 398.099024 -41.96 
L 402.756638 -41.96 
L 407.414252 -41.96 
L 412.071866 -41.96 
L 416.72948 -41.96 
L 421.387093 -41.96 
L 426.044707 -41.96 
L 430.702321 -41.96 
L 435.359935 -41.96 
L 440.017549 -41.96 
L 444.675163 -41.96 
L 449.332777 -41.96 
L 453.990391 -41.96 
L 458.648004 -41.96 
L 463.305618 -41.96 
L 467.963232 -41.96 
L 472.620846 -41.96 
L 477.27846 -41.96 
L 481.936074 -41.96 
L 486.593688 -41.96 
L 491.251302 -41.96 
L 495.908915 -41.96 
L 500.566529 -41.96 
L 505.224143 -41.96 
L 509.881757 -41.96 
L 514.539371 -41.96 
L 519.196985 -41.96 
L 523.854599 -41.96 
L 528.512213 -41.96 
L 533.169826 -41.96 
L 537.82744 -41.96 
L 542.485054 -41.96 
L 547.142668 -41.96 
L 551.800282 -41.96 
L 556.457896 -41.96 
L 561.11551 -41.96 
L 565.773124 -41.96 
L 570.430737 -41.96 
L 575.088351 -41.96 
L 579.745965 -41.96 
L 584.403579 -41.96 
L 589.061193 -41.96 
L 593.718807 -41.96 
L 598.376421 -41.96 
L 603.034035 -41.96 
L 607.691648 -41.96 
L 612.349262 -41.96 
L 617.006876 -41.96 
L 621.66449 -41.96 
L 626.322104 -41.96 
L 630.979718 -41.96 
L 635.637332 -41.96 
L 640.294946 -41.96 
L 644.952559 -41.96 
L 649.610173 -41.96 
L 654.267787 -41.96 
L 658.925401 -41.96 
L 663.583015 -41.96 
L 668.240629 -41.96 
L 672.898243 -41.96 
L 677.555857 -41.96 
L 682.21347 -41.96 
L 686.871084 -41.96 
L 691.528698 -41.96 
L 696.186312 -41.96 
L 700.843926 -41.96 
L 705.50154 -41.96 
L 710.159154 -41.96 
L 714.816768 -41.96 
L 719.474381 -41.96 
L 724.131995 -41.96 
L 728.789609 -41.96 
L 733.447223 -41.96 
L 738.104837 -41.96 
L 742.762451 -41.96 
L 747.420065 -41.96 
L 752.077679 -41.96 
L 756.735292 -41.96 
L 761.392906 -41.96 
L 766.05052 -41.96 
L 770.708134 -41.96 
L 775.365748 -41.96 
L 780.023362 -41.96 
L 784.680976 -41.96 
L 789.33859 -41.96 
L 793.996203 -41.96 
L 798.653817 -41.96 
L 803.311431 -41.96 
L 807.969045 -41.96 
L 812.626659 -41.96 
L 817.284273 -41.96 
L 821.941887 -41.96 
L 826.599501 -41.96 
L 831.257114 -41.96 
L 835.914728 -41.96 
L 840.572342 -41.96 
L 845.229956 -41.96 
L 849.88757 -41.96 
L 854.545184 -41.96 
L 859.202798 -41.96 
L 863.860412 -41.96 
L 868.518025 -41.96 
L 873.175639 -41.96 
L 877.833253 -41.96 
L 882.490867 -41.96 
L 887.148481 -41.96 
L 891.806095 -41.96 
L 896.463709 -41.96 
L 901.121323 -41.96 
L 905.778936 -41.96 
L 910.43655 -41.96 
L 915.094164 -41.96 
L 919.751778 -41.96 
L 924.409392 -41.96 
L 929.067006 -41.96 
L 933.72462 -41.96 
L 938.382234 -41.96 
L 943.039847 -41.96 
L 947.697461 -41.96 
L 952.355075 -41.96 
L 957.012689 -41.96 
L 961.670303 -41.96 
L 966.327917 -41.96 
L 970.985531 -41.96 
L 975.643145 -41.96 
L 980.300758 -41.96 
L 984.958372 -41.96 
L 989.615986 -41.96 
L 994.2736 -41.96 
L 998.931214 -41.96 
L 1003.588828 -41.96 
L 1008.246442 -41.96 
L 1012.904056 -41.96 
L 1017.561669 -41.96 
L 1022.219283 -41.96 
L 1026.876897 -41.96 
L 1031.534511 -41.96 
L 1036.192125 -41.96 
L 1040.849739 -41.96 
L 1045.507353 -41.96 
L 1050.164967 -41.96 
L 1054.82258 -41.96 
L 1059.480194 -41.96 
L 1064.137808 -41.96 
L 1064.137808 -41.961491 
L 1064.137808 -41.961491 
L 1059.480194 -41.964856 
L 1054.82258 -41.973318 
L 1050.164967 -41.990812 
L 1045.507353 -42.020295 
L 1040.849739 -42.060213 
L 1036.192125 -42.102333 
L 1031.534511 -42.134238 
L 1026.876897 -42.145841 
L 1022.219283 -42.134725 
L 1017.561669 -42.10619 
L 1012.904056 -42.069291 
L 1008.246442 -42.032786 
L 1003.588828 -42.002872 
L 998.931214 -41.982396 
L 994.2736 -41.971341 
L 989.615986 -41.968427 
L 984.958372 -41.972731 
L 980.300758 -41.983869 
L 975.643145 -42.000384 
L 970.985531 -42.017965 
L 966.327917 -42.029971 
L 961.670303 -42.030973 
L 957.012689 -42.020584 
L 952.355075 -42.003925 
L 947.697461 -41.988378 
L 943.039847 -41.97991 
L 938.382234 -41.981736 
L 933.72462 -41.994695 
L 929.067006 -42.017266 
L 924.409392 -42.044874 
L 919.751778 -42.070186 
L 915.094164 -42.085535 
L 910.43655 -42.086491 
L 905.778936 -42.074431 
L 901.121323 -42.05633 
L 896.463709 -42.041243 
L 891.806095 -42.034896 
L 887.148481 -42.035977 
L 882.490867 -42.037446 
L 877.833253 -42.03225 
L 873.175639 -42.018601 
L 868.518025 -42.00044 
L 863.860412 -41.983549 
L 859.202798 -41.971536 
L 854.545184 -41.964751 
L 849.88757 -41.961652 
L 845.229956 -41.960528 
L 840.572342 -41.960347 
L 835.914728 -41.960895 
L 831.257114 -41.962768 
L 826.599501 -41.967364 
L 821.941887 -41.976471 
L 817.284273 -41.990942 
L 812.626659 -42.008818 
L 807.969045 -42.024696 
L 803.311431 -42.032067 
L 798.653817 -42.027687 
L 793.996203 -42.014344 
L 789.33859 -41.999503 
L 784.680976 -41.991307 
L 780.023362 -41.995325 
L 775.365748 -42.013493 
L 770.708134 -42.044385 
L 766.05052 -42.083867 
L 761.392906 -42.125818 
L 756.735292 -42.162805 
L 752.077679 -42.187202 
L 747.420065 -42.193814 
L 742.762451 -42.183365 
L 738.104837 -42.163642 
L 733.447223 -42.145853 
L 728.789609 -42.138149 
L 724.131995 -42.141035 
L 719.474381 -42.147543 
L 714.816768 -42.147431 
L 710.159154 -42.13288 
L 705.50154 -42.102912 
L 700.843926 -42.063998 
L 696.186312 -42.02631 
L 691.528698 -41.998614 
L 686.871084 -41.985936 
L 682.21347 -41.991049 
L 677.555857 -42.016823 
L 672.898243 -42.065971 
L 668.240629 -42.137931 
L 663.583015 -42.225973 
L 658.925401 -42.317481 
L 654.267787 -42.397164 
L 649.610173 -42.451093 
L 644.952559 -42.470837 
L 640.294946 -42.457497 
L 635.637332 -42.422611 
L 630.979718 -42.382306 
L 626.322104 -42.34697 
L 621.66449 -42.315032 
L 617.006876 -42.276946 
L 612.349262 -42.226013 
L 607.691648 -42.166531 
L 603.034035 -42.112984 
L 598.376421 -42.082064 
L 593.718807 -42.084177 
L 589.061193 -42.119963 
L 584.403579 -42.182787 
L 579.745965 -42.26348 
L 575.088351 -42.35199 
L 570.430737 -42.435301 
L 565.773124 -42.497881 
L 561.11551 -42.528837 
L 556.457896 -42.529026 
L 551.800282 -42.508525 
L 547.142668 -42.477004 
L 542.485054 -42.438869 
L 537.82744 -42.397528 
L 533.169826 -42.361138 
L 528.512213 -42.342297 
L 523.854599 -42.352881 
L 519.196985 -42.399536 
L 514.539371 -42.481967 
L 509.881757 -42.592417 
L 505.224143 -42.715955 
L 500.566529 -42.83347 
L 495.908915 -42.927288 
L 491.251302 -42.986445 
L 486.593688 -43.01007 
L 481.936074 -43.00943 
L 477.27846 -43.007247 
L 472.620846 -43.031304 
L 467.963232 -43.102994 
L 463.305618 -43.226539 
L 458.648004 -43.385904 
L 453.990391 -43.553341 
L 449.332777 -43.70602 
L 444.675163 -43.838649 
L 440.017549 -43.960436 
L 435.359935 -44.078838 
L 430.702321 -44.187595 
L 426.044707 -44.274286 
L 421.387093 -44.341591 
L 416.72948 -44.418879 
L 412.071866 -44.549557 
L 407.414252 -44.765315 
L 402.756638 -45.068228 
L 398.099024 -45.427343 
L 393.44141 -45.785586 
L 388.783796 -46.079505 
L 384.126183 -46.274838 
L 379.468569 -46.40003 
L 374.810955 -46.544624 
L 370.153341 -46.809495 
L 365.495727 -47.237854 
L 360.838113 -47.780014 
L 356.180499 -48.327317 
L 351.522885 -48.798662 
L 346.865272 -49.212301 
L 342.207658 -49.676199 
L 337.550044 -50.300012 
L 332.89243 -51.11027 
L 328.234816 -52.045701 
L 323.577202 -53.020886 
L 318.919588 -53.981842 
L 314.261974 -54.910427 
L 309.604361 -55.806607 
L 304.946747 -56.693666 
L 300.289133 -57.64682 
L 295.631519 -58.805391 
L 290.973905 -60.338223 
L 286.316291 -62.381605 
L 281.658677 -65.002476 
L 277.001063 -68.211127 
L 272.34345 -71.992901 
L 267.685836 -76.324313 
L 263.028222 -81.178067 
L 258.370608 -86.53349 
L 253.712994 -92.394933 
L 249.05538 -98.826938 
L 244.397766 -106.008184 
L 239.740152 -114.244846 
L 235.082539 -123.862254 
L 230.424925 -135.008001 
L 225.767311 -147.523559 
L 221.109697 -160.976077 
L 216.452083 -174.747977 
L 211.794469 -188.013248 
L 207.136855 -199.570924 
L 202.479241 -207.699406 
L 197.821628 -210.266487 
L 193.164014 -205.232475 
L 188.5064 -191.470163 
L 183.848786 -169.583268 
L 179.191172 -142.238781 
L 174.533558 -113.609226 
L 169.875944 -87.989181 
L 165.21833 -68.281566 
L 160.560717 -55.24281 
L 155.903103 -47.832261 
L 151.245489 -44.220638 
L 146.587875 -42.714045 
L 141.930261 -42.177026 
L 137.272647 -42.013714 
z
" style="stroke: #4bc2ad"/>
    </defs>
    <g clip-path="url(#p5d2134a41b)">
     <use xlink:href="#m80d8292373" x="0" y="360" style="fill: #4bc2ad; fill-opacity: 0.25; stroke: #4bc2ad"/>
    </g>
   </g>
   <g id="PolyCollection_3">
    <defs>
     <path id="m989c712204" d="M 129.005983 -41.982729 
L 129.005983 -41.96 
L 135.157364 -41.96 
L 141.308745 -41.96 
L 147.460126 -41.96 
L 153.611507 -41.96 
L 159.762888 -41.96 
L 165.914269 -41.96 
L 172.06565 -41.96 
L 178.217031 -41.96 
L 184.368413 -41.96 
L 190.519794 -41.96 
L 196.671175 -41.96 
L 202.822556 -41.96 
L 208.973937 -41.96 
L 215.125318 -41.96 
L 221.276699 -41.96 
L 227.42808 -41.96 
L 233.579461 -41.96 
L 239.730843 -41.96 
L 245.882224 -41.96 
L 252.033605 -41.96 
L 258.184986 -41.96 
L 264.336367 -41.96 
L 270.487748 -41.96 
L 276.639129 -41.96 
L 282.79051 -41.96 
L 288.941891 -41.96 
L 295.093273 -41.96 
L 301.244654 -41.96 
L 307.396035 -41.96 
L 313.547416 -41.96 
L 319.698797 -41.96 
L 325.850178 -41.96 
L 332.001559 -41.96 
L 338.15294 -41.96 
L 344.304321 -41.96 
L 350.455702 -41.96 
L 356.607084 -41.96 
L 362.758465 -41.96 
L 368.909846 -41.96 
L 375.061227 -41.96 
L 381.212608 -41.96 
L 387.363989 -41.96 
L 393.51537 -41.96 
L 399.666751 -41.96 
L 405.818132 -41.96 
L 411.969514 -41.96 
L 418.120895 -41.96 
L 424.272276 -41.96 
L 430.423657 -41.96 
L 436.575038 -41.96 
L 442.726419 -41.96 
L 448.8778 -41.96 
L 455.029181 -41.96 
L 461.180562 -41.96 
L 467.331943 -41.96 
L 473.483325 -41.96 
L 479.634706 -41.96 
L 485.786087 -41.96 
L 491.937468 -41.96 
L 498.088849 -41.96 
L 504.24023 -41.96 
L 510.391611 -41.96 
L 516.542992 -41.96 
L 522.694373 -41.96 
L 528.845755 -41.96 
L 534.997136 -41.96 
L 541.148517 -41.96 
L 547.299898 -41.96 
L 553.451279 -41.96 
L 559.60266 -41.96 
L 565.754041 -41.96 
L 571.905422 -41.96 
L 578.056803 -41.96 
L 584.208184 -41.96 
L 590.359566 -41.96 
L 596.510947 -41.96 
L 602.662328 -41.96 
L 608.813709 -41.96 
L 614.96509 -41.96 
L 621.116471 -41.96 
L 627.267852 -41.96 
L 633.419233 -41.96 
L 639.570614 -41.96 
L 645.721996 -41.96 
L 651.873377 -41.96 
L 658.024758 -41.96 
L 664.176139 -41.96 
L 670.32752 -41.96 
L 676.478901 -41.96 
L 682.630282 -41.96 
L 688.781663 -41.96 
L 694.933044 -41.96 
L 701.084425 -41.96 
L 707.235807 -41.96 
L 713.387188 -41.96 
L 719.538569 -41.96 
L 725.68995 -41.96 
L 731.841331 -41.96 
L 737.992712 -41.96 
L 744.144093 -41.96 
L 750.295474 -41.96 
L 756.446855 -41.96 
L 762.598237 -41.96 
L 768.749618 -41.96 
L 774.900999 -41.96 
L 781.05238 -41.96 
L 787.203761 -41.96 
L 793.355142 -41.96 
L 799.506523 -41.96 
L 805.657904 -41.96 
L 811.809285 -41.96 
L 817.960667 -41.96 
L 824.112048 -41.96 
L 830.263429 -41.96 
L 836.41481 -41.96 
L 842.566191 -41.96 
L 848.717572 -41.96 
L 854.868953 -41.96 
L 861.020334 -41.96 
L 867.171715 -41.96 
L 873.323096 -41.96 
L 879.474478 -41.96 
L 885.625859 -41.96 
L 891.77724 -41.96 
L 897.928621 -41.96 
L 904.080002 -41.96 
L 910.231383 -41.96 
L 916.382764 -41.96 
L 922.534145 -41.96 
L 928.685526 -41.96 
L 934.836908 -41.96 
L 940.988289 -41.96 
L 947.13967 -41.96 
L 953.291051 -41.96 
L 959.442432 -41.96 
L 965.593813 -41.96 
L 971.745194 -41.96 
L 977.896575 -41.96 
L 984.047956 -41.96 
L 990.199337 -41.96 
L 996.350719 -41.96 
L 1002.5021 -41.96 
L 1008.653481 -41.96 
L 1014.804862 -41.96 
L 1020.956243 -41.96 
L 1027.107624 -41.96 
L 1033.259005 -41.96 
L 1039.410386 -41.96 
L 1045.561767 -41.96 
L 1051.713149 -41.96 
L 1057.86453 -41.96 
L 1064.015911 -41.96 
L 1070.167292 -41.96 
L 1076.318673 -41.96 
L 1082.470054 -41.96 
L 1088.621435 -41.96 
L 1094.772816 -41.96 
L 1100.924197 -41.96 
L 1107.075578 -41.96 
L 1113.22696 -41.96 
L 1119.378341 -41.96 
L 1125.529722 -41.96 
L 1131.681103 -41.96 
L 1137.832484 -41.96 
L 1143.983865 -41.96 
L 1150.135246 -41.96 
L 1156.286627 -41.96 
L 1162.438008 -41.96 
L 1168.58939 -41.96 
L 1174.740771 -41.96 
L 1180.892152 -41.96 
L 1187.043533 -41.96 
L 1193.194914 -41.96 
L 1199.346295 -41.96 
L 1205.497676 -41.96 
L 1211.649057 -41.96 
L 1217.800438 -41.96 
L 1223.95182 -41.96 
L 1230.103201 -41.96 
L 1236.254582 -41.96 
L 1242.405963 -41.96 
L 1248.557344 -41.96 
L 1254.708725 -41.96 
L 1260.860106 -41.96 
L 1267.011487 -41.96 
L 1273.162868 -41.96 
L 1279.314249 -41.96 
L 1285.465631 -41.96 
L 1291.617012 -41.96 
L 1297.768393 -41.96 
L 1303.919774 -41.96 
L 1310.071155 -41.96 
L 1316.222536 -41.96 
L 1322.373917 -41.96 
L 1328.525298 -41.96 
L 1334.676679 -41.96 
L 1340.828061 -41.96 
L 1346.979442 -41.96 
L 1353.130823 -41.96 
L 1353.130823 -41.960642 
L 1353.130823 -41.960642 
L 1346.979442 -41.962194 
L 1340.828061 -41.966169 
L 1334.676679 -41.974261 
L 1328.525298 -41.987104 
L 1322.373917 -42.002355 
L 1316.222536 -42.014419 
L 1310.071155 -42.017487 
L 1303.919774 -42.00993 
L 1297.768393 -41.995656 
L 1291.617012 -41.980935 
L 1285.465631 -41.970106 
L 1279.314249 -41.964011 
L 1273.162868 -41.961309 
L 1267.011487 -41.960351 
L 1260.860106 -41.960077 
L 1254.708725 -41.960014 
L 1248.557344 -41.960002 
L 1242.405963 -41.96 
L 1236.254582 -41.96 
L 1230.103201 -41.96 
L 1223.95182 -41.96 
L 1217.800438 -41.96 
L 1211.649057 -41.96 
L 1205.497676 -41.96 
L 1199.346295 -41.96 
L 1193.194914 -41.96 
L 1187.043533 -41.96 
L 1180.892152 -41.96 
L 1174.740771 -41.96 
L 1168.58939 -41.96 
L 1162.438008 -41.96 
L 1156.286627 -41.96 
L 1150.135246 -41.96 
L 1143.983865 -41.96 
L 1137.832484 -41.96 
L 1131.681103 -41.96 
L 1125.529722 -41.96 
L 1119.378341 -41.96 
L 1113.22696 -41.96 
L 1107.075578 -41.96 
L 1100.924197 -41.96 
L 1094.772816 -41.96 
L 1088.621435 -41.96 
L 1082.470054 -41.96 
L 1076.318673 -41.96 
L 1070.167292 -41.96 
L 1064.015911 -41.96 
L 1057.86453 -41.96 
L 1051.713149 -41.96 
L 1045.561767 -41.96 
L 1039.410386 -41.96 
L 1033.259005 -41.96 
L 1027.107624 -41.96 
L 1020.956243 -41.96 
L 1014.804862 -41.960003 
L 1008.653481 -41.960019 
L 1002.5021 -41.960101 
L 996.350719 -41.960442 
L 990.199337 -41.961595 
L 984.047956 -41.964732 
L 977.896575 -41.971544 
L 971.745194 -41.983157 
L 965.593813 -41.998192 
L 959.442432 -42.01179 
L 953.291051 -42.017742 
L 947.13967 -42.012932 
L 940.988289 -41.999894 
L 934.836908 -41.984722 
L 928.685526 -41.972596 
L 922.534145 -41.965276 
L 916.382764 -41.961817 
L 910.231383 -41.960515 
L 904.080002 -41.96012 
L 897.928621 -41.960023 
L 891.77724 -41.960004 
L 885.625859 -41.96 
L 879.474478 -41.96 
L 873.323096 -41.96 
L 867.171715 -41.96 
L 861.020334 -41.96 
L 854.868953 -41.96 
L 848.717572 -41.96 
L 842.566191 -41.96 
L 836.41481 -41.96 
L 830.263429 -41.96 
L 824.112048 -41.96 
L 817.960667 -41.96 
L 811.809285 -41.96 
L 805.657904 -41.96 
L 799.506523 -41.960001 
L 793.355142 -41.960006 
L 787.203761 -41.960038 
L 781.05238 -41.960186 
L 774.900999 -41.960754 
L 768.749618 -41.962517 
L 762.598237 -41.966914 
L 756.446855 -41.975629 
L 750.295474 -41.98913 
L 744.144093 -42.004985 
L 737.992712 -42.018337 
L 731.841331 -42.025766 
L 725.68995 -42.029539 
L 719.538569 -42.037026 
L 713.387188 -42.0543 
L 707.235807 -42.079622 
L 701.084425 -42.103137 
L 694.933044 -42.113194 
L 688.781663 -42.104015 
L 682.630282 -42.079279 
L 676.478901 -42.049898 
L 670.32752 -42.027756 
L 664.176139 -42.019203 
L 658.024758 -42.022367 
L 651.873377 -42.030159 
L 645.721996 -42.036323 
L 639.570614 -42.038845 
L 633.419233 -42.038016 
L 627.267852 -42.033041 
L 621.116471 -42.022442 
L 614.96509 -42.007363 
L 608.813709 -41.992778 
L 602.662328 -41.985058 
L 596.510947 -41.988931 
L 590.359566 -42.006202 
L 584.208184 -42.035704 
L 578.056803 -42.073421 
L 571.905422 -42.112695 
L 565.754041 -42.145125 
L 559.60266 -42.16342 
L 553.451279 -42.166105 
L 547.299898 -42.160098 
L 541.148517 -42.156871 
L 534.997136 -42.164988 
L 528.845755 -42.187134 
L 522.694373 -42.223832 
L 516.542992 -42.275829 
L 510.391611 -42.338493 
L 504.24023 -42.395184 
L 498.088849 -42.42312 
L 491.937468 -42.41183 
L 485.786087 -42.376301 
L 479.634706 -42.349859 
L 473.483325 -42.363301 
L 467.331943 -42.42874 
L 461.180562 -42.536695 
L 455.029181 -42.661715 
L 448.8778 -42.77197 
L 442.726419 -42.842774 
L 436.575038 -42.869184 
L 430.423657 -42.866993 
L 424.272276 -42.8601 
L 418.120895 -42.867659 
L 411.969514 -42.903038 
L 405.818132 -42.977737 
L 399.666751 -43.096402 
L 393.51537 -43.247468 
L 387.363989 -43.407806 
L 381.212608 -43.562242 
L 375.061227 -43.716445 
L 368.909846 -43.89113 
L 362.758465 -44.110055 
L 356.607084 -44.39518 
L 350.455702 -44.763789 
L 344.304321 -45.215321 
L 338.15294 -45.711103 
L 332.001559 -46.173429 
L 325.850178 -46.53009 
L 319.698797 -46.78625 
L 313.547416 -47.056877 
L 307.396035 -47.511555 
L 301.244654 -48.267894 
L 295.093273 -49.327098 
L 288.941891 -50.606461 
L 282.79051 -52.030022 
L 276.639129 -53.594771 
L 270.487748 -55.378399 
L 264.336367 -57.52035 
L 258.184986 -60.198899 
L 252.033605 -63.575552 
L 245.882224 -67.69795 
L 239.730843 -72.437392 
L 233.579461 -77.534203 
L 227.42808 -82.691661 
L 221.276699 -87.584478 
L 215.125318 -91.760845 
L 208.973937 -94.566267 
L 202.822556 -95.213515 
L 196.671175 -93.013733 
L 190.519794 -87.700802 
L 184.368413 -79.717662 
L 178.217031 -70.265418 
L 172.06565 -60.966339 
L 165.914269 -53.248647 
L 159.762888 -47.826136 
L 153.611507 -44.602453 
L 147.460126 -42.983875 
L 141.308745 -42.299053 
L 135.157364 -42.055436 
L 129.005983 -41.982729 
z
" style="stroke: #357ba3"/>
    </defs>
    <g clip-path="url(#p5d2134a41b)">
     <use xlink:href="#m989c712204" x="0" y="360" style="fill: #357ba3; fill-opacity: 0.25; stroke: #357ba3"/>
    </g>
   </g>
   <g id="PolyCollection_4">
    <defs>
     <path id="m60f770bf64" d="M 128.225277 -41.972333 
L 128.225277 -41.96 
L 131.935937 -41.96 
L 135.646597 -41.96 
L 139.357256 -41.96 
L 143.067916 -41.96 
L 146.778576 -41.96 
L 150.489235 -41.96 
L 154.199895 -41.96 
L 157.910555 -41.96 
L 161.621214 -41.96 
L 165.331874 -41.96 
L 169.042534 -41.96 
L 172.753193 -41.96 
L 176.463853 -41.96 
L 180.174513 -41.96 
L 183.885172 -41.96 
L 187.595832 -41.96 
L 191.306492 -41.96 
L 195.017151 -41.96 
L 198.727811 -41.96 
L 202.438471 -41.96 
L 206.14913 -41.96 
L 209.85979 -41.96 
L 213.57045 -41.96 
L 217.281109 -41.96 
L 220.991769 -41.96 
L 224.702429 -41.96 
L 228.413089 -41.96 
L 232.123748 -41.96 
L 235.834408 -41.96 
L 239.545068 -41.96 
L 243.255727 -41.96 
L 246.966387 -41.96 
L 250.677047 -41.96 
L 254.387706 -41.96 
L 258.098366 -41.96 
L 261.809026 -41.96 
L 265.519685 -41.96 
L 269.230345 -41.96 
L 272.941005 -41.96 
L 276.651664 -41.96 
L 280.362324 -41.96 
L 284.072984 -41.96 
L 287.783643 -41.96 
L 291.494303 -41.96 
L 295.204963 -41.96 
L 298.915622 -41.96 
L 302.626282 -41.96 
L 306.336942 -41.96 
L 310.047601 -41.96 
L 313.758261 -41.96 
L 317.468921 -41.96 
L 321.17958 -41.96 
L 324.89024 -41.96 
L 328.6009 -41.96 
L 332.311559 -41.96 
L 336.022219 -41.96 
L 339.732879 -41.96 
L 343.443538 -41.96 
L 347.154198 -41.96 
L 350.864858 -41.96 
L 354.575517 -41.96 
L 358.286177 -41.96 
L 361.996837 -41.96 
L 365.707496 -41.96 
L 369.418156 -41.96 
L 373.128816 -41.96 
L 376.839476 -41.96 
L 380.550135 -41.96 
L 384.260795 -41.96 
L 387.971455 -41.96 
L 391.682114 -41.96 
L 395.392774 -41.96 
L 399.103434 -41.96 
L 402.814093 -41.96 
L 406.524753 -41.96 
L 410.235413 -41.96 
L 413.946072 -41.96 
L 417.656732 -41.96 
L 421.367392 -41.96 
L 425.078051 -41.96 
L 428.788711 -41.96 
L 432.499371 -41.96 
L 436.21003 -41.96 
L 439.92069 -41.96 
L 443.63135 -41.96 
L 447.342009 -41.96 
L 451.052669 -41.96 
L 454.763329 -41.96 
L 458.473988 -41.96 
L 462.184648 -41.96 
L 465.895308 -41.96 
L 469.605967 -41.96 
L 473.316627 -41.96 
L 477.027287 -41.96 
L 480.737946 -41.96 
L 484.448606 -41.96 
L 488.159266 -41.96 
L 491.869925 -41.96 
L 495.580585 -41.96 
L 499.291245 -41.96 
L 503.001904 -41.96 
L 506.712564 -41.96 
L 510.423224 -41.96 
L 514.133883 -41.96 
L 517.844543 -41.96 
L 521.555203 -41.96 
L 525.265863 -41.96 
L 528.976522 -41.96 
L 532.687182 -41.96 
L 536.397842 -41.96 
L 540.108501 -41.96 
L 543.819161 -41.96 
L 547.529821 -41.96 
L 551.24048 -41.96 
L 554.95114 -41.96 
L 558.6618 -41.96 
L 562.372459 -41.96 
L 566.083119 -41.96 
L 569.793779 -41.96 
L 573.504438 -41.96 
L 577.215098 -41.96 
L 580.925758 -41.96 
L 584.636417 -41.96 
L 588.347077 -41.96 
L 592.057737 -41.96 
L 595.768396 -41.96 
L 599.479056 -41.96 
L 603.189716 -41.96 
L 606.900375 -41.96 
L 610.611035 -41.96 
L 614.321695 -41.96 
L 618.032354 -41.96 
L 621.743014 -41.96 
L 625.453674 -41.96 
L 629.164333 -41.96 
L 632.874993 -41.96 
L 636.585653 -41.96 
L 640.296312 -41.96 
L 644.006972 -41.96 
L 647.717632 -41.96 
L 651.428291 -41.96 
L 655.138951 -41.96 
L 658.849611 -41.96 
L 662.56027 -41.96 
L 666.27093 -41.96 
L 669.98159 -41.96 
L 673.69225 -41.96 
L 677.402909 -41.96 
L 681.113569 -41.96 
L 684.824229 -41.96 
L 688.534888 -41.96 
L 692.245548 -41.96 
L 695.956208 -41.96 
L 699.666867 -41.96 
L 703.377527 -41.96 
L 707.088187 -41.96 
L 710.798846 -41.96 
L 714.509506 -41.96 
L 718.220166 -41.96 
L 721.930825 -41.96 
L 725.641485 -41.96 
L 729.352145 -41.96 
L 733.062804 -41.96 
L 736.773464 -41.96 
L 740.484124 -41.96 
L 744.194783 -41.96 
L 747.905443 -41.96 
L 751.616103 -41.96 
L 755.326762 -41.96 
L 759.037422 -41.96 
L 762.748082 -41.96 
L 766.458741 -41.96 
L 770.169401 -41.96 
L 773.880061 -41.96 
L 777.59072 -41.96 
L 781.30138 -41.96 
L 785.01204 -41.96 
L 788.722699 -41.96 
L 792.433359 -41.96 
L 796.144019 -41.96 
L 799.854678 -41.96 
L 803.565338 -41.96 
L 807.275998 -41.96 
L 810.986658 -41.96 
L 814.697317 -41.96 
L 818.407977 -41.96 
L 822.118637 -41.96 
L 825.829296 -41.96 
L 829.539956 -41.96 
L 833.250616 -41.96 
L 836.961275 -41.96 
L 840.671935 -41.96 
L 844.382595 -41.96 
L 848.093254 -41.96 
L 851.803914 -41.96 
L 855.514574 -41.96 
L 859.225233 -41.96 
L 862.935893 -41.96 
L 866.646553 -41.96 
L 866.646553 -41.960621 
L 866.646553 -41.960621 
L 862.935893 -41.961304 
L 859.225233 -41.962562 
L 855.514574 -41.964707 
L 851.803914 -41.968089 
L 848.093254 -41.973004 
L 844.382595 -41.979557 
L 840.671935 -41.987516 
L 836.961275 -41.996221 
L 833.250616 -42.004625 
L 829.539956 -42.011485 
L 825.829296 -42.015696 
L 822.118637 -42.016644 
L 818.407977 -42.014455 
L 814.697317 -42.01003 
L 810.986658 -42.004823 
L 807.275998 -42.000452 
L 803.565338 -41.998241 
L 799.854678 -41.998853 
L 796.144019 -42.002105 
L 792.433359 -42.007018 
L 788.722699 -42.012092 
L 785.01204 -42.015723 
L 781.30138 -42.016651 
L 777.59072 -42.01429 
L 773.880061 -42.008847 
L 770.169401 -42.001182 
L 766.458741 -41.992505 
L 762.748082 -41.984012 
L 759.037422 -41.976608 
L 755.326762 -41.970778 
L 751.616103 -41.966623 
L 747.905443 -41.963998 
L 744.194783 -41.962671 
L 740.484124 -41.962473 
L 736.773464 -41.963374 
L 733.062804 -41.965499 
L 729.352145 -41.96907 
L 725.641485 -41.974283 
L 721.930825 -41.981144 
L 718.220166 -41.989317 
L 714.509506 -41.998039 
L 710.798846 -42.006184 
L 707.088187 -42.012486 
L 703.377527 -42.015875 
L 699.666867 -42.015821 
L 695.956208 -42.012545 
L 692.245548 -42.007017 
L 688.534888 -42.000727 
L 684.824229 -41.995322 
L 681.113569 -41.992213 
L 677.402909 -41.992272 
L 673.69225 -41.995666 
L 669.98159 -42.001877 
L 666.27093 -42.009871 
L 662.56027 -42.018403 
L 658.849611 -42.026359 
L 655.138951 -42.033043 
L 651.428291 -42.038293 
L 647.717632 -42.042396 
L 644.006972 -42.045839 
L 640.296312 -42.049013 
L 636.585653 -42.052011 
L 632.874993 -42.054579 
L 629.164333 -42.056212 
L 625.453674 -42.056324 
L 621.743014 -42.054436 
L 618.032354 -42.050348 
L 614.321695 -42.044293 
L 610.611035 -42.037047 
L 606.900375 -42.029947 
L 603.189716 -42.024768 
L 599.479056 -42.023433 
L 595.768396 -42.027608 
L 592.057737 -42.038291 
L 588.347077 -42.055516 
L 584.636417 -42.078292 
L 580.925758 -42.104786 
L 577.215098 -42.132708 
L 573.504438 -42.159759 
L 569.793779 -42.184013 
L 566.083119 -42.204131 
L 562.372459 -42.219411 
L 558.6618 -42.229719 
L 554.95114 -42.235398 
L 551.24048 -42.237189 
L 547.529821 -42.236153 
L 543.819161 -42.233551 
L 540.108501 -42.230655 
L 536.397842 -42.228531 
L 532.687182 -42.227865 
L 528.976522 -42.228921 
L 525.265863 -42.231661 
L 521.555203 -42.235973 
L 517.844543 -42.241918 
L 514.133883 -42.24985 
L 510.423224 -42.260365 
L 506.712564 -42.274064 
L 503.001904 -42.291217 
L 499.291245 -42.311473 
L 495.580585 -42.333785 
L 491.869925 -42.356673 
L 488.159266 -42.378856 
L 484.448606 -42.400092 
L 480.737946 -42.421889 
L 477.027287 -42.447668 
L 473.316627 -42.482064 
L 469.605967 -42.529427 
L 465.895308 -42.591978 
L 462.184648 -42.66838 
L 458.473988 -42.753395 
L 454.763329 -42.838917 
L 451.052669 -42.916068 
L 447.342009 -42.977599 
L 443.63135 -43.01975 
L 439.92069 -43.043018 
L 436.21003 -43.051758 
L 432.499371 -43.05298 
L 428.788711 -43.054831 
L 425.078051 -43.065139 
L 421.367392 -43.090239 
L 417.656732 -43.134113 
L 413.946072 -43.197879 
L 410.235413 -43.279692 
L 406.524753 -43.375092 
L 402.814093 -43.477782 
L 399.103434 -43.580725 
L 395.392774 -43.677409 
L 391.682114 -43.763042 
L 387.971455 -43.835412 
L 384.260795 -43.89514 
L 380.550135 -43.945106 
L 376.839476 -43.989183 
L 373.128816 -44.030698 
L 369.418156 -44.071345 
L 365.707496 -44.111106 
L 361.996837 -44.149338 
L 358.286177 -44.186568 
L 354.575517 -44.226237 
L 350.864858 -44.275647 
L 347.154198 -44.345782 
L 343.443538 -44.450084 
L 339.732879 -44.602562 
L 336.022219 -44.815625 
L 332.311559 -45.097933 
L 328.6009 -45.452461 
L 324.89024 -45.875019 
L 321.17958 -46.353587 
L 317.468921 -46.868935 
L 313.758261 -47.396915 
L 310.047601 -47.912418 
L 306.336942 -48.394476 
L 302.626282 -48.831409 
L 298.915622 -49.224691 
L 295.204963 -49.590384 
L 291.494303 -49.957558 
L 287.783643 -50.363937 
L 284.072984 -50.849835 
L 280.362324 -51.452028 
L 276.651664 -52.199319 
L 272.941005 -53.111033 
L 269.230345 -54.198641 
L 265.519685 -55.46936 
L 261.809026 -56.92974 
L 258.098366 -58.587169 
L 254.387706 -60.448158 
L 250.677047 -62.513742 
L 246.966387 -64.773595 
L 243.255727 -67.200863 
L 239.545068 -69.749215 
L 235.834408 -72.35248 
L 232.123748 -74.926407 
L 228.413089 -77.37186 
L 224.702429 -79.579145 
L 220.991769 -81.433606 
L 217.281109 -82.822566 
L 213.57045 -83.64315 
L 209.85979 -83.81006 
L 206.14913 -83.262508 
L 202.438471 -81.970147 
L 198.727811 -79.938529 
L 195.017151 -77.214396 
L 191.306492 -73.88999 
L 187.595832 -70.104022 
L 183.885172 -66.036233 
L 180.174513 -61.893398 
L 176.463853 -57.887314 
L 172.753193 -54.208596 
L 169.042534 -51.002475 
L 165.331874 -48.352866 
L 161.621214 -46.278599 
L 157.910555 -44.741914 
L 154.199895 -43.665662 
L 150.489235 -42.953714 
L 146.778576 -42.509275 
L 143.067916 -42.247663 
L 139.357256 -42.102565 
L 135.646597 -42.026788 
L 131.935937 -41.989547 
L 128.225277 -41.972333 
z
" style="stroke: #3e356b"/>
    </defs>
    <g clip-path="url(#p5d2134a41b)">
     <use xlink:href="#m60f770bf64" x="0" y="360" style="fill: #3e356b; fill-opacity: 0.25; stroke: #3e356b"/>
    </g>
   </g>
   <g id="PolyCollection_5">
    <defs>
     <path id="med8b5b3563" d="M 130.873241 -41.981669 
L 130.873241 -41.96 
L 134.100978 -41.96 
L 137.328714 -41.96 
L 140.556451 -41.96 
L 143.784187 -41.96 
L 147.011924 -41.96 
L 150.23966 -41.96 
L 153.467397 -41.96 
L 156.695133 -41.96 
L 159.92287 -41.96 
L 163.150606 -41.96 
L 166.378343 -41.96 
L 169.60608 -41.96 
L 172.833816 -41.96 
L 176.061553 -41.96 
L 179.289289 -41.96 
L 182.517026 -41.96 
L 185.744762 -41.96 
L 188.972499 -41.96 
L 192.200235 -41.96 
L 195.427972 -41.96 
L 198.655708 -41.96 
L 201.883445 -41.96 
L 205.111182 -41.96 
L 208.338918 -41.96 
L 211.566655 -41.96 
L 214.794391 -41.96 
L 218.022128 -41.96 
L 221.249864 -41.96 
L 224.477601 -41.96 
L 227.705337 -41.96 
L 230.933074 -41.96 
L 234.160811 -41.96 
L 237.388547 -41.96 
L 240.616284 -41.96 
L 243.84402 -41.96 
L 247.071757 -41.96 
L 250.299493 -41.96 
L 253.52723 -41.96 
L 256.754966 -41.96 
L 259.982703 -41.96 
L 263.210439 -41.96 
L 266.438176 -41.96 
L 269.665913 -41.96 
L 272.893649 -41.96 
L 276.121386 -41.96 
L 279.349122 -41.96 
L 282.576859 -41.96 
L 285.804595 -41.96 
L 289.032332 -41.96 
L 292.260068 -41.96 
L 295.487805 -41.96 
L 298.715541 -41.96 
L 301.943278 -41.96 
L 305.171015 -41.96 
L 308.398751 -41.96 
L 311.626488 -41.96 
L 314.854224 -41.96 
L 318.081961 -41.96 
L 321.309697 -41.96 
L 324.537434 -41.96 
L 327.76517 -41.96 
L 330.992907 -41.96 
L 334.220643 -41.96 
L 337.44838 -41.96 
L 340.676117 -41.96 
L 343.903853 -41.96 
L 347.13159 -41.96 
L 350.359326 -41.96 
L 353.587063 -41.96 
L 356.814799 -41.96 
L 360.042536 -41.96 
L 363.270272 -41.96 
L 366.498009 -41.96 
L 369.725746 -41.96 
L 372.953482 -41.96 
L 376.181219 -41.96 
L 379.408955 -41.96 
L 382.636692 -41.96 
L 385.864428 -41.96 
L 389.092165 -41.96 
L 392.319901 -41.96 
L 395.547638 -41.96 
L 398.775374 -41.96 
L 402.003111 -41.96 
L 405.230848 -41.96 
L 408.458584 -41.96 
L 411.686321 -41.96 
L 414.914057 -41.96 
L 418.141794 -41.96 
L 421.36953 -41.96 
L 424.597267 -41.96 
L 427.825003 -41.96 
L 431.05274 -41.96 
L 434.280476 -41.96 
L 437.508213 -41.96 
L 440.73595 -41.96 
L 443.963686 -41.96 
L 447.191423 -41.96 
L 450.419159 -41.96 
L 453.646896 -41.96 
L 456.874632 -41.96 
L 460.102369 -41.96 
L 463.330105 -41.96 
L 466.557842 -41.96 
L 469.785578 -41.96 
L 473.013315 -41.96 
L 476.241052 -41.96 
L 479.468788 -41.96 
L 482.696525 -41.96 
L 485.924261 -41.96 
L 489.151998 -41.96 
L 492.379734 -41.96 
L 495.607471 -41.96 
L 498.835207 -41.96 
L 502.062944 -41.96 
L 505.290681 -41.96 
L 508.518417 -41.96 
L 511.746154 -41.96 
L 514.97389 -41.96 
L 518.201627 -41.96 
L 521.429363 -41.96 
L 524.6571 -41.96 
L 527.884836 -41.96 
L 531.112573 -41.96 
L 534.340309 -41.96 
L 537.568046 -41.96 
L 540.795783 -41.96 
L 544.023519 -41.96 
L 547.251256 -41.96 
L 550.478992 -41.96 
L 553.706729 -41.96 
L 556.934465 -41.96 
L 560.162202 -41.96 
L 563.389938 -41.96 
L 566.617675 -41.96 
L 569.845411 -41.96 
L 573.073148 -41.96 
L 576.300885 -41.96 
L 579.528621 -41.96 
L 582.756358 -41.96 
L 585.984094 -41.96 
L 589.211831 -41.96 
L 592.439567 -41.96 
L 595.667304 -41.96 
L 598.89504 -41.96 
L 602.122777 -41.96 
L 605.350513 -41.96 
L 608.57825 -41.96 
L 611.805987 -41.96 
L 615.033723 -41.96 
L 618.26146 -41.96 
L 621.489196 -41.96 
L 624.716933 -41.96 
L 627.944669 -41.96 
L 631.172406 -41.96 
L 634.400142 -41.96 
L 637.627879 -41.96 
L 640.855616 -41.96 
L 644.083352 -41.96 
L 647.311089 -41.96 
L 650.538825 -41.96 
L 653.766562 -41.96 
L 656.994298 -41.96 
L 660.222035 -41.96 
L 663.449771 -41.96 
L 666.677508 -41.96 
L 669.905244 -41.96 
L 673.132981 -41.96 
L 676.360718 -41.96 
L 679.588454 -41.96 
L 682.816191 -41.96 
L 686.043927 -41.96 
L 689.271664 -41.96 
L 692.4994 -41.96 
L 695.727137 -41.96 
L 698.954873 -41.96 
L 702.18261 -41.96 
L 705.410346 -41.96 
L 708.638083 -41.96 
L 711.86582 -41.96 
L 715.093556 -41.96 
L 718.321293 -41.96 
L 721.549029 -41.96 
L 724.776766 -41.96 
L 728.004502 -41.96 
L 731.232239 -41.96 
L 734.459975 -41.96 
L 737.687712 -41.96 
L 740.915448 -41.96 
L 744.143185 -41.96 
L 747.370922 -41.96 
L 750.598658 -41.96 
L 753.826395 -41.96 
L 757.054131 -41.96 
L 760.281868 -41.96 
L 763.509604 -41.96 
L 766.737341 -41.96 
L 769.965077 -41.96 
L 773.192814 -41.96 
L 773.192814 -41.960643 
L 773.192814 -41.960643 
L 769.965077 -41.961258 
L 766.737341 -41.96233 
L 763.509604 -41.964091 
L 760.281868 -41.966802 
L 757.054131 -41.970714 
L 753.826395 -41.975988 
L 750.598658 -41.982601 
L 747.370922 -41.990265 
L 744.143185 -41.998392 
L 740.915448 -42.006137 
L 737.687712 -42.012522 
L 734.459975 -42.01664 
L 731.232239 -42.017863 
L 728.004502 -42.015997 
L 724.776766 -42.011337 
L 721.549029 -42.004584 
L 718.321293 -41.99668 
L 715.093556 -41.988587 
L 711.86582 -41.981106 
L 708.638083 -41.974761 
L 705.410346 -41.96978 
L 702.18261 -41.966138 
L 698.954873 -41.96365 
L 695.727137 -41.962056 
L 692.4994 -41.961098 
L 689.271664 -41.960559 
L 686.043927 -41.960278 
L 682.816191 -41.960151 
L 679.588454 -41.960126 
L 676.360718 -41.960191 
L 673.132981 -41.960377 
L 669.905244 -41.960762 
L 666.677508 -41.961484 
L 663.449771 -41.962751 
L 660.222035 -41.964848 
L 656.994298 -41.968124 
L 653.766562 -41.972958 
L 650.538825 -41.979695 
L 647.311089 -41.988563 
L 644.083352 -41.999595 
L 640.855616 -42.012565 
L 637.627879 -42.026975 
L 634.400142 -42.042093 
L 631.172406 -42.05703 
L 627.944669 -42.070835 
L 624.716933 -42.082585 
L 621.489196 -42.091444 
L 618.26146 -42.096727 
L 615.033723 -42.097942 
L 611.805987 -42.094863 
L 608.57825 -42.0876 
L 605.350513 -42.076651 
L 602.122777 -42.062908 
L 598.89504 -42.047584 
L 595.667304 -42.032077 
L 592.439567 -42.017798 
L 589.211831 -42.006005 
L 585.984094 -41.997686 
L 582.756358 -41.9935 
L 579.528621 -41.993781 
L 576.300885 -41.998589 
L 573.073148 -42.007784 
L 569.845411 -42.021129 
L 566.617675 -42.038397 
L 563.389938 -42.059483 
L 560.162202 -42.084474 
L 556.934465 -42.113626 
L 553.706729 -42.14722 
L 550.478992 -42.185287 
L 547.251256 -42.227259 
L 544.023519 -42.271683 
L 540.795783 -42.316117 
L 537.568046 -42.357353 
L 534.340309 -42.391976 
L 531.112573 -42.41714 
L 527.884836 -42.431327 
L 524.6571 -42.434807 
L 521.429363 -42.429586 
L 518.201627 -42.418835 
L 514.97389 -42.405968 
L 511.746154 -42.393714 
L 508.518417 -42.383495 
L 505.290681 -42.375281 
L 502.062944 -42.367898 
L 498.835207 -42.359578 
L 495.607471 -42.348529 
L 492.379734 -42.333331 
L 489.151998 -42.313154 
L 485.924261 -42.287818 
L 482.696525 -42.257809 
L 479.468788 -42.224277 
L 476.241052 -42.188999 
L 473.013315 -42.154258 
L 469.785578 -42.122622 
L 466.557842 -42.096612 
L 463.330105 -42.078359 
L 460.102369 -42.069302 
L 456.874632 -42.070036 
L 453.646896 -42.08031 
L 450.419159 -42.099197 
L 447.191423 -42.125378 
L 443.963686 -42.157455 
L 440.73595 -42.19423 
L 437.508213 -42.23487 
L 434.280476 -42.27894 
L 431.05274 -42.326307 
L 427.825003 -42.376964 
L 424.597267 -42.430819 
L 421.36953 -42.487492 
L 418.141794 -42.546142 
L 414.914057 -42.605349 
L 411.686321 -42.663087 
L 408.458584 -42.716843 
L 405.230848 -42.763908 
L 402.003111 -42.801833 
L 398.775374 -42.828968 
L 395.547638 -42.844954 
L 392.319901 -42.851045 
L 389.092165 -42.850187 
L 385.864428 -42.846818 
L 382.636692 -42.846428 
L 379.408955 -42.854922 
L 376.181219 -42.877834 
L 372.953482 -42.919471 
L 369.725746 -42.982144 
L 366.498009 -43.065677 
L 363.270272 -43.167411 
L 360.042536 -43.282788 
L 356.814799 -43.406464 
L 353.587063 -43.53367 
L 350.359326 -43.661473 
L 347.13159 -43.789567 
L 343.903853 -43.920376 
L 340.676117 -44.058462 
L 337.44838 -44.209437 
L 334.220643 -44.378688 
L 330.992907 -44.570238 
L 327.76517 -44.785969 
L 324.537434 -45.025264 
L 321.309697 -45.285045 
L 318.081961 -45.560124 
L 314.854224 -45.843835 
L 311.626488 -46.128936 
L 308.398751 -46.408749 
L 305.171015 -46.678459 
L 301.943278 -46.936394 
L 298.715541 -47.185069 
L 295.487805 -47.431756 
L 292.260068 -47.688343 
L 289.032332 -47.970284 
L 285.804595 -48.294499 
L 282.576859 -48.67638 
L 279.349122 -49.126438 
L 276.121386 -49.647565 
L 272.893649 -50.234075 
L 269.665913 -50.873412 
L 266.438176 -51.550605 
L 263.210439 -52.254493 
L 259.982703 -52.983842 
L 256.754966 -53.751209 
L 253.52723 -54.582975 
L 250.299493 -55.515193 
L 247.071757 -56.586289 
L 243.84402 -57.828629 
L 240.616284 -59.261169 
L 237.388547 -60.884789 
L 234.160811 -62.680861 
L 230.933074 -64.612566 
L 227.705337 -66.627924 
L 224.477601 -68.663485 
L 221.249864 -70.647989 
L 218.022128 -72.505706 
L 214.794391 -74.159372 
L 211.566655 -75.532605 
L 208.338918 -76.551759 
L 205.111182 -77.147415 
L 201.883445 -77.256239 
L 198.655708 -76.824382 
L 195.427972 -75.813451 
L 192.200235 -74.209151 
L 188.972499 -72.031141 
L 185.744762 -69.341136 
L 182.517026 -66.245681 
L 179.289289 -62.890835 
L 176.061553 -59.44818 
L 172.833816 -56.094299 
L 169.60608 -52.988145 
L 166.378343 -50.251581 
L 163.150606 -47.957454 
L 159.92287 -46.127299 
L 156.695133 -44.738004 
L 153.467397 -43.734581 
L 150.23966 -43.045159 
L 147.011924 -42.594635 
L 143.784187 -42.314674 
L 140.556451 -42.149272 
L 137.328714 -42.056385 
L 134.100978 -42.00681 
L 130.873241 -41.981669 
z
" style="stroke: #0b0405"/>
    </defs>
    <g clip-path="url(#p5d2134a41b)">
     <use xlink:href="#med8b5b3563" x="0" y="360" style="fill: #0b0405; fill-opacity: 0.25; stroke: #0b0405"/>
    </g>
   </g>
   <g id="matplotlib.axis_1">
    <g id="xtick_1">
     <g id="line2d_1">
      <defs>
       <path id="md701444224" d="M 0 0 
L 0 3.5 
" style="stroke: #000000; stroke-width: 0.8"/>
      </defs>
      <g>
       <use xlink:href="#md701444224" x="164.184656" y="318.04" style="stroke: #000000; stroke-width: 0.8"/>
      </g>
     </g>
     <g id="text_1">
      <!-- 0 -->
      <g transform="translate(161.003406 332.638438) scale(0.1 -0.1)">
       <defs>
        <path id="DejaVuSans-30" d="M 2034 4250 
Q 1547 4250 1301 3770 
Q 1056 3291 1056 2328 
Q 1056 1369 1301 889 
Q 1547 409 2034 409 
Q 2525 409 2770 889 
Q 3016 1369 3016 2328 
Q 3016 3291 2770 3770 
Q 2525 4250 2034 4250 
z
M 2034 4750 
Q 2819 4750 3233 4129 
Q 3647 3509 3647 2328 
Q 3647 1150 3233 529 
Q 2819 -91 2034 -91 
Q 1250 -91 836 529 
Q 422 1150 422 2328 
Q 422 3509 836 4129 
Q 1250 4750 2034 4750 
z
" transform="scale(0.015625)"/>
       </defs>
       <use xlink:href="#DejaVuSans-30"/>
      </g>
     </g>
    </g>
    <g id="xtick_2">
     <g id="line2d_2">
      <g>
       <use xlink:href="#md701444224" x="460.935554" y="318.04" style="stroke: #000000; stroke-width: 0.8"/>
      </g>
     </g>
     <g id="text_2">
      <!-- 500 -->
      <g transform="translate(451.391804 332.638438) scale(0.1 -0.1)">
       <defs>
        <path id="DejaVuSans-35" d="M 691 4666 
L 3169 4666 
L 3169 4134 
L 1269 4134 
L 1269 2991 
Q 1406 3038 1543 3061 
Q 1681 3084 1819 3084 
Q 2600 3084 3056 2656 
Q 3513 2228 3513 1497 
Q 3513 744 3044 326 
Q 2575 -91 1722 -91 
Q 1428 -91 1123 -41 
Q 819 9 494 109 
L 494 744 
Q 775 591 1075 516 
Q 1375 441 1709 441 
Q 2250 441 2565 725 
Q 2881 1009 2881 1497 
Q 2881 1984 2565 2268 
Q 2250 2553 1709 2553 
Q 1456 2553 1204 2497 
Q 953 2441 691 2322 
L 691 4666 
z
" transform="scale(0.015625)"/>
       </defs>
       <use xlink:href="#DejaVuSans-35"/>
       <use xlink:href="#DejaVuSans-30" x="63.623047"/>
       <use xlink:href="#DejaVuSans-30" x="127.246094"/>
      </g>
     </g>
    </g>
    <g id="xtick_3">
     <g id="line2d_3">
      <g>
       <use xlink:href="#md701444224" x="757.686453" y="318.04" style="stroke: #000000; stroke-width: 0.8"/>
      </g>
     </g>
     <g id="text_3">
      <!-- 1000 -->
      <g transform="translate(744.961453 332.638438) scale(0.1 -0.1)">
       <defs>
        <path id="DejaVuSans-31" d="M 794 531 
L 1825 531 
L 1825 4091 
L 703 3866 
L 703 4441 
L 1819 4666 
L 2450 4666 
L 2450 531 
L 3481 531 
L 3481 0 
L 794 0 
L 794 531 
z
" transform="scale(0.015625)"/>
       </defs>
       <use xlink:href="#DejaVuSans-31"/>
       <use xlink:href="#DejaVuSans-30" x="63.623047"/>
       <use xlink:href="#DejaVuSans-30" x="127.246094"/>
       <use xlink:href="#DejaVuSans-30" x="190.869141"/>
      </g>
     </g>
    </g>
    <g id="xtick_4">
     <g id="line2d_4">
      <g>
       <use xlink:href="#md701444224" x="1054.437352" y="318.04" style="stroke: #000000; stroke-width: 0.8"/>
      </g>
     </g>
     <g id="text_4">
      <!-- 1500 -->
      <g transform="translate(1041.712352 332.638438) scale(0.1 -0.1)">
       <use xlink:href="#DejaVuSans-31"/>
       <use xlink:href="#DejaVuSans-35" x="63.623047"/>
       <use xlink:href="#DejaVuSans-30" x="127.246094"/>
       <use xlink:href="#DejaVuSans-30" x="190.869141"/>
      </g>
     </g>
    </g>
    <g id="xtick_5">
     <g id="line2d_5">
      <g>
       <use xlink:href="#md701444224" x="1351.18825" y="318.04" style="stroke: #000000; stroke-width: 0.8"/>
      </g>
     </g>
     <g id="text_5">
      <!-- 2000 -->
      <g transform="translate(1338.46325 332.638438) scale(0.1 -0.1)">
       <defs>
        <path id="DejaVuSans-32" d="M 1228 531 
L 3431 531 
L 3431 0 
L 469 0 
L 469 531 
Q 828 903 1448 1529 
Q 2069 2156 2228 2338 
Q 2531 2678 2651 2914 
Q 2772 3150 2772 3378 
Q 2772 3750 2511 3984 
Q 2250 4219 1831 4219 
Q 1534 4219 1204 4116 
Q 875 4013 500 3803 
L 500 4441 
Q 881 4594 1212 4672 
Q 1544 4750 1819 4750 
Q 2544 4750 2975 4387 
Q 3406 4025 3406 3419 
Q 3406 3131 3298 2873 
Q 3191 2616 2906 2266 
Q 2828 2175 2409 1742 
Q 1991 1309 1228 531 
z
" transform="scale(0.015625)"/>
       </defs>
       <use xlink:href="#DejaVuSans-32"/>
       <use xlink:href="#DejaVuSans-30" x="63.623047"/>
       <use xlink:href="#DejaVuSans-30" x="127.246094"/>
       <use xlink:href="#DejaVuSans-30" x="190.869141"/>
      </g>
     </g>
    </g>
    <g id="text_6">
     <!-- Length -->
     <g transform="translate(723.431175 346.316563) scale(0.1 -0.1)">
      <defs>
       <path id="DejaVuSans-4c" d="M 628 4666 
L 1259 4666 
L 1259 531 
L 3531 531 
L 3531 0 
L 628 0 
L 628 4666 
z
" transform="scale(0.015625)"/>
       <path id="DejaVuSans-65" d="M 3597 1894 
L 3597 1613 
L 953 1613 
Q 991 1019 1311 708 
Q 1631 397 2203 397 
Q 2534 397 2845 478 
Q 3156 559 3463 722 
L 3463 178 
Q 3153 47 2828 -22 
Q 2503 -91 2169 -91 
Q 1331 -91 842 396 
Q 353 884 353 1716 
Q 353 2575 817 3079 
Q 1281 3584 2069 3584 
Q 2775 3584 3186 3129 
Q 3597 2675 3597 1894 
z
M 3022 2063 
Q 3016 2534 2758 2815 
Q 2500 3097 2075 3097 
Q 1594 3097 1305 2825 
Q 1016 2553 972 2059 
L 3022 2063 
z
" transform="scale(0.015625)"/>
       <path id="DejaVuSans-6e" d="M 3513 2113 
L 3513 0 
L 2938 0 
L 2938 2094 
Q 2938 2591 2744 2837 
Q 2550 3084 2163 3084 
Q 1697 3084 1428 2787 
Q 1159 2491 1159 1978 
L 1159 0 
L 581 0 
L 581 3500 
L 1159 3500 
L 1159 2956 
Q 1366 3272 1645 3428 
Q 1925 3584 2291 3584 
Q 2894 3584 3203 3211 
Q 3513 2838 3513 2113 
z
" transform="scale(0.015625)"/>
       <path id="DejaVuSans-67" d="M 2906 1791 
Q 2906 2416 2648 2759 
Q 2391 3103 1925 3103 
Q 1463 3103 1205 2759 
Q 947 2416 947 1791 
Q 947 1169 1205 825 
Q 1463 481 1925 481 
Q 2391 481 2648 825 
Q 2906 1169 2906 1791 
z
M 3481 434 
Q 3481 -459 3084 -895 
Q 2688 -1331 1869 -1331 
Q 1566 -1331 1297 -1286 
Q 1028 -1241 775 -1147 
L 775 -588 
Q 1028 -725 1275 -790 
Q 1522 -856 1778 -856 
Q 2344 -856 2625 -561 
Q 2906 -266 2906 331 
L 2906 616 
Q 2728 306 2450 153 
Q 2172 0 1784 0 
Q 1141 0 747 490 
Q 353 981 353 1791 
Q 353 2603 747 3093 
Q 1141 3584 1784 3584 
Q 2172 3584 2450 3431 
Q 2728 3278 2906 2969 
L 2906 3500 
L 3481 3500 
L 3481 434 
z
" transform="scale(0.015625)"/>
       <path id="DejaVuSans-74" d="M 1172 4494 
L 1172 3500 
L 2356 3500 
L 2356 3053 
L 1172 3053 
L 1172 1153 
Q 1172 725 1289 603 
Q 1406 481 1766 481 
L 2356 481 
L 2356 0 
L 1766 0 
Q 1100 0 847 248 
Q 594 497 594 1153 
L 594 3053 
L 172 3053 
L 172 3500 
L 594 3500 
L 594 4494 
L 1172 4494 
z
" transform="scale(0.015625)"/>
       <path id="DejaVuSans-68" d="M 3513 2113 
L 3513 0 
L 2938 0 
L 2938 2094 
Q 2938 2591 2744 2837 
Q 2550 3084 2163 3084 
Q 1697 3084 1428 2787 
Q 1159 2491 1159 1978 
L 1159 0 
L 581 0 
L 581 4863 
L 1159 4863 
L 1159 2956 
Q 1366 3272 1645 3428 
Q 1925 3584 2291 3584 
Q 2894 3584 3203 3211 
Q 3513 2838 3513 2113 
z
" transform="scale(0.015625)"/>
      </defs>
      <use xlink:href="#DejaVuSans-4c"/>
      <use xlink:href="#DejaVuSans-65" x="53.962891"/>
      <use xlink:href="#DejaVuSans-6e" x="115.486328"/>
      <use xlink:href="#DejaVuSans-67" x="178.865234"/>
      <use xlink:href="#DejaVuSans-74" x="242.341797"/>
      <use xlink:href="#DejaVuSans-68" x="281.550781"/>
     </g>
    </g>
   </g>
   <g id="matplotlib.axis_2">
    <g id="ytick_1">
     <g id="line2d_6">
      <defs>
       <path id="m3c3ef3b542" d="M 0 0 
L -3.5 0 
" style="stroke: #000000; stroke-width: 0.8"/>
      </defs>
      <g>
       <use xlink:href="#m3c3ef3b542" x="66.98" y="318.04" style="stroke: #000000; stroke-width: 0.8"/>
      </g>
     </g>
     <g id="text_7">
      <!-- 0.0000 -->
      <g transform="translate(24.989375 321.839219) scale(0.1 -0.1)">
       <defs>
        <path id="DejaVuSans-2e" d="M 684 794 
L 1344 794 
L 1344 0 
L 684 0 
L 684 794 
z
" transform="scale(0.015625)"/>
       </defs>
       <use xlink:href="#DejaVuSans-30"/>
       <use xlink:href="#DejaVuSans-2e" x="63.623047"/>
       <use xlink:href="#DejaVuSans-30" x="95.410156"/>
       <use xlink:href="#DejaVuSans-30" x="159.033203"/>
       <use xlink:href="#DejaVuSans-30" x="222.65625"/>
       <use xlink:href="#DejaVuSans-30" x="286.279297"/>
      </g>
     </g>
    </g>
    <g id="ytick_2">
     <g id="line2d_7">
      <g>
       <use xlink:href="#m3c3ef3b542" x="66.98" y="283.293117" style="stroke: #000000; stroke-width: 0.8"/>
      </g>
     </g>
     <g id="text_8">
      <!-- 0.0005 -->
      <g transform="translate(24.989375 287.092336) scale(0.1 -0.1)">
       <use xlink:href="#DejaVuSans-30"/>
       <use xlink:href="#DejaVuSans-2e" x="63.623047"/>
       <use xlink:href="#DejaVuSans-30" x="95.410156"/>
       <use xlink:href="#DejaVuSans-30" x="159.033203"/>
       <use xlink:href="#DejaVuSans-30" x="222.65625"/>
       <use xlink:href="#DejaVuSans-35" x="286.279297"/>
      </g>
     </g>
    </g>
    <g id="ytick_3">
     <g id="line2d_8">
      <g>
       <use xlink:href="#m3c3ef3b542" x="66.98" y="248.546235" style="stroke: #000000; stroke-width: 0.8"/>
      </g>
     </g>
     <g id="text_9">
      <!-- 0.0010 -->
      <g transform="translate(24.989375 252.345454) scale(0.1 -0.1)">
       <use xlink:href="#DejaVuSans-30"/>
       <use xlink:href="#DejaVuSans-2e" x="63.623047"/>
       <use xlink:href="#DejaVuSans-30" x="95.410156"/>
       <use xlink:href="#DejaVuSans-30" x="159.033203"/>
       <use xlink:href="#DejaVuSans-31" x="222.65625"/>
       <use xlink:href="#DejaVuSans-30" x="286.279297"/>
      </g>
     </g>
    </g>
    <g id="ytick_4">
     <g id="line2d_9">
      <g>
       <use xlink:href="#m3c3ef3b542" x="66.98" y="213.799352" style="stroke: #000000; stroke-width: 0.8"/>
      </g>
     </g>
     <g id="text_10">
      <!-- 0.0015 -->
      <g transform="translate(24.989375 217.598571) scale(0.1 -0.1)">
       <use xlink:href="#DejaVuSans-30"/>
       <use xlink:href="#DejaVuSans-2e" x="63.623047"/>
       <use xlink:href="#DejaVuSans-30" x="95.410156"/>
       <use xlink:href="#DejaVuSans-30" x="159.033203"/>
       <use xlink:href="#DejaVuSans-31" x="222.65625"/>
       <use xlink:href="#DejaVuSans-35" x="286.279297"/>
      </g>
     </g>
    </g>
    <g id="ytick_5">
     <g id="line2d_10">
      <g>
       <use xlink:href="#m3c3ef3b542" x="66.98" y="179.05247" style="stroke: #000000; stroke-width: 0.8"/>
      </g>
     </g>
     <g id="text_11">
      <!-- 0.0020 -->
      <g transform="translate(24.989375 182.851688) scale(0.1 -0.1)">
       <use xlink:href="#DejaVuSans-30"/>
       <use xlink:href="#DejaVuSans-2e" x="63.623047"/>
       <use xlink:href="#DejaVuSans-30" x="95.410156"/>
       <use xlink:href="#DejaVuSans-30" x="159.033203"/>
       <use xlink:href="#DejaVuSans-32" x="222.65625"/>
       <use xlink:href="#DejaVuSans-30" x="286.279297"/>
      </g>
     </g>
    </g>
    <g id="ytick_6">
     <g id="line2d_11">
      <g>
       <use xlink:href="#m3c3ef3b542" x="66.98" y="144.305587" style="stroke: #000000; stroke-width: 0.8"/>
      </g>
     </g>
     <g id="text_12">
      <!-- 0.0025 -->
      <g transform="translate(24.989375 148.104806) scale(0.1 -0.1)">
       <use xlink:href="#DejaVuSans-30"/>
       <use xlink:href="#DejaVuSans-2e" x="63.623047"/>
       <use xlink:href="#DejaVuSans-30" x="95.410156"/>
       <use xlink:href="#DejaVuSans-30" x="159.033203"/>
       <use xlink:href="#DejaVuSans-32" x="222.65625"/>
       <use xlink:href="#DejaVuSans-35" x="286.279297"/>
      </g>
     </g>
    </g>
    <g id="ytick_7">
     <g id="line2d_12">
      <g>
       <use xlink:href="#m3c3ef3b542" x="66.98" y="109.558705" style="stroke: #000000; stroke-width: 0.8"/>
      </g>
     </g>
     <g id="text_13">
      <!-- 0.0030 -->
      <g transform="translate(24.989375 113.357923) scale(0.1 -0.1)">
       <defs>
        <path id="DejaVuSans-33" d="M 2597 2516 
Q 3050 2419 3304 2112 
Q 3559 1806 3559 1356 
Q 3559 666 3084 287 
Q 2609 -91 1734 -91 
Q 1441 -91 1130 -33 
Q 819 25 488 141 
L 488 750 
Q 750 597 1062 519 
Q 1375 441 1716 441 
Q 2309 441 2620 675 
Q 2931 909 2931 1356 
Q 2931 1769 2642 2001 
Q 2353 2234 1838 2234 
L 1294 2234 
L 1294 2753 
L 1863 2753 
Q 2328 2753 2575 2939 
Q 2822 3125 2822 3475 
Q 2822 3834 2567 4026 
Q 2313 4219 1838 4219 
Q 1578 4219 1281 4162 
Q 984 4106 628 3988 
L 628 4550 
Q 988 4650 1302 4700 
Q 1616 4750 1894 4750 
Q 2613 4750 3031 4423 
Q 3450 4097 3450 3541 
Q 3450 3153 3228 2886 
Q 3006 2619 2597 2516 
z
" transform="scale(0.015625)"/>
       </defs>
       <use xlink:href="#DejaVuSans-30"/>
       <use xlink:href="#DejaVuSans-2e" x="63.623047"/>
       <use xlink:href="#DejaVuSans-30" x="95.410156"/>
       <use xlink:href="#DejaVuSans-30" x="159.033203"/>
       <use xlink:href="#DejaVuSans-33" x="222.65625"/>
       <use xlink:href="#DejaVuSans-30" x="286.279297"/>
      </g>
     </g>
    </g>
    <g id="ytick_8">
     <g id="line2d_13">
      <g>
       <use xlink:href="#m3c3ef3b542" x="66.98" y="74.811822" style="stroke: #000000; stroke-width: 0.8"/>
      </g>
     </g>
     <g id="text_14">
      <!-- 0.0035 -->
      <g transform="translate(24.989375 78.611041) scale(0.1 -0.1)">
       <use xlink:href="#DejaVuSans-30"/>
       <use xlink:href="#DejaVuSans-2e" x="63.623047"/>
       <use xlink:href="#DejaVuSans-30" x="95.410156"/>
       <use xlink:href="#DejaVuSans-30" x="159.033203"/>
       <use xlink:href="#DejaVuSans-33" x="222.65625"/>
       <use xlink:href="#DejaVuSans-35" x="286.279297"/>
      </g>
     </g>
    </g>
    <g id="ytick_9">
     <g id="line2d_14">
      <g>
       <use xlink:href="#m3c3ef3b542" x="66.98" y="40.064939" style="stroke: #000000; stroke-width: 0.8"/>
      </g>
     </g>
     <g id="text_15">
      <!-- 0.0040 -->
      <g transform="translate(24.989375 43.864158) scale(0.1 -0.1)">
       <defs>
        <path id="DejaVuSans-34" d="M 2419 4116 
L 825 1625 
L 2419 1625 
L 2419 4116 
z
M 2253 4666 
L 3047 4666 
L 3047 1625 
L 3713 1625 
L 3713 1100 
L 3047 1100 
L 3047 0 
L 2419 0 
L 2419 1100 
L 313 1100 
L 313 1709 
L 2253 4666 
z
" transform="scale(0.015625)"/>
       </defs>
       <use xlink:href="#DejaVuSans-30"/>
       <use xlink:href="#DejaVuSans-2e" x="63.623047"/>
       <use xlink:href="#DejaVuSans-30" x="95.410156"/>
       <use xlink:href="#DejaVuSans-30" x="159.033203"/>
       <use xlink:href="#DejaVuSans-34" x="222.65625"/>
       <use xlink:href="#DejaVuSans-30" x="286.279297"/>
      </g>
     </g>
    </g>
    <g id="text_16">
     <!-- Density -->
     <g transform="translate(18.909688 183.428594) rotate(-90) scale(0.1 -0.1)">
      <defs>
       <path id="DejaVuSans-44" d="M 1259 4147 
L 1259 519 
L 2022 519 
Q 2988 519 3436 956 
Q 3884 1394 3884 2338 
Q 3884 3275 3436 3711 
Q 2988 4147 2022 4147 
L 1259 4147 
z
M 628 4666 
L 1925 4666 
Q 3281 4666 3915 4102 
Q 4550 3538 4550 2338 
Q 4550 1131 3912 565 
Q 3275 0 1925 0 
L 628 0 
L 628 4666 
z
" transform="scale(0.015625)"/>
       <path id="DejaVuSans-73" d="M 2834 3397 
L 2834 2853 
Q 2591 2978 2328 3040 
Q 2066 3103 1784 3103 
Q 1356 3103 1142 2972 
Q 928 2841 928 2578 
Q 928 2378 1081 2264 
Q 1234 2150 1697 2047 
L 1894 2003 
Q 2506 1872 2764 1633 
Q 3022 1394 3022 966 
Q 3022 478 2636 193 
Q 2250 -91 1575 -91 
Q 1294 -91 989 -36 
Q 684 19 347 128 
L 347 722 
Q 666 556 975 473 
Q 1284 391 1588 391 
Q 1994 391 2212 530 
Q 2431 669 2431 922 
Q 2431 1156 2273 1281 
Q 2116 1406 1581 1522 
L 1381 1569 
Q 847 1681 609 1914 
Q 372 2147 372 2553 
Q 372 3047 722 3315 
Q 1072 3584 1716 3584 
Q 2034 3584 2315 3537 
Q 2597 3491 2834 3397 
z
" transform="scale(0.015625)"/>
       <path id="DejaVuSans-69" d="M 603 3500 
L 1178 3500 
L 1178 0 
L 603 0 
L 603 3500 
z
M 603 4863 
L 1178 4863 
L 1178 4134 
L 603 4134 
L 603 4863 
z
" transform="scale(0.015625)"/>
       <path id="DejaVuSans-79" d="M 2059 -325 
Q 1816 -950 1584 -1140 
Q 1353 -1331 966 -1331 
L 506 -1331 
L 506 -850 
L 844 -850 
Q 1081 -850 1212 -737 
Q 1344 -625 1503 -206 
L 1606 56 
L 191 3500 
L 800 3500 
L 1894 763 
L 2988 3500 
L 3597 3500 
L 2059 -325 
z
" transform="scale(0.015625)"/>
      </defs>
      <use xlink:href="#DejaVuSans-44"/>
      <use xlink:href="#DejaVuSans-65" x="77.001953"/>
      <use xlink:href="#DejaVuSans-6e" x="138.525391"/>
      <use xlink:href="#DejaVuSans-73" x="201.904297"/>
      <use xlink:href="#DejaVuSans-69" x="254.003906"/>
      <use xlink:href="#DejaVuSans-74" x="281.787109"/>
      <use xlink:href="#DejaVuSans-79" x="320.996094"/>
     </g>
    </g>
   </g>
   <g id="patch_3">
    <path d="M 66.98 318.04 
L 66.98 10.8 
" style="fill: none; stroke: #000000; stroke-width: 0.8; stroke-linejoin: miter; stroke-linecap: square"/>
   </g>
   <g id="patch_4">
    <path d="M 66.98 318.04 
L 1414.3761 318.04 
" style="fill: none; stroke: #000000; stroke-width: 0.8; stroke-linejoin: miter; stroke-linecap: square"/>
   </g>
  </g>
  <g id="legend_1">
   <g id="text_17">
    <!-- Rating -->
    <g transform="translate(1440.090781 146.064063) scale(0.1 -0.1)">
     <defs>
      <path id="DejaVuSans-52" d="M 2841 2188 
Q 3044 2119 3236 1894 
Q 3428 1669 3622 1275 
L 4263 0 
L 3584 0 
L 2988 1197 
Q 2756 1666 2539 1819 
Q 2322 1972 1947 1972 
L 1259 1972 
L 1259 0 
L 628 0 
L 628 4666 
L 2053 4666 
Q 2853 4666 3247 4331 
Q 3641 3997 3641 3322 
Q 3641 2881 3436 2590 
Q 3231 2300 2841 2188 
z
M 1259 4147 
L 1259 2491 
L 2053 2491 
Q 2509 2491 2742 2702 
Q 2975 2913 2975 3322 
Q 2975 3731 2742 3939 
Q 2509 4147 2053 4147 
L 1259 4147 
z
" transform="scale(0.015625)"/>
      <path id="DejaVuSans-61" d="M 2194 1759 
Q 1497 1759 1228 1600 
Q 959 1441 959 1056 
Q 959 750 1161 570 
Q 1363 391 1709 391 
Q 2188 391 2477 730 
Q 2766 1069 2766 1631 
L 2766 1759 
L 2194 1759 
z
M 3341 1997 
L 3341 0 
L 2766 0 
L 2766 531 
Q 2569 213 2275 61 
Q 1981 -91 1556 -91 
Q 1019 -91 701 211 
Q 384 513 384 1019 
Q 384 1609 779 1909 
Q 1175 2209 1959 2209 
L 2766 2209 
L 2766 2266 
Q 2766 2663 2505 2880 
Q 2244 3097 1772 3097 
Q 1472 3097 1187 3025 
Q 903 2953 641 2809 
L 641 3341 
Q 956 3463 1253 3523 
Q 1550 3584 1831 3584 
Q 2591 3584 2966 3190 
Q 3341 2797 3341 1997 
z
" transform="scale(0.015625)"/>
     </defs>
     <use xlink:href="#DejaVuSans-52"/>
     <use xlink:href="#DejaVuSans-61" x="67.232422"/>
     <use xlink:href="#DejaVuSans-74" x="128.511719"/>
     <use xlink:href="#DejaVuSans-69" x="167.720703"/>
     <use xlink:href="#DejaVuSans-6e" x="195.503906"/>
     <use xlink:href="#DejaVuSans-67" x="258.882812"/>
    </g>
   </g>
   <g id="patch_5">
    <path d="M 1439.0275 160.742188 
L 1459.0275 160.742188 
L 1459.0275 153.742188 
L 1439.0275 153.742188 
z
" style="fill: #0b0405; fill-opacity: 0.25; stroke: #0b0405; stroke-linejoin: miter"/>
   </g>
   <g id="text_18">
    <!-- 1 -->
    <g transform="translate(1467.0275 160.742188) scale(0.1 -0.1)">
     <use xlink:href="#DejaVuSans-31"/>
    </g>
   </g>
   <g id="patch_6">
    <path d="M 1439.0275 175.420313 
L 1459.0275 175.420313 
L 1459.0275 168.420313 
L 1439.0275 168.420313 
z
" style="fill: #3e356b; fill-opacity: 0.25; stroke: #3e356b; stroke-linejoin: miter"/>
   </g>
   <g id="text_19">
    <!-- 2 -->
    <g transform="translate(1467.0275 175.420313) scale(0.1 -0.1)">
     <use xlink:href="#DejaVuSans-32"/>
    </g>
   </g>
   <g id="patch_7">
    <path d="M 1439.0275 190.098438 
L 1459.0275 190.098438 
L 1459.0275 183.098438 
L 1439.0275 183.098438 
z
" style="fill: #357ba3; fill-opacity: 0.25; stroke: #357ba3; stroke-linejoin: miter"/>
   </g>
   <g id="text_20">
    <!-- 3 -->
    <g transform="translate(1467.0275 190.098438) scale(0.1 -0.1)">
     <use xlink:href="#DejaVuSans-33"/>
    </g>
   </g>
   <g id="patch_8">
    <path d="M 1439.0275 204.776563 
L 1459.0275 204.776563 
L 1459.0275 197.776563 
L 1439.0275 197.776563 
z
" style="fill: #4bc2ad; fill-opacity: 0.25; stroke: #4bc2ad; stroke-linejoin: miter"/>
   </g>
   <g id="text_21">
    <!-- 4 -->
    <g transform="translate(1467.0275 204.776563) scale(0.1 -0.1)">
     <use xlink:href="#DejaVuSans-34"/>
    </g>
   </g>
   <g id="patch_9">
    <path d="M 1439.0275 219.454688 
L 1459.0275 219.454688 
L 1459.0275 212.454688 
L 1439.0275 212.454688 
z
" style="fill: #def5e5; fill-opacity: 0.25; stroke: #def5e5; stroke-linejoin: miter"/>
   </g>
   <g id="text_22">
    <!-- 5 -->
    <g transform="translate(1467.0275 219.454688) scale(0.1 -0.1)">
     <use xlink:href="#DejaVuSans-35"/>
    </g>
   </g>
  </g>
 </g>
 <defs>
  <clipPath id="p5d2134a41b">
   <rect x="66.98" y="10.8" width="1347.3961" height="307.24"/>
  </clipPath>
 </defs>
</svg>
