<?xml version="1.0" encoding="utf-8" standalone="no"?>
<!DOCTYPE svg PUBLIC "-//W3C//DTD SVG 1.1//EN"
  "http://www.w3.org/Graphics/SVG/1.1/DTD/svg11.dtd">
<svg xmlns:xlink="http://www.w3.org/1999/xlink" width="1482.39pt" height="360pt" viewBox="0 0 1482.39 360" xmlns="http://www.w3.org/2000/svg" version="1.1">
 <metadata>
  <rdf:RDF xmlns:dc="http://purl.org/dc/elements/1.1/" xmlns:cc="http://creativecommons.org/ns#" xmlns:rdf="http://www.w3.org/1999/02/22-rdf-syntax-ns#">
   <cc:Work>
    <dc:type rdf:resource="http://purl.org/dc/dcmitype/StillImage"/>
    <dc:date>2024-08-26T17:05:29.545492</dc:date>
    <dc:format>image/svg+xml</dc:format>
    <dc:creator>
     <cc:Agent>
      <dc:title>Matplotlib v3.8.4, https://matplotlib.org/</dc:title>
     </cc:Agent>
    </dc:creator>
   </cc:Work>
  </rdf:RDF>
 </metadata>
 <defs>
  <style type="text/css">*{stroke-linejoin: round; stroke-linecap: butt}</style>
 </defs>
 <g id="figure_1">
  <g id="patch_1">
   <path d="M 0 360 
L 1482.39 360 
L 1482.39 0 
L 0 0 
z
" style="fill: #ffffff"/>
  </g>
  <g id="axes_1">
   <g id="patch_2">
    <path d="M 66.98 318.04 
L 1414.3761 318.04 
L 1414.3761 10.8 
L 66.98 10.8 
z
" style="fill: #ffffff"/>
   </g>
   <g id="PolyCollection_1">
    <defs>
     <path id="m8554c3104b" d="M 237.901776 -41.999381 
L 237.901776 -41.96 
L 243.505942 -41.96 
L 249.110108 -41.96 
L 254.714274 -41.96 
L 260.31844 -41.96 
L 265.922606 -41.96 
L 271.526772 -41.96 
L 277.130939 -41.96 
L 282.735105 -41.96 
L 288.339271 -41.96 
L 293.943437 -41.96 
L 299.547603 -41.96 
L 305.151769 -41.96 
L 310.755935 -41.96 
L 316.360101 -41.96 
L 321.964267 -41.96 
L 327.568433 -41.96 
L 333.172599 -41.96 
L 338.776765 -41.96 
L 344.380931 -41.96 
L 349.985097 -41.96 
L 355.589263 -41.96 
L 361.193429 -41.96 
L 366.797596 -41.96 
L 372.401762 -41.96 
L 378.005928 -41.96 
L 383.610094 -41.96 
L 389.21426 -41.96 
L 394.818426 -41.96 
L 400.422592 -41.96 
L 406.026758 -41.96 
L 411.630924 -41.96 
L 417.23509 -41.96 
L 422.839256 -41.96 
L 428.443422 -41.96 
L 434.047588 -41.96 
L 439.651754 -41.96 
L 445.25592 -41.96 
L 450.860086 -41.96 
L 456.464253 -41.96 
L 462.068419 -41.96 
L 467.672585 -41.96 
L 473.276751 -41.96 
L 478.880917 -41.96 
L 484.485083 -41.96 
L 490.089249 -41.96 
L 495.693415 -41.96 
L 501.297581 -41.96 
L 506.901747 -41.96 
L 512.505913 -41.96 
L 518.110079 -41.96 
L 523.714245 -41.96 
L 529.318411 -41.96 
L 534.922577 -41.96 
L 540.526743 -41.96 
L 546.13091 -41.96 
L 551.735076 -41.96 
L 557.339242 -41.96 
L 562.943408 -41.96 
L 568.547574 -41.96 
L 574.15174 -41.96 
L 579.755906 -41.96 
L 585.360072 -41.96 
L 590.964238 -41.96 
L 596.568404 -41.96 
L 602.17257 -41.96 
L 607.776736 -41.96 
L 613.380902 -41.96 
L 618.985068 -41.96 
L 624.589234 -41.96 
L 630.193401 -41.96 
L 635.797567 -41.96 
L 641.401733 -41.96 
L 647.005899 -41.96 
L 652.610065 -41.96 
L 658.214231 -41.96 
L 663.818397 -41.96 
L 669.422563 -41.96 
L 675.026729 -41.96 
L 680.630895 -41.96 
L 686.235061 -41.96 
L 691.839227 -41.96 
L 697.443393 -41.96 
L 703.047559 -41.96 
L 708.651725 -41.96 
L 714.255891 -41.96 
L 719.860058 -41.96 
L 725.464224 -41.96 
L 731.06839 -41.96 
L 736.672556 -41.96 
L 742.276722 -41.96 
L 747.880888 -41.96 
L 753.485054 -41.96 
L 759.08922 -41.96 
L 764.693386 -41.96 
L 770.297552 -41.96 
L 775.901718 -41.96 
L 781.505884 -41.96 
L 787.11005 -41.96 
L 792.714216 -41.96 
L 798.318382 -41.96 
L 803.922548 -41.96 
L 809.526715 -41.96 
L 815.130881 -41.96 
L 820.735047 -41.96 
L 826.339213 -41.96 
L 831.943379 -41.96 
L 837.547545 -41.96 
L 843.151711 -41.96 
L 848.755877 -41.96 
L 854.360043 -41.96 
L 859.964209 -41.96 
L 865.568375 -41.96 
L 871.172541 -41.96 
L 876.776707 -41.96 
L 882.380873 -41.96 
L 887.985039 -41.96 
L 893.589206 -41.96 
L 899.193372 -41.96 
L 904.797538 -41.96 
L 910.401704 -41.96 
L 916.00587 -41.96 
L 921.610036 -41.96 
L 927.214202 -41.96 
L 932.818368 -41.96 
L 938.422534 -41.96 
L 944.0267 -41.96 
L 949.630866 -41.96 
L 955.235032 -41.96 
L 960.839198 -41.96 
L 966.443364 -41.96 
L 972.04753 -41.96 
L 977.651696 -41.96 
L 983.255863 -41.96 
L 988.860029 -41.96 
L 994.464195 -41.96 
L 1000.068361 -41.96 
L 1005.672527 -41.96 
L 1011.276693 -41.96 
L 1016.880859 -41.96 
L 1022.485025 -41.96 
L 1028.089191 -41.96 
L 1033.693357 -41.96 
L 1039.297523 -41.96 
L 1044.901689 -41.96 
L 1050.505855 -41.96 
L 1056.110021 -41.96 
L 1061.714187 -41.96 
L 1067.318353 -41.96 
L 1072.92252 -41.96 
L 1078.526686 -41.96 
L 1084.130852 -41.96 
L 1089.735018 -41.96 
L 1095.339184 -41.96 
L 1100.94335 -41.96 
L 1106.547516 -41.96 
L 1112.151682 -41.96 
L 1117.755848 -41.96 
L 1123.360014 -41.96 
L 1128.96418 -41.96 
L 1134.568346 -41.96 
L 1140.172512 -41.96 
L 1145.776678 -41.96 
L 1151.380844 -41.96 
L 1156.98501 -41.96 
L 1162.589177 -41.96 
L 1168.193343 -41.96 
L 1173.797509 -41.96 
L 1179.401675 -41.96 
L 1185.005841 -41.96 
L 1190.610007 -41.96 
L 1196.214173 -41.96 
L 1201.818339 -41.96 
L 1207.422505 -41.96 
L 1213.026671 -41.96 
L 1218.630837 -41.96 
L 1224.235003 -41.96 
L 1229.839169 -41.96 
L 1235.443335 -41.96 
L 1241.047501 -41.96 
L 1246.651668 -41.96 
L 1252.255834 -41.96 
L 1257.86 -41.96 
L 1263.464166 -41.96 
L 1269.068332 -41.96 
L 1274.672498 -41.96 
L 1280.276664 -41.96 
L 1285.88083 -41.96 
L 1291.484996 -41.96 
L 1297.089162 -41.96 
L 1302.693328 -41.96 
L 1308.297494 -41.96 
L 1313.90166 -41.96 
L 1319.505826 -41.96 
L 1325.109992 -41.96 
L 1330.714158 -41.96 
L 1336.318325 -41.96 
L 1341.922491 -41.96 
L 1347.526657 -41.96 
L 1353.130823 -41.96 
L 1353.130823 -41.96192 
L 1353.130823 -41.96192 
L 1347.526657 -41.969912 
L 1341.922491 -41.995318 
L 1336.318325 -42.046851 
L 1330.714158 -42.107397 
L 1325.109992 -42.132637 
L 1319.505826 -42.099546 
L 1313.90166 -42.037846 
L 1308.297494 -41.98997 
L 1302.693328 -41.967963 
L 1297.089162 -41.96146 
L 1291.484996 -41.960185 
L 1285.88083 -41.960016 
L 1280.276664 -41.960001 
L 1274.672498 -41.96 
L 1269.068332 -41.96 
L 1263.464166 -41.96 
L 1257.86 -41.96 
L 1252.255834 -41.96 
L 1246.651668 -41.96 
L 1241.047501 -41.96 
L 1235.443335 -41.96 
L 1229.839169 -41.96 
L 1224.235003 -41.96 
L 1218.630837 -41.96 
L 1213.026671 -41.96 
L 1207.422505 -41.96 
L 1201.818339 -41.96 
L 1196.214173 -41.96 
L 1190.610007 -41.96 
L 1185.005841 -41.96 
L 1179.401675 -41.96 
L 1173.797509 -41.96 
L 1168.193343 -41.96 
L 1162.589177 -41.96 
L 1156.98501 -41.96 
L 1151.380844 -41.96 
L 1145.776678 -41.96 
L 1140.172512 -41.96 
L 1134.568346 -41.96 
L 1128.96418 -41.96 
L 1123.360014 -41.96 
L 1117.755848 -41.96 
L 1112.151682 -41.96 
L 1106.547516 -41.96 
L 1100.94335 -41.96 
L 1095.339184 -41.96 
L 1089.735018 -41.96 
L 1084.130852 -41.96 
L 1078.526686 -41.96 
L 1072.92252 -41.96 
L 1067.318353 -41.96 
L 1061.714187 -41.96 
L 1056.110021 -41.96 
L 1050.505855 -41.96 
L 1044.901689 -41.96 
L 1039.297523 -41.96 
L 1033.693357 -41.96 
L 1028.089191 -41.96 
L 1022.485025 -41.96 
L 1016.880859 -41.96 
L 1011.276693 -41.960001 
L 1005.672527 -41.960017 
L 1000.068361 -41.960191 
L 994.464195 -41.9615 
L 988.860029 -41.968138 
L 983.255863 -41.990467 
L 977.651696 -42.038727 
L 972.04753 -42.100513 
L 966.443364 -42.134043 
L 960.839198 -42.11411 
L 955.235032 -42.074452 
L 949.630866 -42.069999 
L 944.0267 -42.106782 
L 938.422534 -42.134238 
L 932.818368 -42.109833 
L 927.214202 -42.049611 
L 921.610036 -41.997031 
L 916.00587 -41.970563 
L 910.401704 -41.96208 
L 904.797538 -41.960283 
L 899.193372 -41.960026 
L 893.589206 -41.960002 
L 887.985039 -41.96 
L 882.380873 -41.960006 
L 876.776707 -41.960075 
L 871.172541 -41.960686 
L 865.568375 -41.964316 
L 859.964209 -41.978752 
L 854.360043 -42.016223 
L 848.755877 -42.07634 
L 843.151711 -42.12614 
L 837.547545 -42.123741 
L 831.943379 -42.071372 
L 826.339213 -42.012279 
L 820.735047 -41.976936 
L 815.130881 -41.963788 
L 809.526715 -41.960608 
L 803.922548 -41.960319 
L 798.318382 -41.961925 
L 792.714216 -41.969914 
L 787.11005 -41.995323 
L 781.505884 -42.046859 
L 775.901718 -42.107405 
L 770.297552 -42.13267 
L 764.693386 -42.099884 
L 759.08922 -42.040288 
L 753.485054 -42.001993 
L 747.880888 -42.008722 
L 742.276722 -42.056796 
L 736.672556 -42.114121 
L 731.06839 -42.131981 
L 725.464224 -42.095369 
L 719.860058 -42.046141 
L 714.255891 -42.036281 
L 708.651725 -42.075752 
L 703.047559 -42.123765 
L 697.443393 -42.127178 
L 691.839227 -42.078416 
L 686.235061 -42.017936 
L 680.630895 -41.979711 
L 675.026729 -41.965828 
L 669.422563 -41.967856 
L 663.818397 -41.98763 
L 658.214231 -42.033544 
L 652.610065 -42.095632 
L 647.005899 -42.133914 
L 641.401733 -42.121162 
L 635.797567 -42.092469 
L 630.193401 -42.117947 
L 624.589234 -42.228896 
L 618.985068 -42.383621 
L 613.380902 -42.498784 
L 607.776736 -42.513203 
L 602.17257 -42.432568 
L 596.568404 -42.323217 
L 590.964238 -42.25356 
L 585.360072 -42.247269 
L 579.755906 -42.314484 
L 574.15174 -42.464742 
L 568.547574 -42.627999 
L 562.943408 -42.66944 
L 557.339242 -42.557165 
L 551.735076 -42.403782 
L 546.13091 -42.325366 
L 540.526743 -42.37102 
L 534.922577 -42.539045 
L 529.318411 -42.753869 
L 523.714245 -42.86762 
L 518.110079 -42.771388 
L 512.505913 -42.530813 
L 506.901747 -42.351684 
L 501.297581 -42.384656 
L 495.693415 -42.627438 
L 490.089249 -43.005439 
L 484.485083 -43.441951 
L 478.880917 -43.833029 
L 473.276751 -44.075944 
L 467.672585 -44.162382 
L 462.068419 -44.176704 
L 456.464253 -44.218831 
L 450.860086 -44.349548 
L 445.25592 -44.571318 
L 439.651754 -44.844932 
L 434.047588 -45.151137 
L 428.443422 -45.538484 
L 422.839256 -46.054637 
L 417.23509 -46.667865 
L 411.630924 -47.344203 
L 406.026758 -48.149559 
L 400.422592 -49.212501 
L 394.818426 -50.632179 
L 389.21426 -52.503089 
L 383.610094 -54.884829 
L 378.005928 -57.488602 
L 372.401762 -59.745207 
L 366.797596 -61.623347 
L 361.193429 -63.942502 
L 355.589263 -67.543118 
L 349.985097 -72.575028 
L 344.380931 -78.824157 
L 338.776765 -86.624238 
L 333.172599 -97.356876 
L 327.568433 -112.566526 
L 321.964267 -132.669059 
L 316.360101 -157.999705 
L 310.755935 -191.439208 
L 305.151769 -237.416762 
L 299.547603 -292.754612 
L 293.943437 -334.569524 
L 288.339271 -328.013152 
L 282.735105 -263.005512 
L 277.130939 -173.721118 
L 271.526772 -103.773176 
L 265.922606 -66.680774 
L 260.31844 -51.302703 
L 254.714274 -45.301878 
L 249.110108 -42.972324 
L 243.505942 -42.194405 
L 237.901776 -41.999381 
z
" style="stroke: #def5e5"/>
    </defs>
    <g clip-path="url(#p1b3bafa37a)">
     <use xlink:href="#m8554c3104b" x="0" y="360" style="fill: #def5e5; fill-opacity: 0.25; stroke: #def5e5"/>
    </g>
   </g>
   <g id="PolyCollection_2">
    <defs>
     <path id="m4d8c6233aa" d="M 214.870815 -41.965413 
L 214.870815 -41.96 
L 217.948975 -41.96 
L 221.027135 -41.96 
L 224.105295 -41.96 
L 227.183454 -41.96 
L 230.261614 -41.96 
L 233.339774 -41.96 
L 236.417934 -41.96 
L 239.496093 -41.96 
L 242.574253 -41.96 
L 245.652413 -41.96 
L 248.730573 -41.96 
L 251.808732 -41.96 
L 254.886892 -41.96 
L 257.965052 -41.96 
L 261.043212 -41.96 
L 264.121371 -41.96 
L 267.199531 -41.96 
L 270.277691 -41.96 
L 273.355851 -41.96 
L 276.43401 -41.96 
L 279.51217 -41.96 
L 282.59033 -41.96 
L 285.66849 -41.96 
L 288.746649 -41.96 
L 291.824809 -41.96 
L 294.902969 -41.96 
L 297.981129 -41.96 
L 301.059289 -41.96 
L 304.137448 -41.96 
L 307.215608 -41.96 
L 310.293768 -41.96 
L 313.371928 -41.96 
L 316.450087 -41.96 
L 319.528247 -41.96 
L 322.606407 -41.96 
L 325.684567 -41.96 
L 328.762726 -41.96 
L 331.840886 -41.96 
L 334.919046 -41.96 
L 337.997206 -41.96 
L 341.075365 -41.96 
L 344.153525 -41.96 
L 347.231685 -41.96 
L 350.309845 -41.96 
L 353.388004 -41.96 
L 356.466164 -41.96 
L 359.544324 -41.96 
L 362.622484 -41.96 
L 365.700643 -41.96 
L 368.778803 -41.96 
L 371.856963 -41.96 
L 374.935123 -41.96 
L 378.013282 -41.96 
L 381.091442 -41.96 
L 384.169602 -41.96 
L 387.247762 -41.96 
L 390.325921 -41.96 
L 393.404081 -41.96 
L 396.482241 -41.96 
L 399.560401 -41.96 
L 402.638561 -41.96 
L 405.71672 -41.96 
L 408.79488 -41.96 
L 411.87304 -41.96 
L 414.9512 -41.96 
L 418.029359 -41.96 
L 421.107519 -41.96 
L 424.185679 -41.96 
L 427.263839 -41.96 
L 430.341998 -41.96 
L 433.420158 -41.96 
L 436.498318 -41.96 
L 439.576478 -41.96 
L 442.654637 -41.96 
L 445.732797 -41.96 
L 448.810957 -41.96 
L 451.889117 -41.96 
L 454.967276 -41.96 
L 458.045436 -41.96 
L 461.123596 -41.96 
L 464.201756 -41.96 
L 467.279915 -41.96 
L 470.358075 -41.96 
L 473.436235 -41.96 
L 476.514395 -41.96 
L 479.592554 -41.96 
L 482.670714 -41.96 
L 485.748874 -41.96 
L 488.827034 -41.96 
L 491.905193 -41.96 
L 494.983353 -41.96 
L 498.061513 -41.96 
L 501.139673 -41.96 
L 504.217833 -41.96 
L 507.295992 -41.96 
L 510.374152 -41.96 
L 513.452312 -41.96 
L 516.530472 -41.96 
L 519.608631 -41.96 
L 522.686791 -41.96 
L 525.764951 -41.96 
L 528.843111 -41.96 
L 531.92127 -41.96 
L 534.99943 -41.96 
L 538.07759 -41.96 
L 541.15575 -41.96 
L 544.233909 -41.96 
L 547.312069 -41.96 
L 550.390229 -41.96 
L 553.468389 -41.96 
L 556.546548 -41.96 
L 559.624708 -41.96 
L 562.702868 -41.96 
L 565.781028 -41.96 
L 568.859187 -41.96 
L 571.937347 -41.96 
L 575.015507 -41.96 
L 578.093667 -41.96 
L 581.171826 -41.96 
L 584.249986 -41.96 
L 587.328146 -41.96 
L 590.406306 -41.96 
L 593.484465 -41.96 
L 596.562625 -41.96 
L 599.640785 -41.96 
L 602.718945 -41.96 
L 605.797105 -41.96 
L 608.875264 -41.96 
L 611.953424 -41.96 
L 615.031584 -41.96 
L 618.109744 -41.96 
L 621.187903 -41.96 
L 624.266063 -41.96 
L 627.344223 -41.96 
L 630.422383 -41.96 
L 633.500542 -41.96 
L 636.578702 -41.96 
L 639.656862 -41.96 
L 642.735022 -41.96 
L 645.813181 -41.96 
L 648.891341 -41.96 
L 651.969501 -41.96 
L 655.047661 -41.96 
L 658.12582 -41.96 
L 661.20398 -41.96 
L 664.28214 -41.96 
L 667.3603 -41.96 
L 670.438459 -41.96 
L 673.516619 -41.96 
L 676.594779 -41.96 
L 679.672939 -41.96 
L 682.751098 -41.96 
L 685.829258 -41.96 
L 688.907418 -41.96 
L 691.985578 -41.96 
L 695.063738 -41.96 
L 698.141897 -41.96 
L 701.220057 -41.96 
L 704.298217 -41.96 
L 707.376377 -41.96 
L 710.454536 -41.96 
L 713.532696 -41.96 
L 716.610856 -41.96 
L 719.689016 -41.96 
L 722.767175 -41.96 
L 725.845335 -41.96 
L 728.923495 -41.96 
L 732.001655 -41.96 
L 735.079814 -41.96 
L 738.157974 -41.96 
L 741.236134 -41.96 
L 744.314294 -41.96 
L 747.392453 -41.96 
L 750.470613 -41.96 
L 753.548773 -41.96 
L 756.626933 -41.96 
L 759.705092 -41.96 
L 762.783252 -41.96 
L 765.861412 -41.96 
L 768.939572 -41.96 
L 772.017731 -41.96 
L 775.095891 -41.96 
L 778.174051 -41.96 
L 781.252211 -41.96 
L 784.33037 -41.96 
L 787.40853 -41.96 
L 790.48669 -41.96 
L 793.56485 -41.96 
L 796.64301 -41.96 
L 799.721169 -41.96 
L 802.799329 -41.96 
L 805.877489 -41.96 
L 808.955649 -41.96 
L 812.033808 -41.96 
L 815.111968 -41.96 
L 818.190128 -41.96 
L 821.268288 -41.96 
L 824.346447 -41.96 
L 827.424607 -41.96 
L 827.424607 -41.961041 
L 827.424607 -41.961041 
L 824.346447 -41.961758 
L 821.268288 -41.962877 
L 818.190128 -41.964564 
L 815.111968 -41.967022 
L 812.033808 -41.970478 
L 808.955649 -41.975168 
L 805.877489 -41.981312 
L 802.799329 -41.989075 
L 799.721169 -41.998534 
L 796.64301 -42.009641 
L 793.56485 -42.022201 
L 790.48669 -42.035865 
L 787.40853 -42.05014 
L 784.33037 -42.064424 
L 781.252211 -42.078054 
L 778.174051 -42.090356 
L 775.095891 -42.100707 
L 772.017731 -42.108576 
L 768.939572 -42.113557 
L 765.861412 -42.115396 
L 762.783252 -42.114 
L 759.705092 -42.10944 
L 756.626933 -42.101948 
L 753.548773 -42.09191 
L 750.470613 -42.07984 
L 747.392453 -42.066354 
L 744.314294 -42.05212 
L 741.236134 -42.037806 
L 738.157974 -42.024026 
L 735.079814 -42.011289 
L 732.001655 -41.999967 
L 728.923495 -41.990276 
L 725.845335 -41.982281 
L 722.767175 -41.975923 
L 719.689016 -41.971045 
L 716.610856 -41.967434 
L 713.532696 -41.964855 
L 710.454536 -41.963078 
L 707.376377 -41.961898 
L 704.298217 -41.96115 
L 701.220057 -41.960704 
L 698.141897 -41.960474 
L 695.063738 -41.960411 
L 691.985578 -41.960499 
L 688.907418 -41.960759 
L 685.829258 -41.961248 
L 682.751098 -41.962061 
L 679.672939 -41.963334 
L 676.594779 -41.965248 
L 673.516619 -41.968019 
L 670.438459 -41.97189 
L 667.3603 -41.977113 
L 664.28214 -41.983913 
L 661.20398 -41.992457 
L 658.12582 -42.002808 
L 655.047661 -42.014893 
L 651.969501 -42.028476 
L 648.891341 -42.043147 
L 645.813181 -42.05834 
L 642.735022 -42.073361 
L 639.656862 -42.087446 
L 636.578702 -42.099821 
L 633.500542 -42.109773 
L 630.422383 -42.116709 
L 627.344223 -42.120207 
L 624.266063 -42.120053 
L 621.187903 -42.116256 
L 618.109744 -42.109051 
L 615.031584 -42.098876 
L 611.953424 -42.086339 
L 608.875264 -42.072169 
L 605.797105 -42.057149 
L 602.718945 -42.04206 
L 599.640785 -42.027617 
L 596.562625 -42.014429 
L 593.484465 -42.002973 
L 590.406306 -41.993592 
L 587.328146 -41.986523 
L 584.249986 -41.981927 
L 581.171826 -41.97993 
L 578.093667 -41.980659 
L 575.015507 -41.984254 
L 571.937347 -41.99085 
L 568.859187 -42.000542 
L 565.781028 -42.013319 
L 562.702868 -42.028985 
L 559.624708 -42.047101 
L 556.546548 -42.066947 
L 553.468389 -42.087541 
L 550.390229 -42.107715 
L 547.312069 -42.126246 
L 544.233909 -42.142038 
L 541.15575 -42.154288 
L 538.07759 -42.162644 
L 534.99943 -42.167268 
L 531.92127 -42.16882 
L 528.843111 -42.168336 
L 525.764951 -42.167029 
L 522.686791 -42.166056 
L 519.608631 -42.166307 
L 516.530472 -42.16826 
L 513.452312 -42.171948 
L 510.374152 -42.177052 
L 507.295992 -42.183089 
L 504.217833 -42.189661 
L 501.139673 -42.196709 
L 498.061513 -42.204701 
L 494.983353 -42.214717 
L 491.905193 -42.22839 
L 488.827034 -42.247727 
L 485.748874 -42.274832 
L 482.670714 -42.311568 
L 479.592554 -42.35925 
L 476.514395 -42.418384 
L 473.436235 -42.488529 
L 470.358075 -42.568288 
L 467.279915 -42.65544 
L 464.201756 -42.747198 
L 461.123596 -42.840561 
L 458.045436 -42.932713 
L 454.967276 -43.021415 
L 451.889117 -43.105321 
L 448.810957 -43.184169 
L 445.732797 -43.258802 
L 442.654637 -43.33099 
L 439.576478 -43.403081 
L 436.498318 -43.477528 
L 433.420158 -43.556373 
L 430.341998 -43.640792 
L 427.263839 -43.730792 
L 424.185679 -43.825127 
L 421.107519 -43.921472 
L 418.029359 -44.016807 
L 414.9512 -44.107957 
L 411.87304 -44.192178 
L 408.79488 -44.267681 
L 405.71672 -44.333999 
L 402.638561 -44.39215 
L 399.560401 -44.444575 
L 396.482241 -44.494892 
L 393.404081 -44.547524 
L 390.325921 -44.60728 
L 387.247762 -44.678969 
L 384.169602 -44.767098 
L 381.091442 -44.875689 
L 378.013282 -45.008208 
L 374.935123 -45.167575 
L 371.856963 -45.356221 
L 368.778803 -45.576153 
L 365.700643 -45.82902 
L 362.622484 -46.116185 
L 359.544324 -46.438875 
L 356.466164 -46.798437 
L 353.388004 -47.196775 
L 350.309845 -47.636945 
L 347.231685 -48.123852 
L 344.153525 -48.664927 
L 341.075365 -49.270578 
L 337.997206 -49.954218 
L 334.919046 -50.731657 
L 331.840886 -51.619727 
L 328.762726 -52.634044 
L 325.684567 -53.785981 
L 322.606407 -55.079013 
L 319.528247 -56.504786 
L 316.450087 -58.039428 
L 313.371928 -59.640796 
L 310.293768 -61.247414 
L 307.215608 -62.779884 
L 304.137448 -64.145255 
L 301.059289 -65.244463 
L 297.981129 -65.982298 
L 294.902969 -66.27873 
L 291.824809 -66.07987 
L 288.746649 -65.366627 
L 285.66849 -64.159303 
L 282.59033 -62.517015 
L 279.51217 -60.531782 
L 276.43401 -58.318157 
L 273.355851 -56.000178 
L 270.277691 -53.697862 
L 267.199531 -51.515434 
L 264.121371 -49.532977 
L 261.043212 -47.802348 
L 257.965052 -46.347333 
L 254.886892 -45.167232 
L 251.808732 -44.24263 
L 248.730573 -43.542004 
L 245.652413 -43.027995 
L 242.574253 -42.66254 
L 239.496093 -42.41049 
L 236.417934 -42.241712 
L 233.339774 -42.131883 
L 230.261614 -42.062369 
L 227.183454 -42.019541 
L 224.105295 -41.993833 
L 221.027135 -41.978788 
L 217.948975 -41.970199 
L 214.870815 -41.965413 
z
" style="stroke: #4bc2ad"/>
    </defs>
    <g clip-path="url(#p1b3bafa37a)">
     <use xlink:href="#m4d8c6233aa" x="0" y="360" style="fill: #4bc2ad; fill-opacity: 0.25; stroke: #4bc2ad"/>
    </g>
   </g>
   <g id="PolyCollection_3">
    <defs>
     <path id="m1b7fa0c223" d="M 195.295862 -41.963013 
L 195.295862 -41.96 
L 198.041645 -41.96 
L 200.787429 -41.96 
L 203.533213 -41.96 
L 206.278996 -41.96 
L 209.02478 -41.96 
L 211.770564 -41.96 
L 214.516348 -41.96 
L 217.262131 -41.96 
L 220.007915 -41.96 
L 222.753699 -41.96 
L 225.499482 -41.96 
L 228.245266 -41.96 
L 230.99105 -41.96 
L 233.736833 -41.96 
L 236.482617 -41.96 
L 239.228401 -41.96 
L 241.974185 -41.96 
L 244.719968 -41.96 
L 247.465752 -41.96 
L 250.211536 -41.96 
L 252.957319 -41.96 
L 255.703103 -41.96 
L 258.448887 -41.96 
L 261.19467 -41.96 
L 263.940454 -41.96 
L 266.686238 -41.96 
L 269.432022 -41.96 
L 272.177805 -41.96 
L 274.923589 -41.96 
L 277.669373 -41.96 
L 280.415156 -41.96 
L 283.16094 -41.96 
L 285.906724 -41.96 
L 288.652507 -41.96 
L 291.398291 -41.96 
L 294.144075 -41.96 
L 296.889859 -41.96 
L 299.635642 -41.96 
L 302.381426 -41.96 
L 305.12721 -41.96 
L 307.872993 -41.96 
L 310.618777 -41.96 
L 313.364561 -41.96 
L 316.110345 -41.96 
L 318.856128 -41.96 
L 321.601912 -41.96 
L 324.347696 -41.96 
L 327.093479 -41.96 
L 329.839263 -41.96 
L 332.585047 -41.96 
L 335.33083 -41.96 
L 338.076614 -41.96 
L 340.822398 -41.96 
L 343.568182 -41.96 
L 346.313965 -41.96 
L 349.059749 -41.96 
L 351.805533 -41.96 
L 354.551316 -41.96 
L 357.2971 -41.96 
L 360.042884 -41.96 
L 362.788667 -41.96 
L 365.534451 -41.96 
L 368.280235 -41.96 
L 371.026019 -41.96 
L 373.771802 -41.96 
L 376.517586 -41.96 
L 379.26337 -41.96 
L 382.009153 -41.96 
L 384.754937 -41.96 
L 387.500721 -41.96 
L 390.246504 -41.96 
L 392.992288 -41.96 
L 395.738072 -41.96 
L 398.483856 -41.96 
L 401.229639 -41.96 
L 403.975423 -41.96 
L 406.721207 -41.96 
L 409.46699 -41.96 
L 412.212774 -41.96 
L 414.958558 -41.96 
L 417.704342 -41.96 
L 420.450125 -41.96 
L 423.195909 -41.96 
L 425.941693 -41.96 
L 428.687476 -41.96 
L 431.43326 -41.96 
L 434.179044 -41.96 
L 436.924827 -41.96 
L 439.670611 -41.96 
L 442.416395 -41.96 
L 445.162179 -41.96 
L 447.907962 -41.96 
L 450.653746 -41.96 
L 453.39953 -41.96 
L 456.145313 -41.96 
L 458.891097 -41.96 
L 461.636881 -41.96 
L 464.382664 -41.96 
L 467.128448 -41.96 
L 469.874232 -41.96 
L 472.620016 -41.96 
L 475.365799 -41.96 
L 478.111583 -41.96 
L 480.857367 -41.96 
L 483.60315 -41.96 
L 486.348934 -41.96 
L 489.094718 -41.96 
L 491.840502 -41.96 
L 494.586285 -41.96 
L 497.332069 -41.96 
L 500.077853 -41.96 
L 502.823636 -41.96 
L 505.56942 -41.96 
L 508.315204 -41.96 
L 511.060987 -41.96 
L 513.806771 -41.96 
L 516.552555 -41.96 
L 519.298339 -41.96 
L 522.044122 -41.96 
L 524.789906 -41.96 
L 527.53569 -41.96 
L 530.281473 -41.96 
L 533.027257 -41.96 
L 535.773041 -41.96 
L 538.518824 -41.96 
L 541.264608 -41.96 
L 544.010392 -41.96 
L 546.756176 -41.96 
L 549.501959 -41.96 
L 552.247743 -41.96 
L 554.993527 -41.96 
L 557.73931 -41.96 
L 560.485094 -41.96 
L 563.230878 -41.96 
L 565.976661 -41.96 
L 568.722445 -41.96 
L 571.468229 -41.96 
L 574.214013 -41.96 
L 576.959796 -41.96 
L 579.70558 -41.96 
L 582.451364 -41.96 
L 585.197147 -41.96 
L 587.942931 -41.96 
L 590.688715 -41.96 
L 593.434499 -41.96 
L 596.180282 -41.96 
L 598.926066 -41.96 
L 601.67185 -41.96 
L 604.417633 -41.96 
L 607.163417 -41.96 
L 609.909201 -41.96 
L 612.654984 -41.96 
L 615.400768 -41.96 
L 618.146552 -41.96 
L 620.892336 -41.96 
L 623.638119 -41.96 
L 626.383903 -41.96 
L 629.129687 -41.96 
L 631.87547 -41.96 
L 634.621254 -41.96 
L 637.367038 -41.96 
L 640.112821 -41.96 
L 642.858605 -41.96 
L 645.604389 -41.96 
L 648.350173 -41.96 
L 651.095956 -41.96 
L 653.84174 -41.96 
L 656.587524 -41.96 
L 659.333307 -41.96 
L 662.079091 -41.96 
L 664.824875 -41.96 
L 667.570658 -41.96 
L 670.316442 -41.96 
L 673.062226 -41.96 
L 675.80801 -41.96 
L 678.553793 -41.96 
L 681.299577 -41.96 
L 684.045361 -41.96 
L 686.791144 -41.96 
L 689.536928 -41.96 
L 692.282712 -41.96 
L 695.028496 -41.96 
L 697.774279 -41.96 
L 700.520063 -41.96 
L 703.265847 -41.96 
L 706.01163 -41.96 
L 708.757414 -41.96 
L 711.503198 -41.96 
L 714.248981 -41.96 
L 716.994765 -41.96 
L 719.740549 -41.96 
L 722.486333 -41.96 
L 725.232116 -41.96 
L 727.9779 -41.96 
L 730.723684 -41.96 
L 733.469467 -41.96 
L 736.215251 -41.96 
L 738.961035 -41.96 
L 741.706818 -41.96 
L 741.706818 -41.960695 
L 741.706818 -41.960695 
L 738.961035 -41.960955 
L 736.215251 -41.961297 
L 733.469467 -41.961742 
L 730.723684 -41.962312 
L 727.9779 -41.963033 
L 725.232116 -41.963933 
L 722.486333 -41.965041 
L 719.740549 -41.966386 
L 716.994765 -41.967996 
L 714.248981 -41.969896 
L 711.503198 -41.972105 
L 708.757414 -41.974636 
L 706.01163 -41.977491 
L 703.265847 -41.980661 
L 700.520063 -41.984121 
L 697.774279 -41.987836 
L 695.028496 -41.991749 
L 692.282712 -41.995794 
L 689.536928 -41.999885 
L 686.791144 -42.00393 
L 684.045361 -42.007823 
L 681.299577 -42.011458 
L 678.553793 -42.014728 
L 675.80801 -42.017531 
L 673.062226 -42.019776 
L 670.316442 -42.021389 
L 667.570658 -42.022314 
L 664.824875 -42.022521 
L 662.079091 -42.022001 
L 659.333307 -42.020772 
L 656.587524 -42.018878 
L 653.84174 -42.016382 
L 651.095956 -42.013365 
L 648.350173 -42.009925 
L 645.604389 -42.006166 
L 642.858605 -42.002195 
L 640.112821 -41.99812 
L 637.367038 -41.994041 
L 634.621254 -41.990048 
L 631.87547 -41.98622 
L 629.129687 -41.982621 
L 626.383903 -41.979299 
L 623.638119 -41.976287 
L 620.892336 -41.973607 
L 618.146552 -41.971266 
L 615.400768 -41.969263 
L 612.654984 -41.967591 
L 609.909201 -41.966236 
L 607.163417 -41.965185 
L 604.417633 -41.964425 
L 601.67185 -41.963946 
L 598.926066 -41.963742 
L 596.180282 -41.963816 
L 593.434499 -41.964175 
L 590.688715 -41.964836 
L 587.942931 -41.965823 
L 585.197147 -41.967168 
L 582.451364 -41.968911 
L 579.70558 -41.971096 
L 576.959796 -41.973771 
L 574.214013 -41.976989 
L 571.468229 -41.980799 
L 568.722445 -41.985253 
L 565.976661 -41.990393 
L 563.230878 -41.996257 
L 560.485094 -42.002871 
L 557.73931 -42.01025 
L 554.993527 -42.018396 
L 552.247743 -42.027292 
L 549.501959 -42.036908 
L 546.756176 -42.047195 
L 544.010392 -42.058087 
L 541.264608 -42.069502 
L 538.518824 -42.081345 
L 535.773041 -42.093506 
L 533.027257 -42.105865 
L 530.281473 -42.118295 
L 527.53569 -42.130664 
L 524.789906 -42.14284 
L 522.044122 -42.154694 
L 519.298339 -42.166102 
L 516.552555 -42.176952 
L 513.806771 -42.187145 
L 511.060987 -42.196598 
L 508.315204 -42.205251 
L 505.56942 -42.213062 
L 502.823636 -42.220018 
L 500.077853 -42.22613 
L 497.332069 -42.231433 
L 494.586285 -42.235995 
L 491.840502 -42.239904 
L 489.094718 -42.243279 
L 486.348934 -42.246262 
L 483.60315 -42.249018 
L 480.857367 -42.251735 
L 478.111583 -42.25462 
L 475.365799 -42.257901 
L 472.620016 -42.261818 
L 469.874232 -42.26663 
L 467.128448 -42.272603 
L 464.382664 -42.280012 
L 461.636881 -42.289139 
L 458.891097 -42.30026 
L 456.145313 -42.31365 
L 453.39953 -42.329565 
L 450.653746 -42.348244 
L 447.907962 -42.369894 
L 445.162179 -42.394684 
L 442.416395 -42.422732 
L 439.670611 -42.454102 
L 436.924827 -42.488789 
L 434.179044 -42.526715 
L 431.43326 -42.567726 
L 428.687476 -42.611586 
L 425.941693 -42.657981 
L 423.195909 -42.70652 
L 420.450125 -42.756747 
L 417.704342 -42.808148 
L 414.958558 -42.860166 
L 412.212774 -42.912221 
L 409.46699 -42.963727 
L 406.721207 -43.014115 
L 403.975423 -43.062854 
L 401.229639 -43.109477 
L 398.483856 -43.1536 
L 395.738072 -43.194947 
L 392.992288 -43.233369 
L 390.246504 -43.26886 
L 387.500721 -43.301574 
L 384.754937 -43.331833 
L 382.009153 -43.360133 
L 379.26337 -43.387144 
L 376.517586 -43.413704 
L 373.771802 -43.440802 
L 371.026019 -43.469565 
L 368.280235 -43.50122 
L 365.534451 -43.537067 
L 362.788667 -43.578428 
L 360.042884 -43.626603 
L 357.2971 -43.682811 
L 354.551316 -43.748134 
L 351.805533 -43.823455 
L 349.059749 -43.909395 
L 346.313965 -44.006258 
L 343.568182 -44.113981 
L 340.822398 -44.232085 
L 338.076614 -44.359648 
L 335.33083 -44.495281 
L 332.585047 -44.637135 
L 329.839263 -44.782909 
L 327.093479 -44.929893 
L 324.347696 -45.07502 
L 321.601912 -45.214948 
L 318.856128 -45.34615 
L 316.110345 -45.465032 
L 313.364561 -45.568052 
L 310.618777 -45.651855 
L 307.872993 -45.713405 
L 305.12721 -45.750117 
L 302.381426 -45.759971 
L 299.635642 -45.741614 
L 296.889859 -45.694432 
L 294.144075 -45.618599 
L 291.398291 -45.51508 
L 288.652507 -45.385613 
L 285.906724 -45.232643 
L 283.16094 -45.059232 
L 280.415156 -44.868935 
L 277.669373 -44.665659 
L 274.923589 -44.453509 
L 272.177805 -44.236627 
L 269.432022 -44.019036 
L 266.686238 -43.804503 
L 263.940454 -43.596419 
L 261.19467 -43.397702 
L 258.448887 -43.210734 
L 255.703103 -43.037332 
L 252.957319 -42.878739 
L 250.211536 -42.735647 
L 247.465752 -42.608248 
L 244.719968 -42.496291 
L 241.974185 -42.39916 
L 239.228401 -42.315951 
L 236.482617 -42.245554 
L 233.736833 -42.186727 
L 230.99105 -42.138166 
L 228.245266 -42.098561 
L 225.499482 -42.066647 
L 222.753699 -42.041235 
L 220.007915 -42.021237 
L 217.262131 -42.005684 
L 214.516348 -41.993728 
L 211.770564 -41.984643 
L 209.02478 -41.977819 
L 206.278996 -41.972751 
L 203.533213 -41.96903 
L 200.787429 -41.966328 
L 198.041645 -41.964389 
L 195.295862 -41.963013 
z
" style="stroke: #357ba3"/>
    </defs>
    <g clip-path="url(#p1b3bafa37a)">
     <use xlink:href="#m1b7fa0c223" x="0" y="360" style="fill: #357ba3; fill-opacity: 0.25; stroke: #357ba3"/>
    </g>
   </g>
   <g id="PolyCollection_4">
    <defs>
     <path id="md39e5a9ecb" d="M 128.225277 -41.963503 
L 128.225277 -41.96 
L 133.573333 -41.96 
L 138.92139 -41.96 
L 144.269446 -41.96 
L 149.617502 -41.96 
L 154.965558 -41.96 
L 160.313614 -41.96 
L 165.66167 -41.96 
L 171.009727 -41.96 
L 176.357783 -41.96 
L 181.705839 -41.96 
L 187.053895 -41.96 
L 192.401951 -41.96 
L 197.750007 -41.96 
L 203.098064 -41.96 
L 208.44612 -41.96 
L 213.794176 -41.96 
L 219.142232 -41.96 
L 224.490288 -41.96 
L 229.838344 -41.96 
L 235.186401 -41.96 
L 240.534457 -41.96 
L 245.882513 -41.96 
L 251.230569 -41.96 
L 256.578625 -41.96 
L 261.926681 -41.96 
L 267.274738 -41.96 
L 272.622794 -41.96 
L 277.97085 -41.96 
L 283.318906 -41.96 
L 288.666962 -41.96 
L 294.015018 -41.96 
L 299.363075 -41.96 
L 304.711131 -41.96 
L 310.059187 -41.96 
L 315.407243 -41.96 
L 320.755299 -41.96 
L 326.103355 -41.96 
L 331.451412 -41.96 
L 336.799468 -41.96 
L 342.147524 -41.96 
L 347.49558 -41.96 
L 352.843636 -41.96 
L 358.191692 -41.96 
L 363.539749 -41.96 
L 368.887805 -41.96 
L 374.235861 -41.96 
L 379.583917 -41.96 
L 384.931973 -41.96 
L 390.280029 -41.96 
L 395.628086 -41.96 
L 400.976142 -41.96 
L 406.324198 -41.96 
L 411.672254 -41.96 
L 417.02031 -41.96 
L 422.368366 -41.96 
L 427.716423 -41.96 
L 433.064479 -41.96 
L 438.412535 -41.96 
L 443.760591 -41.96 
L 449.108647 -41.96 
L 454.456703 -41.96 
L 459.80476 -41.96 
L 465.152816 -41.96 
L 470.500872 -41.96 
L 475.848928 -41.96 
L 481.196984 -41.96 
L 486.54504 -41.96 
L 491.893097 -41.96 
L 497.241153 -41.96 
L 502.589209 -41.96 
L 507.937265 -41.96 
L 513.285321 -41.96 
L 518.633377 -41.96 
L 523.981434 -41.96 
L 529.32949 -41.96 
L 534.677546 -41.96 
L 540.025602 -41.96 
L 545.373658 -41.96 
L 550.721714 -41.96 
L 556.06977 -41.96 
L 561.417827 -41.96 
L 566.765883 -41.96 
L 572.113939 -41.96 
L 577.461995 -41.96 
L 582.810051 -41.96 
L 588.158107 -41.96 
L 593.506164 -41.96 
L 598.85422 -41.96 
L 604.202276 -41.96 
L 609.550332 -41.96 
L 614.898388 -41.96 
L 620.246444 -41.96 
L 625.594501 -41.96 
L 630.942557 -41.96 
L 636.290613 -41.96 
L 641.638669 -41.96 
L 646.986725 -41.96 
L 652.334781 -41.96 
L 657.682838 -41.96 
L 663.030894 -41.96 
L 668.37895 -41.96 
L 673.727006 -41.96 
L 679.075062 -41.96 
L 684.423118 -41.96 
L 689.771175 -41.96 
L 695.119231 -41.96 
L 700.467287 -41.96 
L 705.815343 -41.96 
L 711.163399 -41.96 
L 716.511455 -41.96 
L 721.859512 -41.96 
L 727.207568 -41.96 
L 732.555624 -41.96 
L 737.90368 -41.96 
L 743.251736 -41.96 
L 748.599792 -41.96 
L 753.947849 -41.96 
L 759.295905 -41.96 
L 764.643961 -41.96 
L 769.992017 -41.96 
L 775.340073 -41.96 
L 780.688129 -41.96 
L 786.036186 -41.96 
L 791.384242 -41.96 
L 796.732298 -41.96 
L 802.080354 -41.96 
L 807.42841 -41.96 
L 812.776466 -41.96 
L 818.124523 -41.96 
L 823.472579 -41.96 
L 828.820635 -41.96 
L 834.168691 -41.96 
L 839.516747 -41.96 
L 844.864803 -41.96 
L 850.21286 -41.96 
L 855.560916 -41.96 
L 860.908972 -41.96 
L 866.257028 -41.96 
L 871.605084 -41.96 
L 876.95314 -41.96 
L 882.301197 -41.96 
L 887.649253 -41.96 
L 892.997309 -41.96 
L 898.345365 -41.96 
L 903.693421 -41.96 
L 909.041477 -41.96 
L 914.389534 -41.96 
L 919.73759 -41.96 
L 925.085646 -41.96 
L 930.433702 -41.96 
L 935.781758 -41.96 
L 941.129814 -41.96 
L 946.477871 -41.96 
L 951.825927 -41.96 
L 957.173983 -41.96 
L 962.522039 -41.96 
L 967.870095 -41.96 
L 973.218151 -41.96 
L 978.566208 -41.96 
L 983.914264 -41.96 
L 989.26232 -41.96 
L 994.610376 -41.96 
L 999.958432 -41.96 
L 1005.306488 -41.96 
L 1010.654545 -41.96 
L 1016.002601 -41.96 
L 1021.350657 -41.96 
L 1026.698713 -41.96 
L 1032.046769 -41.96 
L 1037.394825 -41.96 
L 1042.742882 -41.96 
L 1048.090938 -41.96 
L 1053.438994 -41.96 
L 1058.78705 -41.96 
L 1064.135106 -41.96 
L 1069.483162 -41.96 
L 1074.831219 -41.96 
L 1080.179275 -41.96 
L 1085.527331 -41.96 
L 1090.875387 -41.96 
L 1096.223443 -41.96 
L 1101.571499 -41.96 
L 1106.919556 -41.96 
L 1112.267612 -41.96 
L 1117.615668 -41.96 
L 1122.963724 -41.96 
L 1128.31178 -41.96 
L 1133.659836 -41.96 
L 1139.007893 -41.96 
L 1144.355949 -41.96 
L 1149.704005 -41.96 
L 1155.052061 -41.96 
L 1160.400117 -41.96 
L 1165.748173 -41.96 
L 1171.09623 -41.96 
L 1176.444286 -41.96 
L 1181.792342 -41.96 
L 1187.140398 -41.96 
L 1192.488454 -41.96 
L 1192.488454 -41.960334 
L 1192.488454 -41.960334 
L 1187.140398 -41.960451 
L 1181.792342 -41.960601 
L 1176.444286 -41.960794 
L 1171.09623 -41.961037 
L 1165.748173 -41.961342 
L 1160.400117 -41.961718 
L 1155.052061 -41.962178 
L 1149.704005 -41.962733 
L 1144.355949 -41.963393 
L 1139.007893 -41.964171 
L 1133.659836 -41.965074 
L 1128.31178 -41.96611 
L 1122.963724 -41.967283 
L 1117.615668 -41.968593 
L 1112.267612 -41.970034 
L 1106.919556 -41.971598 
L 1101.571499 -41.97327 
L 1096.223443 -41.975027 
L 1090.875387 -41.976844 
L 1085.527331 -41.978688 
L 1080.179275 -41.980523 
L 1074.831219 -41.982309 
L 1069.483162 -41.984002 
L 1064.135106 -41.985562 
L 1058.78705 -41.986945 
L 1053.438994 -41.988114 
L 1048.090938 -41.989035 
L 1042.742882 -41.989682 
L 1037.394825 -41.990034 
L 1032.046769 -41.990082 
L 1026.698713 -41.989825 
L 1021.350657 -41.989271 
L 1016.002601 -41.988438 
L 1010.654545 -41.987353 
L 1005.306488 -41.986048 
L 999.958432 -41.984564 
L 994.610376 -41.982943 
L 989.26232 -41.98123 
L 983.914264 -41.979474 
L 978.566208 -41.977719 
L 973.218151 -41.976008 
L 967.870095 -41.974383 
L 962.522039 -41.97288 
L 957.173983 -41.971529 
L 951.825927 -41.970359 
L 946.477871 -41.969392 
L 941.129814 -41.968644 
L 935.781758 -41.968128 
L 930.433702 -41.967854 
L 925.085646 -41.967825 
L 919.73759 -41.968042 
L 914.389534 -41.968501 
L 909.041477 -41.969196 
L 903.693421 -41.970114 
L 898.345365 -41.971238 
L 892.997309 -41.972548 
L 887.649253 -41.974019 
L 882.301197 -41.975619 
L 876.95314 -41.977313 
L 871.605084 -41.979062 
L 866.257028 -41.980823 
L 860.908972 -41.982551 
L 855.560916 -41.9842 
L 850.21286 -41.985723 
L 844.864803 -41.987078 
L 839.516747 -41.988223 
L 834.168691 -41.989127 
L 828.820635 -41.98976 
L 823.472579 -41.990105 
L 818.124523 -41.990152 
L 812.776466 -41.989904 
L 807.42841 -41.989369 
L 802.080354 -41.98857 
L 796.732298 -41.987536 
L 791.384242 -41.986304 
L 786.036186 -41.984918 
L 780.688129 -41.983427 
L 775.340073 -41.981882 
L 769.992017 -41.980334 
L 764.643961 -41.978836 
L 759.295905 -41.977435 
L 753.947849 -41.976177 
L 748.599792 -41.975101 
L 743.251736 -41.974241 
L 737.90368 -41.973624 
L 732.555624 -41.973269 
L 727.207568 -41.973187 
L 721.859512 -41.973381 
L 716.511455 -41.973846 
L 711.163399 -41.974571 
L 705.815343 -41.975534 
L 700.467287 -41.976709 
L 695.119231 -41.978062 
L 689.771175 -41.979555 
L 684.423118 -41.981147 
L 679.075062 -41.982792 
L 673.727006 -41.984445 
L 668.37895 -41.986063 
L 663.030894 -41.987605 
L 657.682838 -41.989034 
L 652.334781 -41.990323 
L 646.986725 -41.991452 
L 641.638669 -41.992411 
L 636.290613 -41.993203 
L 630.942557 -41.993839 
L 625.594501 -41.994347 
L 620.246444 -41.994762 
L 614.898388 -41.995132 
L 609.550332 -41.995512 
L 604.202276 -41.995966 
L 598.85422 -41.996563 
L 593.506164 -41.997375 
L 588.158107 -41.998476 
L 582.810051 -41.99994 
L 577.461995 -42.001843 
L 572.113939 -42.004255 
L 566.765883 -42.007249 
L 561.417827 -42.010892 
L 556.06977 -42.015255 
L 550.721714 -42.020407 
L 545.373658 -42.026419 
L 540.025602 -42.033365 
L 534.677546 -42.041324 
L 529.32949 -42.050381 
L 523.981434 -42.060627 
L 518.633377 -42.072159 
L 513.285321 -42.085083 
L 507.937265 -42.09951 
L 502.589209 -42.115556 
L 497.241153 -42.133341 
L 491.893097 -42.152987 
L 486.54504 -42.174618 
L 481.196984 -42.198353 
L 475.848928 -42.224307 
L 470.500872 -42.252589 
L 465.152816 -42.283295 
L 459.80476 -42.316505 
L 454.456703 -42.352283 
L 449.108647 -42.390667 
L 443.760591 -42.431665 
L 438.412535 -42.475248 
L 433.064479 -42.521347 
L 427.716423 -42.569838 
L 422.368366 -42.62054 
L 417.02031 -42.673204 
L 411.672254 -42.727508 
L 406.324198 -42.78305 
L 400.976142 -42.839347 
L 395.628086 -42.895828 
L 390.280029 -42.951843 
L 384.931973 -43.006667 
L 379.583917 -43.059505 
L 374.235861 -43.109517 
L 368.887805 -43.155826 
L 363.539749 -43.197547 
L 358.191692 -43.233812 
L 352.843636 -43.263795 
L 347.49558 -43.286743 
L 342.147524 -43.302006 
L 336.799468 -43.30906 
L 331.451412 -43.307534 
L 326.103355 -43.297228 
L 320.755299 -43.278127 
L 315.407243 -43.250407 
L 310.059187 -43.214438 
L 304.711131 -43.17077 
L 299.363075 -43.120124 
L 294.015018 -43.063369 
L 288.666962 -43.001491 
L 283.318906 -42.935566 
L 277.97085 -42.866721 
L 272.622794 -42.7961 
L 267.274738 -42.72483 
L 261.926681 -42.653983 
L 256.578625 -42.584551 
L 251.230569 -42.517418 
L 245.882513 -42.453344 
L 240.534457 -42.39295 
L 235.186401 -42.336711 
L 229.838344 -42.284958 
L 224.490288 -42.237884 
L 219.142232 -42.195551 
L 213.794176 -42.157907 
L 208.44612 -42.124803 
L 203.098064 -42.09601 
L 197.750007 -42.071238 
L 192.401951 -42.050154 
L 187.053895 -42.032401 
L 181.705839 -42.017611 
L 176.357783 -42.005421 
L 171.009727 -41.995479 
L 165.66167 -41.987456 
L 160.313614 -41.981049 
L 154.965558 -41.975986 
L 149.617502 -41.972026 
L 144.269446 -41.968962 
L 138.92139 -41.966615 
L 133.573333 -41.964837 
L 128.225277 -41.963503 
z
" style="stroke: #3e356b"/>
    </defs>
    <g clip-path="url(#p1b3bafa37a)">
     <use xlink:href="#md39e5a9ecb" x="0" y="360" style="fill: #3e356b; fill-opacity: 0.25; stroke: #3e356b"/>
    </g>
   </g>
   <g id="PolyCollection_5">
    <defs>
     <path id="mc7f9daf87e" d="M 183.56955 -41.96653 
L 183.56955 -41.96 
L 188.997331 -41.96 
L 194.425112 -41.96 
L 199.852893 -41.96 
L 205.280674 -41.96 
L 210.708455 -41.96 
L 216.136236 -41.96 
L 221.564017 -41.96 
L 226.991798 -41.96 
L 232.419579 -41.96 
L 237.84736 -41.96 
L 243.275141 -41.96 
L 248.702922 -41.96 
L 254.130702 -41.96 
L 259.558483 -41.96 
L 264.986264 -41.96 
L 270.414045 -41.96 
L 275.841826 -41.96 
L 281.269607 -41.96 
L 286.697388 -41.96 
L 292.125169 -41.96 
L 297.55295 -41.96 
L 302.980731 -41.96 
L 308.408512 -41.96 
L 313.836293 -41.96 
L 319.264074 -41.96 
L 324.691855 -41.96 
L 330.119636 -41.96 
L 335.547417 -41.96 
L 340.975198 -41.96 
L 346.402979 -41.96 
L 351.830759 -41.96 
L 357.25854 -41.96 
L 362.686321 -41.96 
L 368.114102 -41.96 
L 373.541883 -41.96 
L 378.969664 -41.96 
L 384.397445 -41.96 
L 389.825226 -41.96 
L 395.253007 -41.96 
L 400.680788 -41.96 
L 406.108569 -41.96 
L 411.53635 -41.96 
L 416.964131 -41.96 
L 422.391912 -41.96 
L 427.819693 -41.96 
L 433.247474 -41.96 
L 438.675255 -41.96 
L 444.103036 -41.96 
L 449.530816 -41.96 
L 454.958597 -41.96 
L 460.386378 -41.96 
L 465.814159 -41.96 
L 471.24194 -41.96 
L 476.669721 -41.96 
L 482.097502 -41.96 
L 487.525283 -41.96 
L 492.953064 -41.96 
L 498.380845 -41.96 
L 503.808626 -41.96 
L 509.236407 -41.96 
L 514.664188 -41.96 
L 520.091969 -41.96 
L 525.51975 -41.96 
L 530.947531 -41.96 
L 536.375312 -41.96 
L 541.803093 -41.96 
L 547.230873 -41.96 
L 552.658654 -41.96 
L 558.086435 -41.96 
L 563.514216 -41.96 
L 568.941997 -41.96 
L 574.369778 -41.96 
L 579.797559 -41.96 
L 585.22534 -41.96 
L 590.653121 -41.96 
L 596.080902 -41.96 
L 601.508683 -41.96 
L 606.936464 -41.96 
L 612.364245 -41.96 
L 617.792026 -41.96 
L 623.219807 -41.96 
L 628.647588 -41.96 
L 634.075369 -41.96 
L 639.50315 -41.96 
L 644.93093 -41.96 
L 650.358711 -41.96 
L 655.786492 -41.96 
L 661.214273 -41.96 
L 666.642054 -41.96 
L 672.069835 -41.96 
L 677.497616 -41.96 
L 682.925397 -41.96 
L 688.353178 -41.96 
L 693.780959 -41.96 
L 699.20874 -41.96 
L 704.636521 -41.96 
L 710.064302 -41.96 
L 715.492083 -41.96 
L 720.919864 -41.96 
L 726.347645 -41.96 
L 731.775426 -41.96 
L 737.203207 -41.96 
L 742.630987 -41.96 
L 748.058768 -41.96 
L 753.486549 -41.96 
L 758.91433 -41.96 
L 764.342111 -41.96 
L 769.769892 -41.96 
L 775.197673 -41.96 
L 780.625454 -41.96 
L 786.053235 -41.96 
L 791.481016 -41.96 
L 796.908797 -41.96 
L 802.336578 -41.96 
L 807.764359 -41.96 
L 813.19214 -41.96 
L 818.619921 -41.96 
L 824.047702 -41.96 
L 829.475483 -41.96 
L 834.903264 -41.96 
L 840.331044 -41.96 
L 845.758825 -41.96 
L 851.186606 -41.96 
L 856.614387 -41.96 
L 862.042168 -41.96 
L 867.469949 -41.96 
L 872.89773 -41.96 
L 878.325511 -41.96 
L 883.753292 -41.96 
L 889.181073 -41.96 
L 894.608854 -41.96 
L 900.036635 -41.96 
L 905.464416 -41.96 
L 910.892197 -41.96 
L 916.319978 -41.96 
L 921.747759 -41.96 
L 927.17554 -41.96 
L 932.60332 -41.96 
L 938.031101 -41.96 
L 943.458882 -41.96 
L 948.886663 -41.96 
L 954.314444 -41.96 
L 959.742225 -41.96 
L 965.170006 -41.96 
L 970.597787 -41.96 
L 976.025568 -41.96 
L 981.453349 -41.96 
L 986.88113 -41.96 
L 992.308911 -41.96 
L 997.736692 -41.96 
L 1003.164473 -41.96 
L 1008.592254 -41.96 
L 1014.020035 -41.96 
L 1019.447816 -41.96 
L 1024.875597 -41.96 
L 1030.303377 -41.96 
L 1035.731158 -41.96 
L 1041.158939 -41.96 
L 1046.58672 -41.96 
L 1052.014501 -41.96 
L 1057.442282 -41.96 
L 1062.870063 -41.96 
L 1068.297844 -41.96 
L 1073.725625 -41.96 
L 1079.153406 -41.96 
L 1084.581187 -41.96 
L 1090.008968 -41.96 
L 1095.436749 -41.96 
L 1100.86453 -41.96 
L 1106.292311 -41.96 
L 1111.720092 -41.96 
L 1117.147873 -41.96 
L 1122.575654 -41.96 
L 1128.003434 -41.96 
L 1133.431215 -41.96 
L 1138.858996 -41.96 
L 1144.286777 -41.96 
L 1149.714558 -41.96 
L 1155.142339 -41.96 
L 1160.57012 -41.96 
L 1165.997901 -41.96 
L 1171.425682 -41.96 
L 1176.853463 -41.96 
L 1182.281244 -41.96 
L 1187.709025 -41.96 
L 1193.136806 -41.96 
L 1198.564587 -41.96 
L 1203.992368 -41.96 
L 1209.420149 -41.96 
L 1214.84793 -41.96 
L 1220.275711 -41.96 
L 1225.703491 -41.96 
L 1231.131272 -41.96 
L 1236.559053 -41.96 
L 1241.986834 -41.96 
L 1247.414615 -41.96 
L 1252.842396 -41.96 
L 1258.270177 -41.96 
L 1263.697958 -41.96 
L 1263.697958 -41.960576 
L 1263.697958 -41.960576 
L 1258.270177 -41.960963 
L 1252.842396 -41.961563 
L 1247.414615 -41.962457 
L 1241.986834 -41.963743 
L 1236.559053 -41.965528 
L 1231.131272 -41.967912 
L 1225.703491 -41.970975 
L 1220.275711 -41.974756 
L 1214.84793 -41.979227 
L 1209.420149 -41.984282 
L 1203.992368 -41.989722 
L 1198.564587 -41.99526 
L 1193.136806 -42.000541 
L 1187.709025 -42.005178 
L 1182.281244 -42.008794 
L 1176.853463 -42.011077 
L 1171.425682 -42.01182 
L 1165.997901 -42.010955 
L 1160.57012 -42.00856 
L 1155.142339 -42.004853 
L 1149.714558 -42.000153 
L 1144.286777 -41.994839 
L 1138.858996 -41.989297 
L 1133.431215 -41.983877 
L 1128.003434 -41.978861 
L 1122.575654 -41.97444 
L 1117.147873 -41.970715 
L 1111.720092 -41.967706 
L 1106.292311 -41.965371 
L 1100.86453 -41.963628 
L 1095.436749 -41.962376 
L 1090.008968 -41.961507 
L 1084.581187 -41.960927 
L 1079.153406 -41.960553 
L 1073.725625 -41.960319 
L 1068.297844 -41.960179 
L 1062.870063 -41.960097 
L 1057.442282 -41.960051 
L 1052.014501 -41.960026 
L 1046.58672 -41.960013 
L 1041.158939 -41.960006 
L 1035.731158 -41.960003 
L 1030.303377 -41.960001 
L 1024.875597 -41.960001 
L 1019.447816 -41.96 
L 1014.020035 -41.96 
L 1008.592254 -41.96 
L 1003.164473 -41.96 
L 997.736692 -41.96 
L 992.308911 -41.96 
L 986.88113 -41.96 
L 981.453349 -41.96 
L 976.025568 -41.96 
L 970.597787 -41.96 
L 965.170006 -41.96 
L 959.742225 -41.96 
L 954.314444 -41.96 
L 948.886663 -41.96 
L 943.458882 -41.96 
L 938.031101 -41.96 
L 932.60332 -41.96 
L 927.17554 -41.96 
L 921.747759 -41.96 
L 916.319978 -41.96 
L 910.892197 -41.96 
L 905.464416 -41.96 
L 900.036635 -41.96 
L 894.608854 -41.96 
L 889.181073 -41.96 
L 883.753292 -41.96 
L 878.325511 -41.96 
L 872.89773 -41.96 
L 867.469949 -41.96 
L 862.042168 -41.96 
L 856.614387 -41.96 
L 851.186606 -41.96 
L 845.758825 -41.96 
L 840.331044 -41.96 
L 834.903264 -41.96 
L 829.475483 -41.96 
L 824.047702 -41.96 
L 818.619921 -41.96 
L 813.19214 -41.96 
L 807.764359 -41.96 
L 802.336578 -41.96 
L 796.908797 -41.96 
L 791.481016 -41.96 
L 786.053235 -41.960001 
L 780.625454 -41.960002 
L 775.197673 -41.960004 
L 769.769892 -41.960008 
L 764.342111 -41.960016 
L 758.91433 -41.960033 
L 753.486549 -41.960064 
L 748.058768 -41.96012 
L 742.630987 -41.960218 
L 737.203207 -41.960385 
L 731.775426 -41.96066 
L 726.347645 -41.961096 
L 720.919864 -41.961763 
L 715.492083 -41.962749 
L 710.064302 -41.964155 
L 704.636521 -41.966086 
L 699.20874 -41.968641 
L 693.780959 -41.971891 
L 688.353178 -41.975862 
L 682.925397 -41.980509 
L 677.497616 -41.985709 
L 672.069835 -41.991247 
L 666.642054 -41.996837 
L 661.214273 -42.002142 
L 655.786492 -42.006825 
L 650.358711 -42.010605 
L 644.93093 -42.013322 
L 639.50315 -42.014991 
L 634.075369 -42.015846 
L 628.647588 -42.016358 
L 623.219807 -42.017224 
L 617.792026 -42.019326 
L 612.364245 -42.023658 
L 606.936464 -42.031237 
L 601.508683 -42.042986 
L 596.080902 -42.059628 
L 590.653121 -42.081574 
L 585.22534 -42.108843 
L 579.797559 -42.141009 
L 574.369778 -42.177201 
L 568.941997 -42.216165 
L 563.514216 -42.256364 
L 558.086435 -42.296137 
L 552.658654 -42.33388 
L 547.230873 -42.368218 
L 541.803093 -42.398167 
L 536.375312 -42.423241 
L 530.947531 -42.443499 
L 525.51975 -42.45954 
L 520.091969 -42.472445 
L 514.664188 -42.483677 
L 509.236407 -42.494978 
L 503.808626 -42.508243 
L 498.380845 -42.525416 
L 492.953064 -42.54839 
L 487.525283 -42.578922 
L 482.097502 -42.618565 
L 476.669721 -42.668614 
L 471.24194 -42.73008 
L 465.814159 -42.803689 
L 460.386378 -42.88991 
L 454.958597 -42.989017 
L 449.530816 -43.101162 
L 444.103036 -43.226457 
L 438.675255 -43.365023 
L 433.247474 -43.516995 
L 427.819693 -43.682474 
L 422.391912 -43.861399 
L 416.964131 -44.05339 
L 411.53635 -44.257561 
L 406.108569 -44.472369 
L 400.680788 -44.695534 
L 395.253007 -44.924061 
L 389.825226 -45.154395 
L 384.397445 -45.382672 
L 378.969664 -45.605049 
L 373.541883 -45.818035 
L 368.114102 -46.018753 
L 362.686321 -46.205059 
L 357.25854 -46.375469 
L 351.830759 -46.528883 
L 346.402979 -46.66413 
L 340.975198 -46.779435 
L 335.547417 -46.871899 
L 330.119636 -46.93716 
L 324.691855 -46.969351 
L 319.264074 -46.96144 
L 313.836293 -46.905986 
L 308.408512 -46.796222 
L 302.980731 -46.627307 
L 297.55295 -46.397531 
L 292.125169 -46.109212 
L 286.697388 -45.769089 
L 281.269607 -45.388076 
L 275.841826 -44.980385 
L 270.414045 -44.562156 
L 264.986264 -44.149797 
L 259.558483 -43.758351 
L 254.130702 -43.40012 
L 248.702922 -43.083771 
L 243.275141 -42.813994 
L 237.84736 -42.591696 
L 232.419579 -42.414619 
L 226.991798 -42.278206 
L 221.564017 -42.176546 
L 216.136236 -42.103236 
L 210.708455 -42.052067 
L 205.280674 -42.017494 
L 199.852893 -41.994876 
L 194.425112 -41.980547 
L 188.997331 -41.971755 
L 183.56955 -41.96653 
z
" style="stroke: #0b0405"/>
    </defs>
    <g clip-path="url(#p1b3bafa37a)">
     <use xlink:href="#mc7f9daf87e" x="0" y="360" style="fill: #0b0405; fill-opacity: 0.25; stroke: #0b0405"/>
    </g>
   </g>
   <g id="matplotlib.axis_1">
    <g id="xtick_1">
     <g id="line2d_1">
      <defs>
       <path id="md20d2831f7" d="M 0 0 
L 0 3.5 
" style="stroke: #000000; stroke-width: 0.8"/>
      </defs>
      <g>
       <use xlink:href="#md20d2831f7" x="264.496652" y="318.04" style="stroke: #000000; stroke-width: 0.8"/>
      </g>
     </g>
     <g id="text_1">
      <!-- 0 -->
      <g transform="translate(261.315402 332.638438) scale(0.1 -0.1)">
       <defs>
        <path id="DejaVuSans-30" d="M 2034 4250 
Q 1547 4250 1301 3770 
Q 1056 3291 1056 2328 
Q 1056 1369 1301 889 
Q 1547 409 2034 409 
Q 2525 409 2770 889 
Q 3016 1369 3016 2328 
Q 3016 3291 2770 3770 
Q 2525 4250 2034 4250 
z
M 2034 4750 
Q 2819 4750 3233 4129 
Q 3647 3509 3647 2328 
Q 3647 1150 3233 529 
Q 2819 -91 2034 -91 
Q 1250 -91 836 529 
Q 422 1150 422 2328 
Q 422 3509 836 4129 
Q 1250 4750 2034 4750 
z
" transform="scale(0.015625)"/>
       </defs>
       <use xlink:href="#DejaVuSans-30"/>
      </g>
     </g>
    </g>
    <g id="xtick_2">
     <g id="line2d_2">
      <g>
       <use xlink:href="#md20d2831f7" x="466.982695" y="318.04" style="stroke: #000000; stroke-width: 0.8"/>
      </g>
     </g>
     <g id="text_2">
      <!-- 200 -->
      <g transform="translate(457.438945 332.638438) scale(0.1 -0.1)">
       <defs>
        <path id="DejaVuSans-32" d="M 1228 531 
L 3431 531 
L 3431 0 
L 469 0 
L 469 531 
Q 828 903 1448 1529 
Q 2069 2156 2228 2338 
Q 2531 2678 2651 2914 
Q 2772 3150 2772 3378 
Q 2772 3750 2511 3984 
Q 2250 4219 1831 4219 
Q 1534 4219 1204 4116 
Q 875 4013 500 3803 
L 500 4441 
Q 881 4594 1212 4672 
Q 1544 4750 1819 4750 
Q 2544 4750 2975 4387 
Q 3406 4025 3406 3419 
Q 3406 3131 3298 2873 
Q 3191 2616 2906 2266 
Q 2828 2175 2409 1742 
Q 1991 1309 1228 531 
z
" transform="scale(0.015625)"/>
       </defs>
       <use xlink:href="#DejaVuSans-32"/>
       <use xlink:href="#DejaVuSans-30" x="63.623047"/>
       <use xlink:href="#DejaVuSans-30" x="127.246094"/>
      </g>
     </g>
    </g>
    <g id="xtick_3">
     <g id="line2d_3">
      <g>
       <use xlink:href="#md20d2831f7" x="669.468738" y="318.04" style="stroke: #000000; stroke-width: 0.8"/>
      </g>
     </g>
     <g id="text_3">
      <!-- 400 -->
      <g transform="translate(659.924988 332.638438) scale(0.1 -0.1)">
       <defs>
        <path id="DejaVuSans-34" d="M 2419 4116 
L 825 1625 
L 2419 1625 
L 2419 4116 
z
M 2253 4666 
L 3047 4666 
L 3047 1625 
L 3713 1625 
L 3713 1100 
L 3047 1100 
L 3047 0 
L 2419 0 
L 2419 1100 
L 313 1100 
L 313 1709 
L 2253 4666 
z
" transform="scale(0.015625)"/>
       </defs>
       <use xlink:href="#DejaVuSans-34"/>
       <use xlink:href="#DejaVuSans-30" x="63.623047"/>
       <use xlink:href="#DejaVuSans-30" x="127.246094"/>
      </g>
     </g>
    </g>
    <g id="xtick_4">
     <g id="line2d_4">
      <g>
       <use xlink:href="#md20d2831f7" x="871.954781" y="318.04" style="stroke: #000000; stroke-width: 0.8"/>
      </g>
     </g>
     <g id="text_4">
      <!-- 600 -->
      <g transform="translate(862.411031 332.638438) scale(0.1 -0.1)">
       <defs>
        <path id="DejaVuSans-36" d="M 2113 2584 
Q 1688 2584 1439 2293 
Q 1191 2003 1191 1497 
Q 1191 994 1439 701 
Q 1688 409 2113 409 
Q 2538 409 2786 701 
Q 3034 994 3034 1497 
Q 3034 2003 2786 2293 
Q 2538 2584 2113 2584 
z
M 3366 4563 
L 3366 3988 
Q 3128 4100 2886 4159 
Q 2644 4219 2406 4219 
Q 1781 4219 1451 3797 
Q 1122 3375 1075 2522 
Q 1259 2794 1537 2939 
Q 1816 3084 2150 3084 
Q 2853 3084 3261 2657 
Q 3669 2231 3669 1497 
Q 3669 778 3244 343 
Q 2819 -91 2113 -91 
Q 1303 -91 875 529 
Q 447 1150 447 2328 
Q 447 3434 972 4092 
Q 1497 4750 2381 4750 
Q 2619 4750 2861 4703 
Q 3103 4656 3366 4563 
z
" transform="scale(0.015625)"/>
       </defs>
       <use xlink:href="#DejaVuSans-36"/>
       <use xlink:href="#DejaVuSans-30" x="63.623047"/>
       <use xlink:href="#DejaVuSans-30" x="127.246094"/>
      </g>
     </g>
    </g>
    <g id="xtick_5">
     <g id="line2d_5">
      <g>
       <use xlink:href="#md20d2831f7" x="1074.440824" y="318.04" style="stroke: #000000; stroke-width: 0.8"/>
      </g>
     </g>
     <g id="text_5">
      <!-- 800 -->
      <g transform="translate(1064.897074 332.638438) scale(0.1 -0.1)">
       <defs>
        <path id="DejaVuSans-38" d="M 2034 2216 
Q 1584 2216 1326 1975 
Q 1069 1734 1069 1313 
Q 1069 891 1326 650 
Q 1584 409 2034 409 
Q 2484 409 2743 651 
Q 3003 894 3003 1313 
Q 3003 1734 2745 1975 
Q 2488 2216 2034 2216 
z
M 1403 2484 
Q 997 2584 770 2862 
Q 544 3141 544 3541 
Q 544 4100 942 4425 
Q 1341 4750 2034 4750 
Q 2731 4750 3128 4425 
Q 3525 4100 3525 3541 
Q 3525 3141 3298 2862 
Q 3072 2584 2669 2484 
Q 3125 2378 3379 2068 
Q 3634 1759 3634 1313 
Q 3634 634 3220 271 
Q 2806 -91 2034 -91 
Q 1263 -91 848 271 
Q 434 634 434 1313 
Q 434 1759 690 2068 
Q 947 2378 1403 2484 
z
M 1172 3481 
Q 1172 3119 1398 2916 
Q 1625 2713 2034 2713 
Q 2441 2713 2670 2916 
Q 2900 3119 2900 3481 
Q 2900 3844 2670 4047 
Q 2441 4250 2034 4250 
Q 1625 4250 1398 4047 
Q 1172 3844 1172 3481 
z
" transform="scale(0.015625)"/>
       </defs>
       <use xlink:href="#DejaVuSans-38"/>
       <use xlink:href="#DejaVuSans-30" x="63.623047"/>
       <use xlink:href="#DejaVuSans-30" x="127.246094"/>
      </g>
     </g>
    </g>
    <g id="xtick_6">
     <g id="line2d_6">
      <g>
       <use xlink:href="#md20d2831f7" x="1276.926867" y="318.04" style="stroke: #000000; stroke-width: 0.8"/>
      </g>
     </g>
     <g id="text_6">
      <!-- 1000 -->
      <g transform="translate(1264.201867 332.638438) scale(0.1 -0.1)">
       <defs>
        <path id="DejaVuSans-31" d="M 794 531 
L 1825 531 
L 1825 4091 
L 703 3866 
L 703 4441 
L 1819 4666 
L 2450 4666 
L 2450 531 
L 3481 531 
L 3481 0 
L 794 0 
L 794 531 
z
" transform="scale(0.015625)"/>
       </defs>
       <use xlink:href="#DejaVuSans-31"/>
       <use xlink:href="#DejaVuSans-30" x="63.623047"/>
       <use xlink:href="#DejaVuSans-30" x="127.246094"/>
       <use xlink:href="#DejaVuSans-30" x="190.869141"/>
      </g>
     </g>
    </g>
    <g id="text_7">
     <!-- Length -->
     <g transform="translate(723.431175 346.316563) scale(0.1 -0.1)">
      <defs>
       <path id="DejaVuSans-4c" d="M 628 4666 
L 1259 4666 
L 1259 531 
L 3531 531 
L 3531 0 
L 628 0 
L 628 4666 
z
" transform="scale(0.015625)"/>
       <path id="DejaVuSans-65" d="M 3597 1894 
L 3597 1613 
L 953 1613 
Q 991 1019 1311 708 
Q 1631 397 2203 397 
Q 2534 397 2845 478 
Q 3156 559 3463 722 
L 3463 178 
Q 3153 47 2828 -22 
Q 2503 -91 2169 -91 
Q 1331 -91 842 396 
Q 353 884 353 1716 
Q 353 2575 817 3079 
Q 1281 3584 2069 3584 
Q 2775 3584 3186 3129 
Q 3597 2675 3597 1894 
z
M 3022 2063 
Q 3016 2534 2758 2815 
Q 2500 3097 2075 3097 
Q 1594 3097 1305 2825 
Q 1016 2553 972 2059 
L 3022 2063 
z
" transform="scale(0.015625)"/>
       <path id="DejaVuSans-6e" d="M 3513 2113 
L 3513 0 
L 2938 0 
L 2938 2094 
Q 2938 2591 2744 2837 
Q 2550 3084 2163 3084 
Q 1697 3084 1428 2787 
Q 1159 2491 1159 1978 
L 1159 0 
L 581 0 
L 581 3500 
L 1159 3500 
L 1159 2956 
Q 1366 3272 1645 3428 
Q 1925 3584 2291 3584 
Q 2894 3584 3203 3211 
Q 3513 2838 3513 2113 
z
" transform="scale(0.015625)"/>
       <path id="DejaVuSans-67" d="M 2906 1791 
Q 2906 2416 2648 2759 
Q 2391 3103 1925 3103 
Q 1463 3103 1205 2759 
Q 947 2416 947 1791 
Q 947 1169 1205 825 
Q 1463 481 1925 481 
Q 2391 481 2648 825 
Q 2906 1169 2906 1791 
z
M 3481 434 
Q 3481 -459 3084 -895 
Q 2688 -1331 1869 -1331 
Q 1566 -1331 1297 -1286 
Q 1028 -1241 775 -1147 
L 775 -588 
Q 1028 -725 1275 -790 
Q 1522 -856 1778 -856 
Q 2344 -856 2625 -561 
Q 2906 -266 2906 331 
L 2906 616 
Q 2728 306 2450 153 
Q 2172 0 1784 0 
Q 1141 0 747 490 
Q 353 981 353 1791 
Q 353 2603 747 3093 
Q 1141 3584 1784 3584 
Q 2172 3584 2450 3431 
Q 2728 3278 2906 2969 
L 2906 3500 
L 3481 3500 
L 3481 434 
z
" transform="scale(0.015625)"/>
       <path id="DejaVuSans-74" d="M 1172 4494 
L 1172 3500 
L 2356 3500 
L 2356 3053 
L 1172 3053 
L 1172 1153 
Q 1172 725 1289 603 
Q 1406 481 1766 481 
L 2356 481 
L 2356 0 
L 1766 0 
Q 1100 0 847 248 
Q 594 497 594 1153 
L 594 3053 
L 172 3053 
L 172 3500 
L 594 3500 
L 594 4494 
L 1172 4494 
z
" transform="scale(0.015625)"/>
       <path id="DejaVuSans-68" d="M 3513 2113 
L 3513 0 
L 2938 0 
L 2938 2094 
Q 2938 2591 2744 2837 
Q 2550 3084 2163 3084 
Q 1697 3084 1428 2787 
Q 1159 2491 1159 1978 
L 1159 0 
L 581 0 
L 581 4863 
L 1159 4863 
L 1159 2956 
Q 1366 3272 1645 3428 
Q 1925 3584 2291 3584 
Q 2894 3584 3203 3211 
Q 3513 2838 3513 2113 
z
" transform="scale(0.015625)"/>
      </defs>
      <use xlink:href="#DejaVuSans-4c"/>
      <use xlink:href="#DejaVuSans-65" x="53.962891"/>
      <use xlink:href="#DejaVuSans-6e" x="115.486328"/>
      <use xlink:href="#DejaVuSans-67" x="178.865234"/>
      <use xlink:href="#DejaVuSans-74" x="242.341797"/>
      <use xlink:href="#DejaVuSans-68" x="281.550781"/>
     </g>
    </g>
   </g>
   <g id="matplotlib.axis_2">
    <g id="ytick_1">
     <g id="line2d_7">
      <defs>
       <path id="ma43ac485a8" d="M 0 0 
L -3.5 0 
" style="stroke: #000000; stroke-width: 0.8"/>
      </defs>
      <g>
       <use xlink:href="#ma43ac485a8" x="66.98" y="318.04" style="stroke: #000000; stroke-width: 0.8"/>
      </g>
     </g>
     <g id="text_8">
      <!-- 0.0000 -->
      <g transform="translate(24.989375 321.839219) scale(0.1 -0.1)">
       <defs>
        <path id="DejaVuSans-2e" d="M 684 794 
L 1344 794 
L 1344 0 
L 684 0 
L 684 794 
z
" transform="scale(0.015625)"/>
       </defs>
       <use xlink:href="#DejaVuSans-30"/>
       <use xlink:href="#DejaVuSans-2e" x="63.623047"/>
       <use xlink:href="#DejaVuSans-30" x="95.410156"/>
       <use xlink:href="#DejaVuSans-30" x="159.033203"/>
       <use xlink:href="#DejaVuSans-30" x="222.65625"/>
       <use xlink:href="#DejaVuSans-30" x="286.279297"/>
      </g>
     </g>
    </g>
    <g id="ytick_2">
     <g id="line2d_8">
      <g>
       <use xlink:href="#ma43ac485a8" x="66.98" y="278.676602" style="stroke: #000000; stroke-width: 0.8"/>
      </g>
     </g>
     <g id="text_9">
      <!-- 0.0025 -->
      <g transform="translate(24.989375 282.475821) scale(0.1 -0.1)">
       <defs>
        <path id="DejaVuSans-35" d="M 691 4666 
L 3169 4666 
L 3169 4134 
L 1269 4134 
L 1269 2991 
Q 1406 3038 1543 3061 
Q 1681 3084 1819 3084 
Q 2600 3084 3056 2656 
Q 3513 2228 3513 1497 
Q 3513 744 3044 326 
Q 2575 -91 1722 -91 
Q 1428 -91 1123 -41 
Q 819 9 494 109 
L 494 744 
Q 775 591 1075 516 
Q 1375 441 1709 441 
Q 2250 441 2565 725 
Q 2881 1009 2881 1497 
Q 2881 1984 2565 2268 
Q 2250 2553 1709 2553 
Q 1456 2553 1204 2497 
Q 953 2441 691 2322 
L 691 4666 
z
" transform="scale(0.015625)"/>
       </defs>
       <use xlink:href="#DejaVuSans-30"/>
       <use xlink:href="#DejaVuSans-2e" x="63.623047"/>
       <use xlink:href="#DejaVuSans-30" x="95.410156"/>
       <use xlink:href="#DejaVuSans-30" x="159.033203"/>
       <use xlink:href="#DejaVuSans-32" x="222.65625"/>
       <use xlink:href="#DejaVuSans-35" x="286.279297"/>
      </g>
     </g>
    </g>
    <g id="ytick_3">
     <g id="line2d_9">
      <g>
       <use xlink:href="#ma43ac485a8" x="66.98" y="239.313204" style="stroke: #000000; stroke-width: 0.8"/>
      </g>
     </g>
     <g id="text_10">
      <!-- 0.0050 -->
      <g transform="translate(24.989375 243.112423) scale(0.1 -0.1)">
       <use xlink:href="#DejaVuSans-30"/>
       <use xlink:href="#DejaVuSans-2e" x="63.623047"/>
       <use xlink:href="#DejaVuSans-30" x="95.410156"/>
       <use xlink:href="#DejaVuSans-30" x="159.033203"/>
       <use xlink:href="#DejaVuSans-35" x="222.65625"/>
       <use xlink:href="#DejaVuSans-30" x="286.279297"/>
      </g>
     </g>
    </g>
    <g id="ytick_4">
     <g id="line2d_10">
      <g>
       <use xlink:href="#ma43ac485a8" x="66.98" y="199.949807" style="stroke: #000000; stroke-width: 0.8"/>
      </g>
     </g>
     <g id="text_11">
      <!-- 0.0075 -->
      <g transform="translate(24.989375 203.749025) scale(0.1 -0.1)">
       <defs>
        <path id="DejaVuSans-37" d="M 525 4666 
L 3525 4666 
L 3525 4397 
L 1831 0 
L 1172 0 
L 2766 4134 
L 525 4134 
L 525 4666 
z
" transform="scale(0.015625)"/>
       </defs>
       <use xlink:href="#DejaVuSans-30"/>
       <use xlink:href="#DejaVuSans-2e" x="63.623047"/>
       <use xlink:href="#DejaVuSans-30" x="95.410156"/>
       <use xlink:href="#DejaVuSans-30" x="159.033203"/>
       <use xlink:href="#DejaVuSans-37" x="222.65625"/>
       <use xlink:href="#DejaVuSans-35" x="286.279297"/>
      </g>
     </g>
    </g>
    <g id="ytick_5">
     <g id="line2d_11">
      <g>
       <use xlink:href="#ma43ac485a8" x="66.98" y="160.586409" style="stroke: #000000; stroke-width: 0.8"/>
      </g>
     </g>
     <g id="text_12">
      <!-- 0.0100 -->
      <g transform="translate(24.989375 164.385628) scale(0.1 -0.1)">
       <use xlink:href="#DejaVuSans-30"/>
       <use xlink:href="#DejaVuSans-2e" x="63.623047"/>
       <use xlink:href="#DejaVuSans-30" x="95.410156"/>
       <use xlink:href="#DejaVuSans-31" x="159.033203"/>
       <use xlink:href="#DejaVuSans-30" x="222.65625"/>
       <use xlink:href="#DejaVuSans-30" x="286.279297"/>
      </g>
     </g>
    </g>
    <g id="ytick_6">
     <g id="line2d_12">
      <g>
       <use xlink:href="#ma43ac485a8" x="66.98" y="121.223011" style="stroke: #000000; stroke-width: 0.8"/>
      </g>
     </g>
     <g id="text_13">
      <!-- 0.0125 -->
      <g transform="translate(24.989375 125.02223) scale(0.1 -0.1)">
       <use xlink:href="#DejaVuSans-30"/>
       <use xlink:href="#DejaVuSans-2e" x="63.623047"/>
       <use xlink:href="#DejaVuSans-30" x="95.410156"/>
       <use xlink:href="#DejaVuSans-31" x="159.033203"/>
       <use xlink:href="#DejaVuSans-32" x="222.65625"/>
       <use xlink:href="#DejaVuSans-35" x="286.279297"/>
      </g>
     </g>
    </g>
    <g id="ytick_7">
     <g id="line2d_13">
      <g>
       <use xlink:href="#ma43ac485a8" x="66.98" y="81.859613" style="stroke: #000000; stroke-width: 0.8"/>
      </g>
     </g>
     <g id="text_14">
      <!-- 0.0150 -->
      <g transform="translate(24.989375 85.658832) scale(0.1 -0.1)">
       <use xlink:href="#DejaVuSans-30"/>
       <use xlink:href="#DejaVuSans-2e" x="63.623047"/>
       <use xlink:href="#DejaVuSans-30" x="95.410156"/>
       <use xlink:href="#DejaVuSans-31" x="159.033203"/>
       <use xlink:href="#DejaVuSans-35" x="222.65625"/>
       <use xlink:href="#DejaVuSans-30" x="286.279297"/>
      </g>
     </g>
    </g>
    <g id="ytick_8">
     <g id="line2d_14">
      <g>
       <use xlink:href="#ma43ac485a8" x="66.98" y="42.496216" style="stroke: #000000; stroke-width: 0.8"/>
      </g>
     </g>
     <g id="text_15">
      <!-- 0.0175 -->
      <g transform="translate(24.989375 46.295434) scale(0.1 -0.1)">
       <use xlink:href="#DejaVuSans-30"/>
       <use xlink:href="#DejaVuSans-2e" x="63.623047"/>
       <use xlink:href="#DejaVuSans-30" x="95.410156"/>
       <use xlink:href="#DejaVuSans-31" x="159.033203"/>
       <use xlink:href="#DejaVuSans-37" x="222.65625"/>
       <use xlink:href="#DejaVuSans-35" x="286.279297"/>
      </g>
     </g>
    </g>
    <g id="text_16">
     <!-- Density -->
     <g transform="translate(18.909688 183.428594) rotate(-90) scale(0.1 -0.1)">
      <defs>
       <path id="DejaVuSans-44" d="M 1259 4147 
L 1259 519 
L 2022 519 
Q 2988 519 3436 956 
Q 3884 1394 3884 2338 
Q 3884 3275 3436 3711 
Q 2988 4147 2022 4147 
L 1259 4147 
z
M 628 4666 
L 1925 4666 
Q 3281 4666 3915 4102 
Q 4550 3538 4550 2338 
Q 4550 1131 3912 565 
Q 3275 0 1925 0 
L 628 0 
L 628 4666 
z
" transform="scale(0.015625)"/>
       <path id="DejaVuSans-73" d="M 2834 3397 
L 2834 2853 
Q 2591 2978 2328 3040 
Q 2066 3103 1784 3103 
Q 1356 3103 1142 2972 
Q 928 2841 928 2578 
Q 928 2378 1081 2264 
Q 1234 2150 1697 2047 
L 1894 2003 
Q 2506 1872 2764 1633 
Q 3022 1394 3022 966 
Q 3022 478 2636 193 
Q 2250 -91 1575 -91 
Q 1294 -91 989 -36 
Q 684 19 347 128 
L 347 722 
Q 666 556 975 473 
Q 1284 391 1588 391 
Q 1994 391 2212 530 
Q 2431 669 2431 922 
Q 2431 1156 2273 1281 
Q 2116 1406 1581 1522 
L 1381 1569 
Q 847 1681 609 1914 
Q 372 2147 372 2553 
Q 372 3047 722 3315 
Q 1072 3584 1716 3584 
Q 2034 3584 2315 3537 
Q 2597 3491 2834 3397 
z
" transform="scale(0.015625)"/>
       <path id="DejaVuSans-69" d="M 603 3500 
L 1178 3500 
L 1178 0 
L 603 0 
L 603 3500 
z
M 603 4863 
L 1178 4863 
L 1178 4134 
L 603 4134 
L 603 4863 
z
" transform="scale(0.015625)"/>
       <path id="DejaVuSans-79" d="M 2059 -325 
Q 1816 -950 1584 -1140 
Q 1353 -1331 966 -1331 
L 506 -1331 
L 506 -850 
L 844 -850 
Q 1081 -850 1212 -737 
Q 1344 -625 1503 -206 
L 1606 56 
L 191 3500 
L 800 3500 
L 1894 763 
L 2988 3500 
L 3597 3500 
L 2059 -325 
z
" transform="scale(0.015625)"/>
      </defs>
      <use xlink:href="#DejaVuSans-44"/>
      <use xlink:href="#DejaVuSans-65" x="77.001953"/>
      <use xlink:href="#DejaVuSans-6e" x="138.525391"/>
      <use xlink:href="#DejaVuSans-73" x="201.904297"/>
      <use xlink:href="#DejaVuSans-69" x="254.003906"/>
      <use xlink:href="#DejaVuSans-74" x="281.787109"/>
      <use xlink:href="#DejaVuSans-79" x="320.996094"/>
     </g>
    </g>
   </g>
   <g id="patch_3">
    <path d="M 66.98 318.04 
L 66.98 10.8 
" style="fill: none; stroke: #000000; stroke-width: 0.8; stroke-linejoin: miter; stroke-linecap: square"/>
   </g>
   <g id="patch_4">
    <path d="M 66.98 318.04 
L 1414.3761 318.04 
" style="fill: none; stroke: #000000; stroke-width: 0.8; stroke-linejoin: miter; stroke-linecap: square"/>
   </g>
  </g>
  <g id="legend_1">
   <g id="text_17">
    <!-- Rating -->
    <g transform="translate(1440.090781 146.064063) scale(0.1 -0.1)">
     <defs>
      <path id="DejaVuSans-52" d="M 2841 2188 
Q 3044 2119 3236 1894 
Q 3428 1669 3622 1275 
L 4263 0 
L 3584 0 
L 2988 1197 
Q 2756 1666 2539 1819 
Q 2322 1972 1947 1972 
L 1259 1972 
L 1259 0 
L 628 0 
L 628 4666 
L 2053 4666 
Q 2853 4666 3247 4331 
Q 3641 3997 3641 3322 
Q 3641 2881 3436 2590 
Q 3231 2300 2841 2188 
z
M 1259 4147 
L 1259 2491 
L 2053 2491 
Q 2509 2491 2742 2702 
Q 2975 2913 2975 3322 
Q 2975 3731 2742 3939 
Q 2509 4147 2053 4147 
L 1259 4147 
z
" transform="scale(0.015625)"/>
      <path id="DejaVuSans-61" d="M 2194 1759 
Q 1497 1759 1228 1600 
Q 959 1441 959 1056 
Q 959 750 1161 570 
Q 1363 391 1709 391 
Q 2188 391 2477 730 
Q 2766 1069 2766 1631 
L 2766 1759 
L 2194 1759 
z
M 3341 1997 
L 3341 0 
L 2766 0 
L 2766 531 
Q 2569 213 2275 61 
Q 1981 -91 1556 -91 
Q 1019 -91 701 211 
Q 384 513 384 1019 
Q 384 1609 779 1909 
Q 1175 2209 1959 2209 
L 2766 2209 
L 2766 2266 
Q 2766 2663 2505 2880 
Q 2244 3097 1772 3097 
Q 1472 3097 1187 3025 
Q 903 2953 641 2809 
L 641 3341 
Q 956 3463 1253 3523 
Q 1550 3584 1831 3584 
Q 2591 3584 2966 3190 
Q 3341 2797 3341 1997 
z
" transform="scale(0.015625)"/>
     </defs>
     <use xlink:href="#DejaVuSans-52"/>
     <use xlink:href="#DejaVuSans-61" x="67.232422"/>
     <use xlink:href="#DejaVuSans-74" x="128.511719"/>
     <use xlink:href="#DejaVuSans-69" x="167.720703"/>
     <use xlink:href="#DejaVuSans-6e" x="195.503906"/>
     <use xlink:href="#DejaVuSans-67" x="258.882812"/>
    </g>
   </g>
   <g id="patch_5">
    <path d="M 1439.0275 160.742188 
L 1459.0275 160.742188 
L 1459.0275 153.742188 
L 1439.0275 153.742188 
z
" style="fill: #0b0405; fill-opacity: 0.25; stroke: #0b0405; stroke-linejoin: miter"/>
   </g>
   <g id="text_18">
    <!-- 1 -->
    <g transform="translate(1467.0275 160.742188) scale(0.1 -0.1)">
     <use xlink:href="#DejaVuSans-31"/>
    </g>
   </g>
   <g id="patch_6">
    <path d="M 1439.0275 175.420313 
L 1459.0275 175.420313 
L 1459.0275 168.420313 
L 1439.0275 168.420313 
z
" style="fill: #3e356b; fill-opacity: 0.25; stroke: #3e356b; stroke-linejoin: miter"/>
   </g>
   <g id="text_19">
    <!-- 2 -->
    <g transform="translate(1467.0275 175.420313) scale(0.1 -0.1)">
     <use xlink:href="#DejaVuSans-32"/>
    </g>
   </g>
   <g id="patch_7">
    <path d="M 1439.0275 190.098438 
L 1459.0275 190.098438 
L 1459.0275 183.098438 
L 1439.0275 183.098438 
z
" style="fill: #357ba3; fill-opacity: 0.25; stroke: #357ba3; stroke-linejoin: miter"/>
   </g>
   <g id="text_20">
    <!-- 3 -->
    <g transform="translate(1467.0275 190.098438) scale(0.1 -0.1)">
     <defs>
      <path id="DejaVuSans-33" d="M 2597 2516 
Q 3050 2419 3304 2112 
Q 3559 1806 3559 1356 
Q 3559 666 3084 287 
Q 2609 -91 1734 -91 
Q 1441 -91 1130 -33 
Q 819 25 488 141 
L 488 750 
Q 750 597 1062 519 
Q 1375 441 1716 441 
Q 2309 441 2620 675 
Q 2931 909 2931 1356 
Q 2931 1769 2642 2001 
Q 2353 2234 1838 2234 
L 1294 2234 
L 1294 2753 
L 1863 2753 
Q 2328 2753 2575 2939 
Q 2822 3125 2822 3475 
Q 2822 3834 2567 4026 
Q 2313 4219 1838 4219 
Q 1578 4219 1281 4162 
Q 984 4106 628 3988 
L 628 4550 
Q 988 4650 1302 4700 
Q 1616 4750 1894 4750 
Q 2613 4750 3031 4423 
Q 3450 4097 3450 3541 
Q 3450 3153 3228 2886 
Q 3006 2619 2597 2516 
z
" transform="scale(0.015625)"/>
     </defs>
     <use xlink:href="#DejaVuSans-33"/>
    </g>
   </g>
   <g id="patch_8">
    <path d="M 1439.0275 204.776563 
L 1459.0275 204.776563 
L 1459.0275 197.776563 
L 1439.0275 197.776563 
z
" style="fill: #4bc2ad; fill-opacity: 0.25; stroke: #4bc2ad; stroke-linejoin: miter"/>
   </g>
   <g id="text_21">
    <!-- 4 -->
    <g transform="translate(1467.0275 204.776563) scale(0.1 -0.1)">
     <use xlink:href="#DejaVuSans-34"/>
    </g>
   </g>
   <g id="patch_9">
    <path d="M 1439.0275 219.454688 
L 1459.0275 219.454688 
L 1459.0275 212.454688 
L 1439.0275 212.454688 
z
" style="fill: #def5e5; fill-opacity: 0.25; stroke: #def5e5; stroke-linejoin: miter"/>
   </g>
   <g id="text_22">
    <!-- 5 -->
    <g transform="translate(1467.0275 219.454688) scale(0.1 -0.1)">
     <use xlink:href="#DejaVuSans-35"/>
    </g>
   </g>
  </g>
 </g>
 <defs>
  <clipPath id="p1b3bafa37a">
   <rect x="66.98" y="10.8" width="1347.3961" height="307.24"/>
  </clipPath>
 </defs>
</svg>
